<svg width="537" height="525" viewBox="0 0 537 525" fill="none" xmlns="http://www.w3.org/2000/svg">
<path d="M457.794 260.923C353.39 200.696 184.673 200.696 80.9412 260.923C-22.7901 321.149 -22.1879 418.941 82.2639 479.215C186.716 539.488 355.385 539.5 459.117 479.215C562.848 418.929 562.246 321.208 457.794 260.923Z" fill="#F5F5F5"/>
<path d="M29.6788 352.774C37.402 348.322 49.8842 348.322 57.5602 352.774C65.2361 357.226 65.1889 364.465 57.4657 368.929C49.7425 373.393 37.2603 373.381 29.5962 368.929C21.932 364.477 21.9557 357.238 29.6788 352.774Z" fill="#E0E0E0"/>
<path d="M482.31 320.937C490.411 316.213 503.496 316.213 511.538 320.937C519.58 325.66 519.544 333.195 511.443 337.871C503.342 342.547 490.258 342.595 482.215 337.871C474.173 333.147 474.209 325.613 482.31 320.937Z" fill="#E0E0E0"/>
<path d="M45.2555 391.473C43.8739 392.276 43.8621 393.575 45.2555 394.366L56.4742 400.896C57.2493 401.292 58.1073 401.499 58.9777 401.499C59.8481 401.499 60.7061 401.292 61.4813 400.896L294.452 266.39C294.756 266.29 295.021 266.096 295.209 265.836C295.397 265.577 295.498 265.264 295.498 264.944C295.498 264.623 295.397 264.311 295.209 264.051C295.021 263.791 294.756 263.598 294.452 263.497L283.221 256.967C282.446 256.571 281.588 256.364 280.718 256.364C279.847 256.364 278.989 256.571 278.214 256.967L45.2555 391.473Z" fill="#E0E0E0"/>
<path d="M496.872 375.897C496.973 375.932 497.061 375.999 497.123 376.086C497.186 376.174 497.219 376.279 497.219 376.387C497.219 376.494 497.186 376.599 497.123 376.687C497.061 376.775 496.973 376.841 496.872 376.877L493.069 379.085C492.806 379.219 492.515 379.289 492.219 379.289C491.924 379.289 491.632 379.219 491.369 379.085L406.261 330.183C406.16 330.145 406.074 330.077 406.013 329.988C405.952 329.9 405.92 329.795 405.92 329.687C405.92 329.58 405.952 329.475 406.013 329.387C406.074 329.298 406.16 329.23 406.261 329.191L410.063 326.983C410.326 326.855 410.615 326.788 410.907 326.788C411.2 326.788 411.489 326.855 411.752 326.983L496.872 375.897Z" fill="#E0E0E0"/>
<path d="M148.479 442.205C170.716 429.356 206.663 429.356 228.781 442.205C250.9 455.053 250.758 475.861 228.521 488.709C206.285 501.557 170.326 501.545 148.219 488.709C126.113 475.872 126.231 455.041 148.479 442.205Z" fill="#E0E0E0"/>
<path d="M391.664 340.15C372.202 328.92 340.755 328.92 321.423 340.15C302.092 351.381 302.198 369.602 321.648 380.833C341.097 392.063 372.557 392.063 391.888 380.833C411.22 369.602 411.161 351.381 391.664 340.15Z" fill="#E0E0E0"/>
<path d="M198.762 412.989L215.294 422.531C216.192 423.049 217.21 423.322 218.247 423.322C219.283 423.322 220.301 423.049 221.199 422.531L305.363 373.948C305.544 373.845 305.695 373.696 305.801 373.515C305.906 373.335 305.961 373.129 305.961 372.921C305.961 372.712 305.906 372.506 305.801 372.326C305.695 372.146 305.544 371.996 305.363 371.893L288.605 362.446C287.708 361.928 286.69 361.655 285.653 361.655C284.617 361.655 283.598 361.928 282.701 362.446L198.714 410.934C198.535 411.041 198.387 411.194 198.286 411.377C198.185 411.56 198.134 411.766 198.139 411.975C198.144 412.184 198.204 412.388 198.313 412.566C198.423 412.744 198.577 412.89 198.762 412.989Z" fill="#E0E0E0"/>
<path d="M336.562 63.4742L340.967 60.9116L387.531 87.6947V92.7963L336.562 63.4742Z" fill="#F5F5F5"/>
<path d="M336.563 63.4741L387.531 92.7962V98.6063L336.551 69.3196L336.563 63.4741Z" fill="#E0E0E0"/>
<path d="M414.149 108.113L418.554 105.55L465.118 132.333V137.423L414.149 108.113Z" fill="#F5F5F5"/>
<path d="M414.149 108.113L465.117 137.423V143.245L414.137 113.958L414.149 108.113Z" fill="#E0E0E0"/>
<path d="M336.811 14.5372L341.215 11.9746L340.956 143.824L336.551 146.386L336.811 14.5372Z" fill="#F0F0F0"/>
<path d="M336.551 146.386L340.956 143.824L391.676 172.933L387.271 175.496L336.551 146.386Z" fill="#F5F5F5"/>
<path d="M331.756 5.73926L392.609 40.7533L392.325 184.246L331.438 149.279L331.756 5.73926ZM387.259 175.448L387.519 43.6111L336.811 14.5371L336.551 146.386L387.271 175.495" fill="#E0E0E0"/>
<path d="M331.756 5.7867L336.161 3.22412L397.025 38.191L392.608 40.7535L331.756 5.7867Z" fill="#F5F5F5"/>
<path d="M392.61 40.7535L397.026 38.1909L396.731 181.684L392.326 184.246L392.61 40.7535Z" fill="#F0F0F0"/>
<path d="M414.397 59.1759L418.801 56.6133L418.542 188.462L414.137 191.025L414.397 59.1759Z" fill="#F0F0F0"/>
<path d="M414.137 191.024L418.542 188.462L469.262 217.571L464.857 220.134L414.137 191.024Z" fill="#F5F5F5"/>
<path d="M409.378 50.4253L470.23 85.3921L469.911 228.932L409.047 193.965L409.378 50.4253ZM464.88 220.134L465.14 88.2854L414.396 59.1759L414.101 191.025L464.88 220.134Z" fill="#E0E0E0"/>
<path d="M409.342 50.4254L413.747 47.8628L474.599 82.8296L470.194 85.3922L409.342 50.4254Z" fill="#F5F5F5"/>
<path d="M470.195 85.3917L474.599 82.8291L474.316 226.322L469.911 228.884L470.195 85.3917Z" fill="#F0F0F0"/>
<path d="M24.8714 327.125L43.577 327.668L62.2709 327.125C63.0739 339.749 60.6058 352.621 57.2166 358.903C56.4146 360.519 55.1203 361.838 53.5203 362.67C48.0055 365.847 39.0896 365.847 33.6101 362.67C31.9794 361.838 30.671 360.488 29.8903 358.833C26.5129 352.479 24.0684 339.69 24.8714 327.125Z" fill="white"/>
<path d="M30.3984 319.461C23.0649 323.689 23.0295 330.55 30.3039 334.813C37.5783 339.076 49.4229 339.04 56.7563 334.813C64.0898 330.585 64.1134 323.724 56.839 319.461C49.5646 315.198 37.72 315.233 30.3984 319.461Z" fill="#EBEBEB"/>
<path d="M33.2908 321.149C27.5752 324.444 27.5516 329.794 33.22 333.1C38.8884 336.407 48.1349 336.395 53.8505 333.1C59.5661 329.805 59.6016 324.444 53.9214 321.149C48.2412 317.855 39.0064 317.843 33.2908 321.149Z" fill="#E0E0E0"/>
<g opacity="0.15">
<path d="M33.2908 321.149C27.5752 324.444 27.5516 329.794 33.22 333.1C38.8884 336.407 48.1349 336.395 53.8505 333.1C59.5661 329.805 59.6016 324.444 53.9214 321.149C48.2412 317.855 39.0064 317.843 33.2908 321.149Z" fill="black"/>
</g>
<path d="M12.8262 247.331C54.9729 261.135 55.339 289.324 45.8917 309.399C43.5299 313.462 36.2555 315.635 29.9376 290.67L40.9319 292.099L28.0599 285.616L24.718 275.602L35.4643 276.405L21.8129 270.654C19.3076 262.699 16.3061 254.91 12.8262 247.331Z" fill="#407BFF"/>
<path opacity="0.2" d="M12.8262 247.331C54.9729 261.135 55.339 289.324 45.8917 309.399C43.5299 313.462 36.2555 315.635 29.9376 290.67L40.9319 292.099L28.0599 285.616L24.718 275.602L35.4643 276.405L21.8129 270.654C19.3076 262.699 16.3061 254.91 12.8262 247.331Z" fill="black"/>
<path opacity="0.2" d="M12.8262 247.331C54.9729 261.135 55.339 289.324 45.8917 309.399C43.5299 313.462 36.2555 315.635 29.9376 290.67L40.9319 292.099L28.0599 285.616L24.718 275.602L35.4643 276.405L21.8129 270.654C19.3076 262.699 16.3061 254.91 12.8262 247.331Z" fill="white"/>
<path d="M24.7529 254.381C46.9659 271.244 48.9735 290.588 42.7028 310.769C44.9229 292.997 47.3202 274.988 24.7529 254.381Z" fill="white"/>
<path d="M84.2007 275.968C42.668 281.813 37.6255 308.053 43.1404 328.282C44.6992 332.463 51.0879 335.698 61.1021 313.497L50.5683 312.978L63.6646 309.033L68.3883 300.271L58.2443 299.22L71.9074 296.15C75.5885 289.177 79.6939 282.437 84.2007 275.968Z" fill="#407BFF"/>
<path opacity="0.2" d="M84.2007 275.968C42.668 281.813 37.6255 308.053 43.1404 328.282C44.6992 332.463 51.0879 335.698 61.1021 313.497L50.5683 312.978L63.6646 309.033L68.3883 300.271L58.2443 299.22L71.9074 296.15C75.5885 289.177 79.6939 282.437 84.2007 275.968Z" fill="white"/>
<path opacity="0.1" d="M84.2007 275.968C42.668 281.813 37.6255 308.053 43.1404 328.282C44.6992 332.463 51.0879 335.698 61.1021 313.497L50.5683 312.978L63.6646 309.033L68.3883 300.271L58.2443 299.22L71.9074 296.15C75.5885 289.177 79.6939 282.437 84.2007 275.968Z" fill="black"/>
<path d="M71.9306 280.55C48.4304 292.571 43.3525 310.238 45.8443 330.148C46.7299 313.167 47.4857 296.032 71.9306 280.55Z" fill="white"/>
<path d="M0.674805 285.781C38.7592 286.407 46.2344 309.4 43.5419 328.294C42.609 332.238 37.2122 335.864 25.6865 316.981L35.1338 315.328L22.8878 313.237L17.5973 305.869L26.6195 303.79L13.9601 302.55C9.87824 296.694 5.4415 291.094 0.674805 285.781Z" fill="#407BFF"/>
<path d="M12.248 288.544C34.7681 296.74 41.3221 312.104 41.2985 330.266C38.5706 315.139 36.0198 299.787 12.248 288.544Z" fill="white"/>
<path opacity="0.2" d="M0.674805 285.781C38.7592 286.407 46.2344 309.4 43.5419 328.294C42.609 332.238 37.2122 335.864 25.6865 316.981L35.1338 315.328L22.8878 313.237L17.5973 305.869L26.6195 303.79L13.9601 302.55C9.87824 296.694 5.4415 291.094 0.674805 285.781Z" fill="white"/>
<path d="M477.268 294.036L496.871 294.602L516.486 294.036C517.324 307.274 514.738 320.772 511.184 327.361C510.342 329.052 508.986 330.433 507.31 331.305C501.524 334.647 492.171 334.647 486.42 331.305C484.717 330.42 483.355 328.996 482.546 327.255C478.98 320.63 476.429 307.203 477.268 294.036Z" fill="white"/>
<path d="M483.054 285.994C475.378 290.434 475.33 297.626 482.971 302.066C490.611 306.506 503.046 306.494 510.699 302.066C518.351 297.638 518.422 290.434 510.781 285.994C503.141 281.553 490.741 281.565 483.054 285.994Z" fill="#EBEBEB"/>
<path d="M486.136 287.765C480.148 291.225 480.113 296.834 486.065 300.294C492.017 303.755 501.712 303.755 507.699 300.294C513.686 296.834 513.734 291.225 507.77 287.765C501.806 284.305 492.04 284.305 486.136 287.765Z" fill="#E0E0E0"/>
<g opacity="0.15">
<path d="M486.137 287.765C480.149 291.225 480.114 296.834 486.066 300.294C492.018 303.755 501.713 303.755 507.7 300.294C513.687 296.834 513.735 291.225 507.771 287.765C501.807 284.305 492.041 284.305 486.137 287.765Z" fill="black"/>
</g>
<path d="M506.872 253.908C510.06 249.94 513.768 246.386 516.697 242.217C518.693 239.383 520.358 235.899 519.519 232.534C519.05 230.987 518.158 229.603 516.944 228.536C515.729 227.47 514.241 226.764 512.647 226.499C509.428 226.018 506.145 226.75 503.435 228.554C500.755 230.353 498.399 232.593 496.468 235.179C485.437 249.161 480.222 266.859 481.907 284.588C481.937 286.62 482.57 288.597 483.726 290.269C484.433 291.104 485.367 291.717 486.414 292.036C487.461 292.354 488.578 292.364 489.631 292.064C494.968 290.469 494.26 283.254 495.134 279.073C496.336 273.244 498.406 267.627 501.274 262.411C502.884 259.416 504.757 256.57 506.872 253.908Z" fill="#407BFF"/>
<path opacity="0.2" d="M506.872 253.908C510.06 249.94 513.768 246.386 516.697 242.217C518.693 239.383 520.358 235.899 519.519 232.534C519.05 230.987 518.158 229.603 516.944 228.536C515.729 227.47 514.241 226.764 512.647 226.499C509.428 226.018 506.145 226.75 503.435 228.554C500.755 230.353 498.399 232.593 496.468 235.179C485.437 249.161 480.222 266.859 481.907 284.588C481.937 286.62 482.57 288.597 483.726 290.269C484.433 291.104 485.367 291.717 486.414 292.036C487.461 292.354 488.578 292.364 489.631 292.064C494.968 290.469 494.26 283.254 495.134 279.073C496.336 273.244 498.406 267.627 501.274 262.411C502.884 259.416 504.757 256.57 506.872 253.908Z" fill="white"/>
<path d="M489.254 286.679C489.357 286.658 489.449 286.604 489.518 286.525C489.586 286.446 489.626 286.346 489.632 286.242C489.998 277.668 492.785 248.453 512.955 231.802C513.052 231.723 513.113 231.609 513.127 231.486C513.14 231.362 513.104 231.238 513.026 231.14C512.946 231.046 512.832 230.987 512.709 230.973C512.586 230.96 512.463 230.995 512.365 231.07C491.899 247.921 489.077 277.527 488.746 286.206C488.743 286.328 488.786 286.446 488.868 286.536C488.949 286.626 489.062 286.681 489.183 286.691L489.254 286.679Z" fill="#F0F0F0"/>
<path d="M486.302 287.612C486.729 289.488 487.529 291.258 488.655 292.819C489.781 294.379 491.21 295.696 492.856 296.693C495.941 298.152 499.372 298.725 502.764 298.346C506.2 297.967 509.579 297.174 512.825 295.984C514.443 295.441 516.238 294.709 516.368 292.701C516.393 292.174 516.299 291.649 516.095 291.162C515.891 290.676 515.581 290.242 515.187 289.891C514.855 289.567 514.504 289.263 514.136 288.981C513.971 288.853 513.849 288.677 513.786 288.478C513.723 288.279 513.721 288.065 513.781 287.865C513.841 287.665 513.96 287.487 514.122 287.356C514.284 287.224 514.483 287.145 514.691 287.127C515.654 287.069 516.612 286.951 517.561 286.773C519.773 286.416 521.851 285.479 523.583 284.057C524.836 282.935 525.79 281.519 526.358 279.936C526.843 278.589 526.984 276.901 525.957 275.897C525.324 275.367 524.554 275.027 523.737 274.917C523.012 274.767 522.292 274.637 521.576 274.527C521.369 274.496 521.177 274.398 521.031 274.249C520.885 274.099 520.792 273.905 520.767 273.697C520.741 273.489 520.785 273.279 520.89 273.098C520.996 272.918 521.158 272.776 521.351 272.697L524.398 271.433C525.271 271.146 526.061 270.651 526.701 269.992C527.099 269.379 527.358 268.686 527.46 267.962C527.562 267.237 527.504 266.5 527.291 265.8C526.913 263.899 526.264 262.057 525.815 260.179C525.284 258.302 525.215 256.325 525.614 254.416C519.909 253.797 514.139 254.197 508.574 255.597C506.898 255.95 505.314 256.645 503.921 257.64C502.02 259.152 501.559 261.431 501.736 263.899C501.739 263.999 501.709 264.097 501.65 264.178C501.59 264.259 501.506 264.318 501.409 264.345C501.313 264.372 501.21 264.366 501.118 264.328C501.025 264.29 500.947 264.222 500.898 264.135L498.961 260.592C498.668 260.084 498.195 259.703 497.637 259.524C497.078 259.345 496.472 259.381 495.938 259.624C494.232 260.49 492.721 261.696 491.498 263.167C490.816 263.94 490.296 264.842 489.97 265.82C489.643 266.798 489.516 267.831 489.597 268.859C489.826 271.681 490.3 274.479 491.014 277.22C491.044 277.369 491.03 277.525 490.973 277.667C490.916 277.809 490.819 277.931 490.693 278.018C490.567 278.105 490.418 278.152 490.265 278.155C490.112 278.158 489.962 278.116 489.833 278.034L489.738 277.963C489.216 277.564 488.563 277.374 487.908 277.432C486.195 277.645 485.747 279.381 485.64 280.869C485.595 283.134 485.817 285.398 486.302 287.612Z" fill="#407BFF"/>
<path opacity="0.2" d="M486.302 287.612C486.729 289.488 487.529 291.258 488.655 292.819C489.781 294.379 491.21 295.696 492.856 296.693C495.941 298.152 499.372 298.725 502.764 298.346C506.2 297.967 509.579 297.174 512.825 295.984C514.443 295.441 516.238 294.709 516.368 292.701C516.393 292.174 516.299 291.649 516.095 291.162C515.891 290.676 515.581 290.242 515.187 289.891C514.855 289.567 514.504 289.263 514.136 288.981C513.971 288.853 513.849 288.677 513.786 288.478C513.723 288.279 513.721 288.065 513.781 287.865C513.841 287.665 513.96 287.487 514.122 287.356C514.284 287.224 514.483 287.145 514.691 287.127C515.654 287.069 516.612 286.951 517.561 286.773C519.773 286.416 521.851 285.479 523.583 284.057C524.836 282.935 525.79 281.519 526.358 279.936C526.843 278.589 526.984 276.901 525.957 275.897C525.324 275.367 524.554 275.027 523.737 274.917C523.012 274.767 522.292 274.637 521.576 274.527C521.369 274.496 521.177 274.398 521.031 274.249C520.885 274.099 520.792 273.905 520.767 273.697C520.741 273.489 520.785 273.279 520.89 273.098C520.996 272.918 521.158 272.776 521.351 272.697L524.398 271.433C525.271 271.146 526.061 270.651 526.701 269.992C527.099 269.379 527.358 268.686 527.46 267.962C527.562 267.237 527.504 266.5 527.291 265.8C526.913 263.899 526.264 262.057 525.815 260.179C525.284 258.302 525.215 256.325 525.614 254.416C519.909 253.797 514.139 254.197 508.574 255.597C506.898 255.95 505.314 256.645 503.921 257.64C502.02 259.152 501.559 261.431 501.736 263.899C501.739 263.999 501.709 264.097 501.65 264.178C501.59 264.259 501.506 264.318 501.409 264.345C501.313 264.372 501.21 264.366 501.118 264.328C501.025 264.29 500.947 264.222 500.898 264.135L498.961 260.592C498.668 260.084 498.195 259.703 497.637 259.524C497.078 259.345 496.472 259.381 495.938 259.624C494.232 260.49 492.721 261.696 491.498 263.167C490.816 263.94 490.296 264.842 489.97 265.82C489.643 266.798 489.516 267.831 489.597 268.859C489.826 271.681 490.3 274.479 491.014 277.22C491.044 277.369 491.03 277.525 490.973 277.667C490.916 277.809 490.819 277.931 490.693 278.018C490.567 278.105 490.418 278.152 490.265 278.155C490.112 278.158 489.962 278.116 489.833 278.034L489.738 277.963C489.216 277.564 488.563 277.374 487.908 277.432C486.195 277.645 485.747 279.381 485.64 280.869C485.595 283.134 485.817 285.398 486.302 287.612Z" fill="black"/>
<path opacity="0.2" d="M486.302 287.612C486.729 289.488 487.529 291.258 488.655 292.819C489.781 294.379 491.21 295.696 492.856 296.693C495.941 298.152 499.372 298.725 502.764 298.346C506.2 297.967 509.579 297.174 512.825 295.984C514.443 295.441 516.238 294.709 516.368 292.701C516.393 292.174 516.299 291.649 516.095 291.162C515.891 290.676 515.581 290.242 515.187 289.891C514.855 289.567 514.504 289.263 514.136 288.981C513.971 288.853 513.849 288.677 513.786 288.478C513.723 288.279 513.721 288.065 513.781 287.865C513.841 287.665 513.96 287.487 514.122 287.356C514.284 287.224 514.483 287.145 514.691 287.127C515.654 287.069 516.612 286.951 517.561 286.773C519.773 286.416 521.851 285.479 523.583 284.057C524.836 282.935 525.79 281.519 526.358 279.936C526.843 278.589 526.984 276.901 525.957 275.897C525.324 275.367 524.554 275.027 523.737 274.917C523.012 274.767 522.292 274.637 521.576 274.527C521.369 274.496 521.177 274.398 521.031 274.249C520.885 274.099 520.792 273.905 520.767 273.697C520.741 273.489 520.785 273.279 520.89 273.098C520.996 272.918 521.158 272.776 521.351 272.697L524.398 271.433C525.271 271.146 526.061 270.651 526.701 269.992C527.099 269.379 527.358 268.686 527.46 267.962C527.562 267.237 527.504 266.5 527.291 265.8C526.913 263.899 526.264 262.057 525.815 260.179C525.284 258.302 525.215 256.325 525.614 254.416C519.909 253.797 514.139 254.197 508.574 255.597C506.898 255.95 505.314 256.645 503.921 257.64C502.02 259.152 501.559 261.431 501.736 263.899C501.739 263.999 501.709 264.097 501.65 264.178C501.59 264.259 501.506 264.318 501.409 264.345C501.313 264.372 501.21 264.366 501.118 264.328C501.025 264.29 500.947 264.222 500.898 264.135L498.961 260.592C498.668 260.084 498.195 259.703 497.637 259.524C497.078 259.345 496.472 259.381 495.938 259.624C494.232 260.49 492.721 261.696 491.498 263.167C490.816 263.94 490.296 264.842 489.97 265.82C489.643 266.798 489.516 267.831 489.597 268.859C489.826 271.681 490.3 274.479 491.014 277.22C491.044 277.369 491.03 277.525 490.973 277.667C490.916 277.809 490.819 277.931 490.693 278.018C490.567 278.105 490.418 278.152 490.265 278.155C490.112 278.158 489.962 278.116 489.833 278.034L489.738 277.963C489.216 277.564 488.563 277.374 487.908 277.432C486.195 277.645 485.747 279.381 485.64 280.869C485.595 283.134 485.817 285.398 486.302 287.612Z" fill="white"/>
<path d="M495.335 296.244C496.41 291.674 497.949 287.227 499.929 282.971C499.924 282.903 499.935 282.836 499.962 282.774C499.989 282.713 500.03 282.658 500.082 282.616L500.401 281.919C499.843 276.616 498.306 271.463 495.867 266.721C495.836 266.668 495.817 266.61 495.809 266.55C495.801 266.49 495.805 266.428 495.821 266.37C495.837 266.311 495.865 266.256 495.902 266.208C495.939 266.16 495.985 266.12 496.038 266.089C496.091 266.059 496.149 266.04 496.209 266.032C496.269 266.024 496.331 266.028 496.389 266.044C496.448 266.06 496.503 266.087 496.551 266.124C496.599 266.162 496.639 266.208 496.67 266.261C498.967 270.691 500.481 275.485 501.145 280.432C505.03 272.649 511.218 263.556 520.772 256.908C520.873 256.859 520.989 256.847 521.098 256.876C521.207 256.904 521.302 256.971 521.367 257.064C521.431 257.157 521.46 257.269 521.448 257.381C521.437 257.493 521.385 257.598 521.303 257.675C511.455 264.525 505.231 274.031 501.452 281.919C506.538 279.616 512.186 278.848 517.702 279.711C517.824 279.737 517.93 279.809 517.999 279.913C518.067 280.017 518.092 280.144 518.068 280.266C518.049 280.356 518.004 280.439 517.939 280.504C517.874 280.569 517.792 280.614 517.702 280.632H517.525C517.43 280.632 508.514 278.991 500.803 283.301C498.844 287.524 497.32 291.936 496.256 296.468C496.238 296.558 496.193 296.641 496.128 296.706C496.063 296.771 495.98 296.816 495.89 296.834H495.713C495.649 296.822 495.588 296.796 495.533 296.76C495.479 296.723 495.433 296.675 495.398 296.62C495.362 296.565 495.339 296.503 495.328 296.438C495.317 296.374 495.32 296.308 495.335 296.244Z" fill="#F0F0F0"/>
<path d="M282.382 266.945C280.322 267.994 278.044 268.54 275.733 268.54C273.422 268.54 271.144 267.994 269.085 266.945C267.242 265.883 266.31 264.489 266.31 263.096V268.54C266.31 269.933 267.242 271.327 269.085 272.389C271.144 273.438 273.422 273.984 275.733 273.984C278.044 273.984 280.322 273.438 282.382 272.389C283.136 272.045 283.787 271.508 284.268 270.832C284.749 270.156 285.043 269.365 285.122 268.54V263.096C285.043 263.921 284.749 264.712 284.268 265.388C283.787 266.064 283.136 266.601 282.382 266.945Z" fill="#E0E0E0"/>
<path d="M269.085 266.945C271.145 267.994 273.423 268.54 275.734 268.54C278.045 268.54 280.323 267.994 282.382 266.945C283.188 266.674 283.888 266.156 284.385 265.466C284.881 264.775 285.148 263.946 285.148 263.095C285.148 262.245 284.881 261.416 284.385 260.725C283.888 260.035 283.188 259.517 282.382 259.246C280.324 258.192 278.046 257.642 275.734 257.642C273.422 257.642 271.143 258.192 269.085 259.246C268.328 259.585 267.675 260.121 267.195 260.798C266.716 261.475 266.426 262.268 266.357 263.095C266.31 264.489 267.243 265.882 269.085 266.945Z" fill="#F0F0F0"/>
<path d="M273.054 13.3325V262.505C273.075 262.739 273.159 262.963 273.296 263.154C273.433 263.345 273.618 263.496 273.833 263.592C274.417 263.888 275.062 264.043 275.717 264.043C276.371 264.043 277.017 263.888 277.6 263.592C277.815 263.496 278 263.345 278.137 263.154C278.274 262.963 278.358 262.739 278.38 262.505V13.3325H273.054Z" fill="#E0E0E0"/>
<path d="M274.471 11.0298C275.066 11.4153 275.561 11.9384 275.912 12.5549C276.264 13.1715 276.462 13.8635 276.49 14.5726C276.49 15.8598 275.569 16.3676 274.459 15.7535C273.874 15.3717 273.387 14.8572 273.038 14.2519C272.689 13.6466 272.488 12.9675 272.451 12.2698C272.451 10.8999 273.36 10.3803 274.471 11.0298Z" fill="#E0E0E0"/>
<path d="M296.518 2.77515C296.524 2.73995 296.524 2.70406 296.518 2.66887V2.57439C296.518 2.57439 296.518 2.50354 296.518 2.47992C296.518 2.4563 296.518 2.40906 296.518 2.37364C296.518 2.37364 296.518 2.30278 296.518 2.26735C296.523 2.23214 296.523 2.19628 296.518 2.16107V2.0666C296.524 2.02751 296.524 1.98759 296.518 1.94851V1.87765V1.78318V1.6769V1.60604V1.51157V1.44072V1.34624L296.459 1.23996V1.15729L296.4 1.05101V0.991967C296.374 0.969589 296.353 0.941225 296.341 0.909303L296.258 0.779402L296.128 0.602268L296.034 0.484174L295.963 0.389703L295.88 0.295228L295.809 0.212565L295.715 0.129901L295.62 0.0590447H295.526H295.443L295.349 0H295.278H295.195H295.112H295.03H294.487H294.369H294.262L294.109 0.0708564L274.033 11.7265L274.199 11.6556H274.317H274.695H274.86H275.037L275.226 11.7383L275.427 11.8446L275.627 11.9745L275.816 12.1044L275.994 12.2461C276.052 12.2982 276.107 12.3534 276.159 12.4114C276.217 12.4754 276.273 12.5424 276.324 12.6121L276.49 12.8247L276.631 13.0255L276.702 13.1554L276.773 13.2617L276.867 13.4388C276.908 13.5152 276.943 13.5941 276.974 13.675L277.068 13.9112C277.068 13.9938 277.127 14.0765 277.151 14.1473L277.222 14.3717C277.226 14.4504 277.226 14.5292 277.222 14.6079V14.8441C277.222 14.9267 277.222 15.0094 277.222 15.0803C277.216 15.1549 277.216 15.2299 277.222 15.3046C277.228 15.3674 277.228 15.4308 277.222 15.4936C277.222 15.4936 277.222 15.6117 277.222 15.6707C277.226 15.7178 277.226 15.7653 277.222 15.8124C277.199 15.8621 277.171 15.9096 277.139 15.9541C277.118 15.9908 277.09 16.0229 277.056 16.0486C277.056 16.0486 277.056 16.1077 276.974 16.1195L276.856 16.2021L296.931 4.54652L297.049 4.46385L297.12 4.38119L297.191 4.2749L297.262 4.13319V4.03872V3.93244V3.25932C297.267 3.22413 297.267 3.18824 297.262 3.15304V3.05856C297.262 3.05856 297.262 3.05857 297.262 2.96409V2.86962L296.518 2.77515Z" fill="#E6E6E6"/>
<path d="M61.0078 131.802V333.218L273.241 210.899V8.84521L61.0078 131.802Z" fill="#407BFF"/>
<path opacity="0.4" d="M61.0078 131.802V333.218L273.241 210.899V8.84521L61.0078 131.802Z" fill="white"/>
<path d="M65.2827 129.369C66.5197 130.174 67.5486 131.26 68.2855 132.539C69.0223 133.818 69.4461 135.252 69.5222 136.726C69.5222 139.431 67.5973 140.517 65.2473 139.159C64.0119 138.355 62.9839 137.271 62.2471 135.994C61.5104 134.718 61.0857 133.285 61.0078 131.814C61.0078 129.109 62.9209 128.011 65.2827 129.369Z" fill="#407BFF"/>
<path d="M282.618 13.3443V13.1436C282.618 13.1436 282.618 13.0727 282.618 13.0491C282.618 13.0491 282.618 13.0491 282.618 12.9783C282.618 12.7657 282.618 12.7657 282.618 12.5531L282.618 12.3524C282.611 12.2777 282.611 12.2026 282.618 12.128C282.618 12.128 282.618 12.128 282.618 12.0571C282.624 12.0219 282.624 11.9861 282.618 11.9509C282.603 11.875 282.583 11.8001 282.559 11.7265C282.563 11.6714 282.563 11.6162 282.559 11.5612V11.5021L282.488 11.2895C282.468 11.2123 282.44 11.1372 282.406 11.0652V10.9943C282.406 10.9943 282.406 10.8998 282.406 10.8644L282.323 10.6519L282.252 10.5101V10.3448C282.226 10.2719 282.194 10.2008 282.158 10.1323L282.051 9.90788L281.957 9.73074L281.839 9.50637L281.366 9.282L281.248 9.09305L281.083 8.82144L280.811 8.43174L280.622 8.18375L280.457 7.98299L280.292 7.78224L280.126 7.6051C280.09 7.56283 280.051 7.52335 280.008 7.48701L279.831 7.29806L279.737 7.2154L279.548 7.05007L279.465 6.97922L279.276 6.83751L279.146 6.73122L278.969 6.61314L278.792 6.50685L278.662 6.42419L278.485 6.34152L278.379 6.28248H278.308L278.143 6.21162L277.965 6.14077H277.847H277.67L277.115 5.73926H277.021H276.844H276.229H275.981H275.922L275.686 5.7983C275.576 5.83976 275.469 5.89114 275.367 5.95182L62.248 129.074L62.5787 128.92L62.8385 128.849C62.9445 128.838 63.0514 128.838 63.1573 128.849H63.5825H63.9368L64.3146 128.956C64.4563 129.001 64.5945 129.056 64.728 129.121L65.1531 129.334L65.5782 129.605L65.9679 129.889L66.334 130.207C66.4606 130.313 66.579 130.427 66.6883 130.55L67.0426 130.963C67.1606 131.105 67.2787 131.258 67.385 131.412C67.4928 131.547 67.5915 131.689 67.6802 131.837L67.8574 132.109L67.9991 132.333C67.9949 132.372 67.9949 132.412 67.9991 132.451L68.2117 132.841C68.2943 133.006 68.377 133.172 68.4478 133.337C68.5187 133.502 68.5777 133.668 68.6368 133.833C68.7076 134.01 68.7549 134.175 68.8139 134.341L68.9438 134.825C68.9438 134.99 69.0147 135.167 69.0383 135.333C69.0383 135.51 69.0383 135.675 69.0383 135.84C69.0383 136.006 69.0383 136.171 69.0383 136.336C69.0383 136.502 69.0383 136.655 69.0383 136.797C69.0457 136.927 69.0457 137.057 69.0383 137.187C69.0383 137.305 69.0383 137.423 68.9438 137.541V137.6C68.9078 137.705 68.8644 137.808 68.8139 137.907C68.7659 138.013 68.7107 138.116 68.6486 138.214C68.5895 138.285 68.5423 138.368 68.4833 138.427L68.4124 138.497L68.2589 138.663L68.188 138.722L67.94 138.887L281.39 16.273L281.626 16.0959L281.697 16.0368L281.862 15.8833L281.921 15.8124C281.983 15.7427 282.038 15.6676 282.087 15.5881L282.252 15.2928C282.287 15.229 282.314 15.1617 282.335 15.0921V14.9976V14.9268C282.335 14.8559 282.335 14.7732 282.335 14.7024C282.336 14.6749 282.336 14.6473 282.335 14.6197C282.33 14.5924 282.33 14.5644 282.335 14.5371C282.341 14.4703 282.341 14.4031 282.335 14.3363C282.341 14.2972 282.341 14.2573 282.335 14.2182V14.0056C282.34 13.9389 282.34 13.8717 282.335 13.8049C282.341 13.7342 282.341 13.6631 282.335 13.5923C282.443 13.5268 282.539 13.4429 282.618 13.3443Z" fill="#407BFF"/>
<path opacity="0.2" d="M282.618 13.3443V13.1436C282.618 13.1436 282.618 13.0727 282.618 13.0491C282.618 13.0491 282.618 13.0491 282.618 12.9783C282.618 12.7657 282.618 12.7657 282.618 12.5531L282.618 12.3524C282.611 12.2777 282.611 12.2026 282.618 12.128C282.618 12.128 282.618 12.128 282.618 12.0571C282.624 12.0219 282.624 11.9861 282.618 11.9509C282.603 11.875 282.583 11.8001 282.559 11.7265C282.563 11.6714 282.563 11.6162 282.559 11.5612V11.5021L282.488 11.2895C282.468 11.2123 282.44 11.1372 282.406 11.0652V10.9943C282.406 10.9943 282.406 10.8998 282.406 10.8644L282.323 10.6519L282.252 10.5101V10.3448C282.226 10.2719 282.194 10.2008 282.158 10.1323L282.051 9.90788L281.957 9.73074L281.839 9.50637L281.366 9.282L281.248 9.09305L281.083 8.82144L280.811 8.43174L280.622 8.18375L280.457 7.98299L280.292 7.78224L280.126 7.6051C280.09 7.56283 280.051 7.52335 280.008 7.48701L279.831 7.29806L279.737 7.2154L279.548 7.05007L279.465 6.97922L279.276 6.83751L279.146 6.73122L278.969 6.61314L278.792 6.50685L278.662 6.42419L278.485 6.34152L278.379 6.28248H278.308L278.143 6.21162L277.965 6.14077H277.847H277.67L277.115 5.73926H277.021H276.844H276.229H275.981H275.922L275.686 5.7983C275.576 5.83976 275.469 5.89114 275.367 5.95182L62.248 129.074L62.5787 128.92L62.8385 128.849C62.9445 128.838 63.0514 128.838 63.1573 128.849H63.5825H63.9368L64.3146 128.956C64.4563 129.001 64.5945 129.056 64.728 129.121L65.1531 129.334L65.5782 129.605L65.9679 129.889L66.334 130.207C66.4606 130.313 66.579 130.427 66.6883 130.55L67.0426 130.963C67.1606 131.105 67.2787 131.258 67.385 131.412C67.4928 131.547 67.5915 131.689 67.6802 131.837L67.8574 132.109L67.9991 132.333C67.9949 132.372 67.9949 132.412 67.9991 132.451L68.2117 132.841C68.2943 133.006 68.377 133.172 68.4478 133.337C68.5187 133.502 68.5777 133.668 68.6368 133.833C68.7076 134.01 68.7549 134.175 68.8139 134.341L68.9438 134.825C68.9438 134.99 69.0147 135.167 69.0383 135.333C69.0383 135.51 69.0383 135.675 69.0383 135.84C69.0383 136.006 69.0383 136.171 69.0383 136.336C69.0383 136.502 69.0383 136.655 69.0383 136.797C69.0457 136.927 69.0457 137.057 69.0383 137.187C69.0383 137.305 69.0383 137.423 68.9438 137.541V137.6C68.9078 137.705 68.8644 137.808 68.8139 137.907C68.7659 138.013 68.7107 138.116 68.6486 138.214C68.5895 138.285 68.5423 138.368 68.4833 138.427L68.4124 138.497L68.2589 138.663L68.188 138.722L67.94 138.887L281.39 16.273L281.626 16.0959L281.697 16.0368L281.862 15.8833L281.921 15.8124C281.983 15.7427 282.038 15.6676 282.087 15.5881L282.252 15.2928C282.287 15.229 282.314 15.1617 282.335 15.0921V14.9976V14.9268C282.335 14.8559 282.335 14.7732 282.335 14.7024C282.336 14.6749 282.336 14.6473 282.335 14.6197C282.33 14.5924 282.33 14.5644 282.335 14.5371C282.341 14.4703 282.341 14.4031 282.335 14.3363C282.341 14.2972 282.341 14.2573 282.335 14.2182V14.0056C282.34 13.9389 282.34 13.8717 282.335 13.8049C282.341 13.7342 282.341 13.6631 282.335 13.5923C282.443 13.5268 282.539 13.4429 282.618 13.3443Z" fill="white"/>
<path d="M67.68 390.835C65.6206 391.883 63.3424 392.43 61.0315 392.43C58.7205 392.43 56.4424 391.883 54.3829 390.835C53.613 390.501 52.9457 389.969 52.4497 389.293C51.9536 388.616 51.6467 387.819 51.5605 386.985V392.429C51.6434 393.26 51.945 394.054 52.4346 394.73C52.9242 395.406 53.5842 395.94 54.3475 396.279C56.4069 397.327 58.6851 397.874 60.996 397.874C63.307 397.874 65.5851 397.327 67.6446 396.279C68.4174 395.951 69.0869 395.42 69.5819 394.742C70.0768 394.064 70.3786 393.265 70.4552 392.429V386.985C70.3818 387.817 70.0853 388.614 69.5969 389.291C69.1084 389.969 68.4462 390.502 67.68 390.835Z" fill="#E0E0E0"/>
<path d="M54.3829 390.835C56.4424 391.883 58.7205 392.43 61.0315 392.43C63.3424 392.43 65.6206 391.883 67.68 390.835C68.4462 390.502 69.1084 389.969 69.5969 389.292C70.0853 388.614 70.3818 387.817 70.4552 386.985C70.4552 385.592 69.5222 384.198 67.68 383.135C65.6214 382.084 63.3429 381.536 61.0315 381.536C58.72 381.536 56.4415 382.084 54.3829 383.135C53.5784 383.41 52.88 383.929 52.3855 384.621C51.8909 385.312 51.625 386.141 51.625 386.991C51.625 387.841 51.8909 388.67 52.3855 389.361C52.88 390.053 53.5784 390.572 54.3829 390.847V390.835Z" fill="#F0F0F0"/>
<path d="M58.3389 137.222V386.395C58.3652 386.629 58.4519 386.852 58.5907 387.043C58.7294 387.233 58.9153 387.384 59.1301 387.481C59.7136 387.778 60.359 387.932 61.0136 387.932C61.6683 387.932 62.3136 387.778 62.8972 387.481C63.1112 387.386 63.2955 387.235 63.4306 387.044C63.5657 386.853 63.6466 386.628 63.6648 386.395V137.222H58.3389Z" fill="#E0E0E0"/>
<path d="M44.8534 143.717C45.4399 144.098 45.9276 144.612 46.2766 145.217C46.6256 145.823 46.8259 146.503 46.861 147.201C46.861 148.488 45.9517 148.996 44.8416 148.382C44.2472 147.995 43.7537 147.472 43.4025 146.855C43.0512 146.239 42.8523 145.548 42.8223 144.839C42.8341 143.587 43.7316 143.068 44.8534 143.717Z" fill="#E0E0E0"/>
<path d="M66.9129 135.463C66.9071 135.428 66.9071 135.392 66.9129 135.356V135.262C66.9078 135.231 66.9078 135.199 66.9129 135.168C66.9129 135.168 66.9129 135.097 66.9129 135.061C66.9129 135.061 66.9129 135.002 66.9129 134.967C66.9129 134.931 66.9129 134.896 66.9129 134.86V134.754C66.9073 134.719 66.9073 134.683 66.9129 134.648V134.577V134.483V134.376V134.305V134.211V134.14V134.046V133.939V133.845C66.9071 133.814 66.9071 133.782 66.9129 133.75V133.691V133.609L66.8302 133.479L66.7003 133.302L66.6058 133.184L66.535 133.089L65.732 132.806L65.6493 132.723V132.664L65.5666 132.581L65.4722 132.51L65.3895 132.451H65.3186H65.236L64.9053 132.097H64.8227H64.74H64.6573H64.5983H64.0551H63.937H63.8189L63.6654 132.168L43.5898 143.824L43.7434 143.753H43.8733H44.074C44.125 143.747 44.1765 143.747 44.2275 143.753H44.3929H44.5818L44.7708 143.835L44.9715 143.942L45.1723 144.072L45.3494 144.202L45.5265 144.343L45.7037 144.509C45.7623 144.573 45.8175 144.64 45.869 144.709L46.0343 144.922L46.176 145.123C46.2103 145.161 46.2383 145.205 46.2587 145.253L46.3296 145.359V145.418L46.4358 145.595L46.5421 145.831C46.5685 145.912 46.6001 145.991 46.6366 146.067C46.6366 146.15 46.6366 146.233 46.7193 146.304C46.7246 146.378 46.7246 146.453 46.7193 146.528C46.7193 146.611 46.7193 146.693 46.7193 146.764C46.7257 146.843 46.7257 146.922 46.7193 147C46.7249 147.079 46.7249 147.158 46.7193 147.236C46.7255 147.311 46.7255 147.386 46.7193 147.461C46.7257 147.524 46.7257 147.587 46.7193 147.65V147.827C46.7239 147.874 46.7239 147.922 46.7193 147.969L46.6366 148.11L46.5539 148.205C46.5539 148.205 46.5539 148.264 46.4831 148.276L46.365 148.358L66.4405 136.703L66.5586 136.62L66.6413 136.537L66.7121 136.431C66.744 136.387 66.7717 136.339 66.7948 136.289V136.195C66.8004 136.176 66.8004 136.155 66.7948 136.136C66.8003 136.101 66.8003 136.065 66.7948 136.03V135.935C66.7948 135.935 66.7948 135.864 66.7948 135.829V135.64C66.8006 135.609 66.8006 135.577 66.7948 135.545L66.9129 135.463Z" fill="#E6E6E6"/>
<path d="M118.543 262.706L118.507 253.2L99.7188 264.052L99.7424 273.559L118.543 262.706Z" fill="#407BFF"/>
<path d="M118.483 244L99.6943 254.853L99.718 264.052L118.506 253.2L118.483 244Z" fill="#407BFF"/>
<path d="M99.7424 273.558L99.7188 264.052L99.7424 273.558Z" fill="#407BFF"/>
<path d="M142.255 195.229L123.467 206.069L123.538 232.486L142.326 221.646L142.255 195.229Z" fill="#407BFF"/>
<path d="M123.62 259.777L142.408 248.925L142.325 221.646L123.537 232.486L123.62 259.777Z" fill="#407BFF"/>
<path d="M147.297 176.806L147.498 245.984L147.391 210.828L166.191 199.988L166.097 165.954L147.297 176.806Z" fill="#407BFF"/>
<path d="M190.058 180.113L171.258 190.965L171.317 211.242L190.105 200.401L190.058 180.113Z" fill="#407BFF"/>
<path d="M147.499 245.984L166.287 235.132L166.193 199.988L147.393 210.829L147.499 245.984Z" fill="#407BFF"/>
<path d="M219.133 204.629L237.921 193.776L237.78 143.103L218.991 153.956L219.133 204.629Z" fill="#407BFF"/>
<path d="M195.255 218.41L214.043 207.569L213.937 169.52L195.137 180.373L195.255 218.41Z" fill="#407BFF"/>
<path d="M171.376 232.191L190.165 221.35L190.106 200.401L171.317 211.242L171.376 232.191Z" fill="#407BFF"/>
<path opacity="0.2" d="M118.543 262.706L118.507 253.2L99.7188 264.052L99.7424 273.559L118.543 262.706Z" fill="black"/>
<path opacity="0.2" d="M123.62 259.777L142.408 248.925L142.325 221.646L123.537 232.486L123.62 259.777Z" fill="black"/>
<path opacity="0.2" d="M147.499 245.984L166.287 235.132L166.193 199.988L147.393 210.829L147.499 245.984Z" fill="black"/>
<path opacity="0.2" d="M219.133 204.629L237.921 193.776L237.78 143.103L218.991 153.956L219.133 204.629Z" fill="black"/>
<path opacity="0.2" d="M195.255 218.41L214.043 207.569L213.937 169.52L195.137 180.373L195.255 218.41Z" fill="black"/>
<path opacity="0.2" d="M171.376 232.191L190.165 221.35L190.106 200.401L171.317 211.242L171.376 232.191Z" fill="black"/>
<path d="M218.991 153.956L237.78 143.103L237.638 94.0479L218.85 104.889L218.991 153.956Z" fill="#407BFF"/>
<path d="M218.991 153.956L219.133 204.629L218.991 153.956Z" fill="#407BFF"/>
<path d="M195.042 143.54L195.255 218.41L195.136 180.373L213.937 169.52L213.83 132.699L195.042 143.54Z" fill="#407BFF"/>
<path d="M180.977 152.291L228.403 70.1581L234.083 73.3938L237.508 49.6929L218.731 64.6432L224.175 67.749L180.954 142.607L153.037 126.688L99.6006 224.102L153.061 136.384L180.977 152.291Z" fill="#407BFF"/>
<path opacity="0.2" d="M180.977 152.291L228.403 70.1581L234.083 73.3938L237.508 49.6929L218.731 64.6432L224.175 67.749L180.954 142.607L153.037 126.688L99.6006 224.102L153.061 136.384L180.977 152.291Z" fill="black"/>
<path d="M262.46 191.674L262.448 188.592L90.6372 287.776L90.2475 146.764L87.555 148.311L87.9565 289.335L75.2617 296.657L75.2735 299.739L87.9683 292.417L88.0038 307.037L90.6963 305.49L90.649 290.87L262.46 191.674Z" fill="#407BFF"/>
<path opacity="0.8" d="M262.46 191.674L262.448 188.592L90.6372 287.776L90.2475 146.764L87.555 148.311L87.9565 289.335L75.2617 296.657L75.2735 299.739L87.9683 292.417L88.0038 307.037L90.6963 305.49L90.649 290.87L262.46 191.674Z" fill="white"/>
<path d="M414.526 242.052L414.372 302.644C414.404 303.195 414.563 303.73 414.838 304.207C415.113 304.685 415.495 305.092 415.954 305.396L494.662 350.837V352.632L496.587 351.452H496.646C496.787 351.332 496.898 351.181 496.97 351.011C497.041 350.84 497.072 350.656 497.06 350.471L497.225 287.481L495.241 288.733L414.526 242.052Z" fill="#407BFF"/>
<path opacity="0.3" d="M414.526 242.052L414.372 302.644C414.404 303.195 414.563 303.73 414.838 304.207C415.113 304.685 415.495 305.092 415.954 305.396L494.662 350.837V352.632L496.587 351.452H496.646C496.787 351.332 496.898 351.181 496.97 351.011C497.041 350.84 497.072 350.656 497.06 350.471L497.225 287.481L495.241 288.733L414.526 242.052Z" fill="white"/>
<path d="M495.654 282.226L416.131 236.312C415.957 236.193 415.751 236.128 415.54 236.128C415.33 236.128 415.124 236.193 414.95 236.312L413.061 237.493L414.572 238.344V242.087L495.288 288.686L497.271 287.434V285.001C497.239 284.444 497.076 283.902 496.795 283.42C496.514 282.938 496.123 282.529 495.654 282.226Z" fill="#407BFF"/>
<path d="M495.241 288.651L495.075 351.64C495.075 352.656 494.355 353.058 493.481 352.55L413.97 306.648C413.512 306.345 413.131 305.94 412.856 305.464C412.581 304.989 412.421 304.456 412.388 303.908L412.553 240.906L495.241 288.651Z" fill="#407BFF"/>
<g opacity="0.5">
<path d="M495.241 288.651L495.075 351.64C495.075 352.656 494.355 353.058 493.481 352.55L413.97 306.648C413.512 306.345 413.131 305.94 412.856 305.464C412.581 304.989 412.421 304.456 412.388 303.908L412.553 240.906L495.241 288.651Z" fill="white"/>
</g>
<path d="M414.832 239.3C415.034 239.427 415.202 239.601 415.323 239.806C415.444 240.012 415.515 240.243 415.529 240.481C415.529 240.918 415.21 241.107 414.832 240.883C414.632 240.753 414.465 240.579 414.344 240.374C414.224 240.169 414.152 239.939 414.135 239.702C414.1 239.253 414.454 239.076 414.832 239.3Z" fill="#F5F5F5"/>
<path d="M416.852 240.457C417.052 240.586 417.22 240.76 417.341 240.965C417.462 241.17 417.533 241.401 417.549 241.638C417.549 242.075 417.23 242.252 416.852 242.04C416.652 241.91 416.485 241.736 416.364 241.531C416.244 241.326 416.172 241.096 416.155 240.859C416.155 240.422 416.462 240.233 416.852 240.457Z" fill="#F5F5F5"/>
<path d="M418.824 241.626C419.024 241.755 419.191 241.929 419.312 242.134C419.433 242.339 419.505 242.57 419.52 242.807C419.52 243.244 419.213 243.421 418.824 243.197C418.622 243.07 418.454 242.896 418.332 242.691C418.211 242.485 418.141 242.254 418.127 242.016C418.174 241.579 418.493 241.402 418.824 241.626Z" fill="#F5F5F5"/>
<path d="M493.669 283.478C494.127 283.781 494.509 284.186 494.783 284.662C495.058 285.137 495.218 285.67 495.252 286.218V288.651L412.588 240.906V238.474C412.588 237.47 413.308 237.068 414.182 237.564L493.669 283.478ZM416.851 242.064C417.229 242.276 417.548 242.064 417.548 241.662C417.532 241.424 417.461 241.194 417.34 240.989C417.219 240.784 417.051 240.61 416.851 240.481C416.473 240.257 416.154 240.481 416.154 240.883C416.171 241.12 416.243 241.35 416.363 241.555C416.484 241.76 416.651 241.934 416.851 242.064ZM418.87 243.245C419.26 243.469 419.567 243.245 419.567 242.855C419.551 242.617 419.48 242.387 419.359 242.182C419.238 241.976 419.071 241.803 418.87 241.674C418.492 241.45 418.174 241.674 418.174 242.075C418.188 242.313 418.258 242.545 418.379 242.75C418.5 242.956 418.669 243.129 418.87 243.256M414.832 240.895C415.21 241.119 415.528 240.894 415.528 240.493C415.514 240.255 415.444 240.024 415.323 239.818C415.202 239.613 415.033 239.439 414.832 239.312C414.454 239.088 414.135 239.312 414.135 239.702C414.152 239.939 414.223 240.169 414.344 240.374C414.465 240.579 414.632 240.753 414.832 240.883" fill="#407BFF"/>
<g opacity="0.2">
<path d="M493.67 283.478C494.128 283.781 494.51 284.186 494.784 284.661C495.059 285.137 495.219 285.669 495.253 286.217V288.65L412.589 240.906V238.473C412.589 237.469 413.309 237.068 414.183 237.564L493.67 283.478ZM416.852 242.063C417.23 242.276 417.549 242.063 417.549 241.662C417.533 241.424 417.462 241.193 417.341 240.988C417.22 240.783 417.052 240.609 416.852 240.481C416.474 240.256 416.155 240.481 416.155 240.882C416.172 241.12 416.243 241.35 416.364 241.555C416.485 241.76 416.652 241.934 416.852 242.063ZM418.871 243.244C419.261 243.468 419.568 243.244 419.568 242.854C419.552 242.617 419.481 242.386 419.36 242.181C419.239 241.976 419.072 241.802 418.871 241.673C418.493 241.449 418.175 241.673 418.175 242.075C418.188 242.313 418.259 242.544 418.38 242.75C418.501 242.955 418.67 243.129 418.871 243.256M414.833 240.894C415.21 241.118 415.529 240.894 415.529 240.492C415.515 240.254 415.445 240.023 415.324 239.818C415.203 239.612 415.034 239.439 414.833 239.312C414.455 239.087 414.136 239.312 414.136 239.701C414.153 239.939 414.224 240.169 414.345 240.374C414.466 240.579 414.633 240.753 414.833 240.882" fill="white"/>
</g>
<path opacity="0.5" d="M495.654 282.226L416.132 236.312C415.958 236.193 415.752 236.128 415.541 236.128C415.33 236.128 415.124 236.193 414.951 236.312L413.073 237.493C413.251 237.41 413.448 237.376 413.643 237.395C413.838 237.414 414.025 237.484 414.183 237.6L493.706 283.514C494.164 283.816 494.545 284.221 494.82 284.697C495.095 285.172 495.255 285.705 495.288 286.253V288.686L497.272 287.434V285.001C497.24 284.444 497.077 283.902 496.796 283.42C496.515 282.938 496.124 282.529 495.654 282.226Z" fill="white"/>
<g opacity="0.5">
<path d="M419.887 299.031L487.872 338.284L487.955 290.422C485.687 289.477 482.735 290.504 480.609 291.744C478.572 293.109 476.63 294.613 474.799 296.244C472.954 297.899 470.62 298.91 468.151 299.125C464.667 299.196 461.679 296.763 458.325 295.76C453.425 294.319 448.217 296.078 443.351 297.673C438.486 299.267 433.101 300.731 428.389 298.724C427.026 297.988 425.609 297.356 424.15 296.834C423.303 296.751 422.45 296.914 421.694 297.303C420.938 297.693 420.31 298.293 419.887 299.031Z" fill="white"/>
</g>
<path d="M435.345 283.266L435.333 285.037L421.174 276.865L421.186 275.094L435.345 283.266Z" fill="white"/>
<path d="M421.186 272.094V273.865L439.313 284.34V282.557L421.186 272.094Z" fill="white"/>
<path d="M444.143 278.329L444.131 280.101L421.21 266.863V265.091L444.143 278.329Z" fill="white"/>
<path d="M454.783 281.471V283.254L421.21 263.863L421.222 262.092L454.783 281.471Z" fill="white"/>
<path d="M454.794 278.483V280.254L421.221 260.875L421.233 259.104L454.794 278.483Z" fill="white"/>
<path d="M439.312 265.15L439.3 267.913L421.232 257.474L421.244 254.723L439.312 265.15Z" fill="white"/>
<path d="M469.556 282.333L476.122 287.068L474.256 293.303L472.791 289.867L426.925 295.866L471.02 285.757L469.556 282.333Z" fill="#407BFF"/>
<path opacity="0.1" d="M495.075 265.209C495.088 265.394 495.057 265.578 494.985 265.749C494.914 265.919 494.803 266.07 494.662 266.19L496.587 265.009H496.646C496.787 264.889 496.898 264.738 496.969 264.568C497.041 264.398 497.072 264.213 497.059 264.029L497.225 201.027L495.241 202.29L495.075 265.209Z" fill="black"/>
<path d="M414.526 155.609L414.372 216.214C414.405 216.762 414.566 217.295 414.84 217.77C415.115 218.246 415.496 218.651 415.954 218.954L494.662 264.36V266.166L496.587 264.986H496.646C496.787 264.866 496.898 264.715 496.97 264.545C497.041 264.374 497.072 264.19 497.06 264.005L497.225 201.004L495.241 202.267L414.526 155.609Z" fill="#407BFF"/>
<path opacity="0.3" d="M414.526 155.609L414.372 216.214C414.405 216.762 414.566 217.295 414.84 217.77C415.115 218.246 415.496 218.651 415.954 218.954L494.662 264.36V266.166L496.587 264.986H496.646C496.787 264.866 496.898 264.715 496.97 264.545C497.041 264.374 497.072 264.19 497.06 264.005L497.225 201.004L495.241 202.267L414.526 155.609Z" fill="white"/>
<path d="M495.654 195.784L416.131 149.882C415.957 149.762 415.751 149.698 415.54 149.698C415.33 149.698 415.124 149.762 414.95 149.882L413.061 151.063L414.572 151.925V155.656L495.288 202.267L497.271 201.004V198.571C497.241 198.011 497.079 197.467 496.798 196.983C496.517 196.498 496.124 196.087 495.654 195.784Z" fill="#407BFF"/>
<path d="M495.241 202.22L495.075 265.21C495.075 266.225 494.355 266.627 493.481 266.119L413.97 220.217C413.511 219.913 413.128 219.506 412.854 219.028C412.579 218.551 412.419 218.016 412.388 217.465L412.553 154.476L495.241 202.22Z" fill="#407BFF"/>
<g opacity="0.5">
<path d="M495.241 202.22L495.075 265.21C495.075 266.225 494.355 266.627 493.481 266.119L413.97 220.217C413.511 219.913 413.128 219.506 412.854 219.028C412.579 218.551 412.419 218.016 412.388 217.465L412.553 154.476L495.241 202.22Z" fill="white"/>
</g>
<path d="M415.32 154.464C415.591 154.306 415.589 153.799 415.317 153.331C415.045 152.863 414.605 152.612 414.335 152.769C414.064 152.926 414.065 153.433 414.337 153.901C414.609 154.369 415.049 154.621 415.32 154.464Z" fill="#F5F5F5"/>
<path d="M416.852 154.027C417.052 154.155 417.22 154.329 417.341 154.534C417.462 154.739 417.533 154.97 417.549 155.207C417.549 155.644 417.23 155.822 416.852 155.597C416.651 155.469 416.483 155.296 416.362 155.09C416.241 154.885 416.17 154.654 416.155 154.416C416.155 153.979 416.462 153.802 416.852 154.027Z" fill="#F5F5F5"/>
<path d="M418.824 155.196C419.025 155.324 419.193 155.498 419.314 155.703C419.435 155.908 419.506 156.139 419.52 156.377C419.52 156.826 419.213 157.003 418.824 156.779C418.623 156.65 418.456 156.476 418.335 156.271C418.214 156.066 418.143 155.835 418.127 155.598C418.174 155.149 418.493 154.972 418.824 155.196Z" fill="#F5F5F5"/>
<path d="M493.669 197.048C494.131 197.347 494.516 197.751 494.791 198.227C495.066 198.703 495.224 199.238 495.252 199.788V202.22L412.588 154.476V152.043C412.588 151.039 413.308 150.626 414.182 151.134L493.669 197.048ZM416.851 155.621C417.229 155.846 417.548 155.621 417.548 155.232C417.532 154.994 417.461 154.764 417.34 154.558C417.219 154.353 417.051 154.179 416.851 154.051C416.473 153.826 416.154 154.051 416.154 154.452C416.169 154.69 416.24 154.921 416.361 155.126C416.482 155.332 416.65 155.505 416.851 155.633M418.87 156.814C419.26 157.039 419.567 156.814 419.567 156.413C419.552 156.175 419.481 155.944 419.36 155.739C419.239 155.533 419.071 155.36 418.87 155.232C418.492 155.007 418.174 155.232 418.174 155.621C418.189 155.859 418.261 156.09 418.382 156.295C418.503 156.5 418.67 156.674 418.87 156.802M414.832 154.441C415.21 154.665 415.528 154.441 415.528 154.051C415.513 153.813 415.441 153.583 415.32 153.378C415.199 153.172 415.032 152.999 414.832 152.87C414.454 152.657 414.135 152.87 414.135 153.271C414.149 153.509 414.219 153.741 414.34 153.946C414.462 154.152 414.63 154.325 414.832 154.452" fill="#407BFF"/>
<g opacity="0.2">
<path d="M493.67 197.048C494.132 197.347 494.517 197.751 494.792 198.227C495.067 198.703 495.225 199.238 495.253 199.788V202.22L412.589 154.476V152.043C412.589 151.039 413.309 150.626 414.183 151.134L493.67 197.048ZM416.852 155.621C417.23 155.846 417.549 155.621 417.549 155.232C417.533 154.994 417.462 154.764 417.341 154.558C417.22 154.353 417.052 154.179 416.852 154.051C416.474 153.826 416.155 154.051 416.155 154.452C416.17 154.69 416.241 154.921 416.362 155.126C416.483 155.332 416.651 155.505 416.852 155.633M418.871 156.814C419.261 157.039 419.568 156.814 419.568 156.413C419.553 156.175 419.482 155.944 419.361 155.739C419.24 155.533 419.072 155.36 418.871 155.232C418.493 155.007 418.175 155.232 418.175 155.621C418.19 155.859 418.262 156.09 418.383 156.295C418.504 156.5 418.671 156.674 418.871 156.802M414.833 154.441C415.21 154.665 415.529 154.441 415.529 154.051C415.514 153.813 415.442 153.583 415.321 153.378C415.2 153.172 415.033 152.999 414.833 152.87C414.455 152.657 414.136 152.87 414.136 153.271C414.15 153.509 414.22 153.741 414.341 153.946C414.463 154.152 414.631 154.325 414.833 154.452" fill="white"/>
</g>
<path opacity="0.5" d="M495.654 195.784L416.132 149.882C415.958 149.762 415.752 149.698 415.541 149.698C415.33 149.698 415.124 149.762 414.951 149.882L413.073 151.063C413.254 150.989 413.449 150.962 413.643 150.982C413.837 151.003 414.022 151.071 414.183 151.181L493.671 197.047C494.132 197.346 494.517 197.75 494.792 198.227C495.067 198.703 495.225 199.238 495.253 199.787V202.22L497.237 200.956V198.524C497.203 197.976 497.043 197.443 496.768 196.967C496.494 196.492 496.113 196.087 495.654 195.784Z" fill="white"/>
<path d="M430.846 209.057L430.787 216.048L425.744 213.132L425.721 221.634L430.763 224.539L425.721 221.634L425.803 206.141L430.846 209.057Z" fill="#407BFF"/>
<path d="M438.451 203.779L438.368 217.678L433.325 214.761L433.29 226.003L438.344 228.92L433.29 226.003L433.408 200.874L438.451 203.779Z" fill="#407BFF"/>
<path d="M445.997 220.359L445.938 224.279L440.919 221.386L440.86 230.373L445.915 233.29L440.86 230.373L440.955 217.442L445.997 220.359Z" fill="#407BFF"/>
<path d="M453.566 214.466L453.507 229.829L448.452 226.912L448.429 234.742L453.483 237.659L448.429 234.742L448.511 211.549L453.566 214.466Z" fill="#407BFF"/>
<path d="M423.264 210.167L423.205 213.226L418.162 210.309L418.139 217.253L423.193 220.17L418.139 217.253L418.21 207.25L423.264 210.167Z" fill="#407BFF"/>
<path d="M461.112 224.055L461.065 236.927L456.023 234.01L456.011 239.123L461.053 242.028L456.011 239.123L456.058 221.15L461.112 224.055Z" fill="#407BFF"/>
<path d="M468.693 225.165L468.646 240.363L463.604 237.458L463.58 243.493L468.634 246.41L463.58 243.493L463.639 222.248L468.693 225.165Z" fill="#407BFF"/>
<path d="M476.287 221.894L476.228 242.56L471.174 239.655L471.15 247.862L476.205 250.779L471.15 247.862L471.233 218.977L476.287 221.894Z" fill="#407BFF"/>
<path d="M483.88 214.395L483.809 245.028L478.755 242.111L478.731 252.231L483.774 255.148L478.731 252.231L478.826 211.478L483.88 214.395Z" fill="#407BFF"/>
<path d="M491.427 208.951L491.368 251.995L486.325 249.078L486.302 256.613L491.356 259.518L486.302 256.613L486.373 206.034L491.427 208.951Z" fill="#407BFF"/>
<path d="M445.938 224.279L445.915 233.29L440.86 230.373L440.919 221.386L445.938 224.279Z" fill="#407BFF"/>
<path d="M453.507 229.829L453.483 237.659L448.429 234.742L448.452 226.913L453.507 229.829Z" fill="#407BFF"/>
<path d="M423.205 213.226L423.193 220.17L418.139 217.253L418.162 210.309L423.205 213.226Z" fill="#407BFF"/>
<path d="M461.065 236.927L461.053 242.029L456.011 239.124L456.023 234.01L461.065 236.927Z" fill="#407BFF"/>
<path d="M476.228 242.56L476.205 250.779L471.15 247.862L471.174 239.655L476.228 242.56Z" fill="#407BFF"/>
<path d="M483.809 245.028L483.774 255.149L478.731 252.232L478.755 242.111L483.809 245.028Z" fill="#407BFF"/>
<path d="M430.787 216.048L430.763 224.539L425.721 221.634L425.744 213.131L430.787 216.048Z" fill="#407BFF"/>
<path d="M438.368 217.678L438.344 228.92L433.29 226.004L433.325 214.761L438.368 217.678Z" fill="#407BFF"/>
<path d="M468.646 240.364L468.634 246.41L463.58 243.493L463.604 237.458L468.646 240.364Z" fill="#407BFF"/>
<path d="M491.368 251.995L491.356 259.518L486.302 256.613L486.325 249.079L491.368 251.995Z" fill="#407BFF"/>
<g opacity="0.2">
<path d="M445.938 227.598L445.915 233.29L440.86 230.373L440.919 224.705L445.938 227.598Z" fill="black"/>
</g>
<path opacity="0.2" d="M453.507 229.829L453.483 237.659L448.429 234.742L448.452 226.913L453.507 229.829Z" fill="black"/>
<path opacity="0.2" d="M423.205 215.931L423.193 220.17L418.139 217.253L418.162 213.014L423.205 215.931Z" fill="black"/>
<path opacity="0.2" d="M461.065 236.927L461.053 242.029L456.011 239.124L456.023 234.01L461.065 236.927Z" fill="black"/>
<path opacity="0.2" d="M476.228 234.234L476.205 250.779L471.15 247.862L471.174 231.317L476.228 234.234Z" fill="black"/>
<path opacity="0.2" d="M483.809 228.79L483.774 255.148L478.731 252.232L478.755 225.874L483.809 228.79Z" fill="black"/>
<path opacity="0.2" d="M430.787 216.048L430.763 224.539L425.721 221.634L425.744 213.131L430.787 216.048Z" fill="black"/>
<path opacity="0.2" d="M438.368 217.678L438.344 228.92L433.29 226.004L433.325 214.761L438.368 217.678Z" fill="black"/>
<path opacity="0.2" d="M468.646 240.364L468.634 246.41L463.58 243.493L463.604 237.458L468.646 240.364Z" fill="black"/>
<path opacity="0.2" d="M491.368 222L491.356 259.518L486.302 256.613L486.325 219.083L491.368 222Z" fill="black"/>
<path d="M438.463 198.075L438.451 202.256L433.408 199.339L433.42 195.158L438.463 198.075Z" fill="#407BFF"/>
<path d="M423.264 206.648V208.644L418.222 205.727V203.731L423.264 206.648Z" fill="#407BFF"/>
<path d="M461.112 221.469V222.531L456.069 219.615V218.552L461.112 221.469Z" fill="#407BFF"/>
<path d="M453.578 210.498L453.566 212.943L448.512 210.026L448.524 207.582L453.578 210.498Z" fill="#407BFF"/>
<path d="M446.008 215.789V218.824L440.954 215.919L440.966 212.872L446.008 215.789Z" fill="#407BFF"/>
<path d="M430.858 204.747V207.534L425.804 204.617L425.816 201.83L430.858 204.747Z" fill="#407BFF"/>
<path d="M476.298 217.714L476.287 220.359L471.244 217.442V214.809L476.298 217.714Z" fill="#407BFF"/>
<path d="M491.438 205.125L491.426 207.416L486.384 204.499V202.22L491.438 205.125Z" fill="#407BFF"/>
<path d="M468.706 222.095L468.694 223.63L463.64 220.713L463.651 219.178L468.706 222.095Z" fill="#407BFF"/>
<path d="M483.892 209.258L483.88 212.872L478.838 209.955L478.85 206.341L483.892 209.258Z" fill="#407BFF"/>
<g opacity="0.8">
<path d="M438.462 198.075L438.45 202.256L433.407 199.339L433.419 195.158L438.462 198.075Z" fill="white"/>
<path d="M423.263 206.649V208.645L418.221 205.728V203.732L423.263 206.649Z" fill="white"/>
<path d="M461.112 221.469V222.532L456.069 219.615V218.552L461.112 221.469Z" fill="white"/>
<path d="M453.577 210.498L453.565 212.943L448.511 210.026L448.523 207.582L453.577 210.498Z" fill="white"/>
<path d="M446.007 215.789V218.824L440.953 215.919L440.965 212.872L446.007 215.789Z" fill="white"/>
<path d="M430.856 204.747V207.534L425.802 204.618L425.814 201.831L430.856 204.747Z" fill="white"/>
<path d="M476.298 217.714L476.287 220.359L471.244 217.442V214.809L476.298 217.714Z" fill="white"/>
<path d="M491.437 205.125L491.425 207.416L486.383 204.499V202.22L491.437 205.125Z" fill="white"/>
<path d="M468.705 222.095L468.693 223.63L463.639 220.713L463.65 219.178L468.705 222.095Z" fill="white"/>
<path d="M483.892 209.259L483.88 212.872L478.838 209.955L478.85 206.342L483.892 209.259Z" fill="white"/>
</g>
<path d="M285.666 278.967L270.904 287.482V372.98L285.666 381.494L300.427 372.98V287.482L285.666 278.967Z" fill="#407BFF"/>
<path opacity="0.1" d="M285.666 296.008V381.494L270.904 372.98V287.481L285.666 296.008Z" fill="black"/>
<path opacity="0.2" d="M285.666 296.008V381.494L300.427 372.98V287.481L285.666 296.008Z" fill="black"/>
<path d="M264.113 311.159L249.363 319.685V386.135L264.113 394.65L278.874 386.135V319.685L264.113 311.159Z" fill="#407BFF"/>
<path opacity="0.5" d="M249.363 319.685L264.113 311.159L278.874 319.685L264.113 328.2L249.363 319.685Z" fill="white"/>
<path opacity="0.4" d="M264.113 328.199V394.649L249.363 386.135V319.685L264.113 328.199Z" fill="white"/>
<path opacity="0.3" d="M264.113 328.199V394.649L278.875 386.135V319.685L264.113 328.199Z" fill="white"/>
<path d="M241.629 358.868L226.867 367.394V399.019L241.629 407.533L256.378 399.019V367.394L241.629 358.868Z" fill="#407BFF"/>
<path opacity="0.1" d="M241.629 375.908V407.533L226.867 399.019V367.394L241.629 375.908Z" fill="black"/>
<path opacity="0.2" d="M241.629 375.908V407.533L256.379 399.019V367.394L241.629 375.908Z" fill="black"/>
<path d="M219.132 350.354L204.383 358.868V411.903L219.132 420.417L233.894 411.903V358.868L219.132 350.354Z" fill="#407BFF"/>
<path opacity="0.5" d="M204.383 358.868L219.132 350.354L233.894 358.868L219.132 367.394L204.383 358.868Z" fill="white"/>
<path opacity="0.4" d="M219.132 367.394V420.417L204.383 411.902V358.868L219.132 367.394Z" fill="white"/>
<path opacity="0.3" d="M219.132 367.394V420.417L233.893 411.902V358.868L219.132 367.394Z" fill="white"/>
<path d="M305.575 328.129L309.118 343.481L303.071 343.363C298.348 355.172 279.016 397.626 233.775 423.747C247.072 415.729 260.263 403.613 271.565 389.04C282.317 375.11 290.989 359.692 297.309 343.268L291.156 343.15L305.575 328.129Z" fill="#455A64"/>
<path d="M384.059 74.5275C383.562 73.6469 382.841 72.9135 381.968 72.4019L353.237 55.8691C350.721 54.4284 344.758 56.3887 344.758 60.4274V80.9753C344.757 81.9632 345.018 82.9337 345.514 83.7882C346.009 84.6428 346.722 85.3509 347.58 85.8407L369.758 98.5119L365.92 96.3272L367.762 101.535C367.789 101.609 367.843 101.67 367.913 101.705C367.984 101.74 368.065 101.747 368.14 101.724C368.459 101.559 369.911 100.779 370.726 100.236H370.785H370.856L371.305 99.5038L376.3 102.35C377.128 102.866 378.078 103.155 379.054 103.186C380.03 103.217 380.996 102.99 381.856 102.527C382.715 102.064 383.437 101.382 383.949 100.551C384.46 99.7193 384.742 98.7673 384.767 97.7915V77.2672C384.769 76.3085 384.525 75.3652 384.059 74.5275Z" fill="#407BFF"/>
<path opacity="0.2" d="M370.868 100.212H370.798H370.739C369.924 100.756 368.471 101.535 368.152 101.7C368.228 101.68 368.295 101.634 368.341 101.57L370.113 98.689L369.77 98.4883L371.329 99.3858L370.868 100.212Z" fill="white"/>
<path opacity="0.4" d="M378.473 77.6923C378.117 76.9636 377.605 76.3224 376.973 75.8146C376.756 75.645 376.527 75.4911 376.288 75.3541L347.557 58.8804C347.272 58.7203 346.951 58.637 346.625 58.6389C346.298 58.6407 345.978 58.7276 345.696 58.8909C345.413 59.0542 345.178 59.2884 345.014 59.5702C344.849 59.8521 344.761 60.1719 344.758 60.4982C344.758 56.4595 350.721 54.4992 353.237 55.9399L381.968 72.4727C382.841 72.9843 383.562 73.7177 384.059 74.5983L378.473 77.6923Z" fill="white"/>
<path opacity="0.2" d="M379.11 100.685V84.152C379.11 83.9276 379.11 79.7354 379.11 79.5228C379.021 78.8754 378.821 78.2482 378.519 77.6688L384.105 74.5039C384.576 75.3405 384.824 76.2838 384.826 77.2436V97.7206C384.804 98.698 384.524 99.6522 384.014 100.486C383.503 101.32 382.781 102.003 381.92 102.467C381.059 102.93 380.091 103.157 379.114 103.124C378.137 103.091 377.186 102.799 376.358 102.279C376.639 102.43 376.954 102.508 377.273 102.503C377.592 102.498 377.904 102.411 378.18 102.252C378.456 102.092 378.686 101.864 378.849 101.589C379.012 101.315 379.102 101.004 379.11 100.685Z" fill="white"/>
<path d="M360.936 72.1187L368.14 85.9708L364.066 83.6207L364.042 90.3874L357.748 86.7502L357.76 79.9835L353.686 77.6335L360.936 72.1187Z" fill="white"/>
<path d="M348.301 158.549C346.517 158.779 344.83 159.499 343.429 160.629C342.029 161.758 340.968 163.254 340.366 164.95L331.119 190.812L310.796 178.365C309.562 177.447 308.626 176.186 308.103 174.74L307.158 172.153C306.509 170.385 305.355 168.845 303.84 167.725C301.57 166.023 299.526 164.039 297.758 161.82C297.187 162.444 296.85 163.245 296.802 164.089C296.755 164.932 297.001 165.767 297.499 166.45C298.237 167.436 299.046 168.368 299.919 169.237L297.735 169.39C296.156 169.502 294.581 169.114 293.235 168.28L287.685 164.891C287.527 164.792 287.344 164.738 287.158 164.733C286.971 164.728 286.786 164.773 286.623 164.863C286.459 164.953 286.322 165.085 286.227 165.246C286.131 165.407 286.08 165.59 286.079 165.777C286.155 168.521 286.698 171.233 287.685 173.795C288.129 175.017 288.831 176.129 289.744 177.054C290.657 177.979 291.76 178.697 292.976 179.156C295.928 180.337 298.786 181.258 300.427 181.813C301.361 182.123 302.238 182.581 303.025 183.171L304.667 184.352L326.714 205.821C327.83 206.738 329.138 207.391 330.54 207.732C331.943 208.073 333.405 208.094 334.817 207.792C336.229 207.49 337.554 206.874 338.695 205.989C339.835 205.104 340.762 203.973 341.405 202.68L348.608 188.249L352.812 157.971L348.301 158.549Z" fill="#FFA8A7"/>
<path opacity="0.2" d="M331.119 190.812L337.059 195.264L332.772 186.195L331.119 190.812Z" fill="black"/>
<path d="M352.813 157.971L348.089 158.455C346.011 158.666 344.036 159.46 342.39 160.745C340.743 162.03 339.493 163.754 338.783 165.717L332.123 184.057C335.465 192.229 347.121 193.174 347.121 193.174L351.112 186.159L352.813 157.971Z" fill="#455A64"/>
<path opacity="0.4" d="M352.813 157.971L348.089 158.455C346.011 158.666 344.036 159.46 342.39 160.745C340.743 162.03 339.493 163.754 338.783 165.717L332.123 184.057C335.465 192.229 347.121 193.174 347.121 193.174L351.112 186.159L352.813 157.971Z" fill="white"/>
<path d="M332.82 354.959C333.792 355.884 334.943 356.6 336.202 357.063C337.461 357.526 338.802 357.726 340.142 357.651C342.821 357.472 345.446 356.808 347.889 355.691C350.368 354.675 353.486 351.817 356.155 351.876C358.777 351.853 361.395 351.676 363.996 351.345C364.09 347.769 363.717 344.196 362.886 340.717L350.333 340.398C346.956 345.015 340.39 348.865 335.418 350.318C334.654 350.531 333.962 350.95 333.419 351.529C332.875 352.107 332.501 352.824 332.336 353.601V353.683C332.441 354.128 332.604 354.557 332.82 354.959Z" fill="#455A64"/>
<path d="M356.154 351.877C353.485 351.818 350.368 354.675 347.888 355.691C345.446 356.808 342.821 357.473 340.141 357.651C338.802 357.726 337.461 357.526 336.202 357.063C334.942 356.6 333.791 355.884 332.82 354.959C332.619 354.554 332.472 354.126 332.383 353.683V353.601C332.264 354.15 332.264 354.717 332.383 355.266C332.472 355.708 332.619 356.137 332.82 356.541C333.79 357.468 334.941 358.186 336.2 358.649C337.46 359.112 338.801 359.311 340.141 359.234C342.82 359.059 345.445 358.399 347.888 357.285C350.368 356.258 353.485 353.412 356.154 353.459C358.736 353.483 361.316 353.337 363.878 353.022C363.878 352.455 363.972 351.9 363.996 351.345C361.395 351.676 358.776 351.854 356.154 351.877Z" fill="#263238"/>
<path d="M391.464 356.128C391.472 357.401 391.35 358.671 391.098 359.919C390.695 362.142 389.451 364.125 387.626 365.457C385.944 366.412 384.045 366.917 382.111 366.922C380.412 367.094 378.696 366.918 377.068 366.402C375.849 365.964 374.811 365.133 374.116 364.04C374.123 364.059 374.123 364.08 374.116 364.099C374.353 364.922 374.786 365.674 375.379 366.291C375.971 366.909 376.705 367.372 377.517 367.642C379.143 368.167 380.86 368.348 382.56 368.173C384.495 368.167 386.395 367.659 388.075 366.697C389.891 365.364 391.128 363.387 391.535 361.171C391.796 359.924 391.923 358.653 391.913 357.38C391.917 356.509 392.099 355.648 392.448 354.849C392.798 354.051 393.307 353.333 393.944 352.739C394.263 352.444 394.558 352.137 394.829 351.83C395.026 351.604 395.175 351.342 395.269 351.058C395.362 350.774 395.397 350.474 395.373 350.176C395.361 349.943 395.338 349.71 395.302 349.479C394.841 350.011 393.767 351.298 393.495 351.546C392.866 352.134 392.361 352.843 392.012 353.63C391.663 354.417 391.477 355.267 391.464 356.128Z" fill="#263238"/>
<path d="M381.898 342.914C382.311 345.516 381.975 348.183 380.93 350.601C379.873 353.003 378.503 355.255 376.855 357.297C376.046 358.26 375.334 359.3 374.73 360.403C374.142 361.484 373.926 362.729 374.116 363.946C374.81 365.039 375.849 365.87 377.068 366.307C378.696 366.823 380.412 367 382.111 366.827C384.044 366.822 385.944 366.318 387.625 365.363C389.451 364.031 390.694 362.048 391.097 359.824C391.349 358.577 391.472 357.306 391.463 356.034C391.47 355.162 391.654 354.3 392.006 353.502C392.357 352.704 392.868 351.986 393.506 351.393C393.778 351.145 394.853 349.857 395.313 349.326C395.061 347.427 394.426 345.599 393.447 343.953L381.898 342.914Z" fill="#455A64"/>
<path d="M344.96 219.39L345.999 290.717L349.365 340.646C357.891 346.031 364.055 341.626 364.055 341.626C367.291 318.008 367.728 303.424 365.968 293.587L367.586 255.089L372.428 295.051L380.588 344.036C389.327 349.704 395.503 344.036 395.503 344.036C395.503 325.908 397.121 305.632 392.126 292.56C394.259 268.407 393.466 244.085 389.764 220.122L344.96 219.39Z" fill="#263238"/>
<path opacity="0.3" d="M365.803 240.387L367.586 255.089L366.865 273.122L363.582 243.481C355.977 240.505 354.985 236.312 354.985 236.312C358.194 238.553 361.913 239.954 365.803 240.387Z" fill="black"/>
<path d="M361.161 157.085L352.812 157.971C345.987 163.993 342.456 176.629 343.932 190.587C344.83 200.16 345.173 209.777 344.959 219.39C363.464 232.9 386.834 223.063 389.775 220.122L388.393 203.011C388.245 201.081 388.565 199.145 389.326 197.366C391.074 193.315 394.203 185.321 394.616 179.133C394.871 173.617 393.708 168.129 391.239 163.19L379.123 157.9L361.161 157.085Z" fill="#455A64"/>
<g opacity="0.5">
<path d="M361.162 157.085L352.813 157.971C345.987 163.993 342.457 176.629 343.933 190.587C344.831 200.16 345.174 209.777 344.96 219.39C363.465 232.9 386.835 223.063 389.776 220.122L388.394 203.011C388.246 201.081 388.566 199.145 389.327 197.366C391.075 193.315 394.204 185.321 394.617 179.133C394.872 173.617 393.709 168.129 391.24 163.19L379.124 157.9L361.162 157.085Z" fill="white"/>
</g>
<path d="M358.836 169.249C354.552 179.591 352.226 190.638 351.975 201.83L355.411 209.211L360.784 202.125C360.371 191.308 360.588 180.477 361.434 169.685L358.836 169.249Z" fill="#455A64"/>
<path d="M358.599 163.19C358.451 165.214 358.546 167.248 358.883 169.249C359.688 169.645 360.588 169.808 361.481 169.721C363.122 168.27 364.529 166.573 365.649 164.69L361.481 163.19H358.599Z" fill="#455A64"/>
<path d="M361.434 163.191C364.976 164.513 368.224 170.902 368.224 170.902C377.671 162.895 379.124 157.912 379.124 157.912C377.898 156.044 376.35 154.409 374.554 153.082L361.434 163.191Z" fill="#455A64"/>
<path d="M361.433 163.191C358.693 163.261 356.272 167.076 356.272 167.076C355.835 160.392 361.433 155.267 361.433 155.267V163.191Z" fill="#455A64"/>
<g opacity="0.35">
<path d="M361.434 163.191C364.976 164.513 368.224 170.902 368.224 170.902C377.671 162.895 379.124 157.912 379.124 157.912C377.898 156.044 376.35 154.409 374.554 153.082L361.434 163.191Z" fill="white"/>
<path d="M361.433 163.191C358.693 163.261 356.272 167.076 356.272 167.076C355.835 160.392 361.433 155.267 361.433 155.267V163.191Z" fill="white"/>
</g>
<path d="M379.124 126.11C377.921 124.702 376.237 123.793 374.4 123.559L349.601 125.921C346.731 132.073 349.022 136.136 349.022 136.136C348.633 145.524 348.314 151.488 352.388 153.472C355.256 154.637 358.367 155.075 361.446 154.747C364.325 154.568 367.137 153.804 369.712 152.503L369.842 152.432C370.737 151.946 371.517 151.272 372.129 150.457C372.74 149.642 373.169 148.705 373.385 147.709C373.808 145.878 374.096 144.019 374.247 142.147C374.284 141.085 374.399 140.027 374.589 138.982C374.779 137.932 375.263 136.958 375.983 136.171C376.343 135.787 376.792 135.498 377.29 135.329C377.789 135.16 378.321 135.117 378.841 135.203C379.021 135.249 379.195 135.316 379.36 135.404C380.069 131.188 380.281 127.574 379.124 126.11Z" fill="#263238"/>
<path d="M370.03 126.83C369.615 128.583 369.747 130.421 370.408 132.097C371.06 133.763 371.585 135.477 371.979 137.222C372.306 138.974 372.07 140.785 371.306 142.395C370.919 143.184 370.365 143.879 369.682 144.432C368.998 144.985 368.202 145.382 367.35 145.595C364.681 146.173 362.071 144.591 359.402 144.071C356.831 143.612 354.18 144.085 351.927 145.406C351.736 145.521 351.517 145.584 351.294 145.589C351.071 145.594 350.85 145.541 350.654 145.435C350.457 145.329 350.291 145.174 350.173 144.984C350.055 144.795 349.988 144.578 349.979 144.355C349.66 138.958 349.671 130.491 350.451 126.511L370.03 126.83Z" fill="#FFA8A7"/>
<path d="M374.73 144.815C374.73 144.815 374.73 147.012 374.624 149.622C375.754 148.67 376.576 147.404 376.986 145.985C376.109 145.907 375.299 145.487 374.73 144.815Z" fill="#37474F"/>
<path d="M358.611 136.407L354.088 141.981L358.245 143.469L358.611 136.407Z" fill="#F28F8F"/>
<path d="M362.036 146.268L358.493 147.354C358.712 147.77 359.062 148.103 359.489 148.302C359.915 148.5 360.395 148.553 360.855 148.452C361.272 148.279 361.618 147.967 361.833 147.569C362.047 147.171 362.119 146.712 362.036 146.268Z" fill="#F28F8F"/>
<path opacity="0.3" d="M362.036 146.268L358.493 147.354C358.712 147.77 359.062 148.103 359.489 148.302C359.915 148.5 360.395 148.553 360.855 148.452C361.272 148.279 361.618 147.967 361.833 147.569C362.047 147.171 362.119 146.712 362.036 146.268Z" fill="black"/>
<path d="M359.78 148.346C360.157 148.494 360.57 148.519 360.961 148.417C361.296 148.299 361.588 148.082 361.799 147.796C362.01 147.51 362.129 147.166 362.142 146.811C361.677 146.736 361.2 146.828 360.796 147.071C360.547 147.201 360.328 147.382 360.154 147.602C359.979 147.821 359.852 148.075 359.78 148.346Z" fill="#F28F8F"/>
<path d="M364.775 137.636C364.758 137.882 364.669 138.118 364.519 138.314C364.369 138.509 364.164 138.656 363.93 138.736C363.696 138.816 363.444 138.824 363.206 138.761C362.967 138.698 362.752 138.566 362.589 138.381C362.425 138.196 362.32 137.967 362.286 137.722C362.252 137.478 362.292 137.228 362.399 137.006C362.507 136.784 362.677 136.598 362.89 136.473C363.103 136.348 363.348 136.288 363.594 136.301C363.927 136.322 364.239 136.475 364.46 136.725C364.681 136.975 364.795 137.302 364.775 137.636Z" fill="#263238"/>
<path d="M354.371 136.655C354.353 136.985 354.205 137.295 353.959 137.516C353.714 137.737 353.39 137.852 353.06 137.836C352.746 137.794 352.459 137.635 352.256 137.391C352.054 137.147 351.95 136.835 351.967 136.519C351.983 136.202 352.118 135.903 352.345 135.681C352.571 135.459 352.873 135.33 353.19 135.321C353.356 135.33 353.518 135.372 353.667 135.444C353.816 135.516 353.95 135.617 354.06 135.741C354.17 135.865 354.254 136.01 354.307 136.167C354.361 136.324 354.382 136.49 354.371 136.655Z" fill="#263238"/>
<path d="M353.427 131.577L350.569 133.36C350.466 133.008 350.474 132.633 350.59 132.285C350.706 131.937 350.925 131.632 351.218 131.412C351.564 131.227 351.955 131.144 352.346 131.174C352.738 131.203 353.112 131.343 353.427 131.577Z" fill="#263238"/>
<path d="M364.067 132.002L366.713 134.081C366.85 133.742 366.884 133.37 366.808 133.012C366.732 132.654 366.551 132.327 366.288 132.073C365.962 131.854 365.58 131.731 365.188 131.718C364.795 131.706 364.407 131.804 364.067 132.002Z" fill="#263238"/>
<path d="M381.037 137.187C380.706 136.393 380.097 135.747 379.325 135.368C379.16 135.281 378.986 135.214 378.805 135.168C378.286 135.082 377.753 135.125 377.255 135.294C376.756 135.463 376.307 135.752 375.947 136.136C375.227 136.923 374.744 137.897 374.554 138.946C374.363 139.992 374.249 141.049 374.211 142.111C374.058 144.028 373.762 145.931 373.326 147.803C373.1 148.782 372.667 149.7 372.056 150.497C371.445 151.293 370.669 151.949 369.783 152.421H369.665C367.09 153.722 364.278 154.485 361.398 154.664V163.132L373.137 156.188C373.547 155.942 373.889 155.597 374.13 155.184C374.371 154.771 374.505 154.304 374.518 153.826C374.518 152.468 374.577 150.98 374.613 149.598C374.672 146.989 374.719 144.792 374.719 144.792C375.274 145.457 376.066 145.88 376.927 145.973C377.316 146.06 377.72 146.06 378.108 145.973C378.666 145.795 379.182 145.505 379.625 145.121C380.067 144.738 380.427 144.268 380.683 143.741C381.206 142.678 381.488 141.513 381.509 140.328C381.599 139.259 381.438 138.183 381.037 137.187Z" fill="#FFA8A7"/>
<path opacity="0.2" d="M371.389 152.314C372.078 151.407 372.569 150.365 372.829 149.256C372.192 150.603 371.141 151.712 369.83 152.421H369.712C367.137 153.722 364.324 154.485 361.445 154.664V156.896C363.12 156.749 364.77 156.396 366.358 155.845C368.333 155.163 370.076 153.94 371.389 152.314Z" fill="black"/>
<path d="M375.912 124.256C372.995 126.854 368.366 128.035 364.492 128.531C360.6 128.956 356.662 128.623 352.896 127.55C351.274 127.28 349.801 126.443 348.739 125.189C348.233 124.363 347.935 123.427 347.868 122.461C347.802 121.494 347.971 120.526 348.359 119.639C348.748 118.752 349.345 117.972 350.1 117.365C350.855 116.759 351.745 116.343 352.695 116.155C356.367 115.482 359.887 118.339 363.606 118.115C365.227 117.898 366.815 117.478 368.33 116.863C369.834 116.254 371.501 116.179 373.054 116.651C373.693 116.928 374.265 117.339 374.732 117.857C375.198 118.374 375.548 118.986 375.758 119.65C376.245 121.14 376.298 122.737 375.912 124.256Z" fill="#263238"/>
<path d="M337.555 219.768L329.076 184.967C328.943 184.429 328.703 183.924 328.37 183.482C328.038 183.039 327.619 182.669 327.139 182.392L305.883 170.146C305.76 170.078 305.622 170.042 305.481 170.04C305.059 170.032 304.646 170.158 304.3 170.4C303.954 170.642 303.694 170.987 303.557 171.386C303.477 171.556 303.456 171.747 303.497 171.929L312.024 206.731C312.156 207.27 312.395 207.777 312.728 208.222C313.061 208.666 313.48 209.039 313.96 209.317L335.217 221.551C335.388 221.651 335.589 221.684 335.784 221.646C336.163 221.573 336.52 221.414 336.827 221.18C337.134 220.947 337.383 220.645 337.555 220.3C337.56 220.276 337.56 220.252 337.555 220.229C337.599 220.078 337.599 219.918 337.555 219.768Z" fill="#407BFF"/>
<path opacity="0.3" d="M336.386 220.665L327.895 185.84C327.761 185.302 327.52 184.796 327.188 184.352C326.855 183.908 326.437 183.535 325.959 183.254L304.702 171.02C304.602 170.959 304.491 170.921 304.375 170.907C304.259 170.892 304.141 170.903 304.03 170.937C303.918 170.972 303.815 171.03 303.727 171.107C303.64 171.184 303.57 171.279 303.521 171.386C303.442 171.555 303.421 171.747 303.462 171.929L311.988 206.731C312.12 207.27 312.36 207.777 312.693 208.221C313.026 208.666 313.445 209.038 313.925 209.317L335.182 221.551C335.321 221.621 335.477 221.651 335.632 221.636C335.787 221.621 335.935 221.563 336.058 221.468C336.182 221.373 336.276 221.245 336.329 221.099C336.383 220.953 336.395 220.794 336.363 220.642L336.386 220.665Z" fill="black"/>
<path d="M388.038 161.762C383.315 166.615 377.741 182.581 375.414 189.808L370.278 204.216C362.873 204.593 362.117 205.609 356.036 206.672C354.099 207.014 349.682 207.959 346.754 208.29C346.215 208.32 345.675 208.32 345.136 208.29C342.668 207.959 340.743 205.432 333.799 204.652L334.909 209.105C330.481 210.002 325.131 203.826 322.864 204.83C320.597 205.833 323.785 208.124 323.785 208.124C323.583 209.006 323.651 209.927 323.98 210.769C324.308 211.612 324.882 212.336 325.627 212.848C325.627 215.635 328.19 217.997 334.638 219.52C338.039 220.205 341.723 218.871 344.852 218.871H347.391L375.733 219.497C377.378 219.496 378.989 219.039 380.389 218.176C381.788 217.312 382.919 216.077 383.657 214.608C386.019 209.789 389.562 202.798 390.436 200.637C402.812 170.985 401.784 164.702 388.038 161.762Z" fill="#FFA8A7"/>
<path opacity="0.2" d="M370.278 204.215C373.254 204.202 376.22 204.551 379.112 205.254C377.111 202.947 374.606 201.133 371.79 199.952L370.278 204.215Z" fill="black"/>
<path d="M388.039 161.762C377.494 172.626 372.829 193.505 372.829 193.505C382.017 203.436 392.09 199.043 392.09 199.043C392.09 199.043 397.239 188.285 399.081 179.227C401.596 165.446 396.388 163.403 388.039 161.762Z" fill="#455A64"/>
<path opacity="0.4" d="M388.039 161.762C377.494 172.626 372.829 193.505 372.829 193.505C382.017 203.436 392.09 199.043 392.09 199.043C392.09 199.043 397.239 188.285 399.081 179.227C401.596 165.446 396.388 163.403 388.039 161.762Z" fill="white"/>
<path d="M349.459 212.505H345.691V208.006L349.459 207.534V212.505Z" fill="#37474F"/>
<path d="M349.459 219.331H345.691V214.832L349.459 214.359V219.331Z" fill="#37474F"/>
<path d="M351.514 214.761C351.514 213.108 349.779 211.773 347.641 211.773C345.504 211.773 343.756 213.108 343.756 214.761V215.73H343.992C344.38 216.347 344.918 216.855 345.557 217.208C346.195 217.561 346.912 217.746 347.641 217.746C348.37 217.746 349.087 217.561 349.726 217.208C350.364 216.855 350.902 216.347 351.29 215.73H351.514V214.761Z" fill="#263238"/>
<path d="M351.514 215.765C351.514 217.418 349.779 218.764 347.641 218.764C345.504 218.764 343.756 217.418 343.756 215.765C343.756 214.111 345.492 212.777 347.641 212.777C349.79 212.777 351.514 214.123 351.514 215.765Z" fill="#455A64"/>
<path d="M347.581 217.548C346.956 217.609 346.329 217.444 345.816 217.082C345.302 216.72 344.935 216.185 344.783 215.576C344.777 215.639 344.777 215.702 344.783 215.765C344.95 216.387 345.318 216.937 345.829 217.329C346.34 217.721 346.967 217.933 347.611 217.933C348.255 217.933 348.881 217.721 349.393 217.329C349.904 216.937 350.272 216.387 350.439 215.765C350.445 215.702 350.445 215.639 350.439 215.576C350.285 216.196 349.91 216.739 349.384 217.103C348.857 217.466 348.216 217.624 347.581 217.548Z" fill="#263238"/>
<path d="M347.581 217.548C347.945 217.42 348.267 217.194 348.511 216.895C348.756 216.596 348.913 216.236 348.966 215.854C349.019 215.471 348.966 215.082 348.812 214.728C348.659 214.373 348.411 214.068 348.095 213.846C347.779 213.624 347.409 213.493 347.024 213.467C346.638 213.441 346.254 213.522 345.912 213.701C345.569 213.88 345.283 214.149 345.084 214.48C344.885 214.81 344.78 215.189 344.782 215.575C344.935 216.185 345.302 216.72 345.815 217.082C346.329 217.443 346.956 217.609 347.581 217.548Z" fill="#37474F"/>
<path d="M157.702 278.318C151.278 273.192 145.964 282.805 142.091 293.528C139.729 300.023 137.367 306.376 135.773 310.356C135.278 311.639 135.119 313.028 135.312 314.389C135.504 315.751 136.041 317.042 136.871 318.138L148.291 333.325L153.392 322.295L147.062 312.706L153.51 300.897L157.702 278.318Z" fill="#455A64"/>
<path opacity="0.2" d="M148.774 309.576L153.498 300.92L155.706 289.005L148.349 293.374C147.329 295.965 146.841 298.735 146.914 301.519C146.987 304.302 147.62 307.042 148.774 309.576Z" fill="black"/>
<path opacity="0.2" d="M145.291 329.31L148.291 333.301L153.392 322.271L149.849 316.934C149.142 319.273 148.229 321.545 147.121 323.724C146.261 325.494 145.645 327.373 145.291 329.31Z" fill="black"/>
<path d="M174.236 472.908C174.507 471.952 174.732 470.984 174.921 470.003C176.145 472.033 177.828 473.747 179.833 475.01C181.569 476.051 183.441 476.845 185.395 477.372C188.853 478.354 192.429 478.854 196.023 478.86C197.216 478.985 198.41 478.651 199.365 477.927C199.68 477.604 199.901 477.202 200.005 476.763C200.109 476.324 200.092 475.865 199.956 475.436C199.82 475.059 199.598 474.719 199.306 474.444C199.696 474.55 200.098 474.644 200.487 474.727C201.9 474.923 203.267 475.367 204.526 476.038C205.138 476.385 205.629 476.909 205.935 477.542C206.241 478.175 206.347 478.886 206.238 479.581C205.987 480.177 205.61 480.713 205.133 481.151C204.656 481.589 204.091 481.919 203.475 482.12C198.915 484.128 193.777 484.397 189.032 482.875C186.104 481.931 183.281 480.289 180.211 480.372C178.452 480.372 176.527 480.998 175.062 480.041C174.545 479.652 174.131 479.141 173.857 478.554C173.584 477.967 173.458 477.322 173.492 476.676C173.571 475.392 173.821 474.125 174.236 472.908Z" fill="#37474F"/>
<path d="M150.617 453.872C151.033 454.68 151.617 455.389 152.33 455.951C152.937 456.418 153.643 456.741 154.394 456.897C155.144 457.052 155.92 457.035 156.664 456.848C158.078 456.329 159.338 455.46 160.324 454.321L164.162 450.578C165.166 449.609 166.253 448.44 166.158 447.035C166.038 446.315 165.686 445.653 165.155 445.152C164.624 444.651 163.944 444.338 163.218 444.26C162.358 444.145 161.484 444.197 160.643 444.413L161.021 444.13C162.003 443.434 163.056 442.845 164.162 442.37C165.334 441.757 166.685 441.577 167.977 441.862C168.739 442.16 169.396 442.678 169.861 443.352C170.326 444.025 170.579 444.823 170.587 445.641C170.578 447.292 169.993 448.887 168.933 450.152C167.893 451.419 166.756 452.604 165.532 453.695C163.942 455.229 162.477 456.888 161.151 458.655C160.234 460.011 159.195 461.28 158.045 462.446C156.88 463.616 155.304 464.285 153.652 464.312C152.966 464.296 152.298 464.093 151.719 463.725C151.14 463.356 150.673 462.836 150.369 462.221C150.08 461.4 149.983 460.523 150.086 459.659C150.162 457.722 150.34 455.791 150.617 453.872Z" fill="#37474F"/>
<path d="M199.92 475.4C199.784 475.023 199.562 474.683 199.27 474.408C194.044 473.143 189.083 470.964 184.615 467.972C185.3 451.959 191.11 410.379 191.11 410.379C191.11 410.379 193.129 374.857 190.437 340.776L146.472 336.395C145.291 340.398 142.504 355.467 151.053 395.122C143.968 415.032 148.916 426.18 151.053 450.625H151.136C151.136 450.814 151.053 451.003 151.018 451.192C150.853 452.054 150.746 452.928 150.617 453.801C151.032 454.609 151.616 455.318 152.329 455.88C152.931 456.359 153.634 456.695 154.384 456.863C155.135 457.031 155.914 457.026 156.663 456.848C158.077 456.329 159.337 455.46 160.324 454.321L164.162 450.577C165.165 449.609 166.252 448.44 166.157 447.035C166.038 446.314 165.685 445.653 165.154 445.152C164.623 444.651 163.943 444.337 163.217 444.26C162.357 444.145 161.483 444.197 160.643 444.413C160.229 444.732 159.839 445.039 159.462 445.322L166.854 400.672L168.59 368.61L172.936 408.561C166.854 425.896 175.77 435.509 175.77 463.225C175.697 465.499 175.428 467.763 174.967 469.992C176.192 472.021 177.874 473.736 179.88 474.999C181.616 476.039 183.488 476.834 185.442 477.361C188.899 478.342 192.476 478.843 196.07 478.849C197.262 478.973 198.457 478.639 199.412 477.916C199.717 477.582 199.925 477.171 200.014 476.728C200.104 476.285 200.071 475.826 199.92 475.4Z" fill="#FFA8A7"/>
<path opacity="0.2" d="M199.92 475.4C199.784 475.023 199.562 474.683 199.27 474.408C194.044 473.143 189.083 470.964 184.615 467.972C185.3 451.959 191.11 410.379 191.11 410.379C191.11 410.379 193.129 374.857 190.437 340.776L146.472 336.395C145.291 340.398 142.504 355.467 151.053 395.122C143.968 415.032 148.916 426.18 151.053 450.625H151.136C151.136 450.814 151.053 451.003 151.018 451.192C150.853 452.054 150.746 452.928 150.617 453.801C151.032 454.609 151.616 455.318 152.329 455.88C152.931 456.359 153.634 456.695 154.384 456.863C155.135 457.031 155.914 457.026 156.663 456.848C158.077 456.329 159.337 455.46 160.324 454.321L164.162 450.577C165.165 449.609 166.252 448.44 166.157 447.035C166.038 446.314 165.685 445.653 165.154 445.152C164.623 444.651 163.943 444.337 163.217 444.26C162.357 444.145 161.483 444.197 160.643 444.413C160.229 444.732 159.839 445.039 159.462 445.322L166.854 400.672L168.59 368.61L172.936 408.561C166.854 425.896 175.77 435.509 175.77 463.225C175.697 465.499 175.428 467.763 174.967 469.992C176.192 472.021 177.874 473.736 179.88 474.999C181.616 476.039 183.488 476.834 185.442 477.361C188.899 478.342 192.476 478.843 196.07 478.849C197.262 478.973 198.457 478.639 199.412 477.916C199.717 477.582 199.925 477.171 200.014 476.728C200.104 476.285 200.071 475.826 199.92 475.4Z" fill="black"/>
<path opacity="0.2" d="M191.784 388.769C191.961 375.578 191.784 357.994 190.437 340.776L146.472 336.395C145.409 340.162 142.847 353.719 149.649 388.355C154.742 392.122 160.806 394.355 167.126 394.791L168.543 368.681L171.413 395.145C178.75 395.546 185.985 393.281 191.784 388.769Z" fill="black"/>
<path d="M190.461 339.395L146.472 336.395C142.197 348.511 143.059 362.977 146.472 383.785C151.786 390.386 171.484 395.677 183.151 389.205L184.545 374.834L186.186 389.536C189.729 388.225 192.87 387.08 193.602 381.872C193.507 367.658 192.458 353.467 190.461 339.395Z" fill="#407BFF"/>
<path d="M183.435 255.88L186.505 261.631L183.824 263.474C183.612 261.017 183.588 258.337 183.435 255.88Z" fill="#F28F8F"/>
<path opacity="0.3" d="M183.435 255.88L186.505 261.631L183.824 263.474C183.612 261.017 183.588 258.337 183.435 255.88Z" fill="black"/>
<path d="M219.168 329.309C222.603 330.992 226.302 332.071 230.103 332.498C233.922 332.917 237.782 332.25 241.239 330.573C244.716 328.794 247.363 325.732 248.62 322.035C248.073 321.448 247.343 321.064 246.549 320.946C245.755 320.828 244.945 320.983 244.251 321.385C240.912 323.245 236.975 323.716 233.292 322.696C234.451 321.513 235.488 320.215 236.386 318.823C236.834 318.138 237.236 317.24 236.787 316.555C236.584 316.302 236.305 316.119 235.99 316.034C235.676 315.949 235.343 315.966 235.039 316.083C234.437 316.331 233.884 316.687 233.41 317.134C230.625 319.378 227.339 320.918 223.833 321.621C222.392 324.054 220.597 326.947 219.168 329.309Z" fill="#FFA8A7"/>
<path d="M178.959 281.541C173.22 279.77 156.521 276.121 152.294 279.935C148.598 283.277 146.2 294.768 151.184 309.517C152.63 313.727 152.419 318.33 150.593 322.389C148.43 327.042 146.741 331.9 145.551 336.891C159.025 350.566 182.643 348.452 191.536 342.63C191.417 331.694 190.474 320.783 188.713 309.99L178.959 281.541Z" fill="#455A64"/>
<path d="M180.977 247.52C182.913 250.503 184.1 253.91 184.437 257.451C184.779 260.984 184.83 264.538 184.591 268.079C184.67 269.454 184.333 270.82 183.622 272C183.071 272.593 182.393 273.056 181.639 273.352C180.884 273.648 180.073 273.771 179.265 273.712C177.647 273.712 176.171 273.712 174.411 273.712L174.069 281.034C168.282 284.246 161.787 282.002 160.099 279.723L160.394 272.555C169.381 274.244 174.234 271.161 175.073 265.599C174.163 265.768 173.227 265.734 172.331 265.502C171.435 265.269 170.602 264.843 169.888 264.253C169.247 263.617 168.76 262.842 168.466 261.989C168.171 261.135 168.076 260.225 168.188 259.329C168.259 258.522 168.581 257.758 169.109 257.144C169.588 256.685 170.186 256.37 170.835 256.234C171.485 256.098 172.159 256.148 172.782 256.376C174.027 256.859 175.058 257.772 175.687 258.951C176.305 260.127 176.759 261.382 177.033 262.682C177.561 262.255 177.948 261.678 178.142 261.026C178.336 260.375 178.328 259.68 178.119 259.033C177.871 258.372 177.399 257.734 177.493 257.038C177.588 256.341 178.415 255.762 178.792 255.066C179.087 254.445 179.137 253.737 178.934 253.082C178.718 252.438 178.424 251.824 178.06 251.251C178.865 249.885 179.846 248.63 180.977 247.52Z" fill="#FFA8A7"/>
<path opacity="0.2" d="M180.977 247.52C182.913 250.503 184.1 253.91 184.437 257.451C184.779 260.984 184.83 264.538 184.591 268.079C184.67 269.454 184.333 270.82 183.622 272C183.071 272.593 182.393 273.056 181.639 273.352C180.884 273.648 180.073 273.771 179.265 273.712C177.647 273.712 176.171 273.712 174.411 273.712L174.069 281.034C168.282 284.246 161.787 282.002 160.099 279.723L160.394 272.555C169.381 274.244 174.234 271.161 175.073 265.599C174.163 265.768 173.227 265.734 172.331 265.502C171.435 265.269 170.602 264.843 169.888 264.253C169.247 263.617 168.76 262.842 168.466 261.989C168.171 261.135 168.076 260.225 168.188 259.329C168.259 258.522 168.581 257.758 169.109 257.144C169.588 256.685 170.186 256.37 170.835 256.234C171.485 256.098 172.159 256.148 172.782 256.376C174.027 256.859 175.058 257.772 175.687 258.951C176.305 260.127 176.759 261.382 177.033 262.682C177.561 262.255 177.948 261.678 178.142 261.026C178.336 260.375 178.328 259.68 178.119 259.033C177.871 258.372 177.399 257.734 177.493 257.038C177.588 256.341 178.415 255.762 178.792 255.066C179.087 254.445 179.137 253.737 178.934 253.082C178.718 252.438 178.424 251.824 178.06 251.251C178.865 249.885 179.846 248.63 180.977 247.52Z" fill="black"/>
<path opacity="0.2" d="M190.52 323.854C189.717 315.729 188.713 309.99 188.713 309.99L181.191 288.048L178.356 291.957C180.069 302.326 184.143 315.138 190.52 323.854Z" fill="black"/>
<path opacity="0.2" d="M219.168 329.309C222.603 330.992 226.302 332.071 230.103 332.498C233.922 332.917 237.782 332.25 241.239 330.573C244.716 328.794 247.363 325.732 248.62 322.035C248.073 321.448 247.343 321.064 246.549 320.946C245.755 320.828 244.945 320.983 244.251 321.385C240.912 323.245 236.975 323.716 233.292 322.696C234.451 321.513 235.488 320.215 236.386 318.823C236.834 318.138 237.236 317.24 236.787 316.555C236.584 316.302 236.305 316.119 235.99 316.034C235.676 315.949 235.343 315.966 235.039 316.083C234.437 316.331 233.884 316.687 233.41 317.134C230.625 319.378 227.339 320.918 223.833 321.621C222.392 324.054 220.597 326.947 219.168 329.309Z" fill="black"/>
<path d="M178.958 281.542C189.587 276.936 190.768 287.009 196.554 297.72C200.097 304.605 204.502 311.242 204.502 311.242C210.585 315.117 217.168 318.144 224.069 320.24C226.372 326.322 221.034 332.286 221.034 332.286L198.337 322.389C194.488 320.708 191.245 317.889 189.043 314.312C180.872 301.062 174.884 291.674 178.958 281.542Z" fill="#455A64"/>
<path d="M180.21 251.05C182.572 248.405 185.075 245.547 185.595 242.028C185.883 240.03 185.496 237.993 184.495 236.24C183.495 234.487 181.938 233.118 180.071 232.349C178.205 231.581 176.135 231.457 174.19 231.997C172.245 232.537 170.536 233.711 169.334 235.332C163.618 232.77 155.434 234.411 151.49 239.289C147.546 244.166 147.227 251.405 147.947 257.841C148.668 264.277 149.978 270.831 148.349 277.125C146.884 282.746 143.07 287.848 143.212 293.658C143.311 295.639 143.815 297.579 144.693 299.358C145.57 301.137 146.802 302.718 148.313 304.003C151.36 306.552 155.08 308.165 159.024 308.644C162.519 309.203 166.099 308.832 169.404 307.569C172.718 306.274 175.419 303.772 176.962 300.566C178.781 296.527 178.238 291.851 177.234 287.576C176.23 283.301 174.872 278.967 174.99 274.586C175.285 266.473 180.729 259.081 180.21 251.05Z" fill="#263238"/>
</svg>
