<svg width="524" height="496" viewBox="0 0 524 496" fill="none" xmlns="http://www.w3.org/2000/svg">
<path d="M349.096 473.949H359.062V362.205H349.096V473.949Z" fill="#E0E0E0"/>
<path d="M283.599 367.248H426.077C426.077 363.409 424.448 359.726 421.548 357.011C418.649 354.296 414.716 352.771 410.615 352.771H299.061C294.961 352.774 291.03 354.3 288.131 357.015C285.232 359.729 283.602 363.409 283.599 367.248Z" fill="#EBEBEB"/>
<path d="M426.652 367.798H283.022V367.248C283.029 363.267 284.721 359.452 287.727 356.637C290.733 353.822 294.809 352.238 299.06 352.232H410.614C414.866 352.238 418.941 353.822 421.947 356.637C424.954 359.452 426.645 363.267 426.652 367.248V367.798ZM284.185 366.709H425.489C425.337 363.11 423.704 359.705 420.931 357.207C418.159 354.71 414.462 353.313 410.614 353.31H299.06C295.213 353.313 291.516 354.71 288.743 357.207C285.97 359.705 284.337 363.11 284.185 366.709Z" fill="#E0E0E0"/>
<path d="M344.407 367.535C344.407 367.729 348.325 367.878 353.148 367.878C357.972 367.878 361.89 367.729 361.89 367.535C358.991 367.196 356.067 367.081 353.148 367.191C350.23 367.081 347.306 367.196 344.407 367.535Z" fill="#E0E0E0"/>
<path d="M310.507 484.047H311.915C311.819 478.779 312.845 473.545 314.932 468.651C317.02 463.758 320.127 459.302 324.073 455.545C328.018 451.787 332.724 448.803 337.914 446.766C343.105 444.729 348.677 443.679 354.305 443.679C359.933 443.679 365.505 444.729 370.695 446.766C375.886 448.803 380.591 451.787 384.537 455.545C388.483 459.302 391.59 463.758 393.677 468.651C395.764 473.545 396.79 478.779 396.695 484.047H398.102C398.2 478.605 397.139 473.198 394.981 468.144C392.824 463.089 389.613 458.487 385.537 454.606C381.46 450.724 376.599 447.642 371.237 445.538C365.875 443.434 360.119 442.35 354.305 442.35C348.491 442.35 342.735 443.434 337.373 445.538C332.011 447.642 327.15 450.724 323.073 454.606C318.996 458.487 315.786 463.089 313.628 468.144C311.471 473.198 310.41 478.605 310.507 484.047Z" fill="#EBEBEB"/>
<path d="M390.831 486.099C390.829 487.317 391.212 488.508 391.933 489.522C392.654 490.536 393.68 491.327 394.881 491.794C396.082 492.262 397.404 492.385 398.68 492.149C399.956 491.913 401.129 491.328 402.05 490.467C402.97 489.607 403.598 488.51 403.852 487.316C404.107 486.122 403.978 484.883 403.48 483.758C402.983 482.633 402.14 481.671 401.059 480.994C399.978 480.317 398.706 479.956 397.405 479.956C396.543 479.954 395.688 480.112 394.89 480.42C394.093 480.728 393.368 481.18 392.757 481.751C392.147 482.322 391.662 482.999 391.332 483.746C391.001 484.492 390.831 485.292 390.831 486.099Z" fill="#E0E0E0"/>
<path d="M304.313 485.251C304.31 486.469 304.694 487.66 305.415 488.674C306.135 489.687 307.161 490.478 308.362 490.946C309.563 491.413 310.886 491.537 312.162 491.301C313.438 491.064 314.61 490.479 315.531 489.619C316.452 488.758 317.079 487.662 317.334 486.467C317.588 485.273 317.459 484.035 316.962 482.91C316.464 481.784 315.622 480.822 314.54 480.145C313.459 479.468 312.188 479.107 310.887 479.107C309.145 479.107 307.475 479.754 306.242 480.906C305.01 482.058 304.316 483.62 304.313 485.251Z" fill="#E0E0E0"/>
<path d="M310.936 473.938C310.936 474.132 329.985 474.281 353.491 474.281C376.996 474.281 396.058 474.132 396.058 473.938C396.058 473.743 377.009 473.594 353.491 473.594C329.973 473.594 310.936 473.731 310.936 473.938Z" fill="#EBEBEB"/>
<path d="M430.264 251.572V333.824C430.272 336.388 429.74 338.928 428.698 341.299C427.655 343.669 426.123 345.824 424.19 347.64C422.257 349.455 419.96 350.896 417.431 351.878C414.902 352.861 412.19 353.367 409.452 353.367H341.689L350.896 251.572C350.894 250.428 351.133 249.296 351.6 248.239C352.066 247.182 352.75 246.222 353.613 245.413C354.476 244.603 355.501 243.962 356.629 243.524C357.757 243.086 358.967 242.86 360.188 242.86H420.96C423.428 242.86 425.794 243.778 427.539 245.412C429.284 247.045 430.264 249.261 430.264 251.572Z" fill="#EBEBEB"/>
<path d="M406.33 352.771C406.371 352.685 406.425 352.604 406.489 352.531L406.979 351.854C407.432 351.281 408.069 350.399 408.84 349.252C411.016 345.984 412.712 342.456 413.884 338.764C414.701 336.229 415.263 333.627 415.561 330.993C415.841 327.944 415.931 324.882 415.83 321.823C415.83 315.347 415.83 308.252 415.83 300.79C415.83 285.889 415.904 272.421 415.928 262.587C415.928 257.75 416.014 253.807 416.051 251.01C416.051 249.692 416.051 248.637 416.112 247.858C416.105 247.494 416.13 247.13 416.185 246.769C416.241 247.13 416.266 247.494 416.259 247.858C416.259 248.637 416.259 249.692 416.32 251.01C416.32 253.807 416.393 257.75 416.43 262.587C416.43 272.421 416.504 285.901 416.54 300.79C416.54 308.252 416.54 315.347 416.54 321.823C416.615 324.884 416.501 327.945 416.198 330.993C415.877 333.658 415.282 336.287 414.422 338.845C413.194 342.558 411.409 346.089 409.121 349.333C408.313 350.479 407.64 351.327 407.15 351.877C406.915 352.204 406.639 352.504 406.33 352.771Z" fill="#E0E0E0"/>
<path d="M369.468 352.817C370.181 352.723 370.902 352.685 371.622 352.703L377.487 352.634C382.384 352.634 389.288 352.634 396.842 352.634C400.625 352.634 404.188 352.634 407.493 352.748C410.419 352.7 413.34 353 416.185 353.642C418.108 354.122 419.893 354.995 421.413 356.199C421.826 356.521 422.207 356.878 422.551 357.265C422.796 357.528 422.906 357.666 422.894 357.689C422.882 357.712 422.343 357.173 421.241 356.405C419.7 355.318 417.938 354.538 416.063 354.112C413.248 353.55 410.37 353.307 407.493 353.39L396.842 353.322C389.288 353.322 382.445 353.184 377.499 353.092L371.635 352.955C370.91 352.964 370.185 352.918 369.468 352.817Z" fill="#E0E0E0"/>
<path d="M507.098 305.914H128.18V318.396H507.098V305.914Z" fill="#E0E0E0"/>
<path d="M146.898 316.86L109.424 492.3H115.765L160.132 318.396L146.898 316.86Z" fill="#E0E0E0"/>
<path d="M462.364 316.493L499.826 492.3H493.496L449.117 318.396L462.364 316.493Z" fill="#E0E0E0"/>
<path d="M201.255 267.412V289.19H197.374V291.483H201.255V306.04H273.78V292.778H268.405V289.901H273.78V285.568H276.228V283.597H273.4V267.412H201.255Z" fill="#F5F5F5"/>
<path d="M254.522 267.412V305.788H273.78V292.537H268.406V289.901L273.78 289.981V285.66H276.216L276.167 283.425L273.339 283.356V267.355L254.522 267.412Z" fill="#E0E0E0"/>
<path d="M255.893 291.162C255.893 291.288 242.769 291.403 226.585 291.403C210.4 291.403 197.264 291.288 197.264 291.162C197.264 291.036 210.388 290.921 226.585 290.921C242.781 290.921 255.893 291.025 255.893 291.162Z" fill="#E0E0E0"/>
<path d="M255.893 288.95C255.893 289.076 242.769 289.19 226.585 289.19C210.4 289.19 197.264 289.076 197.264 288.95C197.264 288.824 210.388 288.709 226.585 288.709C242.781 288.709 255.893 288.812 255.893 288.95Z" fill="#E0E0E0"/>
<path d="M259.664 283.001C259.664 283.127 246.54 283.242 230.282 283.242C214.024 283.242 200.974 283.127 200.974 283.001C200.974 282.875 214.098 282.76 230.282 282.76C246.467 282.76 259.664 282.863 259.664 283.001Z" fill="#E0E0E0"/>
<path d="M260.02 299.208C260.02 299.346 246.896 299.449 230.711 299.449C214.526 299.449 201.402 299.346 201.402 299.208C201.402 299.071 214.514 298.968 230.711 298.968C246.908 298.968 260.02 299.071 260.02 299.208Z" fill="#E0E0E0"/>
<path d="M121.201 0.309326H0.195312V101.669H121.201V0.309326Z" fill="#FAFAFA"/>
<path d="M121.201 101.669C121.201 101.669 121.201 101.016 121.201 99.7897C121.201 98.5632 121.201 96.7178 121.201 94.3566C121.201 89.5998 121.201 82.6423 121.128 73.7247C121.128 56.0156 121.042 30.7072 120.981 0.252165L121.262 0.504334H0.257092L0.575401 0.206319C0.575401 37.0801 0.575401 71.7761 0.575401 101.566L0.293818 101.291L87.8157 101.429L112.497 101.498H119.034H120.711H121.299H119.095H112.619L87.9994 101.566L0.293818 101.704H0V101.44C0 71.6386 0 36.954 0 0.0802349V0H0.330549H121.336H121.605V0.343864C121.605 30.8676 121.507 56.2219 121.47 73.9769C121.47 82.8142 121.47 89.7488 121.397 94.4941C121.397 96.7866 121.397 98.6435 121.397 99.8699C121.397 101.096 121.201 101.669 121.201 101.669Z" fill="#E0E0E0"/>
<path d="M46.5952 18.3166C46.5952 18.477 40.2168 18.6146 32.3694 18.6146C24.5219 18.6146 18.1436 18.477 18.1436 18.3166C18.1436 18.1561 24.5097 18.0071 32.3694 18.0071C40.2291 18.0071 46.5952 18.1446 46.5952 18.3166Z" fill="#E0E0E0"/>
<path d="M97.8668 25.9274C97.8668 26.0879 80.36 26.2254 58.7887 26.2254C37.2173 26.2254 19.6982 26.0879 19.6982 25.9274C19.6982 25.7669 37.1928 25.6179 58.7887 25.6179C80.3845 25.6179 97.8668 25.7555 97.8668 25.9274Z" fill="#E0E0E0"/>
<path d="M23.4445 38.8223H18.3516V43.5905H23.4445V38.8223Z" fill="#E0E0E0"/>
<path d="M35.9933 38.8223H30.9004V43.5905H35.9933V38.8223Z" fill="#E0E0E0"/>
<path d="M48.7745 38.6045H43.6816V43.3728H48.7745V38.6045Z" fill="#E0E0E0"/>
<path d="M61.09 38.8223H55.9971V43.5905H61.09V38.8223Z" fill="#E0E0E0"/>
<path d="M73.6388 38.8223H68.5459V43.5905H73.6388V38.8223Z" fill="#E0E0E0"/>
<path d="M86.1876 38.8223H81.0947V43.5905H86.1876V38.8223Z" fill="#E0E0E0"/>
<path d="M98.7364 38.8223H93.6436V43.5905H98.7364V38.8223Z" fill="#EBEBEB"/>
<path d="M23.4445 48.9663H18.3516V53.7346H23.4445V48.9663Z" fill="#EBEBEB"/>
<path d="M35.9933 48.9663H30.9004V53.7346H35.9933V48.9663Z" fill="#E0E0E0"/>
<path d="M48.5421 48.9663H43.4492V53.7346H48.5421V48.9663Z" fill="#EBEBEB"/>
<path d="M61.09 48.9663H55.9971V53.7346H61.09V48.9663Z" fill="#E0E0E0"/>
<path d="M73.6388 48.9663H68.5459V53.7346H73.6388V48.9663Z" fill="#E0E0E0"/>
<path d="M86.42 48.7485H81.3271V53.5168H86.42V48.7485Z" fill="#E0E0E0"/>
<path d="M98.7364 48.9663H93.6436V53.7346H98.7364V48.9663Z" fill="#E0E0E0"/>
<path d="M23.4445 59.1104H18.3516V63.8786H23.4445V59.1104Z" fill="#E0E0E0"/>
<path d="M36.2257 58.8926H31.1328V63.6608H36.2257V58.8926Z" fill="#E0E0E0"/>
<path d="M48.5421 59.1104H43.4492V63.8786H48.5421V59.1104Z" fill="#E0E0E0"/>
<path d="M61.09 59.1104H55.9971V63.8786H61.09V59.1104Z" fill="#EBEBEB"/>
<path d="M73.6388 59.1104H68.5459V63.8786H73.6388V59.1104Z" fill="#E0E0E0"/>
<path d="M86.1876 59.1104H81.0947V63.8786H86.1876V59.1104Z" fill="#E0E0E0"/>
<path d="M98.7364 59.1104H93.6436V63.8786H98.7364V59.1104Z" fill="#E0E0E0"/>
<path d="M23.4445 69.2544H18.3516V74.0227H23.4445V69.2544Z" fill="#E0E0E0"/>
<path d="M35.9933 69.2544H30.9004V74.0227H35.9933V69.2544Z" fill="#E0E0E0"/>
<path d="M48.5421 69.2544H43.4492V74.0227H48.5421V69.2544Z" fill="#E0E0E0"/>
<path d="M61.3224 69.0481H56.2295V73.8164H61.3224V69.0481Z" fill="#E0E0E0"/>
<path d="M73.6388 69.2544H68.5459V74.0227H73.6388V69.2544Z" fill="#E0E0E0"/>
<path d="M86.1876 69.2544H81.0947V74.0227H86.1876V69.2544Z" fill="#EBEBEB"/>
<path d="M98.7364 69.2544H93.6436V74.0227H98.7364V69.2544Z" fill="#E0E0E0"/>
<path d="M23.4445 79.4099H18.3516V84.1782H23.4445V79.4099Z" fill="#E0E0E0"/>
<path d="M35.9933 79.4099H30.9004V84.1782H35.9933V79.4099Z" fill="#EBEBEB"/>
<path d="M48.5421 79.4099H43.4492V84.1782H48.5421V79.4099Z" fill="#E0E0E0"/>
<path d="M61.09 79.4099H55.9971V84.1782H61.09V79.4099Z" fill="#E0E0E0"/>
<path d="M73.6388 79.4099H68.5459V84.1782H73.6388V79.4099Z" fill="#E0E0E0"/>
<path d="M86.42 79.1921H81.3271V83.9604H86.42V79.1921Z" fill="#E0E0E0"/>
<path d="M98.7364 79.4099H93.6436V84.1782H98.7364V79.4099Z" fill="#E0E0E0"/>
<path d="M504.577 13.5366H445.017V28.2884H504.577V13.5366Z" fill="#EBEBEB"/>
<path d="M479.393 43.8199C479.382 43.7323 479.382 43.6439 479.393 43.5563V42.7539C479.393 42.0547 479.393 41.0919 479.393 39.854C479.393 37.3094 479.393 33.6415 479.295 29.0222L479.478 29.1942L419.918 29.3088C420.053 29.1827 419.612 29.5954 420.212 29.0222V43.8199L419.918 43.5448L462.363 43.6709L474.887 43.7511H478.279H479.16H479.478H479.197H478.352H475.022L462.437 43.9804L419.784 44.1065H419.588V29.0796C420.188 28.5179 419.759 28.9306 419.894 28.8045L479.454 28.9076H479.576V29.0796C479.576 33.7447 479.503 37.4355 479.478 40.0145C479.478 41.2409 479.478 42.1923 479.478 42.88C479.478 43.178 479.478 43.4073 479.478 43.6021C479.456 43.6768 479.428 43.7496 479.393 43.8199Z" fill="#E0E0E0"/>
<path d="M240.444 375.592H180.884V390.344H240.444V375.592Z" fill="#EBEBEB"/>
<path d="M215.261 405.887C215.252 405.796 215.252 405.704 215.261 405.612V404.855C215.261 404.168 215.261 403.193 215.261 401.956C215.261 399.411 215.2 395.743 215.163 391.135L215.346 391.307L155.787 391.41L156.08 391.135V405.864L155.787 405.589L198.231 405.715L210.756 405.795H214.147H215.028H215.346H215.065H214.22H210.89L198.44 405.876L155.787 406.002H155.48V391.204L155.787 390.917L215.346 391.032H215.53V391.204C215.53 395.858 215.457 399.56 215.432 402.127C215.432 403.354 215.432 404.305 215.432 404.993C215.432 405.291 215.432 405.532 215.432 405.715C215.379 405.776 215.322 405.833 215.261 405.887Z" fill="#E0E0E0"/>
<path d="M503.988 219.89C503.977 219.803 503.977 219.714 503.988 219.627V218.87C503.988 218.171 503.988 217.208 503.988 215.97C503.988 213.414 503.927 209.758 503.89 205.138L504.074 205.31L444.514 205.425C444.649 205.299 444.208 205.712 444.808 205.138V219.879L444.502 219.604L486.959 219.73L499.483 219.81H502.874H503.756H504.074C503.98 219.821 503.886 219.821 503.792 219.81H502.948H499.618L487.167 219.89L444.502 220.016H444.073V205.15C444.673 204.588 444.245 205.001 444.379 204.875L503.939 204.978H504.123V205.15C504.123 209.815 504.037 213.506 504.013 216.085C504.013 217.3 504.013 218.263 504.013 218.95V219.672C504.011 219.746 504.002 219.818 503.988 219.89Z" fill="#E0E0E0"/>
<path d="M512.056 205.138C512.056 205.138 512.056 205.035 512.056 204.863C512.056 204.691 512.056 204.393 512.056 204.084C512.056 203.35 512.056 202.364 511.995 201.127C511.995 198.536 511.934 194.88 511.885 190.387L512.093 190.593L476.308 190.673L476.614 190.387V197.974C476.614 200.45 476.614 202.834 476.614 205.127L476.321 204.863L501.92 204.989L509.375 205.058H511.395H512.105C511.89 205.074 511.673 205.074 511.457 205.058H509.51L502.165 205.138L476.369 205.264H476.088V204.989C476.088 202.697 476.088 200.313 476.088 197.837C476.088 196.61 476.088 195.35 476.088 194.089V190.249L476.394 189.962L512.179 190.043H512.399V190.249C512.399 194.834 512.314 198.49 512.289 201.104C512.289 202.33 512.289 203.304 512.228 204.015C512.213 204.394 512.155 204.77 512.056 205.138Z" fill="#E0E0E0"/>
<path d="M60.4901 205.391C60.4793 205.303 60.4793 205.215 60.4901 205.127V204.37C60.4901 203.671 60.4901 202.708 60.4901 201.459C60.4901 198.914 60.4901 195.258 60.3799 190.639L60.5635 190.811L1.01586 190.925C1.13828 190.799 0.709794 191.2 1.30968 190.639V198.112C1.30968 200.58 1.30968 202.999 1.30968 205.368L1.01586 205.093L43.4607 205.219L55.9971 205.299H59.376H60.2697H60.588C60.4945 205.309 60.4 205.309 60.3065 205.299H59.4617L55.9848 205.517H43.5709L0.893432 205.666H0.599609V198.135C0.599609 196.909 0.599609 195.659 0.599609 194.41V190.616C1.21174 190.043 0.771007 190.455 0.917918 190.329L60.4656 190.444H60.6615V190.616C60.6615 195.281 60.5758 198.972 60.5513 201.539C60.5513 202.766 60.5513 203.717 60.5513 204.405V205.138C60.5392 205.224 60.5187 205.308 60.4901 205.391Z" fill="#E0E0E0"/>
<path d="M68.5582 190.616C68.5582 190.616 68.5582 190.513 68.5582 190.329C68.5582 190.146 68.5582 189.871 68.5582 189.55C68.5582 188.828 68.5582 187.842 68.5582 186.593C68.5582 184.014 68.4848 180.357 68.4358 175.864L68.6562 176.07L32.7243 176.173C32.455 176.426 33.0916 175.818 33.0304 175.887V179.704C33.0304 180.976 33.0304 182.225 33.0304 183.463V190.616L32.7366 190.341L58.4337 190.501L65.7792 190.616H67.787H68.5093C68.2933 190.632 68.0763 190.632 67.8604 190.616H65.9139L58.5683 190.685L32.7243 190.914H32.4795V190.616C32.4795 188.323 32.4795 185.928 32.4795 183.463V175.887L32.7856 175.6L68.5705 175.681H68.7908V175.887C68.7908 180.472 68.7052 184.128 68.6684 186.742C68.6684 187.968 68.6684 188.942 68.6684 189.653C68.6535 189.976 68.6167 190.297 68.5582 190.616Z" fill="#E0E0E0"/>
<path d="M521.679 492.3C521.679 492.461 409.635 492.598 271.466 492.598C133.297 492.598 21.2285 492.461 21.2285 492.3C21.2285 492.14 133.248 492.002 271.466 492.002C409.684 492.002 521.679 492.14 521.679 492.3Z" fill="#263238"/>
<path d="M403.71 91.3308H203.043V233.634H403.71V91.3308Z" fill="#F5F5F5"/>
<path d="M403.674 233.634C403.674 233.634 403.674 232.728 403.674 231.02C403.674 229.312 403.674 226.768 403.674 223.455C403.674 216.819 403.674 207.099 403.6 194.685C403.6 169.881 403.527 134.337 403.466 91.3308L403.735 91.5715H203.08L203.398 91.2735C203.398 142.464 203.398 190.926 203.398 233.576L203.116 233.301L347.97 233.439L389.093 233.508H400.001H402.817H403.784H400.111H389.252L348.203 233.576L203.153 233.714H202.859V233.45C202.859 190.8 202.859 142.337 202.859 91.1474V90.8494H203.202H403.857H404.114V91.1015C404.053 134.165 404.016 169.766 403.98 194.605C403.98 206.996 403.98 216.704 403.906 223.26V230.791C403.674 232.774 403.674 233.634 403.674 233.634Z" fill="#263238"/>
<path d="M275.788 157.983H262.235V192.301H275.788V157.983Z" fill="#407BFF"/>
<path d="M333.291 157.983H319.738V192.301H333.291V157.983Z" fill="#407BFF"/>
<path d="M352.463 137.833H338.91V192.301H352.463V137.833Z" fill="#407BFF"/>
<path d="M258.257 181.504H244.704V193.046H258.257V181.504Z" fill="#407BFF"/>
<path d="M294.96 173.48H281.407V192.301H294.96V173.48Z" fill="#407BFF"/>
<path d="M314.132 169.159H300.579V192.301H314.132V169.159Z" fill="#407BFF"/>
<path d="M254.608 147.69C256.217 147.69 257.522 146.469 257.522 144.962C257.522 143.456 256.217 142.234 254.608 142.234C252.999 142.234 251.694 143.456 251.694 144.962C251.694 146.469 252.999 147.69 254.608 147.69Z" fill="#407BFF"/>
<path d="M299.526 98.334C299.698 98.334 299.845 110.862 299.845 126.313C299.845 141.764 299.698 154.292 299.526 154.292C299.355 154.292 299.208 141.764 299.208 126.313C299.208 110.862 299.343 98.334 299.526 98.334Z" fill="#263238"/>
<path d="M389.558 118.783C388.86 118.869 388.156 118.907 387.452 118.897L381.686 118.989C376.789 119.046 370.092 119.081 362.673 119.081H352.206C351.438 119.039 350.668 119.062 349.904 119.149C349.215 119.265 348.562 119.523 347.994 119.906C346.952 120.601 346.234 121.642 345.987 122.817C345.905 123.341 345.872 123.87 345.889 124.399C345.889 124.915 345.889 125.396 345.889 125.855C345.889 126.726 345.889 127.505 345.889 128.147C345.906 128.81 345.866 129.473 345.766 130.13C345.675 129.473 345.634 128.81 345.644 128.147C345.644 127.482 345.644 126.703 345.644 125.855C345.644 125.396 345.644 124.915 345.644 124.399C345.59 123.85 345.59 123.298 345.644 122.748C345.878 121.447 346.647 120.283 347.786 119.505C348.413 119.069 349.137 118.771 349.904 118.634C350.715 118.528 351.535 118.494 352.353 118.53H362.82C370.239 118.53 376.96 118.53 381.833 118.611L387.599 118.714C388.253 118.689 388.908 118.712 389.558 118.783Z" fill="#263238"/>
<path d="M362.771 135.219C362.658 135.202 362.548 135.175 362.441 135.139L361.498 134.83C361.082 134.692 360.58 134.497 359.955 134.314L357.825 133.741C352.136 132.392 346.2 132.236 340.439 133.284C334.678 134.332 329.236 136.558 324.501 139.804C321.273 142.208 318.296 144.895 315.613 147.828C312.675 150.751 309.492 153.914 305.219 155.737C303.111 156.636 300.814 157.083 298.498 157.043C296.265 156.964 294.062 156.53 291.985 155.759C288.157 154.204 284.523 152.259 281.15 149.96C278.072 147.998 274.791 146.332 271.356 144.985C268.338 143.855 265.088 143.369 261.844 143.564C257.131 143.811 252.534 145.024 248.377 147.117C247.251 147.687 246.167 148.326 245.133 149.031L244.325 149.604C244.24 149.673 244.145 149.731 244.043 149.776C245.305 148.651 246.721 147.687 248.254 146.911C252.424 144.713 257.069 143.424 261.844 143.14C265.154 142.911 268.477 143.385 271.564 144.527C275.065 145.856 278.409 147.524 281.542 149.501C284.891 151.767 288.49 153.688 292.279 155.232C294.295 155.977 296.43 156.399 298.596 156.482C300.815 156.506 303.013 156.076 305.035 155.221C309.161 153.467 312.295 150.372 315.221 147.449C317.942 144.493 320.954 141.783 324.219 139.357C329.97 135.446 336.733 133.044 343.807 132.4C348.556 131.969 353.349 132.358 357.948 133.546L360.078 134.176C360.69 134.371 361.192 134.589 361.608 134.738L362.526 135.105C362.673 135.162 362.783 135.208 362.771 135.219Z" fill="#407BFF"/>
<path d="M299.526 158.889C301.135 158.889 302.44 157.667 302.44 156.161C302.44 154.654 301.135 153.433 299.526 153.433C297.917 153.433 296.612 154.654 296.612 156.161C296.612 157.667 297.917 158.889 299.526 158.889Z" fill="#407BFF"/>
<path d="M346.035 135.139C347.644 135.139 348.949 133.918 348.949 132.411C348.949 130.904 347.644 129.683 346.035 129.683C344.426 129.683 343.121 130.904 343.121 132.411C343.121 133.918 344.426 135.139 346.035 135.139Z" fill="#407BFF"/>
<path d="M258.256 197.551C255.99 197.852 253.699 197.952 251.412 197.849C249.13 197.952 246.843 197.852 244.581 197.551C246.844 197.256 249.13 197.156 251.412 197.253C253.699 197.156 255.989 197.256 258.256 197.551Z" fill="#263238"/>
<path d="M276.045 197.551C273.778 197.852 271.487 197.951 269.201 197.849C266.915 197.952 264.623 197.852 262.357 197.551C264.624 197.256 266.915 197.156 269.201 197.253C271.487 197.157 273.778 197.257 276.045 197.551Z" fill="#263238"/>
<path d="M295.866 197.551C293.6 197.852 291.308 197.952 289.022 197.849C286.736 197.951 284.445 197.852 282.179 197.551C284.445 197.257 286.736 197.157 289.022 197.253C291.308 197.156 293.599 197.256 295.866 197.551Z" fill="#263238"/>
<path d="M314.768 197.551C310.216 197.948 305.634 197.948 301.081 197.551C305.634 197.153 310.216 197.153 314.768 197.551Z" fill="#263238"/>
<path d="M333.193 197.551C328.64 197.948 324.058 197.948 319.506 197.551C324.058 197.153 328.64 197.153 333.193 197.551Z" fill="#263238"/>
<path d="M351.631 197.551C347.078 197.948 342.496 197.948 337.943 197.551C342.496 197.153 347.078 197.153 351.631 197.551Z" fill="#263238"/>
<path d="M245.891 208.371H244.006V207.316H249.16V208.371H247.262V212.864H245.891V208.371Z" fill="#263238"/>
<path d="M253.678 212.864L252.539 211.317H251.315V212.864H249.907V207.316H252.466C254.045 207.316 255.037 208.084 255.037 209.334C255.054 209.709 254.945 210.08 254.725 210.395C254.506 210.709 254.187 210.951 253.813 211.087L255.135 212.864H253.678ZM252.454 208.371H251.34V210.297H252.454C253.286 210.297 253.678 209.93 253.678 209.334C253.678 208.738 253.225 208.371 252.392 208.371H252.454Z" fill="#263238"/>
<path d="M260.717 211.832V212.864H256.126V207.316H260.607V208.348H257.485V209.552H260.239V210.549H257.485V211.832H260.717Z" fill="#263238"/>
<path d="M267.242 207.316V212.864H266.116L263.166 209.494V212.864H261.807V207.316H262.945L265.883 210.686V207.316H267.242Z" fill="#263238"/>
<path d="M268.65 207.316H271.344C271.755 207.281 272.17 207.327 272.562 207.45C272.954 207.574 273.314 207.772 273.619 208.033C273.925 208.294 274.168 208.612 274.335 208.966C274.502 209.32 274.588 209.703 274.588 210.09C274.588 210.477 274.502 210.86 274.335 211.214C274.168 211.568 273.925 211.886 273.619 212.147C273.314 212.408 272.954 212.607 272.562 212.73C272.17 212.854 271.755 212.899 271.344 212.864H268.65V207.316ZM271.27 211.81C271.757 211.81 272.224 211.628 272.569 211.306C272.913 210.984 273.107 210.546 273.107 210.09C273.107 209.634 272.913 209.197 272.569 208.874C272.224 208.552 271.757 208.371 271.27 208.371H270.046V211.81H271.27Z" fill="#263238"/>
<path d="M252.417 144.355C252.197 144.407 251.97 144.43 251.744 144.424H249.809L242.696 144.527H232.143H225.912C224.796 144.571 223.677 144.525 222.57 144.389C221.413 144.188 220.303 143.8 219.289 143.243C217.274 142.156 215.737 140.433 214.955 138.383C214.575 137.417 214.376 136.397 214.367 135.368V132.514C214.367 128.812 214.367 125.465 214.441 122.634C214.514 119.803 214.514 117.625 214.539 115.974C214.539 115.241 214.539 114.645 214.6 114.163C214.594 113.952 214.615 113.74 214.661 113.533C214.695 113.742 214.695 113.954 214.661 114.163C214.661 114.645 214.661 115.241 214.722 115.974C214.722 117.625 214.722 119.883 214.832 122.634C214.943 125.385 214.832 128.812 214.832 132.514C214.894 134.371 214.637 136.343 215.42 138.177C216.151 140.108 217.591 141.733 219.485 142.761C220.437 143.27 221.477 143.619 222.557 143.793C223.629 143.925 224.71 143.971 225.789 143.931H232.021L242.574 143.999L249.687 144.091L251.621 144.148C251.893 144.193 252.16 144.262 252.417 144.355Z" fill="#263238"/>
<path d="M388.799 95.583V180.048H399.707H414.741H484.793V95.583H388.799Z" fill="#FAFAFA"/>
<path d="M388.799 95.583H390.537H395.655L415.157 95.5143L484.793 95.3882H485.074V95.6518C485.074 120.353 485.074 149.295 485.074 180.105V180.3H484.756H388.762H388.48V180.048C388.542 154.648 388.591 133.5 388.627 118.702C388.627 111.344 388.627 105.555 388.701 101.589C388.701 99.6407 388.701 98.1506 388.701 97.1075C388.701 96.0645 388.701 95.583 388.701 95.583C388.701 95.583 388.701 96.1332 388.701 97.1648C388.701 98.1964 388.701 99.7209 388.701 101.75C388.701 105.727 388.701 111.538 388.774 118.943C388.774 133.706 388.848 154.797 388.909 180.128L388.64 179.876H484.633L484.315 180.174C484.315 149.364 484.315 120.422 484.315 95.7206L484.597 95.9842L415.145 95.8467H395.557H390.378H389.031L388.799 95.583Z" fill="#263238"/>
<path d="M436.362 105.154C430.503 105.154 424.775 106.78 419.902 109.828C415.03 112.876 411.233 117.208 408.991 122.277C406.748 127.346 406.161 132.923 407.305 138.304C408.448 143.684 411.269 148.627 415.413 152.506C419.556 156.385 424.835 159.027 430.582 160.097C436.329 161.168 442.286 160.618 447.7 158.519C453.114 156.42 457.741 152.864 460.996 148.303C464.252 143.741 465.989 138.378 465.989 132.892C465.989 125.535 462.868 118.48 457.312 113.278C451.756 108.076 444.22 105.154 436.362 105.154ZM436.815 149.501C433.217 149.501 429.7 148.502 426.708 146.63C423.716 144.759 421.385 142.098 420.008 138.986C418.631 135.874 418.27 132.449 418.972 129.145C419.674 125.841 421.407 122.806 423.951 120.424C426.496 118.042 429.737 116.42 433.266 115.762C436.795 115.105 440.453 115.443 443.777 116.732C447.101 118.021 449.943 120.204 451.942 123.005C453.941 125.806 455.008 129.099 455.008 132.468C455.008 136.985 453.091 141.318 449.679 144.512C446.268 147.706 441.64 149.501 436.815 149.501Z" fill="#407BFF"/>
<path d="M418.623 132.468C418.622 129.179 419.637 125.961 421.547 123.201C423.456 120.441 426.179 118.257 429.385 116.914L424.83 107.331C419.462 109.453 414.881 113.009 411.66 117.555C408.44 122.102 406.723 127.436 406.724 132.892C406.724 133.282 406.724 133.671 406.724 134.038H418.636C418.627 133.549 418.623 133.026 418.623 132.468Z" fill="#E0E0E0"/>
<path d="M460.872 167.623C460.872 167.76 449.853 167.875 436.386 167.875C422.92 167.875 411.901 167.76 411.901 167.623C411.901 167.485 422.92 167.359 436.386 167.359C449.853 167.359 460.872 167.474 460.872 167.623Z" fill="#263238"/>
<path d="M449.964 171.829C449.964 171.978 443.843 172.093 436.363 172.093C428.882 172.093 422.773 171.978 422.773 171.829C422.773 171.68 428.895 171.565 436.363 171.565C443.831 171.565 449.964 171.68 449.964 171.829Z" fill="#263238"/>
<path d="M434.281 128.88V130.027L431.832 135.288H429.726L432.028 130.325H430.228V131.31H428.588V128.892L434.281 128.88Z" fill="#263238"/>
<path d="M440.047 133.213C440.047 134.359 439.129 135.402 437.072 135.402C436.146 135.419 435.232 135.201 434.428 134.772L435.113 133.408C435.679 133.749 436.338 133.932 437.011 133.935C437.66 133.935 438.1 133.694 438.1 133.259C438.1 132.823 437.819 132.617 436.778 132.617H434.93L435.26 128.88H439.619V130.279H436.864L436.778 131.207H437.231C439.251 131.207 440.047 132.09 440.047 133.213Z" fill="#263238"/>
<path d="M440.402 130.565C440.431 130.248 440.557 129.946 440.766 129.695C440.975 129.444 441.257 129.256 441.578 129.153C441.9 129.049 442.246 129.036 442.576 129.114C442.905 129.192 443.203 129.358 443.433 129.591C443.664 129.825 443.816 130.117 443.873 130.43C443.929 130.744 443.887 131.066 443.751 131.358C443.616 131.649 443.392 131.898 443.108 132.072C442.825 132.247 442.493 132.341 442.153 132.342C441.909 132.346 441.667 132.302 441.442 132.213C441.218 132.123 441.016 131.99 440.851 131.822C440.686 131.654 440.56 131.455 440.483 131.239C440.405 131.022 440.378 130.793 440.402 130.565ZM446.193 128.88H447.588L442.851 135.276H441.504L446.193 128.88ZM442.728 130.565C442.728 129.923 442.483 129.671 442.153 129.671C441.822 129.671 441.577 129.923 441.577 130.565C441.577 131.207 441.834 131.471 442.153 131.471C442.471 131.471 442.704 131.219 442.704 130.565H442.728ZM445.177 133.58C445.15 133.354 445.176 133.125 445.252 132.909C445.328 132.693 445.453 132.495 445.617 132.327C445.782 132.16 445.983 132.028 446.207 131.939C446.431 131.851 446.672 131.808 446.915 131.815C447.296 131.785 447.678 131.863 448.01 132.04C448.343 132.216 448.611 132.483 448.779 132.804C448.947 133.126 449.007 133.488 448.952 133.842C448.897 134.196 448.729 134.526 448.469 134.789C448.21 135.053 447.872 135.236 447.5 135.317C447.127 135.397 446.737 135.37 446.381 135.239C446.025 135.108 445.72 134.88 445.505 134.584C445.29 134.288 445.176 133.938 445.177 133.58ZM447.491 133.58C447.491 132.938 447.246 132.674 446.915 132.674C446.585 132.674 446.34 132.938 446.34 133.58C446.34 134.222 446.597 134.485 446.915 134.485C447.233 134.485 447.515 134.233 447.515 133.58H447.491Z" fill="#263238"/>
<path d="M267.928 2.46436V98.0359H280.28H297.285H376.556V2.46436H267.928Z" fill="#FAFAFA"/>
<path d="M267.928 2.46439H268.417H269.899H275.702L297.738 2.39562L376.519 2.26953H376.801V2.53316C376.801 30.4779 376.801 63.2827 376.801 98.0933V98.3913H376.482H267.854H267.585V98.1277C267.585 69.3805 267.683 45.459 267.72 28.7128C267.72 20.3798 267.781 13.8119 267.793 9.35315C267.793 7.14095 267.793 5.44455 267.793 4.27541C267.793 3.10627 267.793 2.55609 267.793 2.55609C267.793 2.55609 267.793 3.16358 267.793 4.33272C267.793 5.50186 267.793 7.22119 267.793 9.45631C267.793 13.9495 267.793 20.5173 267.867 28.8732C267.867 45.5851 267.952 69.4493 268.001 98.1277L267.732 97.8755H376.36L376.042 98.1735C376.042 63.3056 376.042 30.5467 376.042 2.6134L376.323 2.86556L297.946 2.63632L275.812 2.56755H269.96H267.928V2.46439Z" fill="#263238"/>
<path d="M321.758 13.2961C315.128 13.2961 308.647 15.137 303.134 18.586C297.622 22.035 293.325 26.9371 290.789 32.6723C288.252 38.4075 287.589 44.7183 288.883 50.8064C290.178 56.8945 293.371 62.4865 298.06 66.8751C302.749 71.2637 308.723 74.2517 315.226 75.4614C321.729 76.671 328.47 76.0479 334.594 73.6708C340.719 71.2937 345.953 67.2694 349.635 62.1069C353.317 56.9444 355.281 50.8757 355.278 44.6681C355.278 40.5473 354.411 36.4669 352.727 32.6599C351.042 28.853 348.573 25.394 345.46 22.4807C342.347 19.5674 338.652 17.2568 334.585 15.6809C330.518 14.105 326.16 13.2946 321.758 13.2961ZM322.26 63.4775C318.188 63.4775 314.206 62.3468 310.82 60.2284C307.434 58.1099 304.794 55.0989 303.236 51.5761C301.677 48.0532 301.269 44.1768 302.064 40.4369C302.859 36.6971 304.82 33.2619 307.7 30.5656C310.579 27.8693 314.249 26.0331 318.243 25.2892C322.237 24.5453 326.378 24.9271 330.14 26.3863C333.903 27.8456 337.119 30.3166 339.382 33.4871C341.645 36.6576 342.852 40.3851 342.852 44.1982C342.852 49.3114 340.683 54.2151 336.821 57.8307C332.959 61.4463 327.722 63.4775 322.26 63.4775Z" fill="#E0E0E0"/>
<path d="M322.273 13.3076V24.9188C325.509 24.9239 328.698 25.643 331.582 27.0177C334.465 28.3925 336.963 30.3843 338.87 32.8315C340.778 35.2788 342.043 38.1126 342.563 41.1031C343.082 44.0936 342.842 47.1567 341.861 50.0439L354.005 53.1272C355.394 48.5037 355.629 43.6432 354.693 38.921C353.756 34.1988 351.673 29.7413 348.604 25.8929C345.535 22.0444 341.562 18.908 336.992 16.7258C332.422 14.5437 327.377 13.3742 322.248 13.3076H322.273Z" fill="#E0E0E0"/>
<path d="M301.681 44.1981C301.682 40.4688 302.839 36.8198 305.012 33.6944C307.185 30.569 310.281 28.1017 313.924 26.5922L308.757 15.749C302.686 18.1522 297.506 22.1766 293.863 27.3198C290.221 32.463 288.277 38.4969 288.275 44.6681C288.275 45.1151 288.275 45.5507 288.275 45.9862H301.742C301.705 45.4017 301.681 44.8056 301.681 44.1981Z" fill="#455A64"/>
<path d="M322.261 63.4776C320.82 63.4697 319.384 63.3237 317.976 63.042C317.449 65.8388 316.47 71.2604 315.711 75.5243C323.94 76.9561 332.444 75.4511 339.548 71.3058C346.651 67.1605 351.84 60.6753 354.091 53.1273L341.947 50.0439C340.617 53.9516 337.991 57.3606 334.451 59.7763C330.911 62.1919 326.641 63.4885 322.261 63.4776Z" fill="#EBEBEB"/>
<path d="M349.5 84.0177C349.5 84.1782 337.074 84.3158 321.759 84.3158C306.443 84.3158 294.029 84.1782 294.029 84.0177C294.029 83.8573 306.443 83.7197 321.759 83.7197C337.074 83.7197 349.5 83.8 349.5 84.0177Z" fill="#263238"/>
<path d="M337.147 88.7402C337.147 88.9006 330.255 89.0382 321.758 89.0382C313.262 89.0382 306.382 88.9006 306.382 88.7402C306.382 88.5797 313.262 88.4421 321.758 88.4421C330.255 88.4421 337.147 88.6026 337.147 88.7402Z" fill="#263238"/>
<path d="M319.469 45.1725C319.469 46.3187 318.551 47.3044 316.495 47.3044C315.565 47.3181 314.648 47.1006 313.838 46.674L314.548 45.31C315.109 45.6527 315.764 45.8358 316.433 45.8373C317.094 45.8373 317.523 45.608 317.523 45.1725C317.523 44.7369 317.217 44.5535 316.47 44.5535H315.662V43.4073L316.886 42.1809H314.193V40.7825H319.09V41.9287L317.682 43.35C318.169 43.3901 318.623 43.5993 318.953 43.9365C319.284 44.2738 319.468 44.7146 319.469 45.1725Z" fill="#263238"/>
<path d="M325.321 45.1152C325.321 46.2614 324.403 47.3044 322.347 47.3044C321.42 47.3223 320.506 47.1044 319.702 46.674L320.388 45.31C320.953 45.6524 321.612 45.8354 322.285 45.8373C322.934 45.8373 323.375 45.5966 323.375 45.161C323.375 44.7255 323.093 44.5191 322.053 44.5191H320.192L320.535 40.7825H324.881V42.1809H322.138L322.053 43.1093H322.506C324.562 43.1093 325.321 43.9919 325.321 45.1152Z" fill="#263238"/>
<path d="M325.688 42.4674C325.717 42.1505 325.843 41.8481 326.052 41.5973C326.261 41.3464 326.543 41.1579 326.865 41.0546C327.186 40.9514 327.532 40.9379 327.862 41.0158C328.191 41.0938 328.489 41.2598 328.719 41.4935C328.95 41.7273 329.103 42.0188 329.159 42.3324C329.216 42.6461 329.173 42.9683 329.038 43.2599C328.902 43.5515 328.678 43.7998 328.395 43.9745C328.111 44.1493 327.779 44.2429 327.439 44.2441C327.195 44.2484 326.953 44.2043 326.729 44.1147C326.504 44.0251 326.303 43.8919 326.137 43.7241C325.972 43.5562 325.846 43.3574 325.769 43.1408C325.691 42.9242 325.664 42.6947 325.688 42.4674ZM331.442 40.7825H332.85L328.186 47.1784H326.79L331.442 40.7825ZM327.99 42.4674C327.99 41.8255 327.745 41.5619 327.414 41.5619C327.084 41.5619 326.839 41.8255 326.839 42.4674C326.839 43.1093 327.096 43.3729 327.414 43.3729C327.733 43.3729 328.014 43.1208 328.014 42.4674H327.99ZM330.438 45.482C330.412 45.2558 330.438 45.027 330.514 44.811C330.59 44.5949 330.714 44.3966 330.879 44.2294C331.044 44.0622 331.245 43.9299 331.469 43.8415C331.692 43.7531 331.934 43.7105 332.177 43.7168C332.558 43.6868 332.94 43.7652 333.272 43.9418C333.605 44.1184 333.873 44.3849 334.041 44.7065C334.209 45.028 334.269 45.3896 334.214 45.7438C334.158 46.098 333.99 46.4284 333.731 46.6915C333.472 46.9547 333.134 47.1384 332.761 47.2186C332.389 47.2988 331.999 47.2718 331.643 47.141C331.287 47.0103 330.982 46.7819 330.767 46.4859C330.552 46.1898 330.437 45.8399 330.438 45.482ZM332.752 45.482C332.752 44.8401 332.495 44.5764 332.177 44.5764C331.859 44.5764 331.601 44.8401 331.601 45.482C331.601 46.1238 331.859 46.3875 332.177 46.3875C332.495 46.3875 332.826 46.1926 332.826 45.482H332.752Z" fill="#263238"/>
<path d="M147.277 28.9421V113.407H158.198H173.219H243.283V28.9421H147.277Z" fill="#FAFAFA"/>
<path d="M147.278 28.9994H147.719H149.029H154.158H173.661L243.296 28.6785H243.578V28.9994C243.578 53.6889 243.578 82.6424 243.578 113.453V113.751H243.296H147.303H147.033V113.499C147.094 88.0869 147.143 66.9507 147.18 52.1415C147.18 44.7828 147.18 38.9944 147.241 35.04C147.241 33.0799 147.241 31.6013 147.241 30.5468C147.241 29.4923 147.241 29.0338 147.241 29.0338C147.241 29.0338 147.241 29.5725 147.241 30.6041C147.241 31.6357 147.241 33.1716 147.241 35.189C147.241 39.1664 147.241 44.9662 147.315 52.3822C147.315 67.157 147.4 88.2359 147.462 113.579L147.18 113.315H243.174L242.856 113.613C242.856 82.8029 242.856 53.8494 242.856 29.1599L243.125 29.412L173.673 29.286L154.085 29.2172L149.029 28.9994H147.229H147.278Z" fill="#263238"/>
<path d="M194.852 38.5129C188.991 38.5107 183.262 40.1359 178.388 43.1829C173.514 46.23 169.714 50.562 167.47 55.6311C165.227 60.7001 164.639 66.2783 165.782 71.6601C166.924 77.0419 169.746 81.9855 173.89 85.8654C178.035 89.7454 183.315 92.3875 189.063 93.4574C194.811 94.5274 200.769 93.9771 206.183 91.8762C211.597 89.7753 216.224 86.2182 219.479 81.6549C222.733 77.0916 224.469 71.7271 224.467 66.2399C224.467 58.8863 221.347 51.8338 215.793 46.634C210.239 41.4342 202.706 38.5129 194.852 38.5129ZM195.305 82.8715C191.707 82.8715 188.19 81.8726 185.198 80.001C182.206 78.1294 179.874 75.4693 178.497 72.3569C177.121 69.2446 176.76 65.8199 177.462 62.5158C178.164 59.2118 179.897 56.1768 182.441 53.7948C184.985 51.4127 188.227 49.7905 191.756 49.1332C195.285 48.476 198.943 48.8133 202.267 50.1025C205.591 51.3917 208.432 53.5748 210.431 56.3758C212.43 59.1769 213.497 62.47 213.497 65.8388C213.497 68.0755 213.027 70.2904 212.113 72.3569C211.198 74.4234 209.858 76.3011 208.169 77.8828C206.48 79.4644 204.474 80.719 202.267 81.575C200.06 82.431 197.694 82.8715 195.305 82.8715Z" fill="#E0E0E0"/>
<path d="M195.306 38.5244V48.8404C198.166 48.8334 200.987 49.4583 203.541 50.6643C206.095 51.8703 208.308 53.6234 210.002 55.7811C211.696 57.9388 212.822 60.4402 213.289 63.0821C213.756 65.7239 213.551 68.4317 212.69 70.9853L223.427 73.7133C224.644 69.6273 224.845 65.3343 224.012 61.1645C223.18 56.9947 221.338 53.0591 218.626 49.6604C215.915 46.2618 212.407 43.4906 208.373 41.5601C204.338 39.6295 199.885 38.591 195.355 38.5244H195.306Z" fill="#407BFF"/>
<path d="M177.1 65.8275C177.102 62.5351 178.121 59.3134 180.035 56.5514C181.949 53.7893 184.675 51.6049 187.886 50.2618L183.307 40.6909C177.942 42.812 173.364 46.367 170.146 50.9113C166.927 55.4556 165.212 60.7875 165.213 66.2401C165.213 66.6298 165.213 67.0195 165.213 67.3863H177.186C177.186 66.882 177.1 66.3547 177.1 65.8275Z" fill="#EBEBEB"/>
<path d="M195.305 82.8716C194.008 82.8704 192.716 82.7398 191.449 82.4819C190.996 84.9577 190.126 89.7489 189.453 93.52C191.234 93.8283 193.041 93.9856 194.852 93.9899C201.319 93.9835 207.607 91.9975 212.757 88.3348C217.907 84.672 221.636 79.5334 223.377 73.7019L212.689 70.9854C211.518 74.4397 209.201 77.4545 206.075 79.592C202.949 81.7294 199.176 82.8783 195.305 82.8716Z" fill="#407BFF"/>
<g opacity="0.3">
<path d="M195.305 82.8716C194.008 82.8704 192.716 82.7398 191.449 82.4819C190.996 84.9577 190.126 89.7489 189.453 93.52C191.234 93.8283 193.041 93.9856 194.852 93.9899C201.319 93.9835 207.607 91.9975 212.757 88.3348C217.907 84.672 221.636 79.5334 223.377 73.7019L212.689 70.9854C211.518 74.4397 209.201 77.4545 206.075 79.592C202.949 81.7294 199.176 82.8783 195.305 82.8716Z" fill="black"/>
</g>
<path d="M219.362 100.97C219.362 101.119 208.343 101.234 194.877 101.234C181.41 101.234 170.392 101.119 170.392 100.97C170.392 100.821 181.41 100.707 194.877 100.707C208.343 100.707 219.362 100.821 219.362 100.97Z" fill="#263238"/>
<path d="M208.441 105.188C208.441 105.326 202.32 105.452 194.852 105.452C187.384 105.452 181.263 105.326 181.263 105.188C181.263 105.051 187.384 104.925 194.852 104.925C202.32 104.925 208.441 105.039 208.441 105.188Z" fill="#263238"/>
<path d="M191.302 66.5839C191.287 66.8944 191.205 67.1988 191.06 67.4786C190.916 67.7584 190.712 68.0077 190.461 68.2115C190.21 68.4152 189.918 68.569 189.601 68.6636C189.285 68.7582 188.952 68.7916 188.621 68.7617C188.181 68.7889 187.739 68.7243 187.329 68.5727C186.918 68.421 186.548 68.186 186.246 67.8846C185.944 67.5831 185.717 67.2228 185.582 66.8294C185.446 66.436 185.406 66.0195 185.463 65.6096C185.424 65.1488 185.492 64.6857 185.663 64.252C185.834 63.8184 186.103 63.4246 186.452 63.0978C186.802 62.771 187.222 62.5189 187.685 62.3589C188.148 62.1989 188.643 62.1348 189.135 62.171C189.839 62.1442 190.536 62.3073 191.143 62.6409L190.445 63.9361C190.082 63.7123 189.656 63.5964 189.221 63.6037C189.002 63.5897 188.782 63.6177 188.574 63.6859C188.367 63.7542 188.177 63.8614 188.015 64.0008C187.854 64.1403 187.724 64.3092 187.635 64.4971C187.545 64.685 187.498 64.8881 187.495 65.0938C187.929 64.7642 188.479 64.5968 189.037 64.6239C189.615 64.6052 190.176 64.8007 190.6 65.1677C191.025 65.5347 191.277 66.0437 191.302 66.5839ZM189.429 66.6641C189.431 66.5522 189.408 66.4411 189.361 66.3381C189.315 66.2351 189.245 66.1427 189.157 66.0668C189.069 65.991 188.965 65.9335 188.851 65.8981C188.738 65.8628 188.618 65.8504 188.499 65.8618C188.377 65.8482 188.253 65.8589 188.136 65.8933C188.019 65.9277 187.91 65.9849 187.819 66.0613C187.727 66.1376 187.653 66.2313 187.603 66.3362C187.553 66.4412 187.527 66.5549 187.527 66.6699C187.527 66.7849 187.553 66.8986 187.603 67.0035C187.653 67.1084 187.727 67.2021 187.819 67.2784C187.91 67.3548 188.019 67.4121 188.136 67.4464C188.253 67.4808 188.377 67.4916 188.499 67.4779C188.619 67.4895 188.74 67.4768 188.854 67.4408C188.969 67.4047 189.073 67.3462 189.162 67.2691C189.25 67.192 189.319 67.0981 189.365 66.9938C189.412 66.8894 189.433 66.777 189.429 66.6641Z" fill="#263238"/>
<path d="M191.779 65.4376C191.779 63.3285 193.004 62.1135 194.803 62.1135C196.603 62.1135 197.803 63.3285 197.803 65.4376C197.803 67.5466 196.578 68.7616 194.803 68.7616C193.028 68.7616 191.779 67.5466 191.779 65.4376ZM195.856 65.4376C195.856 64.0965 195.415 63.5921 194.803 63.5921C194.191 63.5921 193.726 64.0965 193.726 65.4376C193.726 66.7786 194.179 67.283 194.803 67.283C195.428 67.283 195.856 66.8245 195.856 65.4376Z" fill="#263238"/>
<path d="M198.341 63.9362C198.363 63.6167 198.484 63.31 198.689 63.0542C198.895 62.7983 199.176 62.6044 199.498 62.4964C199.82 62.3883 200.168 62.3709 200.501 62.4463C200.833 62.5216 201.134 62.6864 201.368 62.9204C201.601 63.1543 201.756 63.4471 201.814 63.7627C201.872 64.0782 201.83 64.4027 201.693 64.696C201.556 64.9893 201.33 65.2387 201.043 65.4132C200.757 65.5878 200.422 65.68 200.08 65.6784C199.84 65.6824 199.601 65.6392 199.38 65.5515C199.159 65.4639 198.96 65.3337 198.796 65.1694C198.633 65.0052 198.507 64.8105 198.429 64.5981C198.351 64.3856 198.321 64.1601 198.341 63.9362ZM204.12 62.2397H205.528L200.863 68.6356H199.468L204.12 62.2397ZM200.667 63.9362C200.667 63.2828 200.423 63.0306 200.08 63.0306C199.737 63.0306 199.517 63.2828 199.517 63.9362C199.517 64.5895 199.774 64.8417 200.08 64.8417C200.386 64.8417 200.667 64.5322 200.667 63.9362ZM203.116 66.9507C203.142 66.633 203.267 66.3294 203.474 66.0769C203.682 65.8245 203.963 65.6341 204.285 65.5292C204.606 65.4242 204.953 65.4092 205.283 65.486C205.614 65.5628 205.913 65.728 206.144 65.9615C206.376 66.1949 206.53 66.4865 206.587 66.8006C206.644 67.1146 206.603 67.4375 206.467 67.7297C206.332 68.022 206.108 68.2709 205.824 68.446C205.539 68.6212 205.207 68.7149 204.867 68.7159C204.626 68.717 204.388 68.6708 204.169 68.5803C203.949 68.4899 203.751 68.3571 203.59 68.1906C203.428 68.0242 203.306 67.8278 203.23 67.6142C203.155 67.4006 203.129 67.1745 203.153 66.9507H203.116ZM205.442 66.9507C205.442 66.2974 205.185 66.0452 204.867 66.0452C204.548 66.0452 204.291 66.2974 204.291 66.9507C204.291 67.604 204.548 67.8447 204.867 67.8447C205.185 67.8447 205.479 67.5926 205.479 66.9507H205.442Z" fill="#263238"/>
<path d="M484.841 428.112H403.232V438.612H484.841V428.112Z" fill="#263238"/>
<path d="M484.977 438.738H403.099V427.975H484.977V438.738ZM403.38 438.474H484.695V428.238H403.38V438.474Z" fill="#263238"/>
<path d="M410.799 435.116L422.552 489.366H466.013L477.361 438.612L410.799 435.116Z" fill="#263238"/>
<path d="M410.799 484.231L417.067 492.301H469.894L477.361 484.231H410.799Z" fill="#455A64"/>
<path d="M440.977 436.697C440.818 436.697 440.61 411.561 440.512 380.533C440.414 349.505 440.512 324.368 440.634 324.368C440.757 324.368 441.001 349.493 441.099 380.533C441.197 411.572 441.136 436.697 440.977 436.697Z" fill="#263238"/>
<path d="M459.157 373.793C459.105 373.994 459.031 374.19 458.937 374.378C458.741 374.813 458.496 375.34 458.202 376.005L457.676 377.151L457.125 378.584L456.5 380.223C456.28 380.796 456.109 381.438 455.901 382.08C454.928 385.153 454.163 388.281 453.611 391.445C452.989 395.32 452.58 399.222 452.387 403.136C452.089 410.264 452.306 417.402 453.036 424.502C453.293 427.23 453.562 429.442 453.758 430.966C453.832 431.677 453.905 432.262 453.954 432.72C453.986 432.925 453.986 433.134 453.954 433.339C453.876 433.144 453.826 432.939 453.807 432.731C453.721 432.273 453.623 431.7 453.489 430.989C453.232 429.476 452.901 427.275 452.583 424.547C451.733 417.432 451.463 410.267 451.775 403.113C451.978 399.173 452.415 395.247 453.085 391.353C453.665 388.178 454.484 385.045 455.533 381.977C455.754 381.324 455.937 380.682 456.17 380.109C456.403 379.536 456.635 378.962 456.843 378.47C457.051 377.977 457.259 377.495 457.443 377.06C457.627 376.624 457.847 376.246 458.019 375.913L458.851 374.32C458.931 374.134 459.034 373.957 459.157 373.793Z" fill="#263238"/>
<path d="M457.063 353.471C457.002 353.752 456.916 354.028 456.806 354.296L455.961 356.588C455.765 357.093 455.557 357.666 455.337 358.273L454.676 360.302C454.198 361.758 453.647 363.408 453.158 365.265C452.888 366.194 452.619 367.168 452.337 368.177C452.056 369.185 451.835 370.251 451.566 371.352C451.003 373.541 450.587 375.937 450.06 378.401C449.166 383.387 448.371 388.912 447.82 394.735C447.269 400.557 447.085 406.128 447 411.183C446.914 416.238 447.061 420.811 447.281 424.639C447.355 426.554 447.477 428.284 447.587 429.809C447.697 431.333 447.783 432.628 447.881 433.706C447.979 434.783 448.04 435.551 448.089 436.159C448.119 436.449 448.119 436.74 448.089 437.03C448.089 437.03 448.028 436.732 447.942 436.17C447.857 435.609 447.771 434.749 447.636 433.717C447.502 432.686 447.367 431.345 447.244 429.832C447.122 428.319 446.938 426.576 446.84 424.662C446.571 420.834 446.461 416.26 446.449 411.183C446.436 406.105 446.706 400.523 447.22 394.689C447.734 388.854 448.579 383.318 449.509 378.309C450.048 375.822 450.476 373.438 451.076 371.249C451.346 370.16 451.615 369.094 451.872 368.074C452.129 367.053 452.46 366.091 452.729 365.162C453.255 363.305 453.831 361.655 454.345 360.21C454.59 359.488 454.823 358.812 455.043 358.193C455.263 357.574 455.508 357.047 455.716 356.52C456.124 355.557 456.443 354.793 456.671 354.227C456.78 353.966 456.911 353.713 457.063 353.471Z" fill="#263238"/>
<path d="M435.81 441.145C435.798 441.046 435.798 440.946 435.81 440.847C435.81 440.625 435.786 440.339 435.737 439.987C435.737 439.185 435.602 438.073 435.492 436.652C435.296 433.729 435.027 429.557 434.684 424.41C433.974 414.094 432.946 399.801 431.085 384.098C430.142 376.246 429.04 368.784 427.889 362.033C427.29 358.652 426.739 355.442 426.114 352.451C425.49 349.459 424.89 346.719 424.351 344.152C423.813 341.584 423.213 339.338 422.735 337.332C422.258 335.326 421.805 333.607 421.413 332.197C421.021 330.787 420.777 329.744 420.568 328.965C420.483 328.621 420.421 328.334 420.36 328.116C420.349 328.017 420.349 327.917 420.36 327.818C420.412 327.908 420.449 328.005 420.47 328.105L420.74 328.93C420.96 329.71 421.278 330.787 421.682 332.151C422.086 333.515 422.588 335.257 423.09 337.263C423.592 339.269 424.229 341.527 424.792 344.072C425.355 346.616 426.016 349.379 426.628 352.37C427.241 355.362 427.853 358.571 428.477 361.941C429.701 368.715 430.766 376.177 431.721 384.04C433.57 399.755 434.537 414.048 435.137 424.387C435.443 429.568 435.651 433.752 435.774 436.64C435.774 438.062 435.872 439.173 435.908 439.976V440.847C435.89 440.95 435.857 441.05 435.81 441.145Z" fill="#263238"/>
<path d="M440.303 336.507C439.948 332.942 436.104 330.26 432.284 330.225C430.373 330.306 428.506 330.791 426.825 331.645C425.143 332.499 423.69 333.699 422.576 335.154C420.375 338.093 418.788 341.394 417.899 344.885C415.328 353.264 413.92 362.079 415.022 370.756C416.124 379.432 419.919 387.949 426.518 394.07C427.595 395.067 428.966 396.064 430.472 395.766C431.271 395.544 431.993 395.129 432.566 394.563C439.072 388.989 444.229 382.177 447.692 374.583C451.155 366.99 452.843 358.791 452.643 350.536C452.545 347.247 452.08 343.808 450.134 341.069C448.187 338.329 443.633 335.406 440.34 336.484" fill="#407BFF"/>
<path d="M411.79 307.989L406.404 317.158C406.281 317.376 406.11 317.617 405.853 317.64C405.596 317.663 405.363 317.411 405.204 317.181L390.99 296.744L394.259 295.013L411.79 307.989Z" fill="#407BFF"/>
<g opacity="0.2">
<path d="M411.79 307.989L406.404 317.158C406.281 317.376 406.11 317.617 405.853 317.64C405.596 317.663 405.363 317.411 405.204 317.181L390.99 296.744L394.259 295.013L411.79 307.989Z" fill="black"/>
</g>
<path d="M440.634 324.425L392.117 297.615C391.627 297.34 391.089 297.019 390.893 296.469C390.697 295.919 391.236 295.151 391.75 294.647C395.086 291.406 399.13 288.877 403.604 287.232C408.079 285.586 412.879 284.862 417.679 285.11C422.477 285.433 427.119 286.844 431.204 289.223C435.289 291.601 438.693 294.875 441.124 298.762C445.801 306.59 445.96 316.952 440.585 324.391" fill="#407BFF"/>
<path d="M399.107 289.065C399.315 289.012 399.529 288.985 399.744 288.984C400.16 288.984 400.785 288.893 401.58 288.904C403.837 288.874 406.091 289.043 408.314 289.409C415.713 290.578 422.6 293.704 428.164 298.418C433.728 303.131 437.736 309.236 439.716 316.012C440.328 318.047 440.738 320.131 440.94 322.236C440.993 322.674 441.017 323.114 441.014 323.554C440.971 323.908 440.845 324.248 440.646 324.552C440.788 323.795 440.813 323.023 440.72 322.259C440.433 320.185 439.974 318.135 439.349 316.127C436.908 308.472 431.941 301.738 425.161 296.889C418.381 292.04 410.135 289.325 401.605 289.133C400.001 289.088 399.12 289.111 399.107 289.065Z" fill="#263238"/>
<path d="M434.072 305.926C433.3 306.358 432.479 306.708 431.624 306.969C430.081 307.53 427.951 308.264 425.502 308.986C423.054 309.708 420.875 310.27 419.259 310.648C418.399 310.898 417.512 311.055 416.614 311.118C417.425 310.753 418.274 310.469 419.148 310.27L425.331 308.47L431.452 306.602C432.297 306.289 433.175 306.062 434.072 305.926Z" fill="#263238"/>
<path d="M426.432 286.703C426.857 288.362 427.051 290.065 427.008 291.77C427.148 293.471 427.045 295.183 426.701 296.859C426.463 295.18 426.369 293.486 426.42 291.793C426.273 290.099 426.277 288.396 426.432 286.703Z" fill="#263238"/>
<path d="M391.7 297.111C392.833 296.632 394.009 296.249 395.214 295.965C397.43 295.323 400.49 294.521 403.918 293.741C407.346 292.962 410.468 292.377 412.733 292.01C413.94 291.755 415.169 291.598 416.406 291.541C415.205 291.907 413.978 292.191 412.733 292.389C410.48 292.859 407.383 293.535 403.967 294.28C400.552 295.025 397.479 295.793 395.251 296.332C394.087 296.665 392.901 296.925 391.7 297.111Z" fill="#263238"/>
<path d="M420.177 328.781C416.002 325.813 411.607 325.228 406.355 325.423C401.116 325.752 395.989 326.992 391.235 329.079C383.045 332.438 375.32 337.378 370.423 344.381C365.526 351.385 363.836 360.646 367.497 368.268C367.772 369.069 368.363 369.742 369.15 370.148C370.059 370.398 371.034 370.328 371.892 369.953C381.196 367.111 390.562 364.222 399.119 359.798C407.677 355.373 415.463 349.161 420.054 341.069C421.235 339.157 421.985 337.038 422.258 334.845C422.386 333.75 422.263 332.643 421.895 331.597C421.528 330.551 420.925 329.591 420.128 328.781" fill="#407BFF"/>
<path d="M420.25 327.864C420.039 327.968 419.817 328.053 419.589 328.116L417.63 328.747L416.222 329.182C415.708 329.354 415.169 329.572 414.569 329.79C413.345 330.237 412.023 330.673 410.591 331.326L408.313 332.3C407.518 332.644 406.722 333.068 405.865 333.446C404.175 334.214 402.474 335.212 400.662 336.209C392.861 340.74 385.922 346.458 380.131 353.127C378.833 354.686 377.572 356.141 376.532 357.609C376.005 358.331 375.454 359.018 374.989 359.706L373.667 361.701C372.798 362.95 372.149 364.165 371.525 365.197C371.219 365.724 370.925 366.205 370.68 366.652L370.031 367.913C369.651 368.624 369.358 369.197 369.113 369.644C369.025 369.853 368.905 370.05 368.758 370.228C368.827 370.013 368.913 369.802 369.015 369.598L369.823 367.821L370.435 366.538C370.668 366.079 370.949 365.586 371.243 365.059C371.831 364.005 372.467 362.767 373.312 361.506L374.61 359.477C375.075 358.778 375.614 358.09 376.128 357.345C377.156 355.866 378.417 354.388 379.715 352.76C382.62 349.407 385.809 346.279 389.252 343.407C392.742 340.583 396.463 338.019 400.38 335.739C402.217 334.742 403.943 333.756 405.645 332.999C406.489 332.598 407.285 332.186 408.093 331.853L410.407 330.913C411.864 330.271 413.247 329.847 414.435 329.435C415.035 329.228 415.586 329.033 416.112 328.873L417.544 328.472L419.528 327.945C419.764 327.891 420.007 327.864 420.25 327.864Z" fill="#263238"/>
<path d="M387.648 344.381C384.329 345.584 380.941 346.609 377.499 347.453C374.115 348.463 370.674 349.293 367.19 349.94C370.513 348.751 373.9 347.729 377.339 346.88C380.727 345.88 384.168 345.046 387.648 344.381Z" fill="#263238"/>
<path d="M387.232 365.357C387.064 364.379 386.991 363.389 387.012 362.399C387.012 360.566 386.95 358.032 387.012 355.247C387.073 352.462 387.256 349.917 387.416 348.095C387.44 347.102 387.575 346.115 387.82 345.149C387.902 346.137 387.902 347.13 387.82 348.118C387.746 350.124 387.673 352.565 387.575 355.259C387.477 357.952 387.44 360.394 387.391 362.399C387.43 363.388 387.377 364.377 387.232 365.357Z" fill="#263238"/>
<path d="M406.428 356.21C406.268 356.21 405.754 351.075 405.289 344.748C404.824 338.421 404.567 333.228 404.726 333.217C404.885 333.205 405.399 338.352 405.865 344.679C406.33 351.006 406.587 356.198 406.428 356.21Z" fill="#263238"/>
<path d="M382.543 332.747C383.623 332.623 384.713 332.592 385.799 332.655C387.795 332.655 390.574 332.724 393.622 332.816C396.671 332.908 399.45 333.034 401.458 333.137C402.543 333.142 403.625 333.242 404.69 333.435C403.613 333.552 402.528 333.583 401.445 333.527C399.438 333.527 396.671 333.458 393.61 333.366C390.55 333.274 387.783 333.148 385.775 333.034C384.69 333.037 383.608 332.941 382.543 332.747Z" fill="#263238"/>
<path d="M428.6 395.273C428.545 395.075 428.521 394.87 428.526 394.666C428.526 394.207 428.526 393.623 428.441 392.912C428.367 391.399 428.355 389.198 428.441 386.482C428.526 383.765 428.685 380.533 429.041 376.957C429.396 373.38 429.959 369.449 430.742 365.368C431.526 361.288 432.517 357.437 433.509 353.906C434.501 350.376 435.566 347.338 436.533 344.736C437.5 342.135 438.345 340.152 438.981 338.719C439.287 338.054 439.532 337.573 439.716 337.103C439.797 336.912 439.896 336.728 440.01 336.552C439.983 336.755 439.921 336.953 439.826 337.137C439.667 337.573 439.459 338.123 439.19 338.788C438.614 340.209 437.831 342.284 436.925 344.863C436.019 347.442 435.015 350.536 434.023 354.032C433.032 357.528 432.113 361.345 431.318 365.414C430.522 369.483 429.971 373.438 429.567 376.957C429.163 380.476 428.955 383.742 428.845 386.447C428.734 389.152 428.685 391.353 428.698 392.866C428.698 393.577 428.698 394.15 428.698 394.608C428.689 394.833 428.656 395.055 428.6 395.273Z" fill="#263238"/>
<path d="M431.158 365.529C430.589 366.251 429.941 366.915 429.224 367.512C428 368.658 426.188 370.263 424.156 371.936C422.123 373.61 420.214 375.054 418.806 376.063C418.083 376.652 417.295 377.167 416.455 377.598C417.09 376.927 417.791 376.313 418.549 375.765L423.764 371.524L428.942 367.237C429.618 366.599 430.36 366.026 431.158 365.529Z" fill="#263238"/>
<path d="M446.522 377.106C445.761 376.268 445.074 375.375 444.465 374.435L439.666 367.89C437.806 365.426 436.128 363.191 434.769 361.403C434.05 360.533 433.395 359.618 432.811 358.663C433.653 359.434 434.419 360.274 435.1 361.173C436.447 362.767 438.246 365.025 440.144 367.581C442.041 370.137 443.67 372.486 444.808 374.229C445.473 375.136 446.047 376.099 446.522 377.106Z" fill="#263238"/>
<path d="M438.467 340.69C438.553 340.816 433.448 344.026 427.069 347.866C420.691 351.706 415.451 354.743 415.365 354.594C415.28 354.445 420.385 351.247 426.763 347.407C433.141 343.567 438.381 340.564 438.467 340.69Z" fill="#263238"/>
<path d="M452.852 355.224C450.156 353.127 447.581 350.897 445.139 348.542C442.552 346.319 440.099 343.962 437.794 341.481C440.492 343.572 443.067 345.799 445.507 348.152C448.096 350.378 450.549 352.739 452.852 355.224Z" fill="#263238"/>
<path d="M456.464 354.926L460.847 354.594C463.956 354.35 466.974 353.487 469.698 352.061C471.022 351.327 472.396 350.677 473.812 350.112C479.223 348.083 485.271 348.45 491.098 348.175C500.636 347.718 509.981 345.481 518.582 341.596C519.095 341.385 519.524 341.028 519.807 340.576C520.713 339.04 519.035 337.676 517.603 336.839C510.258 332.587 502.716 328.277 494.342 326.168C485.968 324.059 476.48 324.414 469.343 329.01C460.969 334.409 457.909 345.493 456.488 354.926" fill="#407BFF"/>
<path d="M519.88 340.071L519.146 339.75L517.064 338.73C515.265 337.836 512.669 336.529 509.4 335.062C505.588 333.31 501.619 331.876 497.537 330.775C492.54 329.442 487.309 329.052 482.149 329.629C476.982 330.166 472.103 332.129 468.131 335.269C465.009 337.964 462.509 341.229 460.785 344.863C459.589 347.301 458.526 349.795 457.602 352.336C457.284 353.195 457.027 353.883 456.819 354.41C456.748 354.658 456.645 354.897 456.513 355.121C456.556 354.868 456.622 354.619 456.709 354.376C456.88 353.837 457.113 353.15 457.394 352.279C458.233 349.698 459.239 347.168 460.406 344.702C462.099 340.989 464.601 337.647 467.751 334.89C471.783 331.662 476.755 329.638 482.026 329.079C487.259 328.492 492.565 328.905 497.623 330.294C501.731 331.421 505.719 332.902 509.535 334.718C512.792 336.231 515.363 337.595 517.125 338.547L519.146 339.693C519.406 339.791 519.652 339.918 519.88 340.071Z" fill="#263238"/>
<path d="M509.364 345.355C509.278 345.482 503.549 342.02 496.57 337.607C489.592 333.194 484.022 329.583 484.107 329.412C484.193 329.24 489.923 332.759 496.901 337.16C503.879 341.561 509.462 345.229 509.364 345.355Z" fill="#263238"/>
<path d="M503.255 329.136C501.912 329.562 500.509 329.797 499.092 329.836C497.681 330.041 496.244 330.041 494.832 329.836C496.223 329.605 497.631 329.471 499.043 329.434C500.436 329.228 501.845 329.129 503.255 329.136Z" fill="#263238"/>
<path d="M478.181 326.076C477.719 327.078 477.087 328.003 476.308 328.815C475.657 329.77 474.852 330.625 473.921 331.349C474.396 330.351 475.032 329.427 475.806 328.609C476.459 327.659 477.26 326.805 478.181 326.076Z" fill="#263238"/>
<path d="M483.311 348.519C482.346 348.138 481.424 347.67 480.556 347.121C478.903 346.181 476.675 344.828 474.276 343.178C471.876 341.527 469.783 340.014 468.277 338.891C467.421 338.325 466.622 337.688 465.89 336.988C466.822 337.435 467.704 337.968 468.522 338.581L474.643 342.742C477.03 344.358 479.21 345.78 480.764 346.8C481.666 347.301 482.518 347.876 483.311 348.519Z" fill="#263238"/>
<path d="M462.915 372.349C458.74 371.317 453.758 375.123 452.901 379.089C452.044 383.054 453.623 387.112 455.484 390.757C459.464 398.94 465.369 406.173 472.758 411.916C480.213 417.648 489.52 420.851 499.165 421.006C497.402 413.326 499.643 405.303 498.651 397.497C497.784 390.633 494.457 384.248 489.214 379.383C483.971 374.518 477.121 371.46 469.783 370.71C467.114 370.435 464.029 370.045 462.964 372.349" fill="#407BFF"/>
<path d="M499.166 421.006C498.963 420.931 498.767 420.843 498.578 420.742C498.029 420.456 497.505 420.13 497.011 419.768C495.262 418.336 493.856 416.574 492.885 414.598C492.224 413.383 491.477 412.077 490.755 410.621L488.502 405.967C487.696 404.257 486.776 402.596 485.748 400.993C484.612 399.292 483.339 397.675 481.94 396.156C479.088 393.015 476.015 390.287 473.371 387.697C470.964 385.426 468.773 382.964 466.821 380.338C465.517 378.553 464.444 376.629 463.626 374.607C463.356 373.885 463.16 373.323 463.062 372.922C462.996 372.728 462.951 372.528 462.928 372.326C462.989 372.326 463.222 373.128 463.834 374.527C464.72 376.497 465.837 378.369 467.164 380.109C469.141 382.683 471.344 385.098 473.75 387.33C476.419 389.897 479.504 392.614 482.393 395.789C483.812 397.33 485.097 398.975 486.238 400.706C487.275 402.33 488.199 404.014 489.004 405.75L491.196 410.415C491.906 411.87 492.628 413.189 493.265 414.415C494.181 416.367 495.51 418.125 497.17 419.584C498.382 420.593 499.166 421.006 499.166 421.006Z" fill="#263238"/>
<path d="M477.569 414.633C477.595 413.744 477.722 412.86 477.949 411.996C478.279 410.392 478.818 408.18 479.54 405.772C480.263 403.365 481.046 401.188 481.658 399.675C481.944 398.829 482.326 398.014 482.797 397.245C482.64 398.118 482.389 398.974 482.05 399.801C481.536 401.371 480.826 403.526 480.104 405.922C479.381 408.317 478.781 410.506 478.353 412.088C478.179 412.958 477.916 413.81 477.569 414.633Z" fill="#263238"/>
<path d="M498.382 395.789C497.381 395.653 496.394 395.439 495.431 395.147C493.632 394.712 491.147 394.104 488.38 393.519C485.613 392.935 483.103 392.488 481.267 392.167C480.269 392.032 479.283 391.829 478.316 391.559C479.33 391.529 480.345 391.606 481.34 391.789C483.189 392.007 485.735 392.408 488.514 392.992C491.293 393.577 493.779 394.242 495.554 394.78C496.533 395.02 497.481 395.358 498.382 395.789Z" fill="#263238"/>
<path d="M462.07 401.256C462.118 400.233 462.27 399.216 462.523 398.219C462.891 396.351 463.478 393.783 464.249 390.975C465.021 388.167 465.865 385.668 466.527 383.868C466.834 382.878 467.244 381.918 467.751 381.003C467.579 382.016 467.313 383.013 466.955 383.983C466.404 385.805 465.633 388.316 464.849 391.112C464.066 393.909 463.429 396.454 462.964 398.299C462.754 399.306 462.455 400.295 462.07 401.256Z" fill="#263238"/>
<path d="M488.796 379.352C484.902 379.241 481.016 378.947 477.153 378.47C473.266 378.178 469.396 377.703 465.56 377.048C465.56 376.899 470.799 377.3 477.214 377.931C483.63 378.561 488.808 379.203 488.796 379.352Z" fill="#263238"/>
<path d="M484.977 438.566C484.977 438.715 466.613 438.829 444.038 438.829C421.462 438.829 403.099 438.715 403.099 438.566C403.099 438.417 421.462 438.291 444.038 438.291C466.613 438.291 484.977 438.417 484.977 438.566Z" fill="#455A64"/>
<path d="M472.232 460.642C472.232 460.802 459.88 460.917 444.65 460.917C429.42 460.917 417.067 460.802 417.067 460.642C417.067 460.482 429.42 460.378 444.65 460.378C459.88 460.378 472.232 460.493 472.232 460.642Z" fill="#455A64"/>
<path d="M471.743 463.805C471.743 463.954 459.61 464.08 444.638 464.08C429.665 464.08 417.545 463.954 417.545 463.805C417.545 463.656 429.677 463.53 444.638 463.53C459.598 463.53 471.743 463.656 471.743 463.805Z" fill="#455A64"/>
<path d="M472.709 458.04C472.709 458.189 459.928 458.315 444.172 458.315C428.415 458.315 415.646 458.189 415.646 458.04C415.646 457.891 428.415 457.776 444.172 457.776C459.928 457.776 472.709 457.891 472.709 458.04Z" fill="#455A64"/>
<path d="M85.5747 431.322L52.3975 456.802L86.04 495.613C89.7984 492.381 80.3472 466.258 80.3472 466.258L102.323 450.75L85.5747 431.322Z" fill="#455A64"/>
<g opacity="0.6">
<path d="M71.7408 452.882C71.295 452.601 70.7543 452.482 70.2216 452.55C69.6888 452.618 69.2013 452.866 68.8516 453.249C68.5375 453.657 68.4018 454.162 68.4723 454.66C68.5429 455.159 68.8143 455.613 69.2311 455.931C69.7039 456.227 70.277 456.348 70.8399 456.272C71.4028 456.196 71.9156 455.927 72.2795 455.518C72.5592 455.062 72.6402 454.523 72.5057 454.013C72.3711 453.502 72.0313 453.06 71.5572 452.779" fill="white"/>
</g>
<g opacity="0.6">
<path d="M52.5195 456.687L55.8617 454.097L86.6885 492.575C86.6885 492.575 87.374 494.868 85.8927 495.705L52.5195 456.687Z" fill="white"/>
</g>
<path d="M81.1058 466.717C80.8977 466.866 79.9795 465.983 78.5226 465.571C77.0658 465.158 75.7803 465.284 75.7068 465.044C75.6334 464.803 77.0535 464.207 78.8042 464.768C80.5549 465.33 81.3261 466.614 81.1058 466.717Z" fill="#263238"/>
<path d="M82.8326 472.15C82.6735 472.345 81.6084 471.783 80.2005 471.795C78.7926 471.806 77.752 472.299 77.5683 472.104C77.3847 471.909 78.4498 470.958 80.2127 470.958C81.9756 470.958 83.0285 472.001 82.8326 472.15Z" fill="#263238"/>
<path d="M79.637 478.42C79.4412 478.282 80.2247 477.273 81.755 476.895C83.2853 476.517 84.4973 477.09 84.3994 477.296C84.3014 477.503 83.1751 477.4 81.9509 477.709C80.7266 478.019 79.8207 478.592 79.637 478.42Z" fill="#263238"/>
<path d="M85.6973 462.659C85.4402 462.716 84.9627 461.639 83.9588 460.63C82.9549 459.622 81.8653 459.049 81.951 458.819C82.0367 458.59 83.4569 458.819 84.6322 460.057C85.8074 461.295 85.9299 462.636 85.6973 462.659Z" fill="#263238"/>
<path d="M89.8103 457.994C89.7246 458.063 88.9533 457.41 88.133 456.046C87.3898 454.76 86.9044 453.357 86.7006 451.908C86.6506 451.588 86.6506 451.264 86.7006 450.945C86.7346 450.712 86.8506 450.497 87.0302 450.333C87.2099 450.169 87.4429 450.065 87.6923 450.039C87.9224 450.024 88.1531 450.06 88.3658 450.143C88.5785 450.227 88.7672 450.356 88.9166 450.521C89.1281 450.77 89.305 451.044 89.443 451.335C89.6893 451.834 89.89 452.351 90.0429 452.882C90.2984 453.774 90.3977 454.699 90.3367 455.621C90.3772 456.478 90.1381 457.326 89.6511 458.051C89.5042 458.051 89.7613 457.1 89.6511 455.621C89.6162 454.766 89.4639 453.919 89.1981 453.1C89.0375 452.62 88.8369 452.152 88.5982 451.701C88.3534 451.197 88.0473 450.853 87.7658 450.888C87.4842 450.922 87.6188 450.888 87.5699 451.105C87.5398 451.341 87.5398 451.58 87.5699 451.816C87.6318 452.321 87.7217 452.822 87.8392 453.318C88.0437 454.162 88.3306 454.987 88.6962 455.782C89.1224 456.494 89.4946 457.233 89.8103 457.994Z" fill="#263238"/>
<path d="M89.309 457.971C89.211 457.971 89.615 456.997 90.8637 455.931C91.606 455.316 92.4547 454.823 93.3735 454.475C93.9197 454.269 94.4853 454.112 95.0629 454.005C95.4273 453.903 95.8135 453.891 96.1844 453.969C96.5553 454.048 96.8985 454.214 97.1809 454.452C97.3288 454.627 97.4192 454.838 97.4409 455.06C97.4626 455.282 97.4148 455.505 97.3033 455.702C97.1497 455.987 96.9517 456.25 96.7157 456.481C96.313 456.903 95.842 457.262 95.32 457.547C94.4494 458.029 93.4659 458.305 92.4553 458.349C91.9985 458.414 91.5326 458.392 91.0849 458.286C90.6372 458.179 90.2166 457.991 89.8476 457.73C90.6958 457.774 91.5459 457.774 92.3941 457.73C93.2665 457.604 94.1007 457.307 94.8426 456.859C95.2962 456.597 95.7083 456.277 96.0668 455.908C96.4463 455.518 96.6667 455.094 96.4953 454.968C96.3147 454.862 96.1123 454.794 95.9014 454.766C95.6905 454.738 95.4757 454.752 95.2711 454.808C94.7454 454.888 94.229 455.015 93.7285 455.186C92.8579 455.456 92.0333 455.842 91.28 456.332C90.0068 457.272 89.4314 458.051 89.309 457.971Z" fill="#263238"/>
<path d="M70.541 452.125L70.945 492.3L124.335 492.083C124.004 487.314 96.336 477.835 96.336 477.835L97.2053 452.08L70.541 452.125Z" fill="#455A64"/>
<g opacity="0.6">
<path d="M79.8074 475.738C79.3043 475.886 78.8757 476.2 78.601 476.621C78.3264 477.043 78.2243 477.544 78.3138 478.03C78.4526 478.513 78.7836 478.929 79.2388 479.191C79.694 479.453 80.2391 479.542 80.7623 479.44C81.3076 479.283 81.7705 478.941 82.0604 478.481C82.3503 478.02 82.4462 477.476 82.3294 476.953C82.1281 476.461 81.7316 476.061 81.2228 475.837C80.714 475.613 80.1323 475.581 79.5993 475.749" fill="white"/>
</g>
<g opacity="0.6">
<path d="M70.9316 492.14V488.082L122.35 489.71C122.35 489.71 124.725 490.684 124.444 492.255L70.9316 492.14Z" fill="white"/>
</g>
<path d="M97.1929 477.583C97.1929 477.824 95.883 477.938 94.6097 478.729C93.3365 479.52 92.6509 480.552 92.4061 480.449C92.1612 480.345 92.553 478.947 94.12 478.019C95.6871 477.09 97.2541 477.354 97.1929 477.583Z" fill="#263238"/>
<path d="M102.812 479.726C102.812 479.956 101.735 480.38 100.866 481.411C99.9963 482.443 99.727 483.543 99.4699 483.532C99.2128 483.52 99.0414 482.145 100.155 480.873C101.27 479.6 102.8 479.463 102.812 479.726Z" fill="#263238"/>
<path d="M106.02 485.985C105.775 486.042 105.407 484.839 106.02 483.486C106.632 482.134 107.905 481.606 108.015 481.813C108.125 482.019 107.378 482.73 106.791 483.841C106.203 484.953 106.277 485.962 106.02 485.985Z" fill="#263238"/>
<path d="M96.703 471.691C96.5929 471.909 95.3931 471.577 93.924 471.691C92.4549 471.806 91.3041 472.23 91.1694 472.024C91.0347 471.817 92.1243 470.935 93.8628 470.877C95.6012 470.82 96.8255 471.496 96.703 471.691Z" fill="#263238"/>
<path d="M95.405 465.765C94.5275 465.991 93.6014 465.991 92.7239 465.765C91.7582 465.605 90.8168 465.335 89.9203 464.963C89.3919 464.745 88.8806 464.492 88.39 464.207C88.0856 464.058 87.8119 463.86 87.582 463.622C87.408 463.451 87.3002 463.231 87.2758 462.996C87.2514 462.761 87.3118 462.526 87.4473 462.327C87.5778 462.157 87.7486 462.018 87.9461 461.921C88.1437 461.823 88.3626 461.77 88.5859 461.765C88.9254 461.76 89.2638 461.802 89.5898 461.891C90.1631 462.011 90.7212 462.188 91.2547 462.418C92.1521 462.792 92.979 463.299 93.7033 463.92C94.9275 464.997 95.3805 465.903 95.2948 465.949C95.2091 465.995 94.5602 465.273 93.2993 464.39C92.5457 463.874 91.7224 463.454 90.8507 463.141C90.3527 462.949 89.8361 462.804 89.3082 462.705C88.745 462.567 88.2676 462.567 88.0839 462.797C87.9003 463.026 88.0839 462.923 88.1451 463.083C88.3248 463.248 88.5264 463.391 88.745 463.507C89.1954 463.786 89.6658 464.035 90.1529 464.252C90.9832 464.638 91.8527 464.946 92.7483 465.169C93.6485 465.306 94.5365 465.505 95.405 465.765Z" fill="#263238"/>
<path d="M95.0623 466.109C94.5541 465.4 94.305 464.555 94.3522 463.702C94.297 462.774 94.413 461.843 94.695 460.951C94.8743 460.43 95.0995 459.924 95.3684 459.438C95.512 459.108 95.7439 458.817 96.0419 458.594C96.3398 458.371 96.6939 458.224 97.0701 458.166C97.309 458.165 97.543 458.23 97.7431 458.352C97.9433 458.474 98.1008 458.649 98.1964 458.854C98.3272 459.148 98.4217 459.456 98.478 459.771C98.5698 460.329 98.5698 460.897 98.478 461.456C98.3368 462.393 97.9498 463.283 97.3517 464.046C96.311 465.353 95.2215 465.651 95.2092 465.559C95.197 465.467 96.0295 464.963 96.813 463.714C97.2743 462.998 97.5626 462.196 97.6577 461.364C97.7087 460.902 97.6922 460.435 97.6088 459.977C97.5231 459.438 97.3027 459.014 97.0946 459.072C96.8864 459.129 96.3845 459.473 96.1641 459.897C95.9037 460.329 95.6825 460.782 95.503 461.249C95.2115 462.06 95.0425 462.905 95.0011 463.76C94.9276 465.169 95.1602 466.075 95.0623 466.109Z" fill="#263238"/>
<path d="M75.1199 219.386C75.1199 219.386 67.6274 226.882 63.9547 234.08C60.2819 241.279 57.9313 258.415 57.9313 258.415C57.9313 258.415 47.5986 279.964 49.1657 290.99C50.7327 302.017 61.2613 377.449 61.2613 377.449C61.2613 377.449 60.7471 450.693 68.2273 463.759L69.8923 470.82L99.9967 465.811L99.8008 461.582L106.877 317.846L124.996 220.016L75.1199 219.386Z" fill="#263238"/>
<path d="M141.535 240.763C141.535 240.763 159.532 333.515 161.123 349.654C162.715 365.792 101.453 450.647 101.453 450.647L73.4424 423.298L113.647 353.379L100.572 282.864L118.752 220.567L137.85 221.186L141.535 240.763Z" fill="#263238"/>
<path d="M63.5254 440.95C63.5573 441.633 63.6309 442.314 63.7457 442.99C63.9294 444.343 64.2844 446.314 64.7741 448.87C65.778 453.971 67.4063 461.375 69.5854 470.648V470.843H69.7936L99.9102 465.903H100.143V465.685C100.988 446.349 101.979 423.275 103.057 398.437C104.171 371.764 105.199 347.029 106.044 326.741C108.296 310.442 110.169 296.939 111.467 287.529C112.104 282.841 112.593 279.161 112.936 276.617L113.304 273.763C113.377 273.109 113.401 272.777 113.401 272.777C113.401 272.777 113.316 273.098 113.218 273.751C113.12 274.404 112.961 275.367 112.765 276.605C112.398 279.138 111.847 282.806 111.149 287.483C109.79 296.905 107.843 310.407 105.481 326.672C104.599 346.96 103.534 371.695 102.371 398.368C101.343 423.161 100.375 446.28 99.5674 465.628L99.8123 465.364L69.7201 470.431L69.9772 470.591C67.7368 461.421 66.0473 453.971 64.97 448.882C64.4436 446.337 64.0518 444.377 63.8315 443.036C63.6968 442.371 63.6356 441.89 63.5866 441.523C63.579 441.331 63.5586 441.139 63.5254 440.95Z" fill="#455A64"/>
<path d="M117.454 62.9274C118.347 58.0101 114.344 53.0585 109.264 51.5684C104.183 50.0783 98.4901 51.5684 94.1195 54.3881C90.8752 56.5086 88.1819 59.3627 84.7417 61.2081C81.6076 62.8816 77.9838 63.6495 74.9477 65.3918C72.5355 66.7784 70.5296 68.7049 69.1105 70.998C67.6915 73.291 66.9039 75.8785 66.8186 78.5274C66.7452 82.1953 68.0429 86.1039 66.2432 89.3821C64.3334 92.9583 59.5221 94.4255 57.3429 97.8641C55.3719 100.97 56.0207 104.913 56.9634 108.421C57.9061 111.928 59.0814 115.63 57.9918 119.104C56.9879 122.256 54.319 124.674 52.752 127.654C51.3515 130.662 51.1774 134.046 52.2626 137.166C53.3478 140.286 55.617 142.925 58.6406 144.584L90.9732 132.296L117.454 62.9274Z" fill="#263238"/>
<path d="M117.834 60.9902C122.816 60.5432 127.334 64.2454 129.268 68.5667C131.203 72.8879 131.141 77.7364 131.215 82.413C131.288 87.0895 131.582 91.9839 134.067 96.0415C135.377 98.1735 137.238 99.9616 138.744 101.979C140.399 103.925 141.231 106.373 141.082 108.856C140.482 113.292 135.279 116.02 133.969 120.318C132.904 123.757 134.618 127.585 133.761 131.116C132.955 133.835 131.049 136.154 128.448 137.58C125.867 138.976 123.083 140.015 120.184 140.664L103.963 128.915L107.905 60.0388L117.834 60.9902Z" fill="#263238"/>
<path d="M82.2075 84.3961L84.1419 133.305C84.2202 135.275 84.7252 137.208 85.6261 138.989C86.527 140.771 87.8051 142.362 89.3828 143.666C90.9604 144.971 92.8048 145.961 94.8039 146.578C96.803 147.195 98.9151 147.425 101.012 147.255C104.921 146.936 108.541 145.199 111.101 142.415C113.661 139.631 114.956 136.02 114.711 132.354C114.565 128.686 114.65 124.33 114.711 123.952C114.711 123.952 127.787 121.201 128.252 108.856C128.484 102.885 128.337 92.8093 127.652 81.7139C127.319 75.916 124.658 70.4501 120.2 66.413C115.743 62.3759 109.82 60.0662 103.62 59.9473H102.395C88.6104 60.3714 81.3383 71.547 82.2075 84.3961Z" fill="#FFBE9D"/>
<path d="M114.749 123.918C108.637 123.9 102.669 122.176 97.6094 118.966C97.6094 118.966 101.454 127.941 114.639 127.116L114.749 123.918Z" fill="#EB996E"/>
<path d="M124.432 92.5801C124.423 93.0394 124.224 93.4775 123.877 93.8023C123.53 94.1272 123.062 94.3136 122.571 94.3224C122.331 94.3347 122.09 94.3018 121.864 94.2255C121.637 94.1492 121.43 94.0312 121.253 93.8784C121.076 93.7255 120.933 93.541 120.834 93.3357C120.734 93.1305 120.68 92.9086 120.674 92.6833C120.68 92.2241 120.879 91.7856 121.227 91.462C121.575 91.1384 122.044 90.9555 122.535 90.9525C122.774 90.9402 123.014 90.9727 123.239 91.0483C123.465 91.1238 123.673 91.2409 123.849 91.3925C124.026 91.5441 124.169 91.7273 124.269 91.9312C124.369 92.1352 124.425 92.3558 124.432 92.5801Z" fill="#263238"/>
<path d="M124.701 88.4193C124.456 88.6485 123.061 87.6284 121.028 87.5825C118.996 87.5367 117.49 88.4651 117.282 88.2244C117.074 87.9837 117.429 87.7086 118.078 87.2845C118.969 86.7325 120.021 86.4522 121.09 86.4821C122.144 86.5026 123.164 86.8357 124.003 87.4335C124.615 87.9035 124.824 88.3161 124.701 88.4193Z" fill="#263238"/>
<path d="M105.212 92.5801C105.202 93.0394 105.003 93.4774 104.656 93.8023C104.309 94.1271 103.841 94.3135 103.351 94.3223C103.11 94.3346 102.87 94.3017 102.643 94.2254C102.417 94.1492 102.209 94.0311 102.032 93.8783C101.855 93.7255 101.713 93.541 101.613 93.3357C101.514 93.1304 101.459 92.9085 101.453 92.6832C101.46 92.2241 101.658 91.7856 102.006 91.462C102.354 91.1383 102.824 90.9554 103.314 90.9524C103.554 90.9385 103.794 90.9699 104.021 91.0449C104.247 91.1199 104.455 91.2368 104.632 91.3888C104.809 91.5407 104.952 91.7245 105.051 91.9292C105.151 92.1339 105.205 92.3552 105.212 92.5801Z" fill="#263238"/>
<path d="M105.321 88.683C105.077 88.9122 103.681 87.8921 101.649 87.8577C99.6164 87.8233 98.1106 88.7288 97.9024 88.4881C97.6943 88.2474 98.0371 87.9838 98.6982 87.5482C99.591 87.0003 100.643 86.724 101.71 86.7573C102.764 86.7778 103.784 87.1109 104.624 87.7087C105.236 88.1672 105.432 88.6027 105.321 88.683Z" fill="#263238"/>
<path d="M111.675 101.773C112.753 101.493 113.863 101.331 114.981 101.291C115.507 101.291 115.997 101.165 116.095 100.844C116.149 100.344 116.038 99.8398 115.776 99.4001C115.323 98.2539 114.846 96.9701 114.344 95.6749C112.349 90.3679 110.916 86.0237 111.149 85.9435C111.381 85.8633 113.181 90.1043 115.177 95.4113C115.654 96.7179 116.107 97.9673 116.548 99.1479C116.859 99.742 116.937 100.42 116.768 101.062C116.687 101.23 116.567 101.379 116.417 101.498C116.266 101.617 116.089 101.703 115.899 101.75C115.612 101.822 115.315 101.853 115.017 101.842C113.905 101.962 112.781 101.939 111.675 101.773Z" fill="#263238"/>
<path d="M104.697 81.244C104.465 81.7484 102.457 81.4045 100.07 81.565C97.6825 81.7254 95.7237 82.2298 95.4298 81.7598C95.3074 81.5306 95.6625 81.0606 96.4705 80.6136C97.5588 79.9532 98.851 79.6507 100.143 79.7539C101.294 79.6461 102.455 79.8076 103.522 80.2239C104.379 80.5792 104.795 81.0033 104.697 81.244Z" fill="#263238"/>
<path d="M125.497 81.1638C125.081 81.5993 123.453 81.1638 121.482 81.0835C119.511 81.0033 117.809 81.3357 117.479 80.8887C117.307 80.6709 117.576 80.2353 118.311 79.8342C119.319 79.3507 120.443 79.1179 121.575 79.158C122.707 79.1981 123.809 79.5099 124.775 80.0634C125.461 80.5104 125.681 80.9574 125.497 81.1638Z" fill="#263238"/>
<path d="M112.3 107.848C112.221 107.449 112.081 107.063 111.883 106.701C111.643 106.321 111.306 106.001 110.903 105.771C110.499 105.542 110.041 105.408 109.57 105.383C108.618 105.344 107.688 105.652 106.974 106.243C106.662 106.498 106.41 106.811 106.235 107.162C106.06 107.514 105.966 107.895 105.958 108.283C105.967 108.49 106.021 108.693 106.117 108.879C106.357 109.41 106.729 109.879 107.202 110.247C107.675 110.616 108.235 110.874 108.835 111C109.44 111.109 110.065 111.053 110.637 110.837C111.208 110.622 111.7 110.256 112.055 109.785C112.259 109.512 112.389 109.198 112.434 108.868C112.444 108.523 112.399 108.179 112.3 107.848Z" fill="#EB996E"/>
<path d="M84.252 100.879C84.1785 100.879 84.0806 100.879 84.0928 101.005C84.0978 101.024 84.1073 101.041 84.1206 101.056C84.1339 101.071 84.1507 101.082 84.1696 101.09C84.1886 101.098 84.2092 101.102 84.2298 101.101C84.2505 101.1 84.2706 101.094 84.2887 101.085C84.3044 101.072 84.3169 101.056 84.3255 101.038C84.334 101.021 84.3385 101.001 84.3385 100.982C84.3385 100.962 84.334 100.943 84.3255 100.925C84.3169 100.907 84.3044 100.892 84.2887 100.879C84.2716 100.871 84.2528 100.866 84.2336 100.866C84.2145 100.866 84.1956 100.871 84.1785 100.879" fill="#263238"/>
<path d="M84.4486 100.351C84.4288 100.345 84.4076 100.344 84.387 100.348C84.3665 100.352 84.3474 100.36 84.3314 100.373C84.3155 100.386 84.3032 100.402 84.2959 100.42C84.2885 100.438 84.2863 100.458 84.2895 100.478C84.2926 100.496 84.3006 100.513 84.3126 100.528C84.3247 100.543 84.3405 100.555 84.3586 100.563C84.3767 100.571 84.3966 100.575 84.4166 100.574C84.4365 100.573 84.4559 100.567 84.4731 100.558C84.4908 100.546 84.5052 100.531 84.5152 100.513C84.5251 100.495 84.5303 100.475 84.5303 100.455C84.5303 100.434 84.5251 100.414 84.5152 100.396C84.5052 100.379 84.4908 100.363 84.4731 100.351C84.4563 100.342 84.4373 100.338 84.418 100.338C84.3987 100.338 84.3797 100.342 84.3629 100.351" fill="#263238"/>
<path d="M114.05 108.696C114.05 108.833 113.536 109.108 112.569 109.246C111.26 109.44 109.919 109.257 108.725 108.719C107.517 108.168 106.551 107.239 105.995 106.094C105.579 105.246 105.566 104.661 105.713 104.604C106.081 104.443 106.938 106.575 109.288 107.653C110.312 108.086 111.411 108.343 112.532 108.409C113.438 108.489 114.026 108.512 114.05 108.696Z" fill="#263238"/>
<path d="M77.2497 95.1016C74.2381 85.141 75.7684 73.7476 82.563 65.5751C89.3576 57.4026 101.674 53.196 112.129 56.5658C113.631 56.9878 115.006 57.7337 116.144 58.7436C116.698 59.2605 117.102 59.9016 117.316 60.6059C117.53 61.3102 117.548 62.0542 117.369 62.7669C116.658 64.9791 113.818 65.8502 111.357 65.9533C108.897 66.0565 106.265 65.77 104.147 66.9391C100.4 68.9908 100.474 74.1488 97.8294 77.3582C96.5195 78.94 94.5729 80.006 93.3854 81.668C90.1778 86.1612 92.8222 88.8548 90.7777 93.9096C90.2023 95.308 87.6069 96.5917 86.0154 96.7981C84.4238 97.0044 85.6971 96.9814 82.3426 96.6261L77.2497 95.1016Z" fill="#263238"/>
<path d="M86.8473 96.798C86.627 96.6949 77.996 93.8637 77.8123 102.254C77.6287 110.644 86.6637 109.131 86.6882 108.845C86.7127 108.558 86.8473 96.798 86.8473 96.798Z" fill="#FFBE9D"/>
<path d="M84.0194 105.613C84.0194 105.613 83.8603 105.716 83.5909 105.819C83.3991 105.902 83.1902 105.945 82.9788 105.945C82.7674 105.945 82.5585 105.902 82.3667 105.819C81.424 105.486 80.665 104.054 80.6527 102.541C80.64 101.824 80.8033 101.114 81.1302 100.466C81.2169 100.195 81.3741 99.9484 81.5878 99.7483C81.8015 99.5482 82.0649 99.401 82.3544 99.3198C82.5348 99.2795 82.7245 99.2985 82.8917 99.3737C83.0589 99.4488 83.1934 99.5755 83.2726 99.7325C83.3828 99.9732 83.2726 100.134 83.3706 100.157C83.4685 100.179 83.5665 100.019 83.5052 99.6637C83.4576 99.4568 83.3368 99.2711 83.1624 99.1364C82.9177 98.9619 82.6117 98.8801 82.3055 98.9072C81.935 98.9686 81.5875 99.1177 81.2961 99.3404C81.0046 99.5631 80.7789 99.852 80.6405 100.179C80.249 100.888 80.0473 101.674 80.0528 102.472C80.0528 104.157 80.9588 105.762 82.2443 106.14C82.4838 106.206 82.736 106.223 82.9833 106.19C83.2306 106.156 83.4672 106.073 83.6766 105.945C83.9949 105.796 84.0439 105.635 84.0194 105.613Z" fill="#EB996E"/>
<path d="M67.0635 80.4071C68.9827 81.1832 71.0354 81.6297 73.1235 81.7253C75.3741 81.7655 77.6151 81.4398 79.7467 80.7625C82.355 79.8981 84.826 78.7067 87.0923 77.2207C89.5408 75.6733 91.7199 74.0113 93.74 72.5212C95.76 71.0311 97.5964 69.7015 99.2246 68.6928C100.501 67.8768 101.839 67.149 103.228 66.515C103.726 66.2582 104.256 66.0617 104.807 65.9304C104.807 65.9304 104.281 66.217 103.338 66.7213C102.01 67.4202 100.722 68.1855 99.4817 69.0137C97.9024 70.0568 96.0905 71.3979 94.1072 72.9223C92.1239 74.4468 89.9203 76.1317 87.4473 77.7021C85.1329 79.2121 82.6023 80.4083 79.9304 81.2553C77.7321 81.9284 75.4218 82.2236 73.1113 82.1265C71.553 82.0535 70.0183 81.7398 68.5693 81.198C68.1806 81.0484 67.8041 80.8721 67.443 80.6708C67.19 80.5179 67.0635 80.4301 67.0635 80.4071Z" fill="#455A64"/>
<path d="M66.3657 81.1982C66.3657 81.1179 67.59 81.8171 69.7324 82.7226C72.4487 83.9027 75.299 84.7909 78.2287 85.3704C81.1635 85.9375 84.158 86.1875 87.1536 86.1154C89.4551 86.1154 90.8263 85.8862 90.8875 85.9894C90.5753 86.1116 90.2451 86.1889 89.9081 86.2186C89.0063 86.3796 88.0944 86.4868 87.178 86.5395C81.0721 86.9277 74.9697 85.7382 69.5365 83.1009C68.7148 82.7109 67.9214 82.2705 67.1615 81.7827C66.6228 81.4389 66.3412 81.2326 66.3657 81.1982Z" fill="#455A64"/>
<path d="M130.97 76.1434C129.444 75.896 128.017 75.2716 126.835 74.3345C125.654 73.3975 124.761 72.1819 124.249 70.8135C125.186 71.89 126.187 72.9156 127.248 73.8853C128.442 74.7042 129.684 75.4582 130.97 76.1434Z" fill="#455A64"/>
<path d="M130.664 84.2815C130.762 84.4076 130.284 84.9004 129.439 85.1641C128.595 85.4277 127.909 85.3131 127.909 85.1641C127.909 85.0151 128.521 84.8431 129.231 84.6139C129.941 84.3846 130.505 84.1439 130.664 84.2815Z" fill="#455A64"/>
<path d="M180.675 186.031C180.598 183.457 181.339 180.92 182.805 178.741C185.155 175.761 190.15 174.397 190.554 172.322C190.958 170.248 194.79 166.087 196.675 167.05C198.561 168.013 199.332 170.259 196.675 172.85C194.931 174.552 193.342 176.389 191.925 178.34C191.925 178.34 215.725 174.477 217.463 174.764C219.202 175.05 220.94 175.326 220.952 176.701C220.965 178.076 216.337 178.455 216.337 178.455L208.587 183.498C206.806 185.773 204.702 187.809 202.332 189.55C199.682 191.071 196.72 192.055 193.639 192.439L185.4 197.367C185.4 197.367 177.271 191.831 180.675 186.031Z" fill="#FFBE9D"/>
<path d="M215.811 178.661C215.811 178.661 215.664 178.489 215.395 178.26C215.007 177.928 214.52 177.716 213.999 177.652C212.225 177.62 210.484 178.105 209.016 179.039C207.503 179.966 206.11 181.054 204.866 182.283C204.378 182.831 203.819 183.32 203.201 183.739C203.575 183.111 204.036 182.533 204.572 182.019C205.749 180.676 207.146 179.515 208.71 178.581C210.281 177.566 212.186 177.107 214.085 177.285C214.673 177.39 215.202 177.686 215.578 178.122C215.811 178.432 215.835 178.649 215.811 178.661Z" fill="#EB996E"/>
<path d="M207.473 178.925C205.149 179.777 202.694 180.272 200.201 180.392C202.53 179.554 204.983 179.059 207.473 178.925Z" fill="#EB996E"/>
<path d="M195.194 179.99C196.425 179.953 197.635 180.302 198.63 180.981C199.626 181.66 200.351 182.63 200.691 183.739C199.948 182.909 199.129 182.142 198.243 181.446C197.277 180.873 196.257 180.386 195.194 179.99Z" fill="#EB996E"/>
<path d="M134.765 136.652C134.765 136.652 146.456 142.223 149.297 149.558C150.79 153.421 159.629 194.479 159.629 194.479L177.43 183.166L189.428 200.13L160.964 220.876C155.4 222.207 149.525 221.805 144.228 219.73C142.294 218.962 140.739 218.068 140.359 217.117C139.233 214.171 134.765 136.652 134.765 136.652Z" fill="#407BFF"/>
<g opacity="0.3">
<path d="M152.088 201.264C150.141 204.015 149.223 207.637 150.594 210.686C150.695 210.971 150.882 211.222 151.133 211.408C151.44 211.547 151.791 211.569 152.115 211.471C152.439 211.373 152.71 211.162 152.871 210.881C153.164 210.301 153.307 209.665 153.288 209.024C153.627 203.667 155.887 198.575 159.703 194.57V194.41C156.774 196.282 154.201 198.598 152.088 201.264Z" fill="black"/>
</g>
<path d="M52.1526 142.119L85.9298 131.861C92.4918 148.194 113.622 145.409 114.7 132.262L134.765 136.744C134.765 136.744 141.486 176.621 139.858 184.885C137.238 198.204 143.812 241.474 147.289 257.039C150.313 270.519 141.486 278.531 137.055 282.199C114.504 300.859 102.776 298.349 86.2848 288.652C74.6804 282.107 62.4947 276.512 49.8633 271.929C51.5038 253.876 62.1915 235.146 69.0596 221.598L65.901 190.112L52.1526 142.119Z" fill="#407BFF"/>
<path d="M146.702 252.363C146.574 252.062 146.476 251.751 146.408 251.434C146.249 250.827 146.004 249.933 145.722 248.764C145.147 246.471 144.388 243.033 143.616 238.837C142.845 234.642 142.086 229.576 141.511 223.937C140.935 218.297 140.617 212.096 140.519 205.597C140.421 199.098 140.323 192.874 139.858 187.258C139.522 182.275 138.777 177.324 137.63 172.448C136.856 169.163 135.796 165.943 134.459 162.82C134.018 161.674 133.553 160.883 133.308 160.299C133.158 160.01 133.031 159.711 132.929 159.405C133.124 159.672 133.293 159.956 133.431 160.253C133.712 160.814 134.214 161.628 134.655 162.74C136.083 165.846 137.213 169.064 138.034 172.357C139.262 177.229 140.072 182.185 140.458 187.177C140.948 192.817 141.07 199.041 141.168 205.517C141.266 211.993 141.584 218.228 142.111 223.856C142.637 229.484 143.335 234.505 144.069 238.757C144.804 243.01 145.477 246.357 145.979 248.706C146.224 249.853 146.408 250.735 146.555 251.4C146.625 251.718 146.674 252.039 146.702 252.363Z" fill="#263238"/>
<g opacity="0.3">
<path d="M101.05 227.559C93.9489 227.238 86.6279 226.951 79.9802 229.266C69.8434 232.785 63.0488 241.623 54.1484 247.377L54.9932 247.663C59.0917 249.789 63.7537 250.774 68.43 250.501C73.1063 250.229 77.6022 248.712 81.3881 246.127C85.0608 243.525 88.0235 239.88 92.3329 238.344C94.206 237.668 96.275 237.427 98.0134 236.476C99.5718 235.573 100.734 234.177 101.291 232.542C101.848 230.907 101.762 229.14 101.05 227.559Z" fill="black"/>
</g>
<path d="M52.1524 142.223C48.3052 144.292 45.2934 147.491 43.5826 151.324C41.281 156.527 35.0128 226.699 36.0902 231.192C37.1675 235.685 42.2115 242.413 50.4874 245.909C57.4779 248.855 75.5479 241.714 82.8812 239.193C83.1138 239.112 81.2407 236.476 80.4327 234.722L74.2257 216.211L64.2847 217.22L67.9575 182.42L52.1524 142.223Z" fill="#407BFF"/>
<path d="M63.1953 165.812C63.4134 166.449 63.5812 167.1 63.6973 167.76C63.9666 169.033 64.2849 170.878 64.6032 173.17C65.2398 177.755 65.8275 184.117 66.3784 191.132L67.7373 209.127C67.9332 211.351 68.1046 213.185 68.227 214.572C68.3338 215.232 68.3829 215.899 68.3739 216.566C68.1891 215.92 68.0581 215.26 67.9821 214.595C67.774 213.322 67.5414 211.466 67.2843 209.162C66.7946 204.577 66.2927 198.204 65.7418 191.178C65.1908 184.151 64.6767 177.801 64.1502 173.216C63.8931 170.924 63.6483 169.078 63.4524 167.806C63.3065 167.149 63.2205 166.482 63.1953 165.812Z" fill="#263238"/>
<path d="M75.8051 215.523C74.7448 215.804 73.6648 216.015 72.573 216.154C70.5285 216.486 67.676 216.933 64.2481 217.438H64.1624H64.0767C62.301 216.689 60.3903 216.262 58.4451 216.177C56.1866 216.079 53.933 216.45 51.8464 217.266C50.1483 217.942 48.5903 218.893 47.2432 220.074C46.0403 221.212 44.9617 222.46 44.0234 223.799C44.1577 223.394 44.3513 223.008 44.5988 222.653C45.2401 221.615 46.0219 220.66 46.9249 219.81C48.2829 218.549 49.8762 217.531 51.6261 216.807C53.7826 215.937 56.1246 215.545 58.4696 215.661C60.4988 215.748 62.4905 216.203 64.3338 217.002H64.1624C67.5536 216.544 70.4551 216.177 72.5241 215.936C73.6039 215.715 74.7012 215.577 75.8051 215.523Z" fill="#263238"/>
<path d="M80.6902 234.78C80.9926 235.129 81.2437 235.514 81.437 235.926L83.3101 239.067L83.4325 239.261L83.1999 239.353C79.821 240.58 74.8383 242.333 69.2802 244.248L64.4688 245.898L64.2974 245.348L64.4566 245.898H64.3342L64.1873 245.336H64.2485L64.4199 245.887C61.0226 246.961 57.4013 247.263 53.8546 246.769C52.8374 246.624 51.8313 246.418 50.8429 246.15C50.4772 246.069 50.1235 245.946 49.79 245.783C49.79 245.692 51.3204 246.127 53.9035 246.402C57.3855 246.776 60.9126 246.411 64.224 245.336L64.3954 245.887L64.2485 245.325H64.3586L64.5178 245.875L64.3342 245.314L69.1332 243.652C74.6914 241.737 79.6985 240.052 83.1265 238.941L83.004 239.216L81.3023 235.995C81.0538 235.611 80.8487 235.204 80.6902 234.78Z" fill="#263238"/>
<path d="M159.911 194.284C158.684 195.62 157.539 197.02 156.483 198.479C154.916 200.978 154.317 203.328 154.108 203.27C154.25 201.454 154.877 199.7 155.933 198.17C156.843 196.55 158.222 195.204 159.911 194.284Z" fill="#263238"/>
<path d="M118.568 66.6411C118.574 66.7213 118.574 66.8017 118.568 66.8818V66.6411Z" fill="#263238"/>
<path d="M94.2295 231.49C93.3991 229.633 92.8907 227.663 92.7237 225.656C92.3256 223.679 92.2718 221.654 92.5645 219.661C92.9918 221.609 93.2862 223.581 93.446 225.564C93.9357 228.819 94.4376 231.444 94.2295 231.49Z" fill="#455A64"/>
<path d="M82.4162 108.833L52.373 137.695C54.3176 140.722 55.3925 144.169 55.4934 147.7C55.5942 151.231 54.7175 154.726 52.9484 157.846L78.0334 158.602L78.1803 152.275C78.6011 153.594 79.3702 154.793 80.4165 155.761C81.4628 156.729 82.7526 157.434 84.1669 157.811C87.9743 158.831 92.0389 157.88 95.8585 156.883C89.4646 141.39 84.9554 125.272 82.4162 108.833Z" fill="#263238"/>
<path d="M89.1372 169.308C89.1372 170.156 88.9658 221.575 88.9658 221.575L135.487 223.031L137.814 171.016L89.1372 169.308Z" fill="#EBEBEB"/>
<path d="M93.9362 165.468C93.9362 166.523 87.4844 228.063 87.4844 228.063L137.997 226.917L146.493 165.445L93.9362 165.468Z" fill="#F5F5F5"/>
<path d="M139.821 177.882C139.821 178.053 131.153 178.18 120.478 178.18C109.802 178.18 101.135 178.053 101.135 177.882C101.135 177.71 109.802 177.583 120.478 177.583C131.153 177.583 139.821 177.721 139.821 177.882Z" fill="#263238"/>
<path d="M139.331 181.939C139.331 182.1 130.676 182.237 120 182.237C109.325 182.237 100.657 182.1 100.657 181.939C100.657 181.779 109.313 181.641 120 181.641C130.688 181.641 139.331 181.767 139.331 181.939Z" fill="#263238"/>
<path d="M138.475 187.063C138.475 187.235 129.807 187.361 119.131 187.361C108.456 187.361 99.7881 187.235 99.7881 187.063C99.7881 186.891 108.456 186.765 119.131 186.765C129.807 186.765 138.475 186.902 138.475 187.063Z" fill="#263238"/>
<path d="M137.557 191.659C137.557 191.82 128.889 191.957 118.213 191.957C107.538 191.957 98.8701 191.82 98.8701 191.659C98.8701 191.499 107.538 191.35 118.213 191.35C128.889 191.35 137.557 191.487 137.557 191.659Z" fill="#263238"/>
<path d="M137.557 196.244C137.557 196.404 128.889 196.542 118.213 196.542C107.538 196.542 98.8701 196.404 98.8701 196.244C98.8701 196.083 107.538 195.946 118.213 195.946C128.889 195.946 137.557 196.083 137.557 196.244Z" fill="#263238"/>
<path d="M137.091 201.058C137.091 201.23 128.436 201.356 117.748 201.356C107.06 201.356 98.417 201.23 98.417 201.058C98.417 200.886 107.072 200.76 117.748 200.76C128.423 200.76 137.091 200.932 137.091 201.058Z" fill="#263238"/>
<path d="M136.626 205.872C136.626 206.044 127.971 206.182 117.295 206.182C106.62 206.182 97.9521 206.044 97.9521 205.872C97.9521 205.7 106.608 205.574 117.295 205.574C127.983 205.574 136.626 205.712 136.626 205.872Z" fill="#263238"/>
<path d="M136.161 210.698C136.161 210.858 127.505 210.996 116.83 210.996C106.154 210.996 97.4863 210.858 97.4863 210.698C97.4863 210.537 106.142 210.4 116.83 210.4C127.517 210.4 136.161 210.526 136.161 210.698Z" fill="#263238"/>
<path d="M135.708 215.512C135.708 215.672 127.04 215.81 116.365 215.81C105.689 215.81 97.0215 215.672 97.0215 215.512C97.0215 215.351 105.689 215.214 116.365 215.214C127.04 215.214 135.708 215.351 135.708 215.512Z" fill="#263238"/>
<path d="M135.243 220.326C135.243 220.498 126.587 220.624 115.899 220.624C105.212 220.624 96.5684 220.498 96.5684 220.326C96.5684 220.154 105.224 220.028 115.899 220.028C126.575 220.028 135.243 220.165 135.243 220.326Z" fill="#263238"/>
<path d="M72.867 221.484C72.867 221.484 76.8948 213.162 77.764 212.692C78.6332 212.222 92.9937 210.686 95.8585 210.652C98.9558 210.652 103.73 210.732 104.526 212.153C105.114 213.196 104.526 214.732 102.225 215.053C102.225 215.053 105.432 214.893 105.089 216.773C104.747 218.652 97.5357 222.103 97.5357 222.103C97.5357 222.103 98.8824 223.524 96.2013 226.183L94.977 227.593C94.977 227.593 95.4789 230.103 93.9731 231.204C92.4673 232.304 82.9181 235.433 82.9181 235.433L79.2453 234.344L76.907 235.433C76.907 235.433 69.2554 228.441 72.867 221.484Z" fill="#FFBE9D"/>
<path d="M103.326 214.687C102.299 215.144 101.224 215.501 100.118 215.752C98.0983 216.326 95.2948 217.036 92.1607 217.678C89.0266 218.32 86.1619 218.824 84.0806 219.077C82.9642 219.285 81.8278 219.385 80.6895 219.375C81.7705 219.043 82.8807 218.801 84.0072 218.652C86.0639 218.274 88.9042 217.747 92.026 217.094C95.1479 216.44 97.9514 215.81 99.9959 215.351C101.083 215.04 102.197 214.817 103.326 214.687Z" fill="#EB996E"/>
<path d="M97.2173 222.355C95.1058 223.391 92.8337 224.11 90.4839 224.487C88.1807 225.052 85.7972 225.277 83.4199 225.151C83.4199 224.98 86.554 224.682 90.3492 223.902C94.1444 223.123 97.1438 222.194 97.2173 222.355Z" fill="#EB996E"/>
<path d="M94.8426 227.524C93.5893 228.591 92.0762 229.354 90.4353 229.748C88.8555 230.324 87.1507 230.537 85.4648 230.367C85.4648 230.195 87.6685 229.977 90.2394 229.22C92.8104 228.464 94.7447 227.375 94.8426 227.524Z" fill="#EB996E"/>
<path d="M80.469 230.733C80.469 230.733 79.7222 230.825 78.7795 230.206C78.2544 229.828 77.8345 229.336 77.5553 228.773C77.2117 228.079 77.0926 227.306 77.2125 226.55C77.2519 226.235 77.1923 225.916 77.0411 225.633C76.8424 225.369 76.6169 225.123 76.3677 224.899C75.911 224.427 75.6204 223.835 75.5352 223.203C75.4006 222.125 75.8413 221.541 75.8903 221.575C75.8665 222.096 75.8952 222.618 75.976 223.134C76.1123 223.657 76.3955 224.135 76.7962 224.521C77.0867 224.766 77.3493 225.039 77.5797 225.335C77.804 225.711 77.8981 226.144 77.8491 226.573C77.7392 227.175 77.7938 227.793 78.0079 228.371C78.2219 228.948 78.5885 229.465 79.0733 229.874C79.8201 230.539 80.469 230.653 80.469 230.733Z" fill="#EB996E"/>
<path d="M82.9179 234.528C82.9179 234.699 81.8528 234.665 81.0937 233.783C80.3347 232.9 80.5306 231.914 80.702 231.96C80.8734 232.006 80.9835 232.728 81.5957 233.404C82.2078 234.081 82.9179 234.367 82.9179 234.528Z" fill="#EB996E"/>
</svg>
