<svg width="577" height="571" viewBox="0 0 577 571" fill="none" xmlns="http://www.w3.org/2000/svg">
<path d="M342.933 327.135C343.038 327.224 343.139 327.318 343.234 327.417L344.092 328.248L347.404 331.532L359.9 344.063L404.176 388.759H403.664L453.887 334.901L454.233 334.535L454.519 334.944L458.177 340.102L496.176 393.664L495.649 393.579L532.172 366.263L532.382 366.108L532.563 366.291L560.445 395.891L567.972 403.968L569.929 406.082C570.366 406.561 570.576 406.815 570.576 406.815C570.576 406.815 570.32 406.589 569.869 406.138L567.882 403.968L560.204 395.99L532.141 366.601H532.533L496.1 394.101L495.799 394.326L495.573 394.016L457.53 340.539L453.857 335.366H454.474C436.197 354.959 419.005 373.353 404.191 389.224L403.935 389.492L403.679 389.224C385.493 370.703 370.272 355.226 359.599 344.345L347.254 331.659L344.017 328.305C343.671 327.924 343.4 327.642 343.189 327.431C342.978 327.219 342.918 327.149 342.933 327.135Z" fill="#E6E6E6"/>
<path d="M398.983 389.126C398.974 390.105 399.276 391.064 399.852 391.882C400.427 392.7 401.25 393.339 402.214 393.717C403.179 394.096 404.242 394.197 405.269 394.008C406.295 393.819 407.238 393.349 407.977 392.656C408.717 391.964 409.22 391.081 409.422 390.12C409.624 389.159 409.515 388.164 409.111 387.26C408.707 386.357 408.024 385.587 407.151 385.048C406.277 384.509 405.253 384.226 404.207 384.235C402.824 384.242 401.499 384.76 400.521 385.675C399.543 386.591 398.991 387.831 398.983 389.126Z" fill="#E0E0E0"/>
<path d="M491.223 395.003C491.229 395.98 491.544 396.932 492.129 397.741C492.713 398.549 493.541 399.177 494.507 399.545C495.473 399.912 496.534 400.004 497.555 399.807C498.576 399.61 499.512 399.133 500.244 398.438C500.976 397.743 501.472 396.86 501.667 395.901C501.863 394.942 501.751 393.95 501.344 393.051C500.937 392.152 500.255 391.386 499.383 390.851C498.511 390.315 497.489 390.033 496.447 390.042C495.052 390.053 493.719 390.581 492.739 391.511C491.76 392.442 491.215 393.697 491.223 395.003Z" fill="#E0E0E0"/>
<path d="M527.099 367.842C527.108 368.815 527.425 369.763 528.009 370.568C528.594 371.372 529.42 371.996 530.384 372.36C531.347 372.725 532.405 372.814 533.422 372.616C534.439 372.418 535.371 371.942 536.1 371.248C536.828 370.554 537.32 369.674 537.514 368.718C537.708 367.762 537.595 366.774 537.189 365.878C536.784 364.983 536.103 364.22 535.234 363.686C534.365 363.153 533.347 362.872 532.308 362.881C530.915 362.895 529.586 363.426 528.61 364.355C527.634 365.285 527.091 366.538 527.099 367.842Z" fill="#E0E0E0"/>
<path d="M448.919 335.564C448.925 336.54 449.24 337.493 449.825 338.301C450.41 339.11 451.237 339.737 452.203 340.105C453.169 340.473 454.23 340.564 455.251 340.367C456.273 340.17 457.209 339.694 457.941 338.999C458.673 338.303 459.168 337.42 459.364 336.461C459.559 335.502 459.447 334.511 459.04 333.612C458.634 332.713 457.951 331.947 457.079 331.411C456.208 330.875 455.186 330.594 454.143 330.602C452.748 330.613 451.415 331.142 450.436 332.072C449.456 333.002 448.911 334.258 448.919 335.564Z" fill="#E0E0E0"/>
<path d="M566.421 406.956C566.427 407.932 566.742 408.885 567.327 409.693C567.911 410.502 568.739 411.13 569.705 411.497C570.671 411.865 571.732 411.956 572.753 411.759C573.774 411.562 574.71 411.086 575.443 410.391C576.175 409.695 576.67 408.812 576.866 407.854C577.061 406.895 576.949 405.903 576.542 405.004C576.136 404.105 575.453 403.339 574.581 402.803C573.71 402.267 572.688 401.986 571.645 401.994C570.25 402.005 568.917 402.534 567.938 403.464C566.958 404.394 566.413 405.65 566.421 406.956Z" fill="#E0E0E0"/>
<path d="M104.932 33.6875H71.1035V159.656H104.932V33.6875Z" fill="#E6E6E6"/>
<path d="M154.688 61.1592H120.86V159.642H154.688V61.1592Z" fill="#E6E6E6"/>
<path d="M205.212 83.6548H171.384V159.642H205.212V83.6548Z" fill="#E6E6E6"/>
<path d="M251.987 114.523H218.159V159.656H251.987V114.523Z" fill="#E6E6E6"/>
<path d="M224.904 2.25537C224.904 2.25537 224.587 2.63594 223.97 3.31251L221.155 6.34297L210.451 17.7601L171.85 58.636L171.64 58.8475L171.399 58.6783L146.212 40.6083H146.724L111.496 82.4146L111.074 82.922L110.818 83.2321L110.502 82.9643L63.0645 43.7375H63.5914C44.9687 66.628 29.1912 86.178 17.9001 100.005L4.75731 116.088L1.24955 120.316L0.331207 121.402C0.228707 121.53 0.118106 121.652 0 121.768C0.0855182 121.631 0.181097 121.499 0.286045 121.374L1.15921 120.246L4.57666 115.919L17.5388 99.7235L63.0043 43.2582L63.2452 42.9622L63.5312 43.2018L111.029 82.33H110.457L110.879 81.8226L146.152 40.0445L146.378 39.7767L146.664 39.9881L171.805 58.0441H171.354L210.15 17.4923C214.832 12.6294 218.505 8.80963 221.019 6.21612L223.895 3.25613C224.557 2.55137 224.904 2.25537 224.904 2.25537Z" fill="#E6E6E6"/>
<path d="M219.318 31.4745C219.306 31.2607 219.331 31.0464 219.393 30.8402L219.77 29.036C220.161 27.3587 220.688 25.1317 221.275 22.4113C222.615 16.7732 224.512 9.07729 226.695 0.451045L227.177 0.873899L225.475 1.36723C216.036 4.08759 207.485 6.49787 201.282 8.21748L193.921 10.2049L191.903 10.7123C191.672 10.7931 191.428 10.836 191.181 10.8392C191.397 10.7293 191.623 10.6396 191.858 10.5714L193.83 9.93709L201.117 7.72415C207.274 5.87768 215.81 3.38284 225.204 0.676567L226.906 0.197331L227.568 0L227.402 0.634278C225.31 9.30281 223.398 16.9706 221.892 22.5382C221.155 25.2303 220.553 27.4433 220.116 29.1065C219.905 29.7972 219.725 30.3892 219.589 30.8684C219.531 31.0818 219.44 31.286 219.318 31.4745Z" fill="#E6E6E6"/>
<path d="M486.179 215.247C492.901 215.145 499.504 216.911 505.154 220.323C510.804 223.734 515.247 228.637 517.921 234.412C520.595 240.187 521.379 246.575 520.176 252.768C518.972 258.961 515.834 264.68 511.159 269.203C506.484 273.726 500.481 276.85 493.91 278.179C487.338 279.508 480.494 278.983 474.241 276.671C467.988 274.358 462.608 270.361 458.782 265.186C454.955 260.011 452.853 253.889 452.742 247.596C452.605 239.158 456.049 231.013 462.317 224.949C468.585 218.885 477.167 215.396 486.179 215.247ZM486.992 262.297C490.206 262.241 493.329 261.294 495.969 259.577C498.608 257.859 500.644 255.447 501.82 252.647C502.996 249.846 503.259 246.782 502.576 243.841C501.893 240.901 500.294 238.216 497.982 236.125C495.669 234.035 492.747 232.633 489.584 232.097C486.421 231.562 483.16 231.915 480.211 233.114C477.263 234.313 474.761 236.303 473.02 238.833C471.279 241.363 470.379 244.319 470.432 247.328C470.469 249.329 470.927 251.304 471.779 253.139C472.632 254.974 473.862 256.634 475.4 258.024C476.938 259.414 478.753 260.507 480.742 261.24C482.731 261.973 484.855 262.333 486.992 262.297Z" fill="#E0E0E0"/>
<path d="M486.12 211.287C496.257 211.151 506.038 214.784 513.319 221.39C520.6 227.995 524.787 237.034 524.961 246.525L501.777 247.089C501.626 237.659 494.806 233.825 486.722 233.346C484.735 233.235 482.745 233.51 480.878 234.153C479.01 234.797 477.305 235.796 475.87 237.087C474.435 238.378 473.3 239.933 472.538 241.654C471.776 243.375 471.402 245.226 471.441 247.089L448.498 247.667C448.341 238.173 452.215 229.01 459.269 222.188C466.323 215.367 475.98 211.446 486.12 211.287Z" fill="#F0F0F0"/>
<path d="M210.918 355.494C222.622 343.997 238.678 337.259 255.633 336.732C272.587 336.205 289.086 341.93 301.578 352.675C307.715 357.971 312.668 364.354 316.15 371.455C319.632 378.555 321.575 386.233 321.865 394.041C322.155 401.85 320.786 409.635 317.839 416.945C314.891 424.255 310.424 430.945 304.694 436.626C292.991 448.124 276.935 454.861 259.98 455.389C243.025 455.916 226.527 450.191 214.035 439.445C207.898 434.15 202.945 427.767 199.463 420.666C195.98 413.565 194.038 405.888 193.748 398.079C193.458 390.271 194.827 382.486 197.774 375.176C200.721 367.866 205.189 361.176 210.918 355.494ZM280.17 415.455C282.917 412.74 285.059 409.541 286.472 406.043C287.885 402.545 288.54 398.819 288.4 395.082C288.26 391.344 287.327 387.67 285.656 384.274C283.984 380.877 281.608 377.826 278.665 375.298C272.685 370.166 264.792 367.438 256.685 367.702C248.579 367.966 240.907 371.2 235.322 376.708C232.575 379.423 230.433 382.623 229.02 386.12C227.607 389.618 226.952 393.344 227.092 397.081C227.232 400.819 228.165 404.493 229.836 407.889C231.508 411.286 233.884 414.337 236.827 416.865C242.807 422.009 250.707 424.744 258.822 424.48C266.938 424.217 274.616 420.975 280.2 415.455H280.17Z" fill="#F5F5F5"/>
<path d="M210.918 355.494C222.621 343.997 238.678 337.259 255.632 336.732C272.587 336.205 289.085 341.93 301.578 352.675L278.725 375.34C272.745 370.209 264.852 367.481 256.745 367.744C248.639 368.008 240.967 371.242 235.382 376.75C232.635 379.465 230.493 382.665 229.08 386.163C227.667 389.66 227.012 393.386 227.152 397.124C227.292 400.861 228.225 404.535 229.896 407.931C231.568 411.328 233.944 414.379 236.887 416.907L214.004 439.488C207.863 434.19 202.907 427.803 199.423 420.697C195.939 413.591 193.997 405.909 193.71 398.095C193.423 390.281 194.796 382.492 197.75 375.179C200.704 367.866 205.18 361.175 210.918 355.494Z" fill="#E0E0E0"/>
<path d="M298.958 342.936C330.573 370.322 334.412 414.821 304.83 444.195L272.718 418.274C286.854 404.25 289.925 385.517 274.795 372.423L298.958 342.936Z" fill="#EBEBEB"/>
<path d="M269.375 420.135L288.449 455.457C296.337 452.75 303.444 448.364 309.21 442.645L274.945 416.738L269.375 420.135Z" fill="#E0E0E0"/>
<path d="M341.338 94.0855C341.06 78.2526 345.804 62.6983 354.97 49.3902C364.135 36.0821 377.311 25.6183 392.83 19.3224C408.349 13.0266 425.513 11.1816 442.152 14.021C458.791 16.8603 474.157 24.2564 486.306 35.2735C498.454 46.2906 506.84 60.4337 510.401 75.9137C513.963 91.3936 512.541 107.515 506.314 122.238C500.088 136.961 489.338 149.624 475.423 158.626C461.508 167.627 445.055 172.562 428.144 172.807C405.494 173.109 383.64 164.993 367.369 150.238C351.099 135.482 341.738 115.29 341.338 94.0855ZM467.693 92.1827C467.561 84.6154 465.035 77.2546 460.435 71.0311C455.835 64.8077 449.367 60.001 441.85 57.2188C434.332 54.4367 426.102 53.8041 418.2 55.4009C410.299 56.9978 403.08 60.7524 397.458 66.19C391.835 71.6277 388.061 78.5041 386.612 85.95C385.164 93.3958 386.106 101.077 389.319 108.021C392.533 114.966 397.874 120.862 404.666 124.965C411.459 129.068 419.399 131.193 427.481 131.071C438.318 130.897 448.639 126.704 456.177 119.413C463.716 112.123 467.858 102.329 467.693 92.1827Z" fill="#FAFAFA"/>
<path d="M341.337 94.0855C340.995 72.8654 349.659 52.385 365.429 37.1398C381.198 21.8946 402.784 13.1303 425.448 12.7705L426.171 54.5345C415.33 54.6971 405.003 58.8849 397.46 66.1766C389.918 73.4683 385.778 83.2666 385.952 93.416C386.125 103.565 390.598 113.235 398.387 120.296C406.175 127.358 416.64 131.234 427.48 131.071L428.143 172.807C405.491 173.116 383.632 165.003 367.36 150.246C351.087 135.489 341.729 115.293 341.337 94.0855Z" fill="#E0E0E0"/>
<path d="M417.771 6.34285C472.916 5.51123 516.921 45.4006 517.795 97.0312L465.6 97.8205C465.178 73.1258 445.02 57.5788 418.659 57.9875L417.771 6.34285Z" fill="#F0F0F0"/>
<path d="M518.472 570.192C518.472 570.389 405.907 570.559 267.057 570.559C128.206 570.559 15.6416 570.389 15.6416 570.192C15.6416 569.995 128.176 569.812 267.057 569.812C405.937 569.812 518.472 569.981 518.472 570.192Z" fill="#263238"/>
<path d="M169.909 374.748L448.874 372.874V376.538L169.909 378.878V374.748Z" fill="#263238"/>
<path d="M163.827 109.209L170.18 376.933L448.875 374.903V104.713L163.827 109.209Z" fill="white"/>
<path d="M163.826 109.209L448.874 104.403H449.22V104.727C449.22 182.067 449.22 273.333 449.22 370.703V375.284H448.829L170.134 377.271H169.803V376.961C166.205 216.502 163.857 111.972 163.781 109.223C163.781 111.93 166.461 216.502 170.466 376.933L170.134 376.623L448.829 374.551L448.437 374.917V370.689C448.437 273.319 448.437 182.053 448.437 104.713L448.784 105.037L163.826 109.209Z" fill="#263238"/>
<path d="M162.713 110.999L450.094 109.463L450.455 98.1729L162.713 99.8502V110.999Z" fill="#263238"/>
<path d="M300.284 384.234C299.802 384.234 299.29 382.134 299.155 379.512C299.019 376.891 299.32 374.748 299.802 374.72C300.284 374.692 300.796 376.806 300.931 379.428C301.067 382.049 300.781 384.234 300.284 384.234Z" fill="#263238"/>
<path d="M300.178 382.303C300.178 382.205 300.66 382.176 301.413 382.458C301.867 382.637 302.292 382.875 302.677 383.163C303.195 383.553 303.629 384.031 303.957 384.573C304.403 385.322 304.628 386.169 304.607 387.026C304.585 387.884 304.319 388.721 303.836 389.45C303.547 389.889 303.18 390.28 302.752 390.605C302.306 390.942 301.795 391.195 301.247 391.352C300.083 391.653 298.844 391.569 297.739 391.113C297.18 390.88 296.671 390.555 296.234 390.154C295.799 389.753 295.456 389.274 295.225 388.745C294.808 387.784 294.719 386.725 294.969 385.714C295.154 384.872 295.588 384.095 296.222 383.472C296.855 382.849 297.663 382.405 298.552 382.191C299.691 381.899 300.903 381.999 301.97 382.472C302.692 382.811 302.963 383.163 302.903 383.248C302.843 383.332 302.436 383.248 301.744 383.079C300.801 382.914 299.828 382.992 298.929 383.304C298.349 383.515 297.833 383.853 297.423 384.291C296.953 384.806 296.646 385.434 296.537 386.104C296.428 386.774 296.521 387.459 296.806 388.082C297.134 388.752 297.72 389.281 298.447 389.562C299.17 389.865 299.982 389.93 300.75 389.746C301.456 389.574 302.069 389.162 302.466 388.59C302.859 388.05 303.092 387.423 303.144 386.771C303.19 386.477 303.19 386.178 303.144 385.884C303.095 385.607 303.009 385.337 302.888 385.08C302.502 384.251 301.895 383.528 301.127 382.98C300.569 382.613 300.178 382.416 300.178 382.303Z" fill="#263238"/>
<path d="M341.639 255.714C341.639 255.714 341.639 255.714 341.458 255.714H340.946L338.959 255.799L331.296 256.109L303.114 257.096C279.312 257.913 246.417 258.999 210.105 260.168L197.61 260.563H197.323V260.295C194.794 229.187 192.506 201.307 190.925 181.264C190.142 171.256 189.525 163.208 189.089 157.668C188.893 154.849 188.727 152.749 188.622 151.297C188.622 150.564 188.532 150.015 188.516 149.634C188.501 149.254 188.516 149.31 188.516 149.211C188.516 149.113 188.516 149.07 188.516 149.07C188.523 149.117 188.523 149.164 188.516 149.211C188.516 149.31 188.516 149.451 188.516 149.634C188.516 149.817 188.607 150.564 188.682 151.283C188.802 152.693 188.998 154.878 189.254 157.654C189.721 163.194 190.413 171.242 191.271 181.221C192.958 201.208 195.276 229.018 197.835 260.253L197.534 259.999L210.03 259.591C246.342 258.435 279.282 257.406 303.038 256.701L331.236 255.884L338.899 255.686H340.886H341.579L341.639 255.714Z" fill="#455A64"/>
<path d="M240.727 140.402V143.996L280.441 142.22V139.204L240.727 140.402Z" fill="#263238"/>
<path d="M210.663 252.642H224.468L222.3 217.559H208.766L210.663 252.642Z" fill="#407BFF"/>
<path d="M235.683 252.656H249.473L247.32 203.619H233.786L235.683 252.656Z" fill="#407BFF"/>
<path d="M259.108 251.091H272.914L270.746 186.888H257.227L259.108 251.091Z" fill="#407BFF"/>
<path d="M312.854 248.597H326.644L324.491 161.094H310.957L312.854 248.597Z" fill="#407BFF"/>
<path d="M286.704 248.893H300.495L298.327 173.596H284.808L286.704 248.893Z" fill="#407BFF"/>
<path d="M201.991 208.468C201.63 207.946 226.29 192.554 257.047 174.09C287.804 155.625 313.065 141.079 313.427 141.671C313.788 142.263 289.128 157.584 258.356 176.049C227.584 194.514 202.322 208.989 201.991 208.468Z" fill="#407BFF"/>
<path d="M299.772 141.614C299.651 140.994 308.579 138.908 319.749 136.935L322.58 136.441L320.969 138.683L320.879 138.809C314.495 147.689 308.835 154.61 308.308 154.314C307.781 154.018 312.493 146.491 318.846 137.597L318.936 137.47L320.171 139.218C309.015 141.121 299.892 142.22 299.772 141.614Z" fill="#407BFF"/>
<path d="M208.766 264.496H223.188L223.64 266.892H208.766V264.496Z" fill="#263238"/>
<path d="M234.299 263.509H248.721L249.173 265.905H234.299V263.509Z" fill="#263238"/>
<path d="M260.584 262.805H275.006L275.458 265.201H260.584V262.805Z" fill="#263238"/>
<path d="M285.214 262.227H299.636L300.088 264.637H285.214V262.227Z" fill="#263238"/>
<path d="M315.729 261.381H330.152L330.604 263.791H315.729V261.381Z" fill="#263238"/>
<path d="M380.42 356.918C405.846 356.918 426.458 337.62 426.458 313.815C426.458 290.01 405.846 270.712 380.42 270.712C354.995 270.712 334.383 290.01 334.383 313.815C334.383 337.62 354.995 356.918 380.42 356.918Z" fill="#407BFF"/>
<path opacity="0.3" d="M380.42 356.918C405.846 356.918 426.458 337.62 426.458 313.815C426.458 290.01 405.846 270.712 380.42 270.712C354.995 270.712 334.383 290.01 334.383 313.815C334.383 337.62 354.995 356.918 380.42 356.918Z" fill="black"/>
<path d="M380.421 313.758L335.512 323.216C328.286 292.207 354.993 270.655 380.421 270.655" fill="#407BFF"/>
<path d="M380.481 313.758L380.18 270.655C414.083 270.655 430.884 299.677 425.464 322.934L380.481 313.758Z" fill="#407BFF"/>
<path d="M380.481 313.758L380.18 270.655C414.083 270.655 430.884 299.677 425.464 322.934L380.481 313.758Z" fill="#407BFF"/>
<path opacity="0.1" d="M380.481 313.758L380.18 270.655C414.083 270.655 430.884 299.677 425.464 322.934L380.481 313.758Z" fill="black"/>
<path d="M427.647 211.752C426.752 211.192 425.799 210.72 424.801 210.342C422.021 209.546 419.038 209.625 416.311 210.568C412.788 211.597 409.295 214.218 405.908 217.503C402.52 220.787 398.892 224.762 393.593 227.087C391.036 228.277 388.158 228.724 385.328 228.37C382.774 227.874 380.307 227.049 377.996 225.917C375.962 224.926 373.787 224.209 371.538 223.789C369.581 223.502 367.577 223.736 365.757 224.466C363.077 225.53 360.885 227.447 359.569 229.878C359.146 230.791 358.799 231.734 358.53 232.697C358.577 231.678 358.838 230.677 359.298 229.751C360.559 227.185 362.774 225.135 365.531 223.986C367.419 223.199 369.505 222.921 371.553 223.183C373.877 223.587 376.128 224.299 378.237 225.297C380.488 226.391 382.889 227.188 385.373 227.665C388.051 227.977 390.768 227.546 393.186 226.425C398.275 224.198 401.843 220.251 405.321 217.023C408.798 213.796 412.396 211.075 416.055 210.075C418.896 209.146 421.99 209.146 424.832 210.075C425.59 210.348 426.304 210.718 426.954 211.174C427.21 211.339 427.442 211.533 427.647 211.752Z" fill="#263238"/>
<path d="M431.546 239.604C431.546 239.815 415.197 239.97 395.038 239.97C374.88 239.97 358.53 239.815 358.53 239.604C358.53 239.392 374.88 239.237 395.038 239.237C415.197 239.237 431.546 239.406 431.546 239.604Z" fill="#263238"/>
<path d="M427.481 239.604C427.271 239.604 427.09 230.893 427.09 220.138C427.09 209.384 427.271 200.687 427.481 200.687C427.692 200.687 427.873 209.398 427.873 220.138C427.873 230.879 427.707 239.604 427.481 239.604Z" fill="#263238"/>
<path d="M365.892 223.211C365.892 223.211 365.787 223.07 365.892 222.816C365.962 222.638 366.072 222.477 366.215 222.343C366.358 222.209 366.53 222.106 366.72 222.041C367.007 221.923 367.322 221.88 367.633 221.917C367.943 221.954 368.237 222.07 368.482 222.252C368.747 222.531 368.904 222.886 368.926 223.258C368.948 223.631 368.834 224 368.604 224.304C368.373 224.609 368.039 224.831 367.656 224.934C367.272 225.038 366.863 225.017 366.495 224.874C366.235 224.729 366.022 224.522 365.877 224.274C365.731 224.027 365.659 223.747 365.667 223.465C365.663 223.277 365.7 223.09 365.775 222.916C365.85 222.742 365.962 222.583 366.103 222.45C366.329 222.281 366.495 222.281 366.51 222.309C366.525 222.337 366.103 222.718 366.209 223.436C366.23 223.621 366.296 223.799 366.404 223.956C366.511 224.112 366.655 224.243 366.826 224.339C367.037 224.388 367.259 224.377 367.464 224.307C367.668 224.237 367.846 224.111 367.972 223.945C368.099 223.779 368.169 223.581 368.174 223.378C368.179 223.174 368.119 222.973 368 222.802C367.849 222.686 367.67 222.606 367.478 222.569C367.287 222.532 367.089 222.54 366.901 222.591C366.133 222.703 365.998 223.239 365.892 223.211Z" fill="#263238"/>
<path d="M415.121 209.074C415.121 209.074 415.121 208.905 415.392 208.764C415.743 208.599 416.148 208.569 416.521 208.679C416.819 208.755 417.088 208.905 417.3 209.114C417.512 209.323 417.66 209.582 417.726 209.863C417.749 210.227 417.641 210.587 417.418 210.886C417.196 211.185 416.873 211.405 416.501 211.51C416.129 211.616 415.729 211.602 415.367 211.469C415.005 211.336 414.701 211.093 414.504 210.779C414.396 210.508 414.368 210.213 414.423 209.928C414.479 209.643 414.616 209.377 414.82 209.158C415.075 208.877 415.437 208.7 415.829 208.665C416.1 208.665 416.235 208.75 416.22 208.792C416.205 208.834 415.648 208.862 415.272 209.469C415.168 209.619 415.103 209.791 415.082 209.97C415.061 210.148 415.085 210.329 415.151 210.497C415.284 210.65 415.462 210.761 415.662 210.818C415.863 210.875 416.077 210.875 416.277 210.818C416.478 210.76 416.655 210.648 416.787 210.496C416.919 210.343 417 210.157 417.018 209.962C416.978 209.786 416.895 209.622 416.775 209.483C416.654 209.343 416.5 209.232 416.326 209.158C415.663 208.848 415.197 209.173 415.121 209.074Z" fill="#263238"/>
<path d="M426.186 162.94C426.186 163.138 410.349 163.307 390.823 163.307C371.297 163.307 355.459 163.138 355.459 162.94C355.459 162.743 371.282 162.574 390.823 162.574C410.364 162.574 426.186 162.771 426.186 162.94Z" fill="#263238"/>
<path d="M426.186 172.173C426.186 172.384 410.349 172.539 390.823 172.539C371.297 172.539 355.459 172.384 355.459 172.173C355.459 171.961 371.282 171.806 390.823 171.806C410.364 171.806 426.186 171.975 426.186 172.173Z" fill="#263238"/>
<path d="M426.186 181.377C426.186 181.574 410.349 181.743 390.823 181.743C371.297 181.743 355.459 181.574 355.459 181.377C355.459 181.179 371.282 181.01 390.823 181.01C410.364 181.01 426.186 181.165 426.186 181.377Z" fill="#263238"/>
<path d="M426.186 190.567C426.186 190.778 410.349 190.933 390.823 190.933C371.297 190.933 355.459 190.778 355.459 190.567C355.459 190.355 371.282 190.2 390.823 190.2C410.364 190.2 426.186 190.369 426.186 190.567Z" fill="#263238"/>
<path d="M393.096 146.153H355.459V149.127H393.096V146.153Z" fill="#263238"/>
<path d="M237.731 293.814H200.094V296.788H237.731V293.814Z" fill="#263238"/>
<path d="M303.084 311.052C303.084 311.263 280.246 311.418 252.078 311.418C223.911 311.418 201.058 311.263 201.058 311.052C201.058 310.841 223.896 310.686 252.078 310.686C280.261 310.686 303.084 310.855 303.084 311.052Z" fill="#263238"/>
<path d="M303.686 319.396C303.686 319.594 280.441 319.763 251.777 319.763C223.113 319.763 199.868 319.594 199.868 319.396C199.868 319.199 223.098 319.03 251.777 319.03C280.456 319.03 303.686 319.227 303.686 319.396Z" fill="#263238"/>
<path d="M304.875 327.261C304.875 327.459 281.495 327.628 252.665 327.628C223.835 327.628 200.455 327.459 200.455 327.261C200.455 327.064 223.835 326.895 252.665 326.895C281.495 326.895 304.875 327.05 304.875 327.261Z" fill="#263238"/>
<path d="M254.758 335.634C254.758 335.831 242.714 336.001 227.9 336.001C213.086 336.001 201.058 335.831 201.058 335.634C201.058 335.437 213.101 335.268 227.9 335.268C242.699 335.268 254.758 335.437 254.758 335.634Z" fill="#263238"/>
<path d="M90.8108 563.807V551.122L65.3231 550.91L65.1123 569.558L66.6178 569.657C73.6484 570.065 102.388 571.264 107.1 569.967C112.43 568.501 90.8108 563.807 90.8108 563.807Z" fill="#407BFF"/>
<path d="M107.777 568.797C107.777 569.022 98.2478 569.206 86.49 569.206C74.7322 569.206 65.1875 569.022 65.1875 568.797C65.1875 568.571 74.7322 568.388 86.49 568.388C98.2478 568.388 107.777 568.571 107.777 568.797Z" fill="#263238"/>
<path d="M91.2627 566.415C91.0519 566.302 91.2627 565.611 91.7745 565.005C92.2864 564.399 92.994 564.004 93.1445 564.159C93.2951 564.314 92.9639 564.892 92.4671 565.569C91.9702 566.245 91.4734 566.527 91.2627 566.415Z" fill="#263238"/>
<path d="M92.8887 567.247C92.6629 567.162 92.7834 566.401 93.2802 565.612C93.777 564.822 94.4394 564.343 94.62 564.484C94.8007 564.625 94.4996 565.287 94.0329 566.02C93.5662 566.753 93.1145 567.331 92.8887 567.247Z" fill="#263238"/>
<path d="M72.851 568.712C72.7456 568.783 72.3542 568.444 71.7972 567.881C71.1192 567.144 70.3681 566.469 69.554 565.865C68.7422 565.306 67.7961 564.943 66.799 564.808C66.0312 564.709 65.5344 564.808 65.4892 564.695C65.4441 564.582 65.9258 564.286 66.8141 564.23C67.9846 564.199 69.1316 564.542 70.0659 565.203C70.9564 565.842 71.712 566.63 72.294 567.528C72.7607 568.191 72.9715 568.642 72.851 568.712Z" fill="#263238"/>
<path d="M91.3381 564.018C91.4585 564.202 91.0068 564.653 90.2842 564.892C89.5616 565.132 88.9142 565.047 88.8841 564.822C88.854 564.596 89.3508 564.343 89.9982 564.131C90.6455 563.92 91.2026 563.821 91.3381 564.018Z" fill="#263238"/>
<path d="M90.9162 562.778C90.9162 563.004 90.2538 563.201 89.4108 563.215C88.5677 563.229 87.9053 563.046 87.9053 562.821C87.9053 562.595 88.5978 562.412 89.4108 562.398C90.2237 562.384 90.9162 562.553 90.9162 562.778Z" fill="#407BFF"/>
<path d="M107.777 568.797C107.777 569.022 98.2478 569.206 86.49 569.206C74.7322 569.206 65.1875 569.022 65.1875 568.797C65.1875 568.571 74.7322 568.388 86.49 568.388C98.2478 568.388 107.777 568.571 107.777 568.797Z" fill="#263238"/>
<path d="M91.2627 566.415C91.0519 566.302 91.2627 565.611 91.7745 565.005C92.2864 564.399 92.994 564.004 93.1445 564.159C93.2951 564.314 92.9639 564.892 92.4671 565.569C91.9702 566.245 91.4734 566.527 91.2627 566.415Z" fill="#263238"/>
<path d="M92.8887 567.247C92.6629 567.162 92.7834 566.401 93.2802 565.612C93.777 564.822 94.4394 564.343 94.62 564.484C94.8007 564.625 94.4996 565.287 94.0329 566.02C93.5662 566.753 93.1145 567.331 92.8887 567.247Z" fill="#263238"/>
<path d="M72.851 568.712C72.7456 568.783 72.3542 568.444 71.7972 567.881C71.1192 567.144 70.3681 566.469 69.554 565.865C68.7422 565.306 67.7961 564.943 66.799 564.808C66.0312 564.709 65.5344 564.808 65.4892 564.695C65.4441 564.582 65.9258 564.286 66.8141 564.23C67.9846 564.199 69.1316 564.542 70.0659 565.203C70.9564 565.842 71.712 566.63 72.294 567.528C72.7607 568.191 72.9715 568.642 72.851 568.712Z" fill="#263238"/>
<path d="M91.3381 564.018C91.4585 564.202 91.0068 564.653 90.2842 564.892C89.5616 565.132 88.9142 565.047 88.8841 564.822C88.854 564.596 89.3508 564.343 89.9982 564.131C90.6455 563.92 91.2026 563.821 91.3381 564.018Z" fill="#263238"/>
<path d="M90.9162 562.778C90.9162 563.004 90.2538 563.201 89.4108 563.215C88.5677 563.229 87.9053 563.046 87.9053 562.821C87.9053 562.595 88.5978 562.412 89.4108 562.398C90.2237 562.384 90.9162 562.553 90.9162 562.778Z" fill="#263238"/>
<path d="M117.699 559.297L121.719 547.133L97.4204 539.916L91.3984 557.662L92.9039 558.197C99.4829 560.537 126.566 569.643 131.474 569.713C136.864 569.77 117.699 559.297 117.699 559.297Z" fill="#407BFF"/>
<path d="M132.332 568.755C132.332 568.98 123.088 566.513 111.857 563.243C100.626 559.973 91.5785 557.168 91.6538 556.957C91.7291 556.746 100.882 559.212 112.128 562.468C123.374 565.724 132.407 568.543 132.332 568.755Z" fill="#263238"/>
<path d="M117.307 561.904C117.142 561.735 117.533 561.143 118.256 560.65C118.978 560.157 119.761 560.03 119.836 560.227C119.912 560.424 119.43 560.876 118.768 561.327C118.105 561.778 117.473 562.059 117.307 561.904Z" fill="#263238"/>
<path d="M118.587 563.159C118.407 563.018 118.753 562.313 119.49 561.749C120.228 561.185 120.996 560.861 121.131 561.044C121.267 561.228 120.755 561.777 120.078 562.355C119.4 562.933 118.783 563.243 118.587 563.159Z" fill="#263238"/>
<path d="M99.0161 559.015C98.8957 559.015 98.6398 558.634 98.2935 557.929C97.88 557.04 97.3758 556.191 96.788 555.392C96.1903 554.635 95.405 554.026 94.4997 553.616C93.7921 553.32 93.2803 553.264 93.2803 553.151C93.2803 553.038 93.8222 552.869 94.6954 553.066C95.8183 553.365 96.8001 554.011 97.4806 554.899C98.1252 555.752 98.5995 556.707 98.8806 557.718C99.0763 558.479 99.1215 559.015 99.0161 559.015Z" fill="#455A64"/>
<path d="M118.135 559.635C118.135 559.846 117.623 560.157 116.856 560.185C116.088 560.213 115.486 559.945 115.531 559.72C115.576 559.494 116.148 559.395 116.825 559.367C117.503 559.339 118.015 559.41 118.135 559.635Z" fill="#263238"/>
<path d="M118.135 558.352C118.135 558.564 117.382 558.564 116.554 558.352C115.726 558.141 115.139 557.76 115.215 557.549C115.29 557.337 116.012 557.352 116.795 557.549C117.578 557.746 118.195 558.127 118.135 558.352Z" fill="#263238"/>
<path d="M134.997 311.828L101.546 309.418L50.8711 305.57L56.5317 560.425L100.537 559.889C100.537 559.889 100.537 557.07 100.431 552.08L126.235 558.691C126.235 558.691 151.377 479.166 159.943 446.536C167.094 419.346 134.997 311.828 134.997 311.828ZM99.9497 512.501C99.2873 453.668 98.5195 353.62 99.4379 341.386C99.4379 341.386 123.947 429.466 124.173 436.415C124.323 440.616 110.669 481.266 99.9497 512.501Z" fill="#455A64"/>
<path d="M100.778 550.233C100.778 550.459 90.9319 550.642 78.7978 550.642C66.6636 550.642 56.8027 550.459 56.8027 550.233C56.8027 550.008 66.6486 549.825 78.7978 549.825C90.947 549.825 100.778 550.008 100.778 550.233Z" fill="#455A64"/>
<path d="M100.386 541.072C101.762 541.377 103.111 541.783 104.42 542.284L114.492 545.568L124.564 548.866C125.988 549.248 127.37 549.758 128.689 550.389C127.218 550.197 125.771 549.871 124.368 549.416C121.749 548.697 118.15 547.626 114.206 546.343C110.262 545.061 106.679 543.792 104.21 542.82C102.855 542.406 101.568 541.817 100.386 541.072Z" fill="#455A64"/>
<path d="M140.702 435.626C137.981 436.22 135.201 436.55 132.407 436.612C129.636 436.944 126.836 437.005 124.052 436.796C126.772 436.191 129.552 435.856 132.347 435.795C135.118 435.464 137.919 435.407 140.702 435.626Z" fill="#455A64"/>
<path d="M137.827 440.249C135.663 440.077 133.532 439.642 131.489 438.952C129.363 438.517 127.308 437.821 125.377 436.88C127.547 437.034 129.685 437.466 131.73 438.163C135.163 439.093 137.903 440.023 137.827 440.249Z" fill="#455A64"/>
<path d="M103.487 309.742C103.69 311.351 103.765 312.971 103.713 314.59C103.713 317.593 103.713 321.737 103.713 326.318C103.713 328.587 103.713 330.758 103.623 332.759C103.678 334.562 103.319 336.355 102.569 338.017C102.035 339.149 101.181 340.124 100.1 340.836C99.7313 341.122 99.291 341.316 98.8203 341.399C98.8203 341.399 99.2418 341.146 99.9193 340.61C100.87 339.847 101.609 338.88 102.072 337.791C102.7 336.176 102.981 334.462 102.9 332.745C102.9 330.729 102.9 328.516 102.9 326.289C102.9 321.709 103.021 317.565 103.111 314.576C103.106 312.958 103.232 311.342 103.487 309.742Z" fill="#455A64"/>
<path d="M78.3008 308.304C78.317 308.511 78.317 308.718 78.3008 308.924C78.3008 309.375 78.3008 309.982 78.3008 310.757C78.3008 312.392 78.1653 314.76 78.0599 317.804C77.8492 323.936 77.5481 332.745 77.1717 343.613C76.4641 365.404 75.7415 395.525 75.5609 428.776C75.3802 462.026 75.7867 492.204 76.2534 513.981C76.5093 524.848 76.705 533.714 76.8556 539.789C76.8556 542.82 76.976 545.174 77.0212 546.837C77.0212 547.612 77.0212 548.246 77.0212 548.669C77.0374 548.876 77.0374 549.083 77.0212 549.289C77.0049 549.083 77.0049 548.876 77.0212 548.669C77.0212 548.232 77.0212 547.626 76.9158 546.851C76.9158 545.202 76.7502 542.848 76.6147 539.803C76.3588 533.714 76.0577 524.891 75.7566 513.995C75.1393 492.19 74.6576 462.068 74.8382 428.776C75.0189 395.483 75.8318 365.347 76.6749 343.599C77.0964 332.703 77.4879 323.865 77.8191 317.79C77.9847 314.774 78.1202 312.42 78.2105 310.743C78.2105 309.967 78.3008 309.333 78.3309 308.91C78.3054 308.709 78.2953 308.507 78.3008 308.304Z" fill="#455A64"/>
<path d="M124.037 314.717C124.129 314.904 124.204 315.097 124.263 315.295C124.399 315.718 124.595 316.282 124.835 317.015C125.317 318.523 126.085 320.75 126.928 323.654C128.659 329.447 130.993 337.862 133.597 348.334C136.202 358.807 139.092 371.295 142.103 385.221C145.114 399.147 148.291 414.483 151.136 430.664C151.497 432.694 151.829 434.709 152.115 436.725C152.115 437.261 152.22 437.81 152.22 438.332L151.949 439.826C151.753 440.827 151.603 441.828 151.362 442.8C150.504 446.719 149.54 450.552 148.502 454.302C146.454 461.8 144.286 468.975 142.148 475.797C137.903 489.441 133.808 501.647 130.33 511.895C126.853 522.142 123.947 530.387 121.9 536.082L119.521 542.636L118.874 544.342C118.818 544.538 118.737 544.727 118.633 544.905C118.672 544.705 118.727 544.507 118.798 544.314C118.949 543.891 119.13 543.327 119.37 542.594L121.614 535.997L129.803 511.74C133.206 501.478 137.241 489.258 141.456 475.614C143.564 468.792 145.716 461.603 147.764 454.118C148.788 450.383 149.751 446.564 150.609 442.659C150.85 441.687 150.986 440.7 151.166 439.713L151.437 438.233C151.437 437.754 151.362 437.289 151.332 436.824C151.046 434.836 150.73 432.821 150.368 430.805C147.508 414.638 144.346 399.302 141.335 385.376C138.324 371.45 135.6 358.863 133.07 348.447C130.541 338.031 128.268 329.531 126.627 323.724C125.844 320.821 125.121 318.579 124.685 317.057L124.188 315.323C124.114 315.127 124.064 314.924 124.037 314.717Z" fill="#455A64"/>
<path d="M99.814 507.328C99.9353 507.984 99.9807 508.65 99.9495 509.315C99.9495 510.725 99.9495 512.571 100.025 514.756C100.025 519.478 100.205 525.75 100.311 532.671C100.416 539.591 100.702 545.864 100.838 550.586C100.838 552.77 100.958 554.603 101.003 556.026C101.071 556.687 101.071 557.353 101.003 558.014C100.837 557.367 100.746 556.706 100.732 556.041C100.612 554.758 100.476 552.911 100.326 550.614C100.025 546.033 99.7388 539.69 99.5732 532.685C99.4076 525.68 99.4377 519.337 99.5732 514.756C99.5732 512.458 99.6785 510.527 99.7388 509.315C99.7083 508.652 99.7334 507.987 99.814 507.328Z" fill="#455A64"/>
<path d="M134.997 311.828L101.546 309.418L50.8711 305.57L56.5317 560.425L100.537 559.889C100.537 559.889 100.537 557.07 100.431 552.08L126.235 558.691C126.235 558.691 151.377 479.166 159.943 446.536C167.094 419.346 134.997 311.828 134.997 311.828ZM99.9497 512.501C99.2873 453.668 98.5195 353.62 99.4379 341.386C99.4379 341.386 123.947 429.466 124.173 436.415C124.323 440.616 110.669 481.266 99.9497 512.501Z" fill="#263238"/>
<path d="M100.778 550.233C100.778 550.459 90.9319 550.642 78.7978 550.642C66.6636 550.642 56.8027 550.459 56.8027 550.233C56.8027 550.008 66.6486 549.825 78.7978 549.825C90.947 549.825 100.778 550.008 100.778 550.233Z" fill="#455A64"/>
<path d="M100.386 541.072C101.762 541.377 103.111 541.783 104.42 542.284L114.492 545.568L124.564 548.866C125.988 549.248 127.37 549.758 128.689 550.389C127.218 550.197 125.771 549.871 124.368 549.416C121.749 548.697 118.15 547.626 114.206 546.343C110.262 545.061 106.679 543.792 104.21 542.82C102.855 542.406 101.568 541.817 100.386 541.072Z" fill="#455A64"/>
<path d="M140.702 435.626C137.981 436.22 135.201 436.55 132.407 436.612C129.636 436.944 126.836 437.005 124.052 436.796C126.772 436.191 129.552 435.856 132.347 435.795C135.118 435.464 137.919 435.407 140.702 435.626Z" fill="#455A64"/>
<path d="M137.827 440.249C135.663 440.077 133.532 439.642 131.489 438.952C129.363 438.517 127.308 437.821 125.377 436.88C127.547 437.034 129.685 437.466 131.73 438.163C135.163 439.093 137.903 440.023 137.827 440.249Z" fill="#455A64"/>
<path d="M103.487 309.742C103.69 311.351 103.765 312.971 103.713 314.59C103.713 317.593 103.713 321.737 103.713 326.318C103.713 328.587 103.713 330.758 103.623 332.759C103.678 334.562 103.319 336.355 102.569 338.017C102.035 339.149 101.181 340.124 100.1 340.836C99.7313 341.122 99.291 341.316 98.8203 341.399C98.8203 341.399 99.2418 341.146 99.9193 340.61C100.87 339.847 101.609 338.88 102.072 337.791C102.7 336.176 102.981 334.462 102.9 332.745C102.9 330.729 102.9 328.516 102.9 326.289C102.9 321.709 103.021 317.565 103.111 314.576C103.106 312.958 103.232 311.342 103.487 309.742Z" fill="#455A64"/>
<path d="M78.3008 308.304C78.317 308.511 78.317 308.718 78.3008 308.924C78.3008 309.375 78.3008 309.982 78.3008 310.757C78.3008 312.392 78.1653 314.76 78.0599 317.804C77.8492 323.936 77.5481 332.745 77.1717 343.613C76.4641 365.404 75.7415 395.525 75.5609 428.776C75.3802 462.026 75.7867 492.204 76.2534 513.981C76.5093 524.848 76.705 533.714 76.8556 539.789C76.8556 542.82 76.976 545.174 77.0212 546.837C77.0212 547.612 77.0212 548.246 77.0212 548.669C77.0374 548.876 77.0374 549.083 77.0212 549.289C77.0049 549.083 77.0049 548.876 77.0212 548.669C77.0212 548.232 77.0212 547.626 76.9158 546.851C76.9158 545.202 76.7502 542.848 76.6147 539.803C76.3588 533.714 76.0577 524.891 75.7566 513.995C75.1393 492.19 74.6576 462.068 74.8382 428.776C75.0189 395.483 75.8318 365.347 76.6749 343.599C77.0964 332.703 77.4879 323.865 77.8191 317.79C77.9847 314.774 78.1202 312.42 78.2105 310.743C78.2105 309.967 78.3008 309.333 78.3309 308.91C78.3054 308.709 78.2953 308.507 78.3008 308.304Z" fill="#455A64"/>
<path d="M124.037 314.717C124.129 314.904 124.204 315.097 124.263 315.295C124.399 315.718 124.595 316.282 124.835 317.015C125.317 318.523 126.085 320.75 126.928 323.654C128.659 329.447 130.993 337.862 133.597 348.334C136.202 358.807 139.092 371.295 142.103 385.221C145.114 399.147 148.291 414.483 151.136 430.664C151.497 432.694 151.829 434.709 152.115 436.725C152.115 437.261 152.22 437.81 152.22 438.332L151.949 439.826C151.753 440.827 151.603 441.828 151.362 442.8C150.504 446.719 149.54 450.552 148.502 454.302C146.454 461.8 144.286 468.975 142.148 475.797C137.903 489.441 133.808 501.647 130.33 511.895C126.853 522.142 123.947 530.387 121.9 536.082L119.521 542.636L118.874 544.342C118.818 544.538 118.737 544.727 118.633 544.905C118.672 544.705 118.727 544.507 118.798 544.314C118.949 543.891 119.13 543.327 119.37 542.594L121.614 535.997L129.803 511.74C133.206 501.478 137.241 489.258 141.456 475.614C143.564 468.792 145.716 461.603 147.764 454.118C148.788 450.383 149.751 446.564 150.609 442.659C150.85 441.687 150.986 440.7 151.166 439.713L151.437 438.233C151.437 437.754 151.362 437.289 151.332 436.824C151.046 434.836 150.73 432.821 150.368 430.805C147.508 414.638 144.346 399.302 141.335 385.376C138.324 371.45 135.6 358.863 133.07 348.447C130.541 338.031 128.268 329.531 126.627 323.724C125.844 320.821 125.121 318.579 124.685 317.057L124.188 315.323C124.114 315.127 124.064 314.924 124.037 314.717Z" fill="#455A64"/>
<path d="M99.814 507.328C99.9353 507.984 99.9807 508.65 99.9495 509.315C99.9495 510.725 99.9495 512.571 100.025 514.756C100.025 519.478 100.205 525.75 100.311 532.671C100.416 539.591 100.702 545.864 100.838 550.586C100.838 552.77 100.958 554.603 101.003 556.026C101.071 556.687 101.071 557.353 101.003 558.014C100.837 557.367 100.746 556.706 100.732 556.041C100.612 554.758 100.476 552.911 100.326 550.614C100.025 546.033 99.7388 539.69 99.5732 532.685C99.4076 525.68 99.4377 519.337 99.5732 514.756C99.5732 512.458 99.6785 510.527 99.7388 509.315C99.7083 508.652 99.7334 507.987 99.814 507.328Z" fill="#455A64"/>
<path d="M77.3673 189.51L102.96 191.286C103.307 188.467 103.804 177.74 103.804 177.74C103.804 177.74 114.477 176.824 115.26 166.929C116.043 157.035 115.712 134.186 115.712 134.186C109.861 131.417 103.326 130.163 96.7826 130.552C90.2396 130.941 83.9265 132.96 78.4964 136.399L76.8555 137.442L77.3673 189.51Z" fill="#E5BAAB"/>
<path d="M112.068 151.058C111.865 150.858 111.73 150.607 111.678 150.336C111.626 150.064 111.66 149.785 111.776 149.531C111.893 149.278 112.086 149.062 112.331 148.91C112.577 148.759 112.865 148.678 113.16 148.678C113.454 148.678 113.742 148.759 113.988 148.91C114.234 149.062 114.427 149.278 114.543 149.531C114.659 149.785 114.694 150.064 114.642 150.336C114.59 150.607 114.454 150.858 114.251 151.058C114.111 151.197 113.941 151.307 113.754 151.382C113.566 151.458 113.364 151.497 113.16 151.497C112.956 151.497 112.754 151.458 112.566 151.382C112.378 151.307 112.209 151.197 112.068 151.058Z" fill="#263238"/>
<path d="M114.779 148.944C114.598 149.113 113.619 148.31 112.159 148.211C110.699 148.112 109.6 148.761 109.449 148.578C109.299 148.394 109.555 148.197 110.051 147.901C110.692 147.507 111.456 147.328 112.219 147.394C112.988 147.437 113.72 147.719 114.297 148.197C114.733 148.549 114.869 148.845 114.779 148.944Z" fill="#263238"/>
<path d="M97.9169 149.169C98.1553 149.332 98.3372 149.557 98.4401 149.816C98.5429 150.076 98.5621 150.357 98.4953 150.626C98.4285 150.896 98.2786 151.141 98.0643 151.331C97.85 151.521 97.5807 151.648 97.2899 151.696C96.9992 151.744 96.6998 151.71 96.429 151.6C96.1582 151.49 95.928 151.308 95.767 151.076C95.606 150.845 95.5213 150.574 95.5235 150.297C95.5256 150.021 95.6145 149.751 95.7791 149.522C95.8921 149.364 96.0379 149.23 96.2079 149.126C96.3778 149.023 96.5683 148.952 96.7679 148.919C96.9675 148.886 97.1722 148.892 97.3696 148.935C97.5671 148.977 97.7532 149.057 97.9169 149.169Z" fill="#263238"/>
<path d="M98.8802 149.24C98.6996 149.395 97.721 148.591 96.2607 148.493C94.8004 148.394 93.7014 149.057 93.5509 148.873C93.4003 148.69 93.6562 148.479 94.138 148.183C94.7907 147.803 95.5544 147.625 96.3209 147.675C97.0876 147.727 97.816 148.009 98.3985 148.479C98.8351 148.845 98.9706 149.169 98.8802 149.24Z" fill="#263238"/>
<path d="M103.984 160.827C104.755 160.604 105.557 160.494 106.363 160.502C106.755 160.502 107.071 160.432 107.116 160.235C107.154 159.871 107.081 159.504 106.905 159.177L105.942 156.358C105.014 153.948 104.334 151.461 103.909 148.93C105.076 151.244 106.008 153.656 106.694 156.133L107.598 158.952C107.815 159.418 107.857 159.94 107.718 160.432C107.655 160.564 107.559 160.68 107.439 160.77C107.318 160.861 107.177 160.924 107.026 160.953C106.811 160.979 106.593 160.979 106.378 160.953C105.578 161.031 104.77 160.988 103.984 160.827Z" fill="#263238"/>
<path d="M99.151 162.052C97.6455 161.122 103.186 164.378 106.167 164.42C105.625 165.107 104.85 165.601 103.97 165.822C103.089 166.042 102.154 165.975 101.319 165.633C98.2176 164.35 99.151 162.052 99.151 162.052Z" fill="white"/>
<path d="M103.743 177.6C98.8543 177.406 94.1378 175.856 90.1934 173.146C90.1934 173.146 92.9785 180.461 103.592 180.193L103.743 177.6Z" fill="#D78776"/>
<path d="M78.8728 146.224C78.6319 146.139 71.0142 145.209 71.7368 153.638C72.4594 162.067 81.3116 158.585 81.2966 158.345C81.2815 158.106 78.8728 146.224 78.8728 146.224Z" fill="#E5BAAB"/>
<path d="M78.2102 155.597C78.2102 155.597 78.0747 155.71 77.8188 155.851C77.4562 156.025 77.0372 156.065 76.6445 155.964C76.0349 155.659 75.5219 155.209 75.1571 154.66C74.7924 154.111 74.5888 153.481 74.5669 152.834C74.4839 152.115 74.5766 151.387 74.8379 150.706C74.8981 150.436 75.0267 150.184 75.2127 149.971C75.3987 149.757 75.6368 149.589 75.9068 149.48C76.0846 149.426 76.2766 149.43 76.4515 149.492C76.6264 149.553 76.774 149.668 76.8703 149.818C77.0058 150.044 76.9757 150.213 77.0208 150.227C77.066 150.241 77.2015 150.072 77.0208 149.733C76.958 149.527 76.8195 149.347 76.6294 149.226C76.3624 149.077 76.0457 149.027 75.7412 149.085C75.3826 149.18 75.056 149.36 74.7925 149.606C74.5289 149.853 74.3373 150.159 74.2357 150.495C73.911 151.249 73.792 152.068 73.8895 152.877C73.9062 153.63 74.1611 154.361 74.6221 154.978C75.083 155.596 75.7292 156.071 76.4789 156.344C76.7256 156.393 76.9809 156.389 77.2258 156.332C77.4707 156.276 77.699 156.17 77.894 156.02C78.2102 155.808 78.2553 155.611 78.2102 155.597Z" fill="#D78776"/>
<path d="M116.389 130.62C116.999 130.605 117.596 130.459 118.135 130.193C118.675 129.927 119.141 129.548 119.499 129.086C119.857 128.625 120.097 128.092 120.2 127.529C120.303 126.967 120.267 126.39 120.094 125.843C119.92 125.295 119.615 124.793 119.201 124.374C118.787 123.955 118.276 123.631 117.707 123.426C117.138 123.222 116.526 123.143 115.919 123.195C115.312 123.247 114.726 123.43 114.206 123.728C115.465 122.749 116.491 121.534 117.217 120.162C117.569 119.469 117.685 118.693 117.55 117.937C117.415 117.181 117.037 116.481 116.465 115.933C115.802 115.523 115.036 115.283 114.243 115.239C113.45 115.194 112.658 115.346 111.948 115.679C109.705 116.581 107.928 118.357 105.625 119.105C103.322 119.852 100.747 119.485 98.2784 119.584C95.5079 119.63 92.8247 120.499 90.6155 122.064C88.7329 123.449 87.5146 125.477 87.2281 127.703C86.9322 127.322 86.605 126.964 86.2496 126.631C85.0787 125.323 83.4991 124.391 81.7331 123.967C81.6278 124.151 83.6902 125.222 85.6624 127.139C86.1993 127.62 86.7022 128.133 87.1679 128.675C83.7354 128.28 79.9567 128.252 77.2468 130.254C76.149 131.17 75.2813 132.302 74.7061 133.57C74.1309 134.837 73.8623 136.207 73.9197 137.583C73.9197 140.318 75.1241 142.925 75.9822 145.547C76.1897 146.29 76.5475 146.988 77.036 147.605L78.3308 154.653L83.0429 154.568L82.7418 139.782C82.7418 139.782 82.2601 133.552 87.9809 134.144C93.7017 134.736 101.53 140.727 112.641 139.204C114.464 139.109 116.24 138.627 117.835 137.795C118.606 137.337 119.234 136.694 119.652 135.934C120.07 135.173 120.264 134.322 120.213 133.467C120.104 132.618 119.641 131.842 118.925 131.309C118.21 130.776 117.298 130.529 116.389 130.62Z" fill="#263238"/>
<path d="M212.137 203.591L212.83 199.109C213.538 196.657 213.982 194.145 214.155 191.61C214.268 190.35 214.146 189.081 213.793 187.861C213.438 186.324 212.85 184.843 212.047 183.463C211.174 182.265 212.318 180.644 213.553 181.137C214.787 181.631 217.361 184.816 218.189 189.411C219.017 194.006 222.887 187.635 224.332 185.338C225.777 183.04 230.64 176.119 231.754 175.978C233.38 175.767 233.922 177.388 232.401 179.629C230.881 181.87 226.876 188.988 228.216 189.637C229.219 189.487 230.245 189.535 231.227 189.778C231.385 189.821 231.525 189.91 231.628 190.031C231.73 190.152 231.79 190.3 231.799 190.454C231.793 191.165 231.874 191.875 232.04 192.569C232.04 192.569 234.012 192.146 234.419 192.949C234.693 193.774 234.821 194.636 234.795 195.5C234.795 195.5 236.3 195.021 237.023 195.5C238.528 196.642 236.601 198.601 236.601 198.601C232.169 203.552 227.407 208.236 222.345 212.626L211.972 203.267" fill="#E5BAAB"/>
<path d="M231.438 192.878C230.995 193.75 230.4 194.545 229.676 195.232C229.074 195.909 228.321 196.642 227.433 197.53C226.97 197.991 226.466 198.416 225.928 198.798C225.596 199.045 225.195 199.198 224.774 199.238C224.352 199.278 223.927 199.204 223.549 199.024C223.343 198.911 223.168 198.753 223.04 198.565C222.912 198.376 222.833 198.161 222.811 197.939C222.781 197.541 222.875 197.145 223.082 196.797C223.453 196.273 223.855 195.77 224.287 195.289C225.054 194.387 225.687 193.541 226.214 192.808C226.719 191.979 227.298 191.192 227.945 190.454C227.694 191.392 227.266 192.28 226.68 193.076C226.133 193.982 225.53 194.857 224.874 195.698C224.474 196.147 224.102 196.618 223.76 197.107C223.489 197.572 223.504 198.15 223.94 198.361C224.186 198.459 224.455 198.493 224.72 198.461C224.984 198.428 225.235 198.331 225.446 198.178C225.946 197.824 226.418 197.438 226.861 197.022C227.764 196.233 228.547 195.486 229.194 194.852C229.869 194.124 230.62 193.463 231.438 192.878Z" fill="#D78776"/>
<path d="M234.072 195.768C233.63 196.52 233.06 197.201 232.386 197.784C231.706 198.466 230.966 199.093 230.173 199.658C229.697 199.995 229.194 200.297 228.668 200.56C228.355 200.707 228.02 200.807 227.674 200.856C227.465 200.888 227.251 200.878 227.046 200.827C226.841 200.776 226.65 200.685 226.485 200.56C226.207 200.291 226.031 199.944 225.985 199.572C225.939 199.2 226.024 198.824 226.229 198.503C226.534 198 226.892 197.528 227.298 197.093C227.96 196.374 228.577 195.684 229.195 194.993C230.294 193.809 231.016 193.118 231.107 193.175C230.709 193.948 230.203 194.669 229.601 195.317L227.915 197.558C227.559 197.957 227.237 198.381 226.952 198.827C226.835 199.007 226.782 199.216 226.798 199.425C226.814 199.635 226.899 199.834 227.042 199.997C227.313 200.236 227.885 200.138 228.382 199.912C228.876 199.673 229.354 199.404 229.812 199.109C230.594 198.586 231.343 198.021 232.055 197.417C232.653 196.793 233.331 196.239 234.072 195.768Z" fill="#D78776"/>
<path d="M234.69 199.799C234.765 199.799 234.69 200.434 233.983 201.209C233.768 201.449 233.504 201.646 233.207 201.789C232.91 201.932 232.585 202.017 232.251 202.041C231.82 202.044 231.401 201.91 231.062 201.66C230.875 201.514 230.726 201.33 230.624 201.123C230.523 200.916 230.472 200.69 230.475 200.462C230.594 199.743 230.905 199.065 231.378 198.489C231.696 198.023 232.043 197.576 232.417 197.15C233.064 196.417 233.531 196.036 233.621 196.106C233.712 196.177 233.38 196.656 232.868 197.516C232.567 198.009 232.266 198.46 231.995 198.925C231.633 199.423 231.382 199.984 231.258 200.575C231.269 200.814 231.379 201.04 231.564 201.205C231.749 201.371 231.995 201.463 232.251 201.463C232.751 201.448 233.227 201.262 233.591 200.941C234.269 200.265 234.585 199.743 234.69 199.799Z" fill="#D78776"/>
<path d="M211.009 197.77C211.009 197.77 171.52 234.149 165.98 234.417C159.657 234.699 140.206 208.877 140.206 208.877C127.756 190.891 111.331 187.987 105.339 187.536V185.309L75.9068 183.054C75.9068 183.054 75.9068 185.422 75.9068 187.494H62.9146C62.9146 187.494 39.5796 186.493 36.0869 215.84L52.858 228.257L59.738 252.219C62.1317 260.564 53.5806 273.855 49.5007 295.379C48.8715 298.967 49.5112 302.649 51.3224 305.865L136.307 315.013L131.79 254.178L130.42 240.083C137.421 249.034 149.991 261.691 165.393 261.409C191.663 260.944 228.156 209.257 228.156 209.257L211.009 197.77Z" fill="#E0E0E0"/>
<path d="M95.4329 184.915C95.5788 186.166 95.5788 187.428 95.4329 188.678C95.2133 191.81 94.7606 194.923 94.0779 197.995L93.9725 198.46L93.5209 198.235C92.4972 197.728 91.4283 197.192 90.3443 196.6C86.129 194.274 82.5309 191.878 79.806 190.215C78.335 189.377 76.9174 188.459 75.5605 187.466C76.0111 187.59 76.4416 187.77 76.8402 188.002C77.6231 188.411 78.7522 189.003 80.1071 189.778C82.8471 191.328 86.4903 193.668 90.6455 195.966C91.6993 196.544 92.7531 197.093 93.7768 197.601L93.2198 197.84C94.093 194.204 94.5145 190.948 94.8307 188.636C94.9508 187.386 95.1518 186.143 95.4329 184.915Z" fill="#FAFAFA"/>
<path d="M105.429 187.692C105.24 188.903 104.958 190.099 104.586 191.272C104.3 192.385 103.999 193.71 103.487 195.148C103.22 195.908 102.904 196.652 102.538 197.375C102.433 197.635 102.243 197.856 101.996 198.009C101.825 198.108 101.623 198.149 101.423 198.126C101.224 198.103 101.038 198.017 100.897 197.883C100.615 197.493 100.388 197.072 100.22 196.628C98.7144 193.429 97.5251 190.525 96.6519 188.397C96.1027 187.282 95.6838 186.114 95.4023 184.915C96.1055 185.952 96.6956 187.052 97.1638 188.199C98.1724 190.271 99.5123 193.147 100.943 196.346C101.081 196.702 101.253 197.047 101.454 197.375C101.53 197.375 101.454 197.375 101.59 197.375C101.703 197.289 101.791 197.178 101.846 197.051C102.206 196.358 102.528 195.647 102.809 194.923C103.336 193.513 103.698 192.216 104.044 191.131C104.343 189.933 104.809 188.777 105.429 187.692Z" fill="#FAFAFA"/>
<path d="M99.9491 286.132C99.8771 285.803 99.8368 285.468 99.8286 285.132C99.8286 284.399 99.7684 283.459 99.648 282.313C99.5275 279.719 99.3469 276.125 99.1361 271.713C98.7748 262.692 98.2629 250.359 97.721 236.743C97.179 223.127 96.8327 210.794 96.5316 201.773C96.4262 197.347 96.3359 193.753 96.2607 191.159C96.2607 189.975 96.2607 189.017 96.2607 188.34C96.2217 188.003 96.2217 187.662 96.2607 187.325C96.33 187.655 96.3653 187.99 96.366 188.326C96.366 189.059 96.4865 190.017 96.5617 191.145C96.6822 193.724 96.8628 197.319 97.0736 201.73C97.4349 210.751 97.9317 223.085 98.4888 236.701C99.0458 250.317 99.3619 262.65 99.6781 271.685C99.7835 276.097 99.8738 279.691 99.9491 282.284C99.9491 283.482 99.9491 284.441 99.9491 285.174C99.9845 285.492 99.9845 285.814 99.9491 286.132Z" fill="#F5F5F5"/>
<path d="M94.5898 193.823L97.0588 200.194L99.1816 193.358L95.8846 186.508L94.5898 193.823Z" fill="#407BFF"/>
<path d="M97.5107 198.291L95.8848 270.007L107.447 292.644L112.008 267.174L97.5107 198.291Z" fill="#407BFF"/>
<path d="M166.401 243.283C166.401 243.283 166.401 243.495 166.401 243.847L166.311 244.383L166.055 243.847C165.472 242.421 165.137 240.918 165.061 239.393C164.812 237.692 165.03 235.961 165.693 234.361C165.919 234.361 165.693 236.616 165.844 239.351C165.964 241.296 166.295 242.959 166.401 243.762H166.055C166.19 243.382 166.341 243.283 166.401 243.283Z" fill="#FAFAFA"/>
<path d="M169.789 243.043C168.666 241.94 167.831 240.609 167.35 239.153C166.625 237.809 166.229 236.331 166.19 234.826C166.957 236.136 167.582 237.515 168.057 238.941C168.775 240.253 169.355 241.627 169.789 243.043Z" fill="#FAFAFA"/>
<path d="M225.687 212.682C222.431 211.069 219.301 209.242 216.323 207.213C213.201 205.389 210.223 203.359 207.41 201.138C210.665 202.764 213.794 204.601 216.774 206.635C219.895 208.45 222.873 210.471 225.687 212.682Z" fill="#FAFAFA"/>
<path d="M61.5448 224.198C61.5448 224.198 55.282 265.074 58.2478 267.358C74.6274 280.255 97.3903 287.02 105.52 289.149C106.709 288.881 108.094 288.529 109.69 288.049C111.073 287.638 112.372 287.009 113.529 286.189C115.007 285.218 116.334 284.061 117.473 282.75C117.645 282.468 117.906 282.244 118.221 282.107C118.535 281.971 118.886 281.929 119.227 281.988C119.567 282.047 119.88 282.203 120.121 282.436C120.363 282.668 120.521 282.965 120.575 283.285C120.65 284.695 118.241 288.317 113.71 290.967C113.71 290.967 124.143 306.683 127.47 308.107C130.797 309.53 140.311 313.533 138.701 314.295C137.09 315.056 125.513 311.912 125.513 311.912L102.027 306.035C102.027 306.035 24.3444 294.632 29.5082 261.268C32.6848 240.816 36.1474 222.394 37.3969 217.729L61.5448 224.198Z" fill="#E5BAAB"/>
<path d="M36.0869 215.826L29.1918 260.381C27.5809 274.095 37.3967 284.991 50.5997 291.122C70.6979 300.439 100.536 307.092 100.281 307.05C100.025 307.007 102.298 287.161 102.298 287.161C102.298 287.161 60.4606 270.247 59.1508 262.918C57.8411 255.588 64.4652 225.143 64.4652 225.143L36.0869 215.826Z" fill="#E0E0E0"/>
<path d="M100.22 307.05C100.204 306.933 100.204 306.814 100.22 306.697C100.22 306.415 100.22 306.077 100.295 305.668C100.371 304.696 100.476 303.385 100.627 301.707C100.943 298.212 101.41 293.25 101.967 287.147L102.132 287.401L81.0554 277.858L75.0335 275.039C73.0011 274.025 70.9537 272.911 68.9213 271.685C66.8592 270.439 64.8785 269.078 62.9897 267.611C62.0412 266.864 61.0928 266.075 60.1895 265.243C59.6802 264.825 59.2699 264.311 58.9851 263.735C58.8255 263.456 58.7089 263.157 58.6389 262.847C58.54 262.553 58.4695 262.251 58.4281 261.945C57.7506 257.068 59.1357 252.473 59.9336 248.089C60.7315 243.706 61.5294 239.435 62.2821 235.404C63.7876 227.313 65.1576 220.04 66.3017 213.895C66.9195 211.172 67.2722 208.403 67.3556 205.621C67.3846 203.527 66.9221 201.453 66.0006 199.546C65.4096 198.342 64.5706 197.26 63.5317 196.36C62.809 195.754 62.3724 195.514 62.3875 195.472C62.8354 195.683 63.2548 195.944 63.637 196.247C64.7424 197.12 65.6399 198.201 66.2716 199.419C67.2597 201.356 67.7741 203.474 67.7771 205.621C67.7435 208.429 67.426 211.227 66.8287 213.979C65.7297 220.139 64.4199 227.426 62.9746 235.531C62.237 239.576 61.4692 243.833 60.6713 248.216C60.4755 249.316 60.2648 250.429 60.054 251.557C59.8432 252.684 59.6174 253.784 59.4518 254.911C59.056 257.19 58.9901 259.509 59.2561 261.804C59.3038 262.085 59.3691 262.362 59.4518 262.636C59.511 262.906 59.6125 263.168 59.7529 263.411C60.0009 263.909 60.3603 264.351 60.8067 264.708C61.695 265.525 62.6133 266.3 63.5467 267.033C65.4103 268.486 67.366 269.832 69.403 271.065C71.4053 272.291 73.4227 273.39 75.4249 274.405L81.4469 277.224L102.358 286.978L102.524 287.063V287.232C101.846 293.335 101.304 298.282 100.928 301.778C100.717 303.441 100.566 304.766 100.446 305.725C100.386 306.138 100.341 306.476 100.311 306.739C100.291 306.845 100.261 306.949 100.22 307.05Z" fill="#FAFAFA"/>
<path d="M96.3359 284.441C96.3805 285.462 96.2946 286.484 96.0799 287.485C95.824 289.346 95.4025 291.911 94.8455 294.73C94.2884 297.549 93.6561 300.087 93.1443 301.905C92.9377 302.907 92.5883 303.879 92.1055 304.794C92.158 303.775 92.3245 302.764 92.6023 301.778C93.0439 299.654 93.5457 297.258 94.1078 294.589C94.6346 291.168 95.3786 287.779 96.3359 284.441Z" fill="#FAFAFA"/>
<path d="M100.22 307.05C99.9697 307.048 99.7207 307.01 99.4827 306.937L97.4202 306.472L89.8928 304.611C83.5246 303.004 74.6724 300.89 65.1879 297.634C60.7246 296.106 56.3786 294.293 52.1805 292.207C48.7509 290.499 45.4779 288.529 42.3949 286.316C40.3147 284.825 38.3525 283.195 36.5235 281.439C35.8762 280.818 35.4095 280.325 35.0181 280.029C34.8388 279.863 34.6866 279.673 34.5664 279.465C34.5664 279.465 35.3191 280.128 36.6741 281.298C38.5828 282.961 40.5935 284.519 42.696 285.963C45.8092 288.06 49.0795 289.944 52.4816 291.601C56.6692 293.639 60.9941 295.418 65.4287 296.929C74.853 300.171 83.6902 302.356 90.0132 304.104L97.5406 306.176L99.573 306.782C99.8002 306.845 100.018 306.935 100.22 307.05Z" fill="#FAFAFA"/>
<path d="M100.733 289.205C100.742 289.457 100.67 289.706 100.527 289.919C100.385 290.133 100.177 290.302 99.9315 290.405C99.6858 290.508 99.4129 290.54 99.1476 290.497C98.8823 290.454 98.6367 290.338 98.4421 290.164C98.2475 289.99 98.1127 289.765 98.055 289.519C97.9972 289.273 98.0191 289.016 98.1179 288.782C98.2167 288.547 98.3878 288.346 98.6095 288.203C98.8312 288.06 99.0934 287.982 99.3626 287.979C99.7168 287.975 100.059 288.101 100.315 288.33C100.571 288.559 100.721 288.873 100.733 289.205Z" fill="#FAFAFA"/>
</svg>
