<svg width="585" height="428" viewBox="0 0 585 428" fill="none" xmlns="http://www.w3.org/2000/svg">
<path d="M304.116 78.9194H393.474V102.714H304.116C302.201 102.714 300.365 102.002 299.011 100.734C297.657 99.4667 296.896 97.7475 296.896 95.955V85.6651C296.9 83.8748 297.662 82.1591 299.016 80.8944C300.369 79.6297 302.203 78.9194 304.116 78.9194Z" fill="#407BFF"/>
<path d="M393.474 49.2356H309.603C306.244 49.2356 303.023 50.4849 300.648 52.7086C298.273 54.9324 296.938 57.9484 296.938 61.0933C296.938 64.2381 298.273 67.2542 300.648 69.4779C303.023 71.7017 306.244 72.951 309.603 72.951H393.474V49.2356Z" fill="#407BFF"/>
<path d="M431.595 21.8708H401.101V101.581H431.595V21.8708Z" fill="#407BFF"/>
<path d="M469.717 21.8708H439.223V101.581H469.717V21.8708Z" fill="#407BFF"/>
<path d="M507.838 21.8708H477.344V101.581H507.838V21.8708Z" fill="#407BFF"/>
<path opacity="0.4" d="M304.116 78.9194H393.474V102.714H304.116C302.201 102.714 300.365 102.002 299.011 100.734C297.657 99.4667 296.896 97.7475 296.896 95.955V85.6651C296.9 83.8748 297.662 82.1591 299.016 80.8944C300.369 79.6297 302.203 78.9194 304.116 78.9194Z" fill="white"/>
<path opacity="0.4" d="M393.474 49.2356H309.603C306.244 49.2356 303.023 50.4849 300.648 52.7086C298.273 54.9324 296.938 57.9484 296.938 61.0933C296.938 64.2381 298.273 67.2542 300.648 69.4779C303.023 71.7017 306.244 72.951 309.603 72.951H393.474V49.2356Z" fill="white"/>
<path opacity="0.4" d="M431.595 21.8708H401.101V101.581H431.595V21.8708Z" fill="white"/>
<path opacity="0.4" d="M469.717 21.8708H439.223V101.581H469.717V21.8708Z" fill="white"/>
<path opacity="0.4" d="M507.838 21.8708H477.344V101.581H507.838V21.8708Z" fill="white"/>
<path d="M526.259 103.715H286.778V116.996H306.212V149.934H317.779V116.996H489.615V149.934H501.182V116.996H526.259V103.715Z" fill="#407BFF"/>
<path opacity="0.1" d="M526.259 103.715H286.778V116.996H306.212V149.934H317.779V116.996H489.615V149.934H501.182V116.996H526.259V103.715Z" fill="black"/>
<path d="M240.227 143.241C237.502 144.07 234.829 145.042 232.22 146.153C233.627 145.164 235.035 144.163 236.442 143.122C242.804 138.353 248.852 133.227 254.553 127.773C247.844 133.868 240.677 139.504 233.107 144.637C234.144 142.939 235.061 141.179 235.851 139.367C237.258 136.047 237.525 132.78 234.134 130.922C229.912 128.735 224.917 132.016 226.254 137.641C227.051 140.763 228.623 143.665 230.841 146.113C225.923 149.308 220.785 152.195 215.46 154.756L214.954 154.993C216.08 153.17 217.072 151.277 217.923 149.328C219.33 146.008 219.612 142.674 216.22 140.882C211.999 138.682 206.989 141.963 208.34 147.602C209.126 150.684 210.668 153.553 212.843 155.981C206.44 158.933 199.826 161.436 193.24 164.163L192.283 164.571C193.569 163.276 194.763 161.903 195.858 160.461C197.997 157.523 199.151 154.348 196.294 151.871C192.79 148.827 187.049 150.922 186.95 156.693C186.956 159.893 187.751 163.049 189.272 165.915C183.119 168.585 177.272 171.834 171.822 175.612L171.654 175.731C172.398 174.642 173.07 173.511 173.666 172.345C175.284 169.13 175.875 165.757 172.639 163.807C171.979 163.378 171.223 163.095 170.429 162.98C169.635 162.865 168.824 162.92 168.056 163.142C167.288 163.365 166.585 163.748 165.999 164.262C165.413 164.777 164.96 165.41 164.674 166.113C164.252 165.482 163.666 164.96 162.971 164.598C159.706 162.832 156.498 164.743 153.754 167.444C153.036 168.142 152.347 168.893 151.713 169.657C153.84 164.136 156.511 158.812 159.692 153.755C162.712 155.004 165.974 155.659 169.275 155.678C175.777 155.678 178.521 150.606 175.326 147.457C172.737 144.901 169.078 145.876 165.631 147.734C164.491 148.353 163.379 149.051 162.338 149.763C165.656 145.101 169.424 140.735 173.595 136.719C176.314 138.776 179.471 140.263 182.855 141.08C189.173 142.543 193.142 138.247 190.848 134.493C188.99 131.423 185.219 131.541 181.363 132.569C179.562 133.079 177.795 133.691 176.072 134.4C177.789 132.832 179.576 131.317 181.377 129.828C183.756 127.931 186.204 126.1 188.695 124.321C191.382 126.323 194.489 127.773 197.814 128.577C204.118 130.039 208.086 125.744 205.807 121.989C203.949 118.919 200.178 119.051 196.322 120.079C195.436 120.316 194.535 120.606 193.662 120.909C196.955 118.709 200.305 116.561 203.654 114.414L206.75 112.437C209.546 114.619 212.823 116.194 216.347 117.049C222.665 118.511 226.62 114.216 224.34 110.461C222.482 107.378 218.711 107.51 214.855 108.537C213.358 108.95 211.887 109.443 210.451 110.013C211.098 109.591 211.731 109.157 212.364 108.695C213.546 107.905 214.7 107.101 215.854 106.271C217.262 105.27 218.669 104.15 220.076 103.096C220.864 102.503 221.624 101.871 222.384 101.225C225.176 103.447 228.473 105.042 232.023 105.889C238.342 107.352 242.31 103.07 240.03 99.3015C238.173 96.2317 234.401 96.3503 230.532 97.378C228.416 97.9891 226.343 98.7239 224.326 99.5782C226.901 97.3384 229.392 95.0064 231.756 92.569C231.925 92.3977 232.065 92.2265 232.22 92.0552C233.248 91.0012 234.247 89.934 235.218 88.8404C236.189 87.7469 237.427 86.2054 238.496 84.8879C242.831 79.5669 246.394 73.7324 249.093 67.5361C246.276 73.6799 242.589 79.4408 238.131 84.6639C233.74 89.907 228.841 94.7585 223.496 99.1566L222.919 99.6178C224.142 97.6456 225.224 95.5988 226.155 93.4913C227.562 90.1711 227.844 86.8378 224.452 85.046C220.231 82.8589 215.221 86.1263 216.572 91.7653C217.432 95.0807 219.147 98.1479 221.568 100.698L220.315 101.699C219.823 102.082 219.316 102.477 218.809 102.846C217.979 103.478 217.135 104.084 216.291 104.677L214.883 105.652C213.673 106.482 212.435 107.312 211.196 108.116L209.269 109.222L207.242 110.54C208.421 108.646 209.46 106.678 210.352 104.651C211.759 101.331 212.041 97.9972 208.649 96.2054C204.428 94.0051 199.418 97.2857 200.755 102.925C201.589 106.134 203.229 109.111 205.539 111.607L204.034 112.516L198.405 115.915L197.321 116.587C196.28 117.22 195.253 117.905 194.225 118.524C193.775 118.801 193.325 119.078 192.888 119.367C191.481 120.29 190.004 121.225 188.582 122.187C189.777 120.26 190.835 118.262 191.749 116.205C193.156 112.885 193.437 109.539 190.046 107.76C185.824 105.56 180.815 108.84 182.151 114.466C182.995 117.726 184.67 120.747 187.034 123.267C184.614 124.927 182.222 126.64 179.886 128.419C178.197 129.736 176.523 131.133 174.89 132.529C175.602 131.296 176.237 130.025 176.79 128.722C178.197 125.402 178.479 122.134 175.087 120.276C170.866 118.089 165.856 121.357 167.193 126.996C167.993 130.08 169.538 132.951 171.71 135.388C167.09 139.685 162.928 144.394 159.284 149.446C159.701 147.992 160.016 146.513 160.227 145.019C160.691 141.489 160.142 138.168 156.399 137.207C151.784 136.021 147.717 140.342 150.475 145.507C152.058 148.343 154.322 150.796 157.089 152.674C153.503 158.155 150.505 163.954 148.139 169.987C148.08 168.724 147.943 167.466 147.731 166.218C147.098 162.714 145.578 159.631 141.694 159.749C136.909 159.828 134.32 165.019 138.528 169.275C140.774 171.464 143.515 173.157 146.549 174.229C144.928 178.899 143.603 183.655 142.58 188.471C142.426 189.235 142.285 190 142.144 190.764C141.962 190.899 141.792 191.049 141.638 191.212C141.469 190.553 141.272 189.894 141.047 189.249C139.836 185.876 137.838 183.096 134.01 183.728C129.296 184.506 127.608 190.039 132.448 193.596C134.915 195.364 137.762 196.609 140.793 197.246C140.837 197.378 140.894 197.506 140.962 197.628C140.441 201.251 140.047 204.888 139.808 208.55C139.63 211.273 139.513 214.009 139.456 216.758C135.375 216.758 132.42 220.935 135.319 225.48C136.498 227.362 138.012 229.042 139.794 230.448C140.146 235.586 140.681 240.724 141.412 245.823C140.835 245.325 140.129 244.976 139.364 244.812C138.599 244.648 137.801 244.674 137.05 244.888C134.475 245.533 133.321 247.523 132.913 249.855C132.016 250.741 131.513 251.914 131.506 253.135C129.592 250.5 127.791 247.747 126.046 244.98C128.718 243.058 130.932 240.634 132.547 237.865C135.615 232.503 132.167 227.839 127.692 228.985C124.047 229.907 123.245 233.386 123.358 237.114C123.419 238.526 123.56 239.933 123.78 241.33L122.021 238.129C120.445 235.494 119.108 232.859 117.63 230.118C117.25 229.473 116.927 228.801 116.617 228.129C119.625 226.712 122.285 224.724 124.427 222.292C128.508 217.562 126.046 212.371 121.43 212.714C117.659 212.977 116.181 216.258 115.548 219.934C115.292 221.54 115.137 223.159 115.083 224.782L113.676 221.884C110.817 215.317 108.466 208.568 106.64 201.686C110.027 200.57 113.111 198.771 115.674 196.416C120.248 192.081 118.362 186.693 113.718 186.587C109.947 186.508 108.089 189.631 107.09 193.175C106.587 195.11 106.211 197.073 105.965 199.051C104.965 195.098 104.107 191.146 103.403 187.101C102.911 184.611 102.601 182.095 102.264 179.578C105.925 178.914 109.373 177.466 112.339 175.349C117.476 171.62 116.336 166.047 111.748 165.375C108.033 164.835 105.782 167.707 104.262 171.159C103.372 173.349 102.63 175.589 102.038 177.865C101.743 174.94 101.419 172.029 101.279 169.104C100.87 163.066 100.899 157.009 101.363 150.975C100.702 157.005 100.476 163.071 100.687 169.13C100.687 171.923 100.941 174.703 101.124 177.496C100.325 175.597 99.3847 173.752 98.3093 171.976C96.3673 168.919 93.764 166.614 90.1756 168.023C85.7428 169.723 85.3629 175.481 90.9073 177.984C94.1759 179.385 97.7591 180.023 101.349 179.842C101.602 182.332 101.827 184.822 102.221 187.286C102.784 191.238 103.502 195.191 104.332 199.025C103.426 197.536 102.415 196.106 101.307 194.743C98.9425 191.95 96.0577 189.973 92.6804 191.778C88.4588 194.005 88.9372 199.749 94.7912 201.554C98.1085 202.524 101.624 202.746 105.05 202.2C106.664 209.162 108.804 216.009 111.453 222.687L112.297 224.69C111.537 223.781 110.721 222.845 109.863 222.055C107.217 219.499 104.135 217.812 100.969 219.921C97.0709 222.556 98.1545 228.208 104.107 229.459C107.439 230.095 110.882 230 114.169 229.183C114.464 229.868 114.76 230.5 115.111 231.225C116.519 233.965 117.813 236.785 119.333 239.486C119.755 240.263 120.192 241.027 120.628 241.791C119.882 241.198 119.108 240.619 118.306 240.092C115.21 238.036 111.833 236.917 109.145 239.552C105.852 242.793 107.991 248.194 114.155 248.366C117.328 248.406 120.474 247.799 123.372 246.587C125.131 249.578 126.96 252.529 128.916 255.428C129.648 256.534 130.408 257.628 131.168 258.721C130.051 257.746 128.872 256.835 127.636 255.994C124.526 253.939 121.148 252.819 118.475 255.454C115.168 258.695 117.307 264.097 123.47 264.268C126.995 264.307 130.478 263.557 133.63 262.081C134.644 263.399 135.699 264.716 136.797 266.034C134.503 268.524 135.249 272.753 139.907 274.624C142.192 275.509 144.626 276.009 147.098 276.1C147.379 276.324 147.675 276.534 147.97 276.732L148.125 276.837C149.208 280.632 150.39 284.4 151.629 288.142H130.746V350.21H183.038V288.102H158.679C156.582 281.396 154.823 275.559 154.457 275.401L153.726 275.072C156.47 274.193 159.021 272.853 161.254 271.119C166.208 267.167 164.8 261.646 160.199 261.185C156.442 260.79 154.331 263.754 152.994 267.272C152.608 268.274 152.28 269.294 152.009 270.329C151.741 269.393 151.474 268.458 151.221 267.523C150.461 264.756 149.814 261.963 149.11 259.183C152.091 258.289 154.858 256.861 157.258 254.98C162.211 251.027 160.804 245.52 156.202 245.046C152.445 244.664 150.348 247.681 148.997 251.133C148.609 252.153 148.276 253.191 147.998 254.242C147.562 252.213 147.154 250.184 146.774 248.142C146.492 246.613 146.239 245.098 146 243.583C145.901 241.422 145.873 239.249 145.901 237.088C145.901 235.889 145.901 234.703 146.014 233.504C148.805 234.349 151.74 234.702 154.668 234.545C161.17 234.15 163.562 228.946 160.171 225.981C157.356 223.583 153.824 224.769 150.503 226.824C149.034 227.775 147.624 228.805 146.281 229.907C146.68 224.812 147.508 219.755 148.758 214.782C149.499 211.865 150.41 208.989 151.488 206.166C154.47 207.131 157.625 207.543 160.776 207.378C167.263 206.996 169.669 201.778 166.278 198.827C163.464 196.416 159.931 197.615 156.61 199.67C155.432 200.419 154.295 201.223 153.205 202.081C154.455 199.322 155.913 196.65 157.567 194.084C160.882 188.919 165.031 184.266 169.866 180.29C172.357 182.426 175.294 184.054 178.493 185.072C184.684 186.969 188.976 182.964 186.936 179.038C185.332 175.849 181.532 175.705 177.62 176.403C176.142 176.711 174.681 177.089 173.244 177.536H173.342C178.649 173.649 184.369 170.285 190.412 167.496C192.551 170.112 195.267 172.265 198.377 173.807C204.16 176.6 209.086 173.307 207.805 169.13C206.764 165.731 203.035 165.033 199.052 165.178C197.491 165.259 195.936 165.422 194.394 165.665C200.825 162.819 207.383 160.131 213.715 156.996L213.856 156.93C216.702 159.219 220.073 160.864 223.707 161.739C230.025 163.201 233.993 158.906 231.7 155.151C229.856 152.068 226.071 152.2 222.215 153.228C221.145 153.504 220.09 153.873 219.049 154.242C223.272 151.939 227.367 149.437 231.32 146.745L231.657 147.075C231.65 147.027 231.65 146.978 231.657 146.93C234.5 149.238 237.87 150.906 241.508 151.805C247.826 153.254 251.795 148.972 249.515 145.217C247.798 142.16 243.999 142.16 240.227 143.241ZM140.526 264.202C139.245 262.793 138.007 261.317 136.811 259.828C137.106 259.578 137.416 259.301 137.725 259.011C139.506 259.535 141.35 259.845 143.214 259.934V260.21L144.086 260.052C144.536 262.147 145.015 264.255 145.493 266.35C144.907 265.635 144.142 265.066 143.267 264.691C142.391 264.317 141.431 264.149 140.47 264.202H140.526ZM145.184 213.952C144.748 215.52 144.368 217.101 144.016 218.682L143.805 218.405C143.805 215.155 143.856 211.91 143.959 208.669C144.058 206.39 144.241 204.123 144.452 201.871C145.614 202.994 146.902 203.997 148.294 204.861C147.063 207.836 146.006 210.87 145.127 213.952H145.184ZM151.038 198.998C151.038 198.405 151.179 197.799 151.221 197.22C151.221 196.917 151.221 196.614 151.221 196.324C151.727 196.179 152.248 196.008 152.769 195.81C152.121 196.864 151.573 197.918 150.981 198.998H151.038ZM158.454 187.707C158.206 187.181 157.848 186.707 157.401 186.313C156.954 185.919 156.427 185.614 155.85 185.415C152.332 184.097 149.476 186.495 147.21 189.552L147.098 189.71L146.872 189.644L146.141 189.552C146.141 189.367 146.211 189.183 146.239 188.998C147.144 184.182 148.361 179.421 149.884 174.743C153.157 175.125 156.479 174.883 159.65 174.031C161.59 173.57 163.288 172.471 164.435 170.935C165.072 173.621 166.268 176.164 167.953 178.419C164.437 181.201 161.236 184.314 158.398 187.707H158.454Z" fill="#407BFF"/>
<path d="M269.3 164.901H519.461C522.447 164.901 525.31 166.011 527.421 167.988C529.533 169.965 530.719 172.646 530.719 175.441V339.789H258.084V175.402C258.095 172.62 259.28 169.955 261.381 167.988C263.482 166.021 266.328 164.911 269.3 164.901Z" fill="#263238" stroke="#263238" stroke-linecap="round" stroke-linejoin="round"/>
<path d="M571.57 417.088H217.19L258.084 339.775H530.677L571.57 417.088Z" fill="white" stroke="#263238" stroke-linecap="round" stroke-linejoin="round"/>
<path d="M514.17 178.748H274.591V325.928H514.17V178.748Z" fill="#407BFF" stroke="#263238" stroke-linecap="round" stroke-linejoin="round"/>
<path d="M383.003 364.242L383.481 354.822H369.071L368.114 364.242H383.003Z" fill="#263238" stroke="white" stroke-linecap="round" stroke-linejoin="round"/>
<path d="M412.779 364.242L412.287 354.822H397.877L397.891 364.242H412.779Z" fill="#263238" stroke="white" stroke-linecap="round" stroke-linejoin="round"/>
<path d="M490.303 374.321H505.698L502.081 364.242H487.207L490.303 374.321Z" fill="#263238" stroke="white" stroke-linecap="round" stroke-linejoin="round"/>
<path d="M368.115 364.242L369.071 354.822H354.676L353.24 364.242H368.115Z" fill="#263238" stroke="white" stroke-linecap="round" stroke-linejoin="round"/>
<path d="M338.352 364.242L340.266 354.822H325.87L323.464 364.242H338.352Z" fill="#263238" stroke="white" stroke-linecap="round" stroke-linejoin="round"/>
<path d="M472.319 364.242L469.899 354.822H455.503L457.431 364.242H472.319Z" fill="#263238" stroke="white" stroke-linecap="round" stroke-linejoin="round"/>
<path d="M487.208 364.242L484.309 354.822H469.899L472.32 364.242H487.208Z" fill="#263238" stroke="white" stroke-linecap="round" stroke-linejoin="round"/>
<path d="M323.464 364.242L325.87 354.822H311.46L308.575 364.242H323.464Z" fill="#263238" stroke="white" stroke-linecap="round" stroke-linejoin="round"/>
<path d="M427.654 364.242L426.683 354.822H412.287L412.78 364.242H427.654Z" fill="#263238" stroke="white" stroke-linecap="round" stroke-linejoin="round"/>
<path d="M502.082 364.242L498.704 354.822H484.309L487.207 364.242H502.082Z" fill="#263238" stroke="white" stroke-linecap="round" stroke-linejoin="round"/>
<path d="M457.431 364.242L455.503 354.822H441.093L442.542 364.242H457.431Z" fill="#263238" stroke="white" stroke-linecap="round" stroke-linejoin="round"/>
<path d="M442.543 364.242L441.094 354.822H426.684L427.655 364.242H442.543Z" fill="#263238" stroke="white" stroke-linecap="round" stroke-linejoin="round"/>
<path d="M397.891 364.242L397.877 354.822H383.481L383.003 364.242H397.891Z" fill="#263238" stroke="white" stroke-linecap="round" stroke-linejoin="round"/>
<path d="M293.702 364.242H278.813L274.704 374.321H290.099L293.702 364.242Z" fill="#263238" stroke="white" stroke-linecap="round" stroke-linejoin="round"/>
<path d="M297.05 354.822H282.654L278.812 364.242H293.701L297.05 354.822Z" fill="#263238" stroke="white" stroke-linecap="round" stroke-linejoin="round"/>
<path d="M308.575 364.242L311.46 354.822H297.05L293.701 364.242H308.575Z" fill="#263238" stroke="white" stroke-linecap="round" stroke-linejoin="round"/>
<path d="M270.299 385.111L265.557 396.706H282.106L286.243 385.111H270.299Z" fill="#263238" stroke="white" stroke-linecap="round" stroke-linejoin="round"/>
<path d="M290.098 374.321H274.703L270.299 385.111H286.243L290.098 374.321Z" fill="#263238" stroke="white" stroke-linecap="round" stroke-linejoin="round"/>
<path d="M286.243 385.111L282.105 396.706H298.654L302.201 385.111H286.243Z" fill="#263238" stroke="white" stroke-linecap="round" stroke-linejoin="round"/>
<path d="M353.241 364.242L354.676 354.822H340.266L338.353 364.242H353.241Z" fill="#263238" stroke="white" stroke-linecap="round" stroke-linejoin="round"/>
<path d="M351.692 374.321L353.24 364.242H338.351L336.297 374.321H351.692Z" fill="#263238" stroke="white" stroke-linecap="round" stroke-linejoin="round"/>
<path d="M336.297 374.321L338.352 364.242H323.463L320.902 374.321H336.297Z" fill="#263238" stroke="white" stroke-linecap="round" stroke-linejoin="round"/>
<path d="M367.101 374.321L368.115 364.242H353.24L351.692 374.321H367.101Z" fill="#263238" stroke="white" stroke-linecap="round" stroke-linejoin="round"/>
<path d="M308.575 364.242H293.701L290.099 374.321H305.494L308.575 364.242Z" fill="#263238" stroke="white" stroke-linecap="round" stroke-linejoin="round"/>
<path d="M493.625 385.111H509.583L505.699 374.321H490.304L493.625 385.111Z" fill="#263238" stroke="white" stroke-linecap="round" stroke-linejoin="round"/>
<path d="M320.902 374.321L323.463 364.242H308.575L305.493 374.321H320.902Z" fill="#263238" stroke="white" stroke-linecap="round" stroke-linejoin="round"/>
<path d="M290.099 374.321L286.243 385.111H302.201L305.494 374.321H290.099Z" fill="#263238" stroke="white" stroke-linecap="round" stroke-linejoin="round"/>
<path d="M459.499 374.321L457.43 364.242H442.542L444.104 374.321H459.499Z" fill="#263238" stroke="white" stroke-linecap="round" stroke-linejoin="round"/>
<path d="M444.105 374.321L442.543 364.242H427.654L428.696 374.321H444.105Z" fill="#263238" stroke="white" stroke-linecap="round" stroke-linejoin="round"/>
<path d="M490.304 374.321L487.208 364.242H472.319L474.895 374.321H490.304Z" fill="#263238" stroke="white" stroke-linecap="round" stroke-linejoin="round"/>
<path d="M397.905 374.321L397.891 364.242H383.003L382.496 374.321H397.905Z" fill="#263238" stroke="white" stroke-linecap="round" stroke-linejoin="round"/>
<path d="M428.696 374.321L427.655 364.242H412.78L413.301 374.321H428.696Z" fill="#263238" stroke="white" stroke-linecap="round" stroke-linejoin="round"/>
<path d="M413.301 374.321L412.78 364.242H397.892L397.906 374.321H413.301Z" fill="#263238" stroke="white" stroke-linecap="round" stroke-linejoin="round"/>
<path d="M382.497 374.321L383.003 364.242H368.115L367.102 374.321H382.497Z" fill="#263238" stroke="white" stroke-linecap="round" stroke-linejoin="round"/>
<path d="M428.695 374.321L429.821 385.111H445.765L444.104 374.321H428.695Z" fill="#263238" stroke="white" stroke-linecap="round" stroke-linejoin="round"/>
<path d="M444.104 374.321L445.765 385.111H461.723L459.499 374.321H444.104Z" fill="#263238" stroke="white" stroke-linecap="round" stroke-linejoin="round"/>
<path d="M305.493 374.321L302.2 385.111H318.158L320.902 374.321H305.493Z" fill="#263238" stroke="white" stroke-linecap="round" stroke-linejoin="round"/>
<path d="M459.499 374.321L461.722 385.111H477.666L474.894 374.321H459.499Z" fill="#263238" stroke="white" stroke-linecap="round" stroke-linejoin="round"/>
<path d="M397.905 374.321V385.111H413.863L413.3 374.321H397.905Z" fill="#263238" stroke="white" stroke-linecap="round" stroke-linejoin="round"/>
<path d="M474.895 374.321L477.667 385.111H493.625L490.304 374.321H474.895Z" fill="#263238" stroke="white" stroke-linecap="round" stroke-linejoin="round"/>
<path d="M413.301 374.321L413.864 385.111H429.822L428.696 374.321H413.301Z" fill="#263238" stroke="white" stroke-linecap="round" stroke-linejoin="round"/>
<path d="M336.298 374.321L334.103 385.111H350.06L351.693 374.321H336.298Z" fill="#263238" stroke="white" stroke-linecap="round" stroke-linejoin="round"/>
<path d="M320.902 374.321L318.158 385.111H334.102L336.297 374.321H320.902Z" fill="#263238" stroke="white" stroke-linecap="round" stroke-linejoin="round"/>
<path d="M382.497 374.321L381.962 385.111H397.906V374.321H382.497Z" fill="#263238" stroke="white" stroke-linecap="round" stroke-linejoin="round"/>
<path d="M367.102 374.321L366.004 385.111H381.962L382.497 374.321H367.102Z" fill="#263238" stroke="white" stroke-linecap="round" stroke-linejoin="round"/>
<path d="M351.692 374.321L350.06 385.111H366.003L367.101 374.321H351.692Z" fill="#263238" stroke="white" stroke-linecap="round" stroke-linejoin="round"/>
<path d="M474.894 374.321L472.319 364.242H457.431L459.499 374.321H474.894Z" fill="#263238" stroke="white" stroke-linecap="round" stroke-linejoin="round"/>
<path d="M297.05 354.822L300.498 345.177H286.58L282.654 354.822H297.05Z" fill="#263238" stroke="white" stroke-linecap="round" stroke-linejoin="round"/>
<path d="M282.655 354.822H269.356L265.064 364.242H278.813L282.655 354.822Z" fill="#263238" stroke="white" stroke-linecap="round" stroke-linejoin="round"/>
<path d="M286.581 345.177H273.747L269.356 354.822H282.655L286.581 345.177Z" fill="#263238" stroke="white" stroke-linecap="round" stroke-linejoin="round"/>
<path d="M278.812 364.242H265.064L260.49 374.321H274.703L278.812 364.242Z" fill="#263238" stroke="white" stroke-linecap="round" stroke-linejoin="round"/>
<path d="M274.704 374.321H260.491L255.565 385.111H270.299L274.704 374.321Z" fill="#263238" stroke="white" stroke-linecap="round" stroke-linejoin="round"/>
<path d="M270.299 385.111H255.565L250.288 396.706H265.556L270.299 385.111Z" fill="#263238" stroke="white" stroke-linecap="round" stroke-linejoin="round"/>
<path d="M516.97 364.242L521.107 374.321H534.729L530.141 364.242H516.97Z" fill="#263238" stroke="white" stroke-linecap="round" stroke-linejoin="round"/>
<path d="M525.526 385.111H539.64L534.729 374.321H521.107L525.526 385.111Z" fill="#263238" stroke="white" stroke-linecap="round" stroke-linejoin="round"/>
<path d="M530.283 396.706H544.918L539.641 385.111H525.526L530.283 396.706Z" fill="#263238" stroke="white" stroke-linecap="round" stroke-linejoin="round"/>
<path d="M412.287 354.822L411.78 345.177H397.877V354.822H412.287Z" fill="#263238" stroke="white" stroke-linecap="round" stroke-linejoin="round"/>
<path d="M516.97 364.242H530.142L525.85 354.822H513.114L516.97 364.242Z" fill="#263238" stroke="white" stroke-linecap="round" stroke-linejoin="round"/>
<path d="M509.582 385.111H525.526L521.107 374.321H505.698L509.582 385.111Z" fill="#263238" stroke="white" stroke-linecap="round" stroke-linejoin="round"/>
<path d="M311.46 354.822L314.401 345.177H300.497L297.05 354.822H311.46Z" fill="#263238" stroke="white" stroke-linecap="round" stroke-linejoin="round"/>
<path d="M498.704 354.822L502.081 364.242H516.97L513.114 354.822H498.704Z" fill="#263238" stroke="white" stroke-linecap="round" stroke-linejoin="round"/>
<path d="M525.85 354.822L521.459 345.177H509.16L513.114 354.822H525.85Z" fill="#263238" stroke="white" stroke-linecap="round" stroke-linejoin="round"/>
<path d="M513.114 354.822L509.16 345.177H495.242L498.704 354.822H513.114Z" fill="#263238" stroke="white" stroke-linecap="round" stroke-linejoin="round"/>
<path d="M461.723 385.111L464.101 396.706H480.65L477.666 385.111H461.723Z" fill="#263238" stroke="white" stroke-linecap="round" stroke-linejoin="round"/>
<path d="M513.733 396.706H530.282L525.526 385.111H509.582L513.733 396.706Z" fill="#263238" stroke="white" stroke-linecap="round" stroke-linejoin="round"/>
<path d="M498.705 354.822L495.243 345.177H481.34L484.309 354.822H498.705Z" fill="#263238" stroke="white" stroke-linecap="round" stroke-linejoin="round"/>
<path d="M493.624 385.111L497.198 396.706H513.733L509.582 385.111H493.624Z" fill="#263238" stroke="white" stroke-linecap="round" stroke-linejoin="round"/>
<path d="M477.667 385.111L480.65 396.706H497.199L493.625 385.111H477.667Z" fill="#263238" stroke="white" stroke-linecap="round" stroke-linejoin="round"/>
<path d="M505.699 374.321H521.108L516.97 364.242H502.082L505.699 374.321Z" fill="#263238" stroke="white" stroke-linecap="round" stroke-linejoin="round"/>
<path d="M369.072 354.822L370.057 345.177H356.139L354.676 354.822H369.072Z" fill="#263238" stroke="white" stroke-linecap="round" stroke-linejoin="round"/>
<path d="M484.309 354.822L481.339 345.177H467.422L469.899 354.822H484.309Z" fill="#263238" stroke="white" stroke-linecap="round" stroke-linejoin="round"/>
<path d="M354.676 354.822L356.139 345.177H342.236L340.266 354.822H354.676Z" fill="#263238" stroke="white" stroke-linecap="round" stroke-linejoin="round"/>
<path d="M397.877 354.822V345.177H383.96L383.481 354.822H397.877Z" fill="#263238" stroke="white" stroke-linecap="round" stroke-linejoin="round"/>
<path d="M340.266 354.822L342.236 345.177H328.319L325.87 354.822H340.266Z" fill="#263238" stroke="white" stroke-linecap="round" stroke-linejoin="round"/>
<path d="M325.87 354.822L328.318 345.177H314.401L311.46 354.822H325.87Z" fill="#263238" stroke="white" stroke-linecap="round" stroke-linejoin="round"/>
<path d="M383.481 354.822L383.96 345.177H370.056L369.071 354.822H383.481Z" fill="#263238" stroke="white" stroke-linecap="round" stroke-linejoin="round"/>
<path d="M469.899 354.822L467.422 345.177H453.519L455.503 354.822H469.899Z" fill="#263238" stroke="white" stroke-linecap="round" stroke-linejoin="round"/>
<path d="M455.503 354.822L453.519 345.177H439.602L441.093 354.822H455.503Z" fill="#263238" stroke="white" stroke-linecap="round" stroke-linejoin="round"/>
<path d="M426.683 354.822L425.698 345.177H411.78L412.287 354.822H426.683Z" fill="#263238" stroke="white" stroke-linecap="round" stroke-linejoin="round"/>
<path d="M461.723 385.111H445.765H429.821H413.863H397.905H381.962H366.004H350.06H334.102H318.158H302.201L298.654 396.706H315.203H331.738H348.287H364.836H381.385H397.92H414.468H431.017H447.552H464.101L461.723 385.111Z" fill="#263238" stroke="white" stroke-linecap="round" stroke-linejoin="round"/>
<path d="M441.093 354.822L439.602 345.177H425.698L426.683 354.822H441.093Z" fill="#263238" stroke="white" stroke-linecap="round" stroke-linejoin="round"/>
<path d="M571.725 417.074H217.19V421.778H571.725V417.074Z" fill="#263238" stroke="#263238" stroke-linecap="round" stroke-linejoin="round"/>
<path opacity="0.15" d="M489.178 212.318V338.919L449.874 386.89L443.26 389.209L241.634 417.061V423.253L167.783 426.969V359.037H293.701V211.712L489.178 212.318Z" fill="black"/>
<path d="M122.499 345.454C113.423 345.875 103.586 352.358 103.586 352.358L1 426.969H167.784C167.784 426.969 273.086 352.568 276.238 350.434C281.234 347.061 291.14 345.348 291.14 345.348L286.454 345.454H122.499Z" fill="white" stroke="#263238" stroke-linecap="round" stroke-linejoin="round"/>
<path d="M506.191 212.437H282.992" stroke="#263238" stroke-linecap="round" stroke-linejoin="round"/>
<path d="M472.531 167.404C470.343 167.402 468.177 167.805 466.155 168.588C464.134 169.372 462.297 170.521 460.751 171.97C459.204 173.419 457.978 175.139 457.143 177.033C456.308 178.926 455.88 180.955 455.884 183.003V374.584C455.879 377.111 455.226 379.599 453.982 381.842C452.738 384.084 450.938 386.014 448.733 387.471C446.528 388.928 443.982 389.868 441.309 390.214C438.636 390.56 435.913 390.301 433.368 389.459L307.099 347.47C300.476 345.261 293.313 344.886 286.469 346.389V183.003C286.469 178.87 288.223 174.905 291.345 171.982C294.467 169.059 298.701 167.417 303.116 167.417L472.531 167.404Z" fill="white"/>
<mask id="mask0_240_3283" style="mask-type:luminance" maskUnits="userSpaceOnUse" x="286" y="167" width="187" height="224">
<path d="M472.531 167.404C470.343 167.402 468.177 167.805 466.155 168.588C464.134 169.372 462.297 170.521 460.751 171.97C459.204 173.419 457.978 175.139 457.143 177.033C456.308 178.926 455.88 180.955 455.884 183.003V374.584C455.879 377.111 455.226 379.599 453.982 381.842C452.738 384.084 450.938 386.014 448.733 387.471C446.528 388.928 443.982 389.868 441.309 390.214C438.636 390.56 435.913 390.301 433.368 389.459L307.099 347.47C300.476 345.261 293.313 344.886 286.469 346.389V183.003C286.469 178.87 288.223 174.905 291.345 171.982C294.467 169.059 298.701 167.417 303.116 167.417L472.531 167.404Z" fill="white"/>
</mask>
<g mask="url(#mask0_240_3283)">
<path d="M322.606 352.634L433.355 389.459C435.899 390.301 438.622 390.56 441.295 390.214C443.968 389.868 446.514 388.927 448.719 387.471C450.924 386.014 452.724 384.084 453.969 381.841C455.213 379.599 455.865 377.111 455.87 374.584V352.634H322.606Z" fill="#407BFF"/>
<path opacity="0.6" d="M322.606 352.634L433.355 389.459C435.899 390.301 438.622 390.56 441.295 390.214C443.968 389.868 446.514 388.927 448.719 387.471C450.924 386.014 452.724 384.084 453.969 381.841C455.213 379.599 455.865 377.111 455.87 374.584V352.634H322.606Z" fill="white"/>
<path d="M322.606 377.865L433.355 414.755C435.9 415.598 438.624 415.857 441.299 415.51C443.973 415.163 446.52 414.222 448.725 412.763C450.93 411.305 452.73 409.373 453.973 407.129C455.217 404.885 455.867 402.395 455.87 399.867V377.865H322.606Z" fill="#407BFF"/>
</g>
<path d="M472.531 167.404C470.343 167.402 468.177 167.805 466.155 168.588C464.134 169.372 462.297 170.521 460.751 171.97C459.204 173.419 457.978 175.139 457.143 177.033C456.308 178.926 455.88 180.955 455.884 183.003V374.584C455.879 377.111 455.226 379.599 453.982 381.842C452.738 384.084 450.938 386.014 448.733 387.471C446.528 388.928 443.982 389.868 441.309 390.214C438.636 390.56 435.913 390.301 433.368 389.459L307.099 347.47C300.476 345.261 293.313 344.886 286.469 346.389V183.003C286.469 178.87 288.223 174.905 291.345 171.982C294.467 169.059 298.701 167.417 303.116 167.417L472.531 167.404Z" stroke="#263238" stroke-linecap="round" stroke-linejoin="round"/>
<path d="M293.631 345.454H286.454" stroke="#263238" stroke-linecap="round" stroke-linejoin="round"/>
<path d="M439.025 390.394H269.596C267.676 390.386 265.772 390.07 263.967 389.459L234.711 379.828L271.088 353.609C275.999 349.733 281.908 347.127 288.227 346.05C294.547 344.973 301.057 345.463 307.112 347.47L433.382 389.459C435.192 390.071 437.101 390.387 439.025 390.394Z" fill="white"/>
<mask id="mask1_240_3283" style="mask-type:luminance" maskUnits="userSpaceOnUse" x="234" y="345" width="206" height="46">
<path d="M439.025 390.394H269.596C267.676 390.386 265.772 390.07 263.967 389.459L234.711 379.828L271.088 353.609C275.999 349.733 281.908 347.127 288.227 346.05C294.547 344.973 301.057 345.463 307.112 347.47L433.382 389.459C435.192 390.071 437.101 390.387 439.025 390.394Z" fill="white"/>
</mask>
<g mask="url(#mask1_240_3283)">
<path d="M439.025 390.394H269.596C267.676 390.386 265.772 390.07 263.967 389.459L232.896 379.314L271.059 353.609C275.971 349.733 281.879 347.127 288.199 346.05C294.518 344.973 301.029 345.463 307.084 347.47L433.354 389.459C435.173 390.074 437.091 390.39 439.025 390.394Z" fill="#407BFF"/>
<path opacity="0.2" d="M439.025 390.394H269.596C267.676 390.386 265.772 390.07 263.967 389.459L232.896 379.314L271.059 353.609C275.971 349.733 281.879 347.127 288.199 346.05C294.518 344.973 301.029 345.463 307.084 347.47L433.354 389.459C435.173 390.074 437.091 390.39 439.025 390.394Z" fill="black"/>
</g>
<path d="M439.025 390.394H269.596C267.676 390.386 265.772 390.07 263.967 389.459L234.711 379.828L271.088 353.609C275.999 349.733 281.908 347.127 288.227 346.05C294.547 344.973 301.057 345.463 307.112 347.47L433.382 389.459C435.192 390.071 437.101 390.387 439.025 390.394Z" stroke="#263238" stroke-linecap="round" stroke-linejoin="round"/>
<path d="M269.596 390.394H269.23" stroke="#263238" stroke-linecap="round" stroke-linejoin="round"/>
<path d="M439.349 390.394H439.025" stroke="#263238" stroke-linecap="round" stroke-linejoin="round"/>
<path d="M484.295 171.976C482.755 170.523 480.922 169.371 478.903 168.586C476.883 167.801 474.718 167.399 472.531 167.404C455.194 167.404 455.884 182.99 455.884 182.99V212.318H489.178V183.004C489.184 180.954 488.755 178.925 487.917 177.032C487.079 175.139 485.848 173.42 484.295 171.976Z" fill="white"/>
<mask id="mask2_240_3283" style="mask-type:luminance" maskUnits="userSpaceOnUse" x="455" y="167" width="35" height="46">
<path d="M484.295 171.976C482.755 170.523 480.922 169.371 478.903 168.586C476.883 167.801 474.718 167.399 472.531 167.404C455.194 167.404 455.884 182.99 455.884 182.99V212.318H489.178V183.004C489.184 180.954 488.755 178.925 487.917 177.032C487.079 175.139 485.848 173.42 484.295 171.976Z" fill="white"/>
</mask>
<g mask="url(#mask2_240_3283)">
<path d="M484.295 171.976C482.755 170.523 480.922 169.371 478.903 168.586C476.883 167.801 474.718 167.399 472.531 167.404C455.194 167.404 455.884 182.99 455.884 182.99V212.318H489.178V183.004C489.184 180.954 488.755 178.925 487.917 177.032C487.079 175.139 485.848 173.42 484.295 171.976Z" fill="#407BFF"/>
<path opacity="0.2" d="M484.295 171.976C482.755 170.523 480.922 169.371 478.903 168.586C476.883 167.801 474.718 167.399 472.531 167.404C455.194 167.404 455.884 182.99 455.884 182.99V212.318H489.178V183.004C489.184 180.954 488.755 178.925 487.917 177.032C487.079 175.139 485.848 173.42 484.295 171.976Z" fill="black"/>
</g>
<path d="M484.295 171.976C482.755 170.523 480.922 169.371 478.903 168.586C476.883 167.801 474.718 167.399 472.531 167.404C455.194 167.404 455.884 182.99 455.884 182.99V212.318H489.178V183.004C489.184 180.954 488.755 178.925 487.917 177.032C487.079 175.139 485.848 173.42 484.295 171.976Z" stroke="#263238" stroke-linecap="round" stroke-linejoin="round"/>
<g opacity="0.15">
<path d="M302.004 194.255V194.532V201.185V201.462V208.115V208.392V215.032V215.309V221.963V222.239V228.893V229.169V235.81V236.086V242.74V243.017V249.67V249.947V256.587V256.864V263.517V263.794V270.724H318.088V263.794V263.517V256.864V256.587V249.947V249.67V243.017V242.74V236.086V235.81V229.169V228.893V222.239V221.963V215.309V215.032V208.392V208.115V201.462V201.185V194.532V194.255V187.338H302.004V194.255Z" fill="black"/>
<path d="M428.823 187.338H428.485H413.09H412.738H397.343H396.991H381.611H381.259H365.864H365.512H350.131H349.779H334.384H334.033H318.3V194.532H334.033H334.384H349.779H350.131H365.512H365.864H381.259H381.611H396.991H397.343H412.738H413.09H428.485H428.823H444.57V187.338H428.823Z" fill="black"/>
</g>
<path d="M318.088 187.338H302.004V194.545H318.088V187.338Z" stroke="#263238" stroke-width="0.25" stroke-linecap="round" stroke-linejoin="round"/>
<path d="M318.088 194.255H302.004V201.462H318.088V194.255Z" stroke="#263238" stroke-width="0.25" stroke-linecap="round" stroke-linejoin="round"/>
<path d="M318.088 201.185H302.004V208.392H318.088V201.185Z" stroke="#263238" stroke-width="0.25" stroke-linecap="round" stroke-linejoin="round"/>
<path d="M318.088 208.115H302.004V215.322H318.088V208.115Z" stroke="#263238" stroke-width="0.25" stroke-linecap="round" stroke-linejoin="round"/>
<path d="M318.088 215.032H302.004V222.239H318.088V215.032Z" stroke="#263238" stroke-width="0.25" stroke-linecap="round" stroke-linejoin="round"/>
<path d="M318.088 221.963H302.004V229.169H318.088V221.963Z" stroke="#263238" stroke-width="0.25" stroke-linecap="round" stroke-linejoin="round"/>
<path d="M318.088 228.893H302.004V236.099H318.088V228.893Z" stroke="#263238" stroke-width="0.25" stroke-linecap="round" stroke-linejoin="round"/>
<path d="M318.088 235.81H302.004V243.016H318.088V235.81Z" stroke="#263238" stroke-width="0.25" stroke-linecap="round" stroke-linejoin="round"/>
<path d="M318.088 242.74H302.004V249.947H318.088V242.74Z" stroke="#263238" stroke-width="0.25" stroke-linecap="round" stroke-linejoin="round"/>
<path d="M318.088 249.67H302.004V256.877H318.088V249.67Z" stroke="#263238" stroke-width="0.25" stroke-linecap="round" stroke-linejoin="round"/>
<path d="M318.088 256.587H302.004V263.794H318.088V256.587Z" stroke="#263238" stroke-width="0.25" stroke-linecap="round" stroke-linejoin="round"/>
<path d="M318.088 263.517H302.004V270.724H318.088V263.517Z" stroke="#263238" stroke-width="0.25" stroke-linecap="round" stroke-linejoin="round"/>
<path d="M334.384 187.338H318.3V194.545H334.384V187.338Z" stroke="#263238" stroke-width="0.25" stroke-linecap="round" stroke-linejoin="round"/>
<path d="M350.117 187.338H334.032V194.545H350.117V187.338Z" stroke="#263238" stroke-width="0.25" stroke-linecap="round" stroke-linejoin="round"/>
<path d="M365.864 187.338H349.779V194.545H365.864V187.338Z" stroke="#263238" stroke-width="0.25" stroke-linecap="round" stroke-linejoin="round"/>
<path d="M381.596 187.338H365.512V194.545H381.596V187.338Z" stroke="#263238" stroke-width="0.25" stroke-linecap="round" stroke-linejoin="round"/>
<path d="M397.343 187.338H381.259V194.545H397.343V187.338Z" stroke="#263238" stroke-width="0.25" stroke-linecap="round" stroke-linejoin="round"/>
<path d="M413.076 187.338H396.991V194.545H413.076V187.338Z" stroke="#263238" stroke-width="0.25" stroke-linecap="round" stroke-linejoin="round"/>
<path d="M428.823 187.338H412.738V194.545H428.823V187.338Z" stroke="#263238" stroke-width="0.25" stroke-linecap="round" stroke-linejoin="round"/>
<path d="M444.57 187.338H428.485V194.545H444.57V187.338Z" stroke="#263238" stroke-width="0.25" stroke-linecap="round" stroke-linejoin="round"/>
<path d="M444.556 194.532H318.089V270.711H444.556V194.532Z" stroke="#263238" stroke-width="0.25" stroke-linecap="round" stroke-linejoin="round"/>
<path d="M334.173 194.532V270.698" stroke="#263238" stroke-width="0.25" stroke-linecap="round" stroke-linejoin="round"/>
<path d="M349.92 194.532V270.698" stroke="#263238" stroke-width="0.25" stroke-linecap="round" stroke-linejoin="round"/>
<path d="M365.667 194.532V270.698" stroke="#263238" stroke-width="0.25" stroke-linecap="round" stroke-linejoin="round"/>
<path d="M381.414 194.532V270.698" stroke="#263238" stroke-width="0.25" stroke-linecap="round" stroke-linejoin="round"/>
<path d="M397.146 194.532V270.698" stroke="#263238" stroke-width="0.25" stroke-linecap="round" stroke-linejoin="round"/>
<path d="M412.893 194.532V270.698" stroke="#263238" stroke-width="0.25" stroke-linecap="round" stroke-linejoin="round"/>
<path d="M428.64 194.532V270.698" stroke="#263238" stroke-width="0.25" stroke-linecap="round" stroke-linejoin="round"/>
<path d="M318.089 201.462H444.471" stroke="#263238" stroke-width="0.25" stroke-linecap="round" stroke-linejoin="round"/>
<path d="M318.089 208.366H444.471" stroke="#263238" stroke-width="0.25" stroke-linecap="round" stroke-linejoin="round"/>
<path d="M318.089 215.27H444.471" stroke="#263238" stroke-width="0.25" stroke-linecap="round" stroke-linejoin="round"/>
<path d="M318.089 222.173H444.471" stroke="#263238" stroke-width="0.25" stroke-linecap="round" stroke-linejoin="round"/>
<path d="M318.089 229.077H444.471" stroke="#263238" stroke-width="0.25" stroke-linecap="round" stroke-linejoin="round"/>
<path d="M318.089 235.968H444.471" stroke="#263238" stroke-width="0.25" stroke-linecap="round" stroke-linejoin="round"/>
<path d="M318.089 242.872H444.471" stroke="#263238" stroke-width="0.25" stroke-linecap="round" stroke-linejoin="round"/>
<path d="M318.089 249.775H444.471" stroke="#263238" stroke-width="0.25" stroke-linecap="round" stroke-linejoin="round"/>
<path d="M318.089 256.679H444.471" stroke="#263238" stroke-width="0.25" stroke-linecap="round" stroke-linejoin="round"/>
<path d="M318.089 263.583H444.471" stroke="#263238" stroke-width="0.25" stroke-linecap="round" stroke-linejoin="round"/>
<path d="M237.469 364.004H101.884L111.242 357.351H246.827L237.469 364.004Z" fill="#407BFF"/>
<path d="M30.1296 417.417H26.8086L111.242 357.351H114.577L30.1296 417.417Z" fill="#407BFF"/>
<path d="M207.594 385.216H72.0225L82.6188 377.786H218.19L207.594 385.216Z" fill="#263238"/>
<path d="M161.958 417.72H26.3721L111.241 357.351H246.827L161.958 417.72Z" stroke="#263238" stroke-width="0.25" stroke-linecap="round" stroke-linejoin="round"/>
<path d="M125.215 357.575L40.7119 417.68" stroke="#263238" stroke-width="0.25" stroke-linecap="round" stroke-linejoin="round"/>
<path d="M138.837 357.575L54.333 417.68" stroke="#263238" stroke-width="0.25" stroke-linecap="round" stroke-linejoin="round"/>
<path d="M152.445 357.575L67.9414 417.68" stroke="#263238" stroke-width="0.25" stroke-linecap="round" stroke-linejoin="round"/>
<path d="M166.067 357.575L81.5635 417.68" stroke="#263238" stroke-width="0.25" stroke-linecap="round" stroke-linejoin="round"/>
<path d="M179.689 357.575L95.1855 417.68" stroke="#263238" stroke-width="0.25" stroke-linecap="round" stroke-linejoin="round"/>
<path d="M193.311 357.575L108.793 417.68" stroke="#263238" stroke-width="0.25" stroke-linecap="round" stroke-linejoin="round"/>
<path d="M206.919 357.575L122.415 417.68" stroke="#263238" stroke-width="0.25" stroke-linecap="round" stroke-linejoin="round"/>
<path d="M220.541 357.575L136.037 417.68" stroke="#263238" stroke-width="0.25" stroke-linecap="round" stroke-linejoin="round"/>
<path d="M234.162 357.575L149.645 417.68" stroke="#263238" stroke-width="0.25" stroke-linecap="round" stroke-linejoin="round"/>
<path d="M93.5811 370.078H228.759" stroke="#263238" stroke-width="0.25" stroke-linecap="round" stroke-linejoin="round"/>
<path d="M82.7881 377.759H217.966" stroke="#263238" stroke-width="0.25" stroke-linecap="round" stroke-linejoin="round"/>
<path d="M71.9941 385.44H207.172" stroke="#263238" stroke-width="0.25" stroke-linecap="round" stroke-linejoin="round"/>
<path d="M61.2012 393.108H196.379" stroke="#263238" stroke-width="0.25" stroke-linecap="round" stroke-linejoin="round"/>
<path d="M50.4072 400.79H185.585" stroke="#263238" stroke-width="0.25" stroke-linecap="round" stroke-linejoin="round"/>
<path d="M39.6143 408.471H174.792" stroke="#263238" stroke-width="0.25" stroke-linecap="round" stroke-linejoin="round"/>
<path d="M444.781 276.534H301.878V281.449H444.781V276.534Z" fill="#407BFF"/>
<path d="M305.382 276.534H301.878V339.828H305.382V276.534Z" fill="#407BFF"/>
<path d="M444.781 276.534H301.878V340.157H444.781V276.534Z" stroke="#263238" stroke-width="0.25" stroke-linecap="round" stroke-linejoin="round"/>
<path d="M316.935 276.771V340.118" stroke="#263238" stroke-width="0.25" stroke-linecap="round" stroke-linejoin="round"/>
<path d="M331.288 276.771V340.118" stroke="#263238" stroke-width="0.25" stroke-linecap="round" stroke-linejoin="round"/>
<path d="M345.642 276.771V340.118" stroke="#263238" stroke-width="0.25" stroke-linecap="round" stroke-linejoin="round"/>
<path d="M359.995 276.771V340.118" stroke="#263238" stroke-width="0.25" stroke-linecap="round" stroke-linejoin="round"/>
<path d="M374.35 276.771V340.118" stroke="#263238" stroke-width="0.25" stroke-linecap="round" stroke-linejoin="round"/>
<path d="M388.703 276.771V340.118" stroke="#263238" stroke-width="0.25" stroke-linecap="round" stroke-linejoin="round"/>
<path d="M403.057 276.771V340.118" stroke="#263238" stroke-width="0.25" stroke-linecap="round" stroke-linejoin="round"/>
<path d="M417.396 276.771V340.118" stroke="#263238" stroke-width="0.25" stroke-linecap="round" stroke-linejoin="round"/>
<path d="M431.75 276.771V340.118" stroke="#263238" stroke-width="0.25" stroke-linecap="round" stroke-linejoin="round"/>
<path d="M302.117 289.947H444.598" stroke="#263238" stroke-width="0.25" stroke-linecap="round" stroke-linejoin="round"/>
<path d="M302.117 298.049H444.598" stroke="#263238" stroke-width="0.25" stroke-linecap="round" stroke-linejoin="round"/>
<path d="M302.117 306.139H444.598" stroke="#263238" stroke-width="0.25" stroke-linecap="round" stroke-linejoin="round"/>
<path d="M302.117 314.229H444.598" stroke="#263238" stroke-width="0.25" stroke-linecap="round" stroke-linejoin="round"/>
<path d="M302.117 322.318H444.598" stroke="#263238" stroke-width="0.25" stroke-linecap="round" stroke-linejoin="round"/>
<path d="M302.117 330.408H444.598" stroke="#263238" stroke-width="0.25" stroke-linecap="round" stroke-linejoin="round"/>
<path d="M397.47 317.14H391.518V330.157H397.47V317.14Z" fill="#263238" stroke="#263238" stroke-width="0.5" stroke-miterlimit="10"/>
<path d="M407.011 309.341H401.059V330.171H407.011V309.341Z" fill="#407BFF" stroke="#263238" stroke-width="0.5" stroke-miterlimit="10"/>
<path d="M416.538 296.323H410.585V330.171H416.538V296.323Z" fill="#263238" stroke="#263238" stroke-width="0.5" stroke-miterlimit="10"/>
<path d="M426.079 308.958H420.126V330.157H426.079V308.958Z" fill="#407BFF" stroke="#263238" stroke-width="0.5" stroke-miterlimit="10"/>
<path d="M435.605 296.323H429.652V330.171H435.605V296.323Z" fill="#263238" stroke="#263238" stroke-width="0.5" stroke-miterlimit="10"/>
<path d="M336.186 314.518V329.986C331.804 329.986 327.602 328.356 324.504 325.456C321.406 322.555 319.665 318.621 319.665 314.518C319.665 310.416 321.406 306.482 324.504 303.581C327.602 300.68 331.804 299.051 336.186 299.051V314.518Z" fill="#407BFF" stroke="#263238" stroke-width="0.5" stroke-miterlimit="10"/>
<path d="M336.186 314.518L351.89 309.736C352.566 311.668 352.828 313.707 352.662 315.734C352.495 317.762 351.902 319.739 350.918 321.551C349.933 323.364 348.576 324.977 346.925 326.298C345.274 327.619 343.36 328.621 341.294 329.248C339.648 329.764 337.922 330.023 336.186 330.012V314.518Z" fill="white" stroke="#263238" stroke-width="0.5" stroke-miterlimit="10"/>
<path d="M336.186 314.518V299.051C339.683 299.013 343.1 300.032 345.929 301.957C348.758 303.882 350.849 306.61 351.89 309.736L336.186 314.518Z" fill="#263238" stroke="#263238" stroke-width="0.5" stroke-miterlimit="10"/>
</svg>
