<svg width="80" height="80" viewBox="0 0 80 80" fill="none" xmlns="http://www.w3.org/2000/svg">
<circle cx="40" cy="40" r="40" fill="#1D4771"/>
<g clip-path="url(#clip0_114_826)">
<path d="M56.2821 32.445V45.555C56.2821 47.7017 55.1071 49.695 53.2076 50.7875L41.5751 57.3617C39.6755 58.435 37.3255 58.435 35.4063 57.3617L23.7738 50.7875C22.8373 50.2561 22.0601 49.4928 21.5205 48.5743C20.9808 47.6559 20.6975 46.6146 20.6992 45.555V32.445C20.6992 30.2984 21.8742 28.305 23.7738 27.2125L35.4063 20.6384C37.3059 19.565 39.6559 19.565 41.5751 20.6384L53.2076 27.2125C55.1071 28.305 56.2821 30.2792 56.2821 32.445Z" stroke="#E0E0E0" stroke-width="1.5" stroke-linecap="round" stroke-linejoin="round"/>
<path d="M46.3327 47.9316C46.3327 44.4816 42.8273 41.6833 38.4993 41.6833C34.1714 41.6833 30.666 44.4816 30.666 47.9316M38.4993 37.0833C39.7095 37.0833 40.8701 36.6128 41.7258 35.7753C42.5815 34.9378 43.0623 33.8019 43.0623 32.6174C43.0623 31.433 42.5815 30.2971 41.7258 29.4596C40.8701 28.6221 39.7095 28.1516 38.4993 28.1516C37.2892 28.1516 36.1286 28.6221 35.2729 29.4596C34.4172 30.2971 33.9364 31.433 33.9364 32.6174C33.9364 33.8019 34.4172 34.9378 35.2729 35.7753C36.1286 36.6128 37.2892 37.0833 38.4993 37.0833Z" stroke="#E0E0E0" stroke-width="1.5" stroke-linecap="round" stroke-linejoin="round"/>
</g>
<defs>
<clipPath id="clip0_114_826">
<rect width="42.4" height="42.4" fill="white" transform="translate(18.4004 19.2)"/>
</clipPath>
</defs>
</svg>
