<svg width="644" height="660" viewBox="0 0 644 660" fill="none" xmlns="http://www.w3.org/2000/svg">
<path d="M764.252 579.663H-121V580.106H764.252V579.663Z" fill="#EBEBEB"/>
<path d="M437.895 591.72H392.818V592.162H437.895V591.72Z" fill="#EBEBEB"/>
<path d="M685.359 601.298H578.544V601.741H685.359V601.298Z" fill="#EBEBEB"/>
<path d="M383.222 591.933H272.866V592.375H383.222V591.933Z" fill="#EBEBEB"/>
<path d="M201.302 605.175H178.215V605.618H201.302V605.175Z" fill="#EBEBEB"/>
<path d="M328.868 605.175H223.735V605.618H328.868V605.175Z" fill="#EBEBEB"/>
<path d="M39.9561 597.704H-28.1198V598.147H39.9561V597.704Z" fill="#EBEBEB"/>
<path d="M298.61 500.699H-43.2564C-45.9346 500.694 -48.5014 499.627 -50.3935 497.731C-52.2856 495.836 -53.3483 493.267 -53.3483 490.589V10.0211C-53.325 7.35826 -52.252 4.81219 -50.3624 2.93588C-48.4728 1.05957 -45.9193 0.0045615 -43.2564 0H298.61C301.291 0 303.863 1.06511 305.759 2.96103C307.655 4.85694 308.72 7.42835 308.72 10.1096V490.589C308.72 493.27 307.655 495.842 305.759 497.738C303.863 499.633 301.291 500.699 298.61 500.699ZM-43.2564 0.354102C-45.8172 0.358792 -48.2714 1.37934 -50.0805 3.19174C-51.8896 5.00413 -52.9056 7.46028 -52.9056 10.0211V490.589C-52.9056 493.15 -51.8896 495.606 -50.0805 497.418C-48.2714 499.231 -45.8172 500.251 -43.2564 500.256H298.61C301.173 500.251 303.629 499.231 305.441 497.419C307.253 495.607 308.273 493.151 308.277 490.589V10.0211C308.273 7.45865 307.253 5.00255 305.441 3.19065C303.629 1.37876 301.173 0.358782 298.61 0.354102H-43.2564Z" fill="#EBEBEB"/>
<path d="M681.589 500.699H339.704C337.025 500.694 334.456 499.627 332.561 497.732C330.666 495.837 329.6 493.269 329.595 490.589V10.0211C329.623 7.35664 330.7 4.8106 332.592 2.93477C334.484 1.05895 337.04 0.00451176 339.704 0H681.589C684.249 0.00921458 686.798 1.06628 688.683 2.9421C690.569 4.81791 691.64 7.36132 691.663 10.0211V490.589C691.663 493.264 690.603 495.83 688.714 497.725C686.826 499.62 684.264 500.689 681.589 500.699ZM339.704 0.354102C337.142 0.358782 334.686 1.37876 332.874 3.19065C331.062 5.00255 330.042 7.45865 330.037 10.0211V490.589C330.042 493.151 331.062 495.607 332.874 497.419C334.686 499.231 337.142 500.251 339.704 500.256H681.589C684.151 500.251 686.607 499.231 688.419 497.419C690.231 495.607 691.251 493.151 691.256 490.589V10.0211C691.251 7.45865 690.231 5.00255 688.419 3.19065C686.607 1.37876 684.151 0.358782 681.589 0.354102H339.704Z" fill="#EBEBEB"/>
<path d="M225.948 426.107H108.387L101.251 343.779H218.813L225.948 426.107Z" fill="#E6E6E6"/>
<path d="M232.039 426.107H114.477L107.342 343.779H224.904L232.039 426.107Z" fill="#F0F0F0"/>
<path d="M130.554 408.42L126.623 361.449H208.828L212.758 408.42H130.554Z" fill="white"/>
<path d="M252.382 426.108H238.59V579.663H252.382V426.108Z" fill="#E6E6E6"/>
<path d="M256.736 426.108H247.158V579.663H256.736V426.108Z" fill="#F0F0F0"/>
<path d="M123.224 443.051H256.737V426.107H123.224V443.051Z" fill="#F0F0F0"/>
<path d="M127.933 443.051H114.141V579.663H127.933V443.051Z" fill="#E6E6E6"/>
<path d="M132.287 443.051H122.709V579.663H132.287V443.051Z" fill="#F0F0F0"/>
<path d="M29.7575 443.051H15.9652V579.663H29.7575V443.051Z" fill="#E6E6E6"/>
<path d="M34.1149 443.051H24.5364V579.663H34.1149V443.051Z" fill="#F0F0F0"/>
<path d="M165.097 443.051H151.305V579.663H165.097V443.051Z" fill="#E6E6E6"/>
<path d="M169.432 443.051H159.854V579.663H169.432V443.051Z" fill="#F0F0F0"/>
<path d="M123.222 426.108H15.9652V443.051H123.222V426.108Z" fill="#E6E6E6"/>
<path d="M523.181 43.2174H108.298V274.197H523.181V43.2174Z" fill="#E0E0E0"/>
<path d="M545.966 43.2174H110.387V274.197H545.966V43.2174Z" fill="#F5F5F5"/>
<path d="M538.848 267.081V50.3356L117.504 50.3356V267.081H538.848Z" fill="white"/>
<path d="M288.111 267.081L367.659 50.3356H236.376L156.828 267.081H288.111Z" fill="#F5F5F5"/>
<path d="M414.47 267.081L494.019 50.3356H394.977L315.428 267.081H414.47Z" fill="#F5F5F5"/>
<path d="M654.674 359.059H619.406V579.664H654.674V359.059Z" fill="#E6E6E6"/>
<path d="M329.506 359.059H294.237V579.664H329.506V359.059Z" fill="#E6E6E6"/>
<path d="M654.675 359.059H321.413V575.078H654.675V359.059Z" fill="#FAFAFA"/>
<path d="M648.373 428.763H327.735V367.752H648.373V428.763ZM329.505 426.993H646.603V369.522H329.505V426.993Z" fill="#E6E6E6"/>
<path d="M591.93 397.372H390.394C381.046 397.372 372.034 389.829 365.607 376.657L365.005 375.4H617.302L616.7 376.657C610.22 389.829 601.367 397.372 591.93 397.372ZM367.909 377.117C373.893 388.856 382.073 395.548 390.394 395.548H591.93C600.287 395.548 608.432 388.856 614.416 377.117H367.909Z" fill="#E6E6E6"/>
<path d="M330.691 579.663H321.413V562.684H340.411L330.691 579.663Z" fill="#FAFAFA"/>
<path d="M648.373 497.511H327.735V436.57H648.373V497.511ZM329.505 495.74H646.603V438.341H329.505V495.74Z" fill="#E6E6E6"/>
<path d="M591.93 466.192H390.394C381.046 466.192 372.034 458.632 365.607 445.477L365.005 444.202H617.302L616.7 445.477C610.22 458.561 601.367 466.192 591.93 466.192ZM367.909 445.973C373.893 457.711 382.073 464.421 390.394 464.421H591.93C600.287 464.421 608.432 457.711 614.416 445.973H367.909Z" fill="#E6E6E6"/>
<path d="M648.373 566.384H327.735V505.373H648.373V566.384ZM329.505 564.614H646.603V507.143H329.505V564.614Z" fill="#E6E6E6"/>
<path d="M591.93 534.994H390.394C381.046 534.994 372.034 527.451 365.607 514.296L365.005 513.022H617.302L616.7 514.296C610.22 527.451 601.367 534.994 591.93 534.994ZM367.909 514.792C373.893 526.531 382.073 533.223 390.394 533.223H591.93C600.287 533.223 608.432 526.531 614.416 514.792H367.909Z" fill="#E6E6E6"/>
<path d="M93.1954 388.236V392.521H90.4688L88.2026 426.107H54.8463L52.5978 392.521H49.8535V388.236H93.1954Z" fill="#E6E6E6"/>
<path d="M82.2178 304.899C79.4913 284.892 52.4911 279.191 18.2318 278.447C-14.3632 277.757 -24.8091 266.231 -24.8091 266.231C-24.8091 266.231 -24.7029 312.919 22.2686 329.845C66.8676 345.886 84.9621 324.941 82.2178 304.899Z" fill="#E6E6E6"/>
<path d="M65.5764 350.241C66.143 342.026 79.2801 326.906 110.884 333.775C133.723 338.75 142.222 326.906 142.222 326.906C142.222 326.906 140.097 360.333 105.749 370.372C73.1188 379.915 64.5672 364.724 65.5764 350.241Z" fill="#E6E6E6"/>
<path d="M72.7814 400.842C72.9593 400.844 73.1355 400.806 73.2976 400.733C73.4596 400.66 73.6037 400.552 73.7198 400.417C76.0037 397.708 74.127 391.228 71.542 382.251C68.2135 370.743 64.0705 356.402 67.5761 346.009C69.5192 340.52 71.7895 335.151 74.3748 329.933C79.3323 319.452 83.6169 310.458 80.0405 300.932C79.9847 300.781 79.8994 300.642 79.7895 300.523C79.6797 300.405 79.5475 300.31 79.4005 300.243C79.2536 300.176 79.0948 300.138 78.9334 300.133C78.772 300.128 78.6112 300.155 78.4602 300.212C78.3093 300.27 78.1712 300.356 78.054 300.467C77.9367 300.578 77.8426 300.712 77.7772 300.859C77.7118 301.007 77.6762 301.166 77.6727 301.327C77.6691 301.489 77.6976 301.649 77.7565 301.8C80.9611 310.28 77.0837 318.496 72.1617 328.906C69.5435 334.208 67.2379 339.659 65.2567 345.23C61.521 356.349 65.7702 371.097 69.1873 382.924C71.2056 390.006 73.2948 397.088 71.8607 398.859C71.7469 398.981 71.6597 399.126 71.6048 399.283C71.5499 399.441 71.5284 399.609 71.5417 399.775C71.5551 399.942 71.6029 400.104 71.6822 400.251C71.7615 400.398 71.8705 400.527 72.0024 400.629C72.2286 400.79 72.5047 400.866 72.7814 400.842Z" fill="#E6E6E6"/>
<path d="M321.625 659.619C511.215 659.619 664.908 650.646 664.908 639.577C664.908 628.508 511.215 619.535 321.625 619.535C132.035 619.535 -21.6578 628.508 -21.6578 639.577C-21.6578 650.646 132.035 659.619 321.625 659.619Z" fill="#F5F5F5"/>
<path d="M321.554 541.862H70.1426L56.3858 137.532H307.797L321.554 541.862Z" fill="#1D4771"/>
<path d="M334.107 529.31H82.6952L68.9207 124.98H320.332L334.107 529.31Z" fill="#1D4771"/>
<path opacity="0.3" d="M334.107 529.31H82.6952L68.9207 124.98H320.332L334.107 529.31Z" fill="white"/>
<path d="M249.871 291.361C276.79 263.977 275.645 219.2 247.313 191.349C218.981 163.498 174.192 163.119 147.273 190.502C120.354 217.886 121.499 262.662 149.831 290.513C178.163 318.365 222.952 318.744 249.871 291.361Z" fill="#1D4771"/>
<path d="M256.949 240.948C257.311 250.582 255.209 260.15 250.841 268.745C246.126 278.007 238.924 285.773 230.043 291.171C221.161 296.569 210.951 299.385 200.558 299.304C189.921 299.246 179.486 296.393 170.3 291.029C161.114 285.665 153.5 277.98 148.222 268.745C143.301 260.282 140.551 250.732 140.22 240.948C139.893 233.361 141.112 225.788 143.803 218.687C146.494 211.586 150.6 205.107 155.873 199.642C161.146 194.178 167.474 189.842 174.474 186.899C181.474 183.955 188.999 182.466 196.592 182.521C212.235 182.632 227.234 188.764 238.474 199.645C249.714 210.525 256.33 225.317 256.949 240.948Z" fill="white"/>
<path opacity="0.6" d="M250.805 268.745C246.09 278.007 238.888 285.773 230.007 291.171C221.125 296.569 210.915 299.385 200.522 299.304C189.885 299.246 179.45 296.392 170.264 291.029C161.078 285.665 153.464 277.98 148.186 268.745C163.16 258.536 180.877 253.11 199 253.182C217.414 253.222 235.417 258.63 250.805 268.745Z" fill="#1D4771"/>
<path opacity="0.6" d="M216.762 239.492C226.66 229.422 226.239 212.958 215.821 202.716C205.404 192.475 188.934 192.336 179.036 202.405C169.137 212.474 169.558 228.939 179.976 239.18C190.394 249.421 206.863 249.561 216.762 239.492Z" fill="#1D4771"/>
<path d="M283.595 382.888H123.223L122.143 351.019H282.515L283.595 382.888Z" fill="white"/>
<path d="M285.542 439.846H125.153L124.072 407.977H284.462L285.542 439.846Z" fill="white"/>
<path d="M223.646 412.368L184.996 417.68C184.627 417.722 184.271 417.84 183.95 418.026C183.629 418.212 183.35 418.463 183.131 418.762C182.911 419.061 182.756 419.403 182.675 419.765C182.594 420.127 182.588 420.502 182.659 420.867L187.74 446.769C187.907 447.529 188.351 448.2 188.987 448.649C189.623 449.097 190.403 449.292 191.175 449.195L229.825 443.883C230.193 443.837 230.548 443.715 230.867 443.526C231.186 443.337 231.463 443.084 231.68 442.784C231.897 442.484 232.051 442.142 232.131 441.779C232.211 441.417 232.215 441.043 232.145 440.679L227.081 414.776C226.915 414.017 226.469 413.349 225.833 412.903C225.197 412.457 224.416 412.266 223.646 412.368ZM212.545 438.607L205.463 439.545L204.773 431.189C204.043 430.873 203.4 430.387 202.897 429.77C202.395 429.154 202.048 428.426 201.887 427.648C201.757 427.045 201.754 426.421 201.881 425.817C202.007 425.213 202.258 424.643 202.618 424.142C202.979 423.641 203.44 423.222 203.973 422.911C204.506 422.6 205.098 422.404 205.711 422.336C206.968 422.174 208.241 422.49 209.277 423.221C210.313 423.952 211.037 425.045 211.306 426.284C211.459 427.033 211.412 427.808 211.17 428.533C210.927 429.257 210.498 429.905 209.925 430.41L212.545 438.607Z" fill="#1D4771"/>
<path d="M219.821 410.969C219.138 411.056 218.447 410.884 217.883 410.488C217.32 410.092 216.925 409.499 216.776 408.827L216.28 406.295C215.573 402.84 213.636 399.758 210.829 397.623C208.023 395.487 204.537 394.441 201.018 394.68C199.243 394.781 197.51 395.264 195.937 396.094C194.364 396.924 192.989 398.084 191.904 399.493C190.819 400.902 190.05 402.528 189.649 404.261C189.248 405.994 189.225 407.792 189.581 409.535L190.148 412.456C190.214 412.78 190.211 413.114 190.141 413.436C190.07 413.759 189.933 414.064 189.738 414.33C189.543 414.597 189.294 414.82 189.008 414.985C188.722 415.15 188.405 415.254 188.076 415.289C187.391 415.384 186.696 415.216 186.131 414.819C185.565 414.421 185.172 413.823 185.031 413.147L184.553 410.686C184.067 408.386 184.05 406.011 184.505 403.705C184.96 401.398 185.877 399.208 187.2 397.264C188.523 395.321 190.225 393.665 192.204 392.397C194.183 391.128 196.399 390.273 198.717 389.882C203.743 389.038 208.901 390.162 213.121 393.02C217.341 395.878 220.298 400.252 221.379 405.232L221.946 408.136C222.012 408.464 222.008 408.802 221.934 409.128C221.861 409.454 221.719 409.761 221.518 410.028C221.317 410.296 221.063 410.518 220.77 410.68C220.478 410.842 220.154 410.941 219.821 410.969Z" fill="#1D4771"/>
<path d="M259.073 484.481H154.667L153.976 463.73H258.365L259.073 484.481Z" fill="#1D4771"/>
<path d="M208.704 366.954C208.735 367.711 208.612 368.466 208.343 369.174C208.073 369.882 207.663 370.528 207.136 371.072C206.61 371.617 205.978 372.049 205.28 372.342C204.582 372.636 203.831 372.784 203.074 372.779C201.512 372.767 200.016 372.155 198.892 371.071C197.769 369.987 197.104 368.513 197.036 366.954C197.005 366.197 197.128 365.442 197.397 364.734C197.667 364.026 198.077 363.38 198.603 362.835C199.13 362.291 199.761 361.858 200.46 361.565C201.158 361.272 201.909 361.123 202.666 361.129C204.229 361.137 205.728 361.746 206.853 362.831C207.977 363.916 208.64 365.393 208.704 366.954Z" fill="#263238"/>
<path d="M183.525 366.954C183.559 367.711 183.438 368.468 183.169 369.177C182.901 369.886 182.491 370.533 181.964 371.078C181.437 371.623 180.804 372.055 180.105 372.348C179.405 372.64 178.653 372.787 177.895 372.779C176.336 372.766 174.841 372.155 173.72 371.07C172.599 369.986 171.939 368.512 171.875 366.954C171.844 366.197 171.967 365.442 172.236 364.734C172.506 364.026 172.916 363.38 173.443 362.835C173.969 362.291 174.601 361.858 175.299 361.565C175.997 361.272 176.748 361.123 177.506 361.129C179.066 361.137 180.564 361.747 181.685 362.832C182.807 363.918 183.466 365.394 183.525 366.954Z" fill="#263238"/>
<path d="M158.509 366.954C158.54 367.711 158.417 368.466 158.148 369.174C157.879 369.882 157.468 370.528 156.942 371.072C156.415 371.617 155.784 372.049 155.085 372.342C154.387 372.636 153.636 372.784 152.879 372.779C151.318 372.771 149.821 372.16 148.699 371.075C147.578 369.99 146.918 368.513 146.859 366.954C146.828 366.197 146.951 365.442 147.22 364.734C147.49 364.026 147.9 363.38 148.426 362.835C148.953 362.291 149.584 361.858 150.283 361.565C150.981 361.272 151.732 361.123 152.489 361.129C154.05 361.137 155.547 361.747 156.669 362.832C157.791 363.918 158.45 365.394 158.509 366.954Z" fill="#263238"/>
<path d="M233.791 366.955C233.822 367.711 233.699 368.467 233.43 369.175C233.16 369.883 232.75 370.529 232.223 371.073C231.697 371.618 231.065 372.05 230.367 372.343C229.669 372.637 228.918 372.785 228.161 372.78C226.6 372.772 225.102 372.161 223.981 371.076C222.859 369.991 222.2 368.514 222.141 366.955C222.114 366.2 222.241 365.448 222.514 364.744C222.787 364.04 223.2 363.398 223.728 362.859C224.256 362.319 224.889 361.892 225.587 361.604C226.284 361.316 227.034 361.173 227.789 361.183C229.338 361.195 230.823 361.8 231.939 362.873C233.056 363.947 233.718 365.407 233.791 366.955Z" fill="#263238"/>
<path d="M258.878 366.954C258.912 367.711 258.791 368.468 258.522 369.177C258.254 369.886 257.844 370.533 257.317 371.078C256.79 371.623 256.157 372.055 255.458 372.348C254.758 372.64 254.006 372.787 253.248 372.779C251.689 372.766 250.194 372.155 249.073 371.07C247.952 369.986 247.292 368.512 247.228 366.954C247.197 366.197 247.32 365.442 247.589 364.734C247.859 364.026 248.269 363.38 248.796 362.835C249.322 362.291 249.954 361.858 250.652 361.565C251.35 361.272 252.101 361.123 252.858 361.129C254.419 361.137 255.917 361.747 257.038 362.832C258.16 363.918 258.819 365.394 258.878 366.954Z" fill="#263238"/>
<path d="M470.188 211.185C472.543 214.974 474.508 218.586 476.526 222.357C478.545 226.129 480.368 229.917 482.157 233.795C485.805 241.646 488.825 249.775 491.186 258.104C491.505 259.148 491.735 260.264 492.001 261.344L492.39 262.99L492.585 263.805L492.815 265.15C493.214 268.203 493.028 271.304 492.266 274.286C491.044 278.917 489.185 283.356 486.742 287.476C482.373 294.964 477.092 301.88 471.02 308.067L463.566 302.437C467.308 295.559 470.636 288.465 473.534 281.191C474.825 277.986 475.734 274.641 476.243 271.223C476.406 270.18 476.358 269.114 476.101 268.089L475.393 265.929C475.11 265.044 474.844 264.159 474.508 263.256C471.815 255.952 468.7 248.811 465.177 241.868C461.636 234.786 457.83 227.704 454.023 220.941L470.188 211.185Z" fill="#FF8B7B"/>
<path d="M465.46 299.976L457.315 304.278L466.664 315.22C466.664 315.22 472.506 311.272 472.772 305.252L465.46 299.976Z" fill="#FF8B7B"/>
<path d="M446.391 311.024L456.394 318.974L466.663 315.22L457.315 304.279L446.391 311.024Z" fill="#FF8B7B"/>
<path d="M412.184 153.254C411.989 154.246 411.299 154.936 410.661 154.812C410.024 154.688 409.652 153.768 409.847 152.794C410.041 151.82 410.732 151.023 411.387 151.236C412.042 151.448 412.378 152.263 412.184 153.254Z" fill="#263238"/>
<path d="M411.388 154.954C409.605 157.727 407.448 160.241 404.979 162.425C405.562 163.03 406.269 163.501 407.051 163.807C407.833 164.112 408.673 164.245 409.511 164.196L411.388 154.954Z" fill="#FF5652"/>
<path d="M408.201 189.692V178.077L423.569 179.848C423.569 179.848 423.321 189.834 414.716 192.773L408.201 189.692Z" fill="#FF8B7B"/>
<path d="M412.628 169.72L423.446 172.836L423.641 179.936L408.273 178.077L412.628 169.72Z" fill="#FF8B7B"/>
<path opacity="0.2" d="M423.447 172.836L412.629 169.72L410.522 173.757C410.637 176.938 411.631 180.024 413.394 182.675C415.157 185.325 417.619 187.435 420.508 188.771C422.367 186.175 423.453 183.106 423.642 179.918L423.447 172.836Z" fill="black"/>
<path d="M416.896 148.527C417.009 148.524 417.119 148.489 417.214 148.426C417.308 148.363 417.383 148.275 417.429 148.171C417.475 148.067 417.491 147.953 417.475 147.84C417.459 147.728 417.412 147.622 417.338 147.536C416.716 146.834 415.935 146.29 415.061 145.951C414.186 145.613 413.243 145.488 412.31 145.588C412.157 145.614 412.022 145.7 411.932 145.826C411.842 145.952 411.806 146.109 411.832 146.261C411.858 146.415 411.943 146.552 412.068 146.645C412.194 146.737 412.35 146.777 412.505 146.757C413.244 146.684 413.989 146.79 414.679 147.064C415.369 147.338 415.983 147.773 416.471 148.333C416.525 148.392 416.591 148.439 416.663 148.473C416.736 148.506 416.815 148.525 416.896 148.527Z" fill="#263238"/>
<path d="M439.521 171.173C437.75 180.291 436.653 192.914 443.062 198.987C443.062 198.987 440.583 208.229 423.586 208.229C404.978 208.229 414.645 200.12 414.645 200.12C422.382 197.712 422.312 188.913 420.541 181.831L439.521 171.173Z" fill="#FF8B7B"/>
<path d="M446.517 205.077C448.181 202.74 448.11 195.322 446.34 194.011C443.489 191.905 431.255 191.409 414.807 195.198C416.577 202.386 412.771 206.139 412.771 206.139L446.517 205.077Z" fill="#1D4771"/>
<path d="M501.861 625.412C501.356 625.59 500.82 625.666 500.286 625.636C499.751 625.605 499.227 625.469 498.745 625.235C498.563 625.066 498.437 624.843 498.387 624.599C498.336 624.355 498.362 624.101 498.462 623.872C498.518 623.681 498.615 623.504 498.746 623.354C498.878 623.204 499.041 623.085 499.223 623.005C500.905 622.19 504.765 623.766 504.942 623.837C504.995 623.858 505.04 623.895 505.072 623.942C505.103 623.99 505.12 624.045 505.119 624.102C505.119 624.159 505.104 624.215 505.076 624.264C505.048 624.314 505.008 624.356 504.96 624.386C503.961 624.824 502.924 625.168 501.861 625.412ZM499.825 623.412C499.709 623.439 499.596 623.481 499.489 623.536C499.378 623.576 499.279 623.642 499.199 623.728C499.119 623.814 499.061 623.918 499.029 624.031C498.869 624.563 499.029 624.74 499.135 624.793C499.808 625.359 502.286 624.793 504.039 624.138C502.706 623.586 501.266 623.338 499.825 623.412Z" fill="#1D4771"/>
<path d="M504.889 624.403H504.747C503.331 623.996 500.321 621.853 500.286 620.455C500.284 620.232 500.359 620.016 500.498 619.842C500.636 619.668 500.83 619.547 501.047 619.498C501.257 619.42 501.482 619.389 501.705 619.407C501.928 619.425 502.145 619.493 502.339 619.605C504.004 620.455 505.066 623.889 505.101 624.049C505.126 624.092 505.139 624.141 505.139 624.19C505.139 624.24 505.126 624.289 505.101 624.332C505.074 624.36 505.04 624.38 505.004 624.393C504.967 624.405 504.927 624.408 504.889 624.403ZM501.348 619.994H501.206C500.852 620.118 500.852 620.295 500.852 620.384C500.852 621.216 502.87 622.898 504.393 623.571C504.021 622.579 503.207 620.614 502.127 620.03C501.887 619.921 501.614 619.908 501.366 619.994H501.348Z" fill="#1D4771"/>
<path d="M409.903 627.502C408.309 627.502 406.769 627.272 406.255 626.563C406.121 626.375 406.049 626.149 406.049 625.917C406.049 625.686 406.121 625.46 406.255 625.271C406.356 625.098 406.492 624.947 406.653 624.829C406.815 624.71 406.999 624.625 407.194 624.58C409.265 624.014 413.621 626.493 413.798 626.599C413.852 626.625 413.896 626.67 413.922 626.724C413.947 626.779 413.954 626.841 413.939 626.9C413.933 626.96 413.907 627.017 413.865 627.062C413.824 627.107 413.769 627.137 413.709 627.148C412.453 627.378 411.179 627.496 409.903 627.502ZM407.937 625.076C407.75 625.046 407.558 625.046 407.371 625.076C407.251 625.101 407.137 625.15 407.037 625.22C406.936 625.29 406.851 625.379 406.787 625.483C406.574 625.855 406.663 626.032 406.787 626.138C407.371 626.953 410.505 626.971 412.824 626.634C411.31 625.807 409.651 625.278 407.937 625.076Z" fill="#1D4771"/>
<path d="M413.691 627.148H413.567C412.062 626.475 409.087 623.784 409.318 622.367C409.318 622.031 409.601 621.624 410.415 621.553C410.706 621.519 411.001 621.545 411.282 621.63C411.562 621.716 411.822 621.858 412.044 622.049C413.179 623.405 413.86 625.083 413.992 626.847C413.991 626.897 413.98 626.947 413.959 626.993C413.937 627.039 413.906 627.079 413.868 627.112C413.813 627.14 413.752 627.152 413.691 627.148ZM410.646 622.102H410.468C409.937 622.102 409.902 622.35 409.902 622.42C409.76 623.27 411.779 625.395 413.319 626.315C413.184 624.895 412.608 623.551 411.672 622.473C411.382 622.226 411.01 622.093 410.628 622.102H410.646Z" fill="#1D4771"/>
<path d="M427.358 626.864H414.912L413.672 598.023H426.119L427.358 626.864Z" fill="#FF8B7B"/>
<path d="M518.77 621.092L506.606 623.73L494.372 596.872L506.553 594.234L518.77 621.092Z" fill="#FF8B7B"/>
<path d="M505.421 622.509L519.107 619.552C519.346 619.501 519.595 619.533 519.814 619.643C520.033 619.752 520.208 619.932 520.311 620.154L525.055 630.458C525.182 630.708 525.247 630.984 525.246 631.263C525.246 631.543 525.178 631.819 525.051 632.067C524.923 632.316 524.738 632.531 524.511 632.694C524.284 632.858 524.022 632.965 523.745 633.008C518.965 633.946 516.575 634.176 510.573 635.469C506.872 636.283 498.516 638.319 493.399 639.417C488.282 640.515 486.529 635.611 488.53 634.708C497.471 630.618 501.189 627.024 503.615 623.677C504.053 623.08 504.696 622.664 505.421 622.509Z" fill="#263238"/>
<path d="M415 625.413H428.598C428.845 625.414 429.084 625.499 429.277 625.653C429.469 625.808 429.605 626.022 429.66 626.263L432.121 637.328C432.193 637.596 432.202 637.876 432.146 638.148C432.09 638.419 431.971 638.673 431.799 638.89C431.627 639.107 431.406 639.281 431.154 639.397C430.903 639.513 430.628 639.569 430.351 639.559C425.446 639.471 418.364 639.187 412.203 639.187C404.979 639.187 398.765 639.577 390.302 639.577C385.185 639.577 383.769 634.407 385.911 633.929C395.649 631.804 403.616 631.574 412.026 626.387C412.909 625.795 413.938 625.458 415 625.413Z" fill="#263238"/>
<path d="M465.336 201.837C477.004 204.51 486.582 234.308 486.582 234.308L463.265 252.137C457.212 245.666 452.942 237.735 450.871 229.121C446.746 213.505 453.403 199.075 465.336 201.837Z" fill="#1D4771"/>
<path opacity="0.4" d="M465.336 201.837C477.004 204.51 486.582 234.308 486.582 234.308L463.265 252.137C457.212 245.666 452.942 237.735 450.871 229.121C446.746 213.505 453.403 199.075 465.336 201.837Z" fill="black"/>
<path d="M403.953 237.371C401.049 240.505 398.145 243.302 395.1 246.223C393.595 247.64 392.073 249.056 390.515 250.419L388.16 252.491L387.576 253.004L386.566 253.819C385.528 254.649 384.377 255.328 383.149 255.837C381.783 256.417 380.314 256.718 378.829 256.722C377.561 256.728 376.301 256.506 375.111 256.067C373.791 255.565 372.587 254.8 371.57 253.819C370.273 252.551 369.322 250.972 368.808 249.233C368.539 248.376 368.367 247.491 368.295 246.595C368.202 245.547 368.202 244.492 368.295 243.444C368.383 242.594 368.489 241.85 368.631 241.16C369.116 238.746 369.803 236.377 370.685 234.078C371.481 231.893 372.398 229.753 373.429 227.668C374.562 225.42 375.642 223.773 376.722 221.897C381.109 214.711 386.115 207.921 391.683 201.607C397.195 195.329 403.27 189.569 409.831 184.397L416.346 191.108C411.778 197.234 407.281 203.802 403.121 210.264C398.98 216.69 395.197 223.34 391.789 230.183C391.028 231.847 390.019 233.724 389.541 235.069C388.907 236.632 388.358 238.228 387.894 239.85C387.448 241.31 387.111 242.801 386.885 244.311C386.873 244.547 386.873 244.783 386.885 245.019C386.885 245.161 386.885 245.232 386.885 244.86C386.856 244.463 386.779 244.07 386.655 243.692C386.272 242.436 385.571 241.302 384.619 240.398C383.772 239.62 382.779 239.019 381.697 238.628C380.747 238.268 379.739 238.082 378.723 238.079C377.745 238.067 376.776 238.254 375.872 238.628C375.567 238.753 375.271 238.901 374.987 239.071L375.66 238.451L377.802 236.503L382.034 232.537C384.831 229.899 387.646 227.084 390.302 224.464L403.953 237.371Z" fill="#FF8B7B"/>
<path opacity="0.2" d="M455.332 223.721C461.67 229.989 463.742 241.426 464.185 251.341L463.158 252.138C457.105 245.667 452.835 237.736 450.764 229.121C450.534 228.2 450.322 227.351 450.162 226.341L455.332 223.721Z" fill="black"/>
<path d="M391.578 214.231C389.028 227.687 387.435 255.324 394.818 310.033H461.495C461.955 299.817 455.528 249.924 465.39 201.749C458.022 200.334 450.57 199.394 443.082 198.934C433.647 198.393 424.188 198.393 414.753 198.934C411.637 199.217 408.557 199.678 405.901 200.156C402.369 200.775 399.108 202.453 396.551 204.966C393.993 207.48 392.259 210.71 391.578 214.231Z" fill="#1D4771"/>
<path opacity="0.4" d="M391.578 214.231C389.028 227.687 387.435 255.324 394.818 310.033H461.495C461.955 299.817 455.528 249.924 465.39 201.749C458.022 200.334 450.57 199.394 443.082 198.934C433.647 198.393 424.188 198.393 414.753 198.934C411.637 199.217 408.557 199.678 405.901 200.156C402.369 200.775 399.108 202.453 396.551 204.966C393.993 207.48 392.259 210.71 391.578 214.231Z" fill="black"/>
<path opacity="0.2" d="M401.775 234.185L389.736 231.299C389.364 238.593 389.329 247.623 389.86 258.795C395.401 252.492 402.483 242.648 401.775 234.185Z" fill="black"/>
<path opacity="0.2" d="M413.672 598.023L414.31 612.895H426.774L426.137 598.023H413.672Z" fill="black"/>
<path opacity="0.2" d="M506.553 594.234L494.372 596.872L500.675 610.717L512.856 608.079L506.553 594.234Z" fill="black"/>
<path d="M445.436 157.858C442.249 169.792 440.974 176.944 433.609 181.902C422.543 189.444 408.733 180.804 408.379 168.198C407.99 156.814 413.284 139.197 426.084 136.789C428.897 136.261 431.798 136.458 434.514 137.362C437.23 138.266 439.671 139.846 441.607 141.954C443.543 144.061 444.91 146.628 445.58 149.41C446.25 152.193 446.201 155.1 445.436 157.858Z" fill="#FF8B7B"/>
<path d="M417.497 158.3C416.895 156.707 414.151 144.367 416.736 141.162C419.32 137.957 448.799 140.277 453.155 144.561C460.396 151.643 455.368 158.017 447.454 166.215C441.505 172.376 441.275 179.316 438.265 180.379C432.953 182.149 424.844 180.485 423.216 174.872C421.587 169.26 417.497 158.3 417.497 158.3Z" fill="#263238"/>
<path d="M449.579 130.521C439.168 126.095 419.639 130.999 409.087 128.45C408.953 132.373 410.243 136.213 412.72 139.259C415.197 142.306 418.692 144.352 422.561 145.022C431.314 146.69 440.207 147.514 449.118 147.483C460.697 146.951 458.431 134.292 449.579 130.521Z" fill="#263238"/>
<path d="M451.207 144.933C455.01 145.307 458.84 144.575 462.237 142.826C464.185 147.535 453.473 148.828 451.207 144.933Z" fill="#263238"/>
<path d="M423.163 158.796C422.924 161.866 421.679 164.772 419.622 167.064C416.895 170.056 414.063 168.18 413.585 164.55C413.16 161.257 414.045 155.697 417.373 154.104C420.702 152.511 423.393 155.096 423.163 158.796Z" fill="#FF8B7B"/>
<path d="M418.452 310.086C418.452 310.086 432.616 405.25 440.353 440.908C448.834 479.948 494.407 609.106 494.407 609.106L516.698 604.273C516.698 604.273 484.828 498.999 477.746 444.414C472.258 402.488 461.475 310.05 461.475 310.05L418.452 310.086Z" fill="#1D4771"/>
<path d="M489.06 601.688C488.972 601.688 493.221 609.762 493.221 609.762L518.291 604.326L516.185 596.784L489.06 601.688Z" fill="#263238"/>
<path opacity="0.3" d="M427.394 343.991C443.736 347.195 442.001 408.136 440.036 439.492C435.326 417.325 428.421 374.691 423.712 344.433C424.853 343.87 426.152 343.714 427.394 343.991Z" fill="black"/>
<path d="M394.816 310.085C394.816 310.085 393.046 403.196 394.462 441.102C395.879 480.602 409.671 609.938 409.671 609.938H430.775C430.775 609.938 431.537 482.904 432.546 444.112C433.573 401.833 438.672 310.014 438.672 310.014L394.816 310.085Z" fill="#1D4771"/>
<path d="M405.617 601.617C405.511 601.617 406.803 610.363 406.803 610.363H432.458L433.166 602.555L405.617 601.617Z" fill="#263238"/>
<path d="M417.675 218.373C423.642 234.467 388.568 253.429 388.568 253.429L373.377 233.954C373.377 233.954 383.593 213.735 395.986 204.634C411.301 193.409 413.125 206.122 417.675 218.373Z" fill="#1D4771"/>
<path opacity="0.4" d="M417.675 218.373C423.642 234.467 388.568 253.429 388.568 253.429L373.377 233.954C373.377 233.954 383.593 213.735 395.986 204.634C411.301 193.409 413.125 206.122 417.675 218.373Z" fill="black"/>
<path d="M555.099 96.1917C590.388 96.1917 618.996 77.96 618.996 55.4701C618.996 32.9802 590.388 14.7485 555.099 14.7485C519.809 14.7485 491.201 32.9802 491.201 55.4701C491.201 77.96 519.809 96.1917 555.099 96.1917Z" fill="#1D4771"/>
<path d="M532.047 75.9723C527.838 75.9587 523.768 74.4621 520.553 71.7454C517.337 69.0287 515.182 65.2657 514.466 61.1177C513.762 56.6247 514.775 52.0312 517.305 48.2516C519.834 44.472 523.695 41.7836 528.117 40.7215C531.746 39.8853 535.545 40.2076 538.982 41.6431C542.418 43.0786 545.318 45.555 547.274 48.7242L588.296 40.2612C589.873 39.9159 591.521 40.1781 592.913 40.9954C594.305 41.8126 595.337 43.1248 595.803 44.6698C596.018 45.4821 596.065 46.3296 595.941 47.1605C595.817 47.9915 595.524 48.7885 595.082 49.5027C594.64 50.2169 594.056 50.8334 593.367 51.3145C592.678 51.7956 591.899 52.1311 591.076 52.3006L590.014 52.5131C589.856 52.5414 589.707 52.6056 589.578 52.7008C589.449 52.796 589.344 52.9196 589.27 53.062C589.204 53.2066 589.171 53.3635 589.171 53.5223C589.171 53.6811 589.204 53.838 589.27 53.9826L589.996 55.8594C590.239 56.4677 590.263 57.1418 590.062 57.7655C589.862 58.3892 589.45 58.9236 588.898 59.2764C588.463 59.5453 588.095 59.9099 587.822 60.3425C587.549 60.7751 587.378 61.2643 587.322 61.7728C587.27 62.3565 587.035 62.9088 586.65 63.3507C586.266 63.7927 585.751 64.1018 585.18 64.2338L584.348 64.4109C583.771 64.5175 583.175 64.4377 582.647 64.183C582.119 63.9283 581.685 63.5121 581.409 62.9945C581.041 62.377 580.49 61.8895 579.833 61.6C579.175 61.3106 578.443 61.2336 577.74 61.3797C577.036 61.5259 576.396 61.888 575.908 62.4155C575.42 62.9429 575.108 63.6096 575.017 64.3224C574.968 64.9023 574.736 65.4515 574.354 65.8907C573.972 66.3299 573.46 66.6363 572.893 66.7657L572.061 66.9427C571.484 67.0465 570.889 66.9654 570.361 66.711C569.834 66.4567 569.4 66.042 569.122 65.5263C568.856 65.0872 568.499 64.7109 568.074 64.4236C567.649 64.1362 567.167 63.9446 566.661 63.862C565.98 63.7801 565.352 63.4525 564.896 62.9407C564.439 62.4289 564.186 61.7681 564.182 61.0823V59.064C564.175 58.9061 564.134 58.7516 564.061 58.6111C563.989 58.4706 563.887 58.3473 563.762 58.2498C563.638 58.1523 563.494 58.0829 563.34 58.0461C563.187 58.0094 563.027 58.0063 562.872 58.0371L549.788 60.7282C549.254 64.3531 547.617 67.7255 545.098 70.3866C542.579 73.0477 539.302 74.8682 535.712 75.6005C534.506 75.8471 533.278 75.9716 532.047 75.9723ZM528.506 42.3327C524.491 43.2707 520.979 45.6954 518.68 49.1186C516.38 52.5417 515.463 56.709 516.113 60.7814C516.809 64.57 518.838 67.9844 521.833 70.4068C524.828 72.8292 528.592 74.0997 532.442 73.9884C536.293 73.8772 539.976 72.3916 542.826 69.8003C545.677 67.209 547.505 63.6832 547.982 59.8607V59.2233L562.411 56.302C562.825 56.2018 563.256 56.1951 563.673 56.2824C564.09 56.3696 564.482 56.5485 564.821 56.8062C565.16 57.0639 565.438 57.3939 565.633 57.7721C565.829 58.1504 565.938 58.5675 565.952 58.9931V61.0115C565.956 61.2518 566.043 61.4834 566.198 61.6673C566.353 61.8511 566.566 61.9759 566.802 62.0207C567.576 62.1316 568.315 62.4172 568.962 62.8558C569.609 63.2945 570.148 63.8747 570.538 64.5525C570.632 64.7436 570.783 64.9008 570.97 65.0023C571.157 65.1038 571.371 65.1446 571.583 65.1191L572.397 64.942C572.604 64.8889 572.787 64.7707 572.921 64.6048C573.055 64.439 573.132 64.2344 573.141 64.0214C573.252 62.9192 573.711 61.8811 574.452 61.057C575.192 60.2329 576.175 59.6655 577.259 59.4369C578.343 59.2083 579.472 59.3303 580.482 59.7852C581.492 60.2401 582.331 61.0044 582.878 61.9676C582.969 62.1572 583.117 62.3138 583.301 62.4153C583.485 62.5169 583.697 62.5585 583.905 62.5341L584.755 62.3571C584.958 62.3008 585.138 62.1811 585.269 62.0156C585.399 61.85 585.474 61.6471 585.481 61.4364C585.569 60.6591 585.833 59.912 586.253 59.2523C586.674 58.5926 587.239 58.0377 587.907 57.6299C588.102 57.4891 588.244 57.2873 588.312 57.0564C588.379 56.8254 588.367 56.5786 588.278 56.3551L587.553 54.4784C587.402 54.0914 587.339 53.6764 587.366 53.2623C587.393 52.8482 587.51 52.445 587.709 52.0808C587.907 51.7166 588.184 51.4002 588.517 51.1538C588.851 50.9073 589.235 50.7368 589.642 50.6541L590.722 50.4239C591.306 50.2993 591.86 50.058 592.349 49.7146C592.838 49.3712 593.253 48.9326 593.568 48.4252C593.884 47.9178 594.094 47.3519 594.186 46.7614C594.278 46.1708 594.25 45.5679 594.103 44.9885C593.758 43.8742 593.004 42.9319 591.992 42.3507C590.981 41.7694 589.787 41.5922 588.65 41.8547L546.477 50.6187L546.158 50.0698C544.464 47.0533 541.833 44.6704 538.665 43.2809C535.496 41.8915 531.962 41.5711 528.595 42.3681L528.506 42.3327ZM532.047 69.386C529.848 69.4105 527.689 68.7954 525.833 67.6155C523.637 66.1741 522.01 64.0159 521.227 61.5087C520.445 59.0016 520.557 56.3007 521.543 53.8666C522.529 51.4325 524.329 49.4157 526.636 48.1602C528.943 46.9047 531.614 46.4881 534.193 46.9815C536.773 47.4749 539.101 48.8477 540.782 50.8659C542.463 52.8841 543.392 55.4228 543.41 58.049C543.428 60.6753 542.535 63.2267 540.883 65.2682C539.231 67.3097 536.921 68.7149 534.349 69.2444C533.596 69.3807 532.83 69.4401 532.065 69.4214L532.047 69.386ZM532.047 48.4763C531.388 48.4801 530.73 48.5453 530.082 48.6711C528.849 48.9338 527.679 49.4369 526.64 50.1517C525.601 50.8664 524.713 51.7788 524.026 52.8368C523.34 53.8947 522.869 55.0775 522.639 56.3176C522.41 57.5577 522.427 58.8309 522.69 60.0643C522.953 61.2977 523.456 62.4674 524.171 63.5064C524.885 64.5454 525.798 65.4334 526.856 66.1198C527.914 66.8062 529.097 67.2775 530.337 67.5068C531.577 67.7361 532.85 67.7189 534.083 67.4561C535.935 67.0707 537.631 66.1457 538.958 64.7977C540.285 63.4497 541.182 61.7391 541.538 59.8816C541.894 58.024 541.692 56.1027 540.958 54.3597C540.224 52.6168 538.99 51.1302 537.412 50.0875C535.844 49.0451 534.001 48.4962 532.118 48.5118L532.047 48.4763Z" fill="white"/>
<path opacity="0.6" d="M503.1 120.076C514.697 120.076 524.098 114.083 524.098 106.69C524.098 99.2982 514.697 93.3055 503.1 93.3055C491.503 93.3055 482.102 99.2982 482.102 106.69C482.102 114.083 491.503 120.076 503.1 120.076Z" fill="#1D4771"/>
<path opacity="0.3" d="M469.69 125.564C474.452 125.564 478.313 123.107 478.313 120.076C478.313 117.044 474.452 114.587 469.69 114.587C464.928 114.587 461.068 117.044 461.068 120.076C461.068 123.107 464.928 125.564 469.69 125.564Z" fill="#1D4771"/>
</svg>
