<svg width="640" height="606" viewBox="0 0 640 606" fill="none" xmlns="http://www.w3.org/2000/svg">
<path d="M695.022 522.187H-102.454V522.586H695.022V522.187Z" fill="#EBEBEB"/>
<path d="M615.114 547.85H580.536V548.249H615.114V547.85Z" fill="#EBEBEB"/>
<path d="M447.278 539.588H392.874V539.987H447.278V539.588Z" fill="#EBEBEB"/>
<path d="M601.111 533.049H530.088V533.447H601.111V533.049Z" fill="#EBEBEB"/>
<path d="M173.504 541.087H155.737V541.486H173.504V541.087Z" fill="#EBEBEB"/>
<path d="M141.525 541.087H80.2953V541.486H141.525V541.087Z" fill="#EBEBEB"/>
<path d="M47.4871 534.356H3.30688V534.755H47.4871V534.356Z" fill="#EBEBEB"/>
<path d="M275.549 451.052H-32.42C-34.8326 451.048 -37.145 450.087 -38.8494 448.379C-40.5539 446.672 -41.5112 444.358 -41.5112 441.945V9.02743C-41.4902 6.62866 -40.5236 4.33504 -38.8214 2.64478C-37.1192 0.954512 -34.8189 0.00410921 -32.42 0H275.549C277.965 0 280.281 0.959503 281.989 2.66743C283.697 4.37536 284.656 6.6918 284.656 9.10717V441.945C284.656 444.361 283.697 446.677 281.989 448.385C280.281 450.093 277.965 451.052 275.549 451.052ZM-32.42 0.318992C-34.7269 0.323217 -36.9378 1.24257 -38.5675 2.87526C-40.1972 4.50795 -41.1125 6.72057 -41.1125 9.02743V441.945C-41.1125 444.252 -40.1972 446.465 -38.5675 448.097C-36.9378 449.73 -34.7269 450.649 -32.42 450.654H275.549C277.858 450.649 280.07 449.73 281.702 448.098C283.335 446.466 284.253 444.253 284.258 441.945V9.02743C284.253 6.7191 283.335 4.50652 281.702 2.87429C280.07 1.24205 277.858 0.323208 275.549 0.318992H-32.42Z" fill="#EBEBEB"/>
<path d="M620.553 451.052H312.568C310.154 451.048 307.84 450.087 306.133 448.38C304.426 446.673 303.465 444.359 303.461 441.945V9.02743C303.486 6.6272 304.456 4.33361 306.161 2.64378C307.866 0.953954 310.168 0.0040644 312.568 0H620.553C622.949 0.00830092 625.246 0.960558 626.944 2.65038C628.643 4.34019 629.608 6.63141 629.629 9.02743V441.945C629.629 444.355 628.673 446.667 626.972 448.374C625.271 450.081 622.963 451.044 620.553 451.052ZM312.568 0.318992C310.26 0.323208 308.047 1.24205 306.415 2.87429C304.783 4.50652 303.864 6.7191 303.86 9.02743V441.945C303.864 444.253 304.783 446.466 306.415 448.098C308.047 449.73 310.26 450.649 312.568 450.654H620.553C622.862 450.649 625.074 449.73 626.706 448.098C628.339 446.466 629.257 444.253 629.262 441.945V9.02743C629.257 6.7191 628.339 4.50652 626.706 2.87429C625.074 1.24205 622.862 0.323208 620.553 0.318992H312.568Z" fill="#EBEBEB"/>
<path d="M80.9656 190.804C89.8107 190.804 98.2935 187.29 104.548 181.036C110.802 174.781 114.316 166.299 114.316 157.454C114.316 148.608 110.802 140.126 104.548 133.871C98.2935 127.617 89.8107 124.103 80.9656 124.103H76.8666V190.804H80.9656Z" fill="#E0E0E0"/>
<path d="M76.8343 190.804C95.2533 190.804 110.185 175.872 110.185 157.454C110.185 139.035 95.2533 124.103 76.8343 124.103C58.4154 124.103 43.4839 139.035 43.4839 157.454C43.4839 175.872 58.4154 190.804 76.8343 190.804Z" fill="#F5F5F5"/>
<path d="M75.3032 161.633C63.459 161.633 52.0999 156.928 43.7247 148.552C35.3496 140.177 30.6445 128.818 30.6445 116.974V90.3223C30.6445 89.2098 31.0865 88.1429 31.8731 87.3562C32.6598 86.5696 33.7268 86.1276 34.8393 86.1276C35.9518 86.1276 37.0187 86.5696 37.8054 87.3562C38.592 88.1429 39.034 89.2098 39.034 90.3223V116.99C39.0424 126.604 42.8642 135.822 49.6607 142.621C56.4572 149.421 65.6734 153.246 75.2872 153.259C75.8588 153.224 76.4315 153.306 76.9701 153.5C77.5087 153.695 78.0018 153.997 78.419 154.39C78.8362 154.782 79.1687 155.255 79.396 155.781C79.6232 156.307 79.7405 156.873 79.7405 157.446C79.7405 158.019 79.6232 158.585 79.396 159.111C79.1687 159.636 78.8362 160.11 78.419 160.502C78.0018 160.894 77.5087 161.197 76.9701 161.391C76.4315 161.586 75.8588 161.668 75.2872 161.633H75.3032Z" fill="#E0E0E0"/>
<path d="M-2.24351 113.8H71.9536C73.1402 113.8 74.3111 113.528 75.3759 113.004C76.4407 112.48 77.371 111.719 78.0952 110.779C78.8195 109.839 79.3182 108.746 79.5531 107.583C79.788 106.419 79.7527 105.218 79.4499 104.071L72.9904 79.7475C72.5543 78.0952 71.5845 76.6332 70.2317 75.5891C68.8789 74.5449 67.2189 73.977 65.51 73.9738H4.2001C2.48914 73.9762 0.826848 74.5435 -0.528655 75.5875C-1.88416 76.6315 -2.85703 78.0939 -3.29618 79.7475L-9.67599 104.039C-9.98651 105.183 -10.0298 106.384 -9.80243 107.547C-9.57509 108.711 -9.08323 109.807 -8.36486 110.751C-7.6465 111.694 -6.72085 112.46 -5.65945 112.988C-4.59804 113.517 -3.4293 113.795 -2.24351 113.8Z" fill="#F5F5F5"/>
<path d="M551.923 190.804C560.768 190.804 569.251 187.29 575.505 181.036C581.76 174.781 585.273 166.299 585.273 157.454C585.273 148.608 581.76 140.126 575.505 133.871C569.251 127.617 560.768 124.103 551.923 124.103H547.824V190.804H551.923Z" fill="#E0E0E0"/>
<path d="M547.824 190.804C566.243 190.804 581.174 175.872 581.174 157.454C581.174 139.035 566.243 124.103 547.824 124.103C529.405 124.103 514.473 139.035 514.473 157.454C514.473 175.872 529.405 190.804 547.824 190.804Z" fill="#F5F5F5"/>
<path d="M546.292 161.633C534.448 161.633 523.089 156.928 514.714 148.552C506.339 140.177 501.634 128.818 501.634 116.974V90.3223C501.634 89.2098 502.076 88.1429 502.862 87.3562C503.649 86.5696 504.716 86.1276 505.829 86.1276C506.941 86.1276 508.008 86.5696 508.795 87.3562C509.581 88.1429 510.023 89.2098 510.023 90.3223V116.99C510.032 126.604 513.853 135.822 520.65 142.621C527.446 149.421 536.663 153.246 546.276 153.259C546.848 153.224 547.421 153.306 547.959 153.5C548.498 153.695 548.991 153.997 549.408 154.39C549.825 154.782 550.158 155.255 550.385 155.781C550.613 156.307 550.73 156.873 550.73 157.446C550.73 158.019 550.613 158.585 550.385 159.111C550.158 159.636 549.825 160.11 549.408 160.502C548.991 160.894 548.498 161.197 547.959 161.391C547.421 161.586 546.848 161.668 546.276 161.633H546.292Z" fill="#E0E0E0"/>
<path d="M468.746 113.8H542.943C544.129 113.8 545.3 113.528 546.365 113.004C547.43 112.481 548.36 111.719 549.084 110.779C549.809 109.839 550.307 108.746 550.542 107.583C550.777 106.42 550.742 105.218 550.439 104.071L544.059 79.7796C543.623 78.1272 542.653 76.6653 541.301 75.6211C539.948 74.5769 538.288 74.0091 536.579 74.0059H475.189C473.478 74.0083 471.816 74.5755 470.46 75.6196C469.105 76.6636 468.132 78.1259 467.693 79.7796L461.313 104.071C461.008 105.213 460.97 106.41 461.2 107.57C461.43 108.729 461.922 109.821 462.64 110.76C463.358 111.7 464.281 112.462 465.34 112.989C466.398 113.516 467.563 113.794 468.746 113.8Z" fill="#F5F5F5"/>
<path d="M111.237 416.059H135.496V322.069H111.237L111.237 416.059Z" fill="#E6E6E6"/>
<path d="M45.4775 416.043H125.975L138.128 306.039H57.6311L45.4775 416.043Z" fill="#F0F0F0"/>
<path d="M36.7528 416.043H119.914L132.067 306.039H48.9223L36.7528 416.043Z" fill="#F5F5F5"/>
<path d="M113.901 407.383L124.141 314.716H54.92L44.6804 407.383H113.901Z" fill="white"/>
<path d="M99.61 384.91L100.104 381.194C102.672 357.939 88.1582 337.221 69.3059 337.221L68.8752 341.001C66.3074 364.239 80.8214 384.958 99.6897 384.958L99.61 384.91Z" fill="#F5F5F5"/>
<path d="M-8.20818 522.187H63.3094L63.3094 416.043H-8.20818L-8.20818 522.187Z" fill="#E6E6E6"/>
<path d="M192.229 522.187H263.747V416.043H192.229V522.187Z" fill="#E6E6E6"/>
<path d="M-8.22473 509.635H198.497V416.059H-8.22473V509.635Z" fill="#F0F0F0"/>
<path d="M191.304 522.187H198.497V501.724H183.76L191.304 522.187Z" fill="#F0F0F0"/>
<path d="M-2.64162 459.665H192.915V421.897H-2.64162V459.665Z" fill="#E6E6E6"/>
<path d="M82.0976 446.586H108.175C113.782 446.589 119.33 445.447 124.48 443.231C129.631 441.015 134.275 437.772 138.128 433.699H52.1444C55.9997 437.77 60.6441 441.011 65.794 443.227C70.9439 445.443 76.4913 446.586 82.0976 446.586Z" fill="#F0F0F0"/>
<path d="M-2.64162 503.526H192.915V465.758H-2.64162V503.526Z" fill="#E6E6E6"/>
<path d="M82.0976 490.384H108.175C113.782 490.386 119.33 489.244 124.48 487.028C129.631 484.813 134.275 481.569 138.128 477.497H52.1444C55.9997 481.567 60.6441 484.809 65.794 487.025C70.9439 489.24 76.4913 490.383 82.0976 490.384Z" fill="#F0F0F0"/>
<path d="M185.403 411.721H187.253C187.253 407.909 187.253 398.26 187.445 376.138C187.78 336.025 188.418 333.584 188.418 333.584L184.016 352.102C181.224 372.597 184.829 393.204 185.403 411.721Z" fill="#E6E6E6"/>
<path d="M181.75 349.294C175.371 341.75 161.893 339.549 148.049 337.667C142.61 336.934 162.324 349.358 171.973 358.178C179.47 365.037 184.254 366.935 186.328 373.761C187.38 365.244 187.205 355.85 181.75 349.294Z" fill="#E6E6E6"/>
<path d="M190.156 362.82C196.536 355.276 210.013 353.09 223.857 351.208C229.296 350.475 209.502 362.899 199.933 371.719C192.436 378.578 187.652 380.476 185.578 387.302C184.526 378.785 184.637 369.327 190.156 362.82Z" fill="#E6E6E6"/>
<path d="M187.444 331.75C192.229 322.722 204.128 314.205 217.541 311.015C222.804 309.755 205.34 327.667 198.705 339.23C193.553 348.194 186.727 358.752 185.658 366.344C184.063 351.384 182.691 340.825 187.444 331.75Z" fill="#E6E6E6"/>
<path d="M186.87 416.043C181.224 416.043 176.551 413.22 176.216 409.583L175.275 403.395H198.481L197.524 409.583C197.205 413.22 192.612 416.043 186.87 416.043Z" fill="#F0F0F0"/>
<path d="M199.98 405.772H173.775L173.026 398.865H200.73L199.98 405.772Z" fill="#F0F0F0"/>
<path d="M167.954 273.885L423.481 273.885L423.481 40.8149L167.954 40.8149L167.954 273.885Z" fill="#E6E6E6"/>
<path d="M162.212 273.885L420.977 273.885L420.977 40.8149L162.212 40.8149L162.212 273.885Z" fill="#F5F5F5"/>
<path d="M410.642 263.454V51.2618L172.515 51.2618V263.454H410.642Z" fill="#FAFAFA"/>
<path d="M381.439 263.454L287.719 51.2618H255.884L349.603 263.454H381.439Z" fill="white"/>
<path d="M340.575 263.454L246.856 51.2618H224.941L318.661 263.454H340.575Z" fill="white"/>
<path d="M260.94 263.438V51.2458H248.627V263.438H260.94Z" fill="#E6E6E6"/>
<path d="M342.793 263.438V51.2458H330.48V263.438H342.793Z" fill="#E6E6E6"/>
<path d="M258.723 270.073V43.4944H243.156V270.073H258.723Z" fill="#F5F5F5"/>
<path d="M340.576 270.073V43.4944H325.009V270.073H340.576Z" fill="#F5F5F5"/>
<path d="M173.633 263.454V51.2618H172.532V263.454H173.633Z" fill="#E6E6E6"/>
<path d="M157.874 27.3853H434.694C435.048 27.3894 435.387 27.5319 435.637 27.7822C435.887 28.0326 436.03 28.371 436.034 28.725C436.03 29.0776 435.887 29.4143 435.636 29.6621C435.385 29.9099 435.047 30.0488 434.694 30.0488H157.874C157.522 30.0488 157.183 29.9099 156.933 29.6621C156.682 29.4143 156.539 29.0776 156.535 28.725C156.539 28.371 156.681 28.0326 156.932 27.7822C157.182 27.5319 157.52 27.3894 157.874 27.3853Z" fill="#E6E6E6"/>
<path d="M423.481 36.1734C423.956 36.1692 424.41 35.9775 424.745 35.6399C425.079 35.3024 425.267 34.8464 425.267 34.3711V30.5113C425.269 30.2754 425.225 30.0414 425.136 29.8228C425.047 29.6043 424.916 29.4054 424.75 29.2379C424.583 29.0703 424.386 28.9373 424.168 28.8465C423.95 28.7558 423.717 28.709 423.481 28.709C423.006 28.709 422.55 28.8967 422.212 29.2313C421.874 29.5658 421.683 30.0202 421.678 30.4954V34.3552C421.678 34.8347 421.868 35.2947 422.205 35.6353C422.543 35.9758 423.001 36.1692 423.481 36.1734Z" fill="#E6E6E6"/>
<path d="M177.938 36.1734C178.415 36.1693 178.871 35.978 179.208 35.6409C179.545 35.3038 179.737 34.8478 179.741 34.3711V30.5113C179.741 30.0333 179.551 29.5749 179.213 29.2369C178.875 28.8989 178.416 28.709 177.938 28.709C177.465 28.709 177.01 28.8973 176.675 29.2323C176.34 29.5673 176.152 30.0216 176.152 30.4954V34.3552C176.15 34.5919 176.194 34.8266 176.283 35.0461C176.372 35.2656 176.503 35.4654 176.669 35.6343C176.835 35.8031 177.032 35.9376 177.25 36.0301C177.468 36.1227 177.702 36.1713 177.938 36.1734Z" fill="#E6E6E6"/>
<path opacity="0.6" d="M158.289 211.236L416.878 211.236V28.7093L158.289 28.7093V211.236Z" fill="#E0E0E0"/>
<path d="M440.292 326.917H395.697C390.958 326.917 387.116 330.759 387.116 335.498V356.137C387.116 360.876 390.958 364.718 395.697 364.718H440.292C445.031 364.718 448.873 360.876 448.873 356.137V335.498C448.873 330.759 445.031 326.917 440.292 326.917Z" fill="#FAFAFA"/>
<path d="M445.986 319.932H390.003C388.409 319.932 387.116 321.224 387.116 322.818V325.147C387.116 326.741 388.409 328.034 390.003 328.034H445.986C447.58 328.034 448.873 326.741 448.873 325.147V322.818C448.873 321.224 447.58 319.932 445.986 319.932Z" fill="#E6E6E6"/>
<path d="M388.025 406.713C388.025 406.713 388.839 433.3 419.813 433.3C450.787 433.3 451.6 406.713 451.6 406.713H388.025Z" fill="#F0F0F0"/>
<path d="M458.65 406.713C458.65 406.713 459.464 433.3 490.438 433.3C521.412 433.3 522.225 406.713 522.225 406.713H458.65Z" fill="#F0F0F0"/>
<path d="M506.882 309.803H445.635C439.117 309.803 433.833 315.088 433.833 321.606V352.931C433.833 359.449 439.117 364.734 445.635 364.734H506.882C513.4 364.734 518.684 359.449 518.684 352.931V321.606C518.684 315.088 513.4 309.803 506.882 309.803Z" fill="#F0F0F0"/>
<path d="M514.729 300.202H437.788C435.604 300.202 433.833 301.973 433.833 304.157V307.379C433.833 309.564 435.604 311.335 437.788 311.335H514.729C516.913 311.335 518.684 309.564 518.684 307.379V304.157C518.684 301.973 516.913 300.202 514.729 300.202Z" fill="#F5F5F5"/>
<path d="M364.691 522.187H372.73V390.38H364.691V522.187Z" fill="#E6E6E6"/>
<path d="M596.804 364.718H553.278V390.364H596.804V364.718Z" fill="#E6E6E6"/>
<path d="M336.859 390.38H553.262V364.733H336.859V390.38Z" fill="#F5F5F5"/>
<path d="M596.804 433.221H553.278V458.867H596.804V433.221Z" fill="#E6E6E6"/>
<path d="M336.859 458.868H553.262V433.221H336.859V458.868Z" fill="#F5F5F5"/>
<path d="M581.095 522.187H589.133V390.38H581.095V522.187Z" fill="#E6E6E6"/>
<path d="M545.24 522.187H553.278V390.38H545.24V522.187Z" fill="#F5F5F5"/>
<path d="M336.859 522.187H344.897V390.38H336.859V522.187Z" fill="#F5F5F5"/>
<path d="M320.284 605.892C497.306 605.892 640.81 597.514 640.81 587.179C640.81 576.843 497.306 568.465 320.284 568.465C143.262 568.465 -0.242554 576.843 -0.242554 587.179C-0.242554 597.514 143.262 605.892 320.284 605.892Z" fill="#F5F5F5"/>
<path d="M337.493 503.298H126.602C123.211 503.25 119.963 501.922 117.511 499.579C115.058 497.237 113.581 494.054 113.377 490.668L94.4655 124.416C94.3607 122.787 94.5935 121.154 95.1493 119.619C95.7052 118.084 96.5722 116.681 97.6958 115.496C98.8195 114.312 100.176 113.373 101.679 112.737C103.183 112.102 104.802 111.784 106.434 111.803H317.325C320.714 111.847 323.962 113.172 326.415 115.512C328.868 117.851 330.345 121.032 330.55 124.416L349.429 490.668C349.533 492.296 349.301 493.927 348.748 495.46C348.194 496.994 347.33 498.397 346.21 499.582C345.09 500.767 343.738 501.708 342.239 502.348C340.739 502.987 339.123 503.311 337.493 503.298Z" fill="#1D4771"/>
<path opacity="0.8" d="M337.493 503.298H126.602C123.211 503.25 119.963 501.922 117.511 499.579C115.058 497.237 113.581 494.054 113.377 490.668L94.4655 124.416C94.3607 122.787 94.5935 121.154 95.1493 119.619C95.7052 118.084 96.5722 116.681 97.6958 115.496C98.8195 114.312 100.176 113.373 101.679 112.737C103.183 112.102 104.802 111.784 106.434 111.803H317.325C320.714 111.847 323.962 113.172 326.415 115.512C328.868 117.851 330.345 121.032 330.55 124.416L349.429 490.668C349.533 492.296 349.301 493.927 348.748 495.46C348.194 496.994 347.33 498.397 346.21 499.582C345.09 500.767 343.738 501.708 342.239 502.348C340.739 502.987 339.123 503.311 337.493 503.298Z" fill="white"/>
<path d="M296.512 99.8674H273.186V101.521H296.512V99.8674Z" fill="#1D4771"/>
<path d="M265.102 99.8674H256.555V101.521H265.102V99.8674Z" fill="#1D4771"/>
<path d="M346.569 480.055H144.886C141.638 480.024 138.523 478.763 136.167 476.527C133.812 474.291 132.391 471.246 132.19 468.004L114.138 117.705C114.037 116.146 114.26 114.583 114.793 113.114C115.325 111.645 116.155 110.302 117.23 109.169C118.306 108.036 119.604 107.137 121.043 106.529C122.482 105.921 124.032 105.618 125.594 105.637H327.276C330.524 105.673 333.638 106.937 335.99 109.177C338.343 111.416 339.76 114.463 339.956 117.705L358.008 468.004C358.109 469.561 357.886 471.122 357.355 472.589C356.824 474.056 355.995 475.397 354.921 476.528C353.847 477.66 352.55 478.557 351.113 479.164C349.676 479.771 348.129 480.075 346.569 480.055Z" fill="#1D4771"/>
<path d="M346.569 472.005H144.886C143.703 471.964 142.577 471.49 141.72 470.673C140.864 469.857 140.337 468.754 140.241 467.574L122.172 117.291C122.131 116.825 122.19 116.356 122.343 115.914C122.497 115.473 122.743 115.069 123.065 114.729C123.387 114.39 123.778 114.124 124.211 113.947C124.644 113.77 125.11 113.687 125.578 113.704H327.26C328.44 113.749 329.562 114.224 330.415 115.041C331.268 115.857 331.793 116.958 331.889 118.135L350.04 468.417C350.08 468.882 350.021 469.349 349.868 469.789C349.714 470.229 349.469 470.632 349.149 470.97C348.829 471.309 348.441 471.576 348.011 471.754C347.58 471.933 347.117 472.018 346.651 472.005H346.569ZM125.578 114.117C125.167 114.104 124.757 114.177 124.376 114.33C123.994 114.484 123.649 114.716 123.362 115.01C123.086 115.315 122.875 115.674 122.742 116.063C122.608 116.452 122.555 116.864 122.585 117.275L140.638 467.558C140.73 468.631 141.211 469.633 141.99 470.376C142.769 471.119 143.794 471.551 144.87 471.591H346.552C346.961 471.608 347.369 471.536 347.748 471.382C348.127 471.228 348.469 470.995 348.751 470.699C349.034 470.398 349.249 470.04 349.383 469.65C349.517 469.259 349.566 468.845 349.528 468.434L331.492 118.151C331.404 117.08 330.926 116.078 330.15 115.334C329.373 114.591 328.351 114.158 327.277 114.117H125.578Z" fill="white"/>
<path opacity="0.3" d="M276.024 241.369C298.963 217.829 297.469 179.169 272.688 155.02C247.906 130.87 209.22 130.375 186.281 153.915C163.342 177.454 164.836 216.114 189.618 240.264C214.399 264.413 253.085 264.908 276.024 241.369Z" fill="white"/>
<path d="M280.609 197.65C281.071 205.774 279.437 213.881 275.864 221.191C271.996 229.032 265.991 235.621 258.542 240.198C251.092 244.775 242.502 247.155 233.759 247.062C224.698 246.981 215.813 244.555 207.969 240.022C200.124 235.488 193.586 229.001 188.992 221.191C184.71 214.049 182.247 205.966 181.817 197.65C181.41 191.273 182.323 184.88 184.499 178.872C186.676 172.863 190.069 167.369 194.467 162.733C198.864 158.096 204.172 154.417 210.057 151.926C215.941 149.435 222.277 148.185 228.667 148.255C241.967 148.393 254.72 153.566 264.358 162.732C273.995 171.897 279.802 184.374 280.609 197.65Z" fill="white"/>
<path d="M275.814 221.191C271.946 229.032 265.942 235.621 258.492 240.198C251.043 244.775 242.452 247.155 233.709 247.062C224.649 246.981 215.764 244.555 207.919 240.022C200.074 235.488 193.536 229.001 188.942 221.191C201.505 212.515 216.425 207.899 231.692 207.966C247.368 208.025 262.691 212.618 275.814 221.191Z" fill="#1D4771"/>
<path d="M246.467 196.502C254.731 188.021 254.19 174.09 245.258 165.386C236.326 156.682 222.386 156.501 214.121 164.981C205.857 173.462 206.398 187.393 215.33 196.097C224.262 204.801 238.202 204.982 246.467 196.502Z" fill="#1D4771"/>
<path d="M317.655 343.771H159.731C158.356 343.757 157.037 343.222 156.04 342.274C155.043 341.326 154.442 340.036 154.359 338.663L153.168 315.519C153.127 314.86 153.223 314.201 153.448 313.581C153.674 312.961 154.025 312.395 154.48 311.917C154.934 311.439 155.483 311.06 156.09 310.803C156.698 310.547 157.352 310.419 158.012 310.427H315.936C317.309 310.441 318.626 310.974 319.622 311.918C320.619 312.862 321.221 314.149 321.309 315.519L322.499 338.663C322.542 339.322 322.449 339.984 322.224 340.606C322 341.227 321.649 341.796 321.194 342.276C320.739 342.756 320.19 343.136 319.581 343.393C318.972 343.651 318.316 343.779 317.655 343.771Z" fill="white"/>
<path opacity="0.3" d="M269.301 297.648H203.341C201.96 297.638 200.634 297.103 199.634 296.151C198.633 295.199 198.031 293.903 197.952 292.524L197.704 287.564C197.66 286.905 197.754 286.243 197.979 285.621C198.203 285 198.554 284.431 199.009 283.951C199.464 283.471 200.013 283.091 200.622 282.834C201.231 282.576 201.886 282.448 202.547 282.456H268.491C269.867 282.47 271.186 283.005 272.183 283.953C273.179 284.901 273.78 286.191 273.864 287.564L274.128 292.524C274.169 293.182 274.074 293.842 273.85 294.462C273.626 295.083 273.276 295.651 272.824 296.131C272.372 296.611 271.826 296.994 271.22 297.255C270.614 297.516 269.961 297.65 269.301 297.648Z" fill="black"/>
<path opacity="0.3" d="M293.834 455.043H195.026C192.686 455.015 190.444 454.102 188.748 452.49C187.053 450.877 186.03 448.683 185.884 446.348L185.305 434.941C185.247 433.82 185.417 432.699 185.807 431.646C186.196 430.593 186.795 429.63 187.569 428.817C188.342 428.003 189.273 427.356 190.305 426.914C191.337 426.472 192.448 426.244 193.571 426.246H292.346C294.685 426.275 296.928 427.187 298.623 428.799C300.319 430.412 301.342 432.606 301.488 434.941L302.066 446.348C302.124 447.466 301.955 448.585 301.568 449.635C301.181 450.686 300.584 451.647 299.814 452.461C299.044 453.274 298.117 453.922 297.089 454.366C296.061 454.81 294.953 455.04 293.834 455.043Z" fill="black"/>
<path d="M320.548 399.746H162.608C161.233 399.728 159.916 399.192 158.92 398.245C157.924 397.298 157.322 396.01 157.235 394.638L156.045 371.494C156.004 370.835 156.099 370.174 156.325 369.554C156.55 368.933 156.901 368.365 157.355 367.886C157.81 367.407 158.358 367.026 158.966 366.768C159.574 366.51 160.228 366.38 160.888 366.386H318.812C320.188 366.4 321.507 366.935 322.504 367.883C323.501 368.831 324.102 370.121 324.185 371.494L325.392 394.638C325.43 395.296 325.333 395.956 325.107 396.576C324.881 397.195 324.53 397.762 324.076 398.24C323.622 398.719 323.075 399.1 322.468 399.359C321.861 399.618 321.208 399.749 320.548 399.746Z" fill="white"/>
<path d="M179.767 327.091C179.813 327.821 179.707 328.553 179.457 329.241C179.207 329.929 178.817 330.558 178.313 331.089C177.809 331.619 177.201 332.04 176.527 332.325C175.852 332.61 175.127 332.753 174.395 332.744C172.874 332.726 171.417 332.133 170.316 331.084C169.215 330.035 168.552 328.609 168.46 327.091C168.412 326.361 168.515 325.629 168.764 324.942C169.012 324.254 169.4 323.625 169.903 323.094C170.406 322.563 171.013 322.142 171.686 321.857C172.36 321.571 173.085 321.429 173.816 321.437C175.338 321.455 176.798 322.047 177.901 323.096C179.005 324.144 179.671 325.571 179.767 327.091Z" fill="#263238"/>
<path d="M197.175 327.091C197.223 327.82 197.119 328.552 196.871 329.24C196.623 329.928 196.235 330.557 195.732 331.088C195.229 331.619 194.622 332.04 193.948 332.325C193.275 332.61 192.55 332.753 191.819 332.744C190.297 332.73 188.837 332.138 187.736 331.089C186.634 330.039 185.972 328.61 185.884 327.091C185.836 326.361 185.939 325.629 186.188 324.942C186.436 324.254 186.824 323.625 187.327 323.094C187.83 322.563 188.437 322.142 189.11 321.857C189.784 321.571 190.509 321.429 191.24 321.437C192.762 321.451 194.221 322.043 195.323 323.093C196.425 324.142 197.087 325.572 197.175 327.091Z" fill="#263238"/>
<path d="M214.483 327.091C214.531 327.821 214.428 328.552 214.179 329.24C213.931 329.928 213.543 330.557 213.04 331.088C212.537 331.619 211.93 332.04 211.257 332.325C210.583 332.61 209.858 332.753 209.127 332.745C207.605 332.727 206.146 332.134 205.042 331.086C203.938 330.037 203.272 328.61 203.176 327.091C203.13 326.36 203.236 325.628 203.486 324.94C203.736 324.252 204.126 323.624 204.63 323.093C205.134 322.562 205.742 322.141 206.416 321.857C207.091 321.572 207.816 321.429 208.548 321.437C210.069 321.455 211.526 322.048 212.627 323.097C213.728 324.146 214.391 325.573 214.483 327.091Z" fill="#263238"/>
<path d="M231.924 327.091C231.969 327.82 231.864 328.551 231.615 329.237C231.366 329.924 230.978 330.552 230.475 331.083C229.973 331.613 229.367 332.034 228.694 332.32C228.022 332.606 227.298 332.75 226.568 332.744C225.045 332.727 223.586 332.134 222.482 331.086C221.379 330.037 220.712 328.61 220.616 327.091C220.571 326.362 220.676 325.631 220.925 324.944C221.174 324.257 221.562 323.629 222.065 323.099C222.567 322.569 223.173 322.147 223.846 321.862C224.518 321.576 225.242 321.431 225.972 321.437C227.495 321.455 228.954 322.047 230.058 323.096C231.161 324.144 231.828 325.571 231.924 327.091Z" fill="#263238"/>
<path d="M182.693 383.033C182.741 383.763 182.638 384.494 182.39 385.182C182.141 385.87 181.753 386.499 181.251 387.03C180.748 387.561 180.14 387.982 179.467 388.267C178.794 388.552 178.068 388.695 177.337 388.687C175.815 388.669 174.356 388.076 173.252 387.028C172.148 385.979 171.482 384.552 171.386 383.033C171.34 382.302 171.446 381.57 171.696 380.882C171.946 380.195 172.336 379.566 172.84 379.035C173.344 378.504 173.952 378.084 174.627 377.799C175.301 377.514 176.027 377.371 176.759 377.379C178.279 377.397 179.736 377.99 180.837 379.039C181.938 380.088 182.602 381.515 182.693 383.033Z" fill="#263238"/>
<path d="M200.068 383.033C200.113 383.762 200.008 384.493 199.759 385.179C199.51 385.866 199.122 386.494 198.619 387.025C198.117 387.555 197.511 387.976 196.838 388.262C196.166 388.548 195.442 388.693 194.712 388.687C193.189 388.669 191.73 388.076 190.626 387.028C189.523 385.979 188.856 384.552 188.76 383.033C188.712 382.303 188.816 381.571 189.064 380.884C189.312 380.196 189.7 379.567 190.203 379.036C190.706 378.505 191.313 378.084 191.987 377.799C192.66 377.514 193.385 377.371 194.116 377.379C195.639 377.397 197.098 377.99 198.202 379.038C199.305 380.087 199.972 381.514 200.068 383.033Z" fill="#263238"/>
<path d="M217.442 383.033C217.488 383.763 217.382 384.495 217.132 385.183C216.882 385.871 216.492 386.5 215.988 387.031C215.484 387.561 214.876 387.982 214.201 388.267C213.527 388.552 212.801 388.695 212.07 388.687C210.548 388.672 209.088 388.081 207.987 387.031C206.885 385.981 206.223 384.552 206.135 383.033C206.087 382.303 206.19 381.571 206.439 380.884C206.687 380.196 207.075 379.567 207.578 379.036C208.081 378.505 208.688 378.084 209.361 377.799C210.035 377.514 210.76 377.371 211.491 377.379C213.013 377.397 214.472 377.99 215.576 379.038C216.68 380.087 217.346 381.514 217.442 383.033Z" fill="#263238"/>
<path d="M234.8 383.033C234.848 383.763 234.745 384.494 234.496 385.182C234.248 385.87 233.86 386.499 233.357 387.03C232.854 387.561 232.247 387.982 231.574 388.267C230.9 388.552 230.175 388.695 229.444 388.687C227.922 388.669 226.463 388.076 225.359 387.028C224.255 385.979 223.589 384.552 223.493 383.033C223.447 382.302 223.553 381.57 223.803 380.882C224.053 380.195 224.443 379.566 224.947 379.035C225.451 378.504 226.059 378.084 226.734 377.799C227.408 377.514 228.133 377.371 228.865 377.379C230.387 377.393 231.847 377.985 232.948 379.035C234.05 380.085 234.712 381.514 234.8 383.033Z" fill="#263238"/>
<path d="M252.175 383.033C252.223 383.763 252.119 384.494 251.871 385.182C251.623 385.87 251.235 386.499 250.732 387.03C250.229 387.561 249.622 387.982 248.948 388.267C248.275 388.552 247.55 388.695 246.818 388.687C245.296 388.669 243.837 388.076 242.733 387.028C241.63 385.979 240.963 384.552 240.867 383.033C240.822 382.304 240.927 381.573 241.176 380.886C241.425 380.2 241.813 379.572 242.316 379.041C242.818 378.511 243.424 378.09 244.097 377.804C244.769 377.518 245.493 377.373 246.223 377.379C247.746 377.397 249.205 377.99 250.309 379.038C251.412 380.087 252.079 381.514 252.175 383.033Z" fill="#263238"/>
<path d="M269.549 383.033C269.595 383.763 269.489 384.495 269.239 385.183C268.989 385.871 268.599 386.5 268.095 387.031C267.591 387.561 266.982 387.982 266.308 388.267C265.634 388.552 264.908 388.695 264.176 388.687C262.656 388.669 261.199 388.075 260.098 387.026C258.996 385.978 258.333 384.551 258.242 383.033C258.194 382.303 258.297 381.571 258.545 380.884C258.794 380.196 259.182 379.567 259.684 379.036C260.187 378.505 260.795 378.084 261.468 377.799C262.141 377.514 262.867 377.371 263.598 377.379C265.12 377.397 266.579 377.99 267.683 379.038C268.787 380.087 269.453 381.514 269.549 383.033Z" fill="#263238"/>
<path d="M457.494 191.054C457.907 191.683 458.122 192.013 458.387 192.459L459.131 193.683C459.61 194.509 460.04 195.336 460.453 196.146C461.28 197.799 462.106 199.452 462.768 201.105C464.153 204.389 465.346 207.75 466.338 211.173C468.34 217.934 469.658 224.879 470.273 231.903L470.388 233.209C470.402 233.474 470.402 233.738 470.388 234.003V234.879C470.416 236.029 470.35 237.179 470.19 238.317C469.873 240.429 469.319 242.497 468.537 244.484C467.085 248.032 465.161 251.368 462.817 254.402C458.445 260.001 453.257 264.91 447.426 268.967L442.864 263.627C447.016 258.938 450.692 253.849 453.841 248.435C455.257 245.979 456.368 243.358 457.147 240.632C457.463 239.477 457.646 238.29 457.692 237.094C457.743 236.583 457.743 236.068 457.692 235.557V235.21C457.709 235.056 457.709 234.901 457.692 234.747L457.494 233.59C456.431 227.428 454.928 221.351 452.997 215.405C452.039 212.446 450.865 209.586 449.691 206.792C449.113 205.387 448.451 204.015 447.79 202.692L446.765 200.742L446.253 199.832L445.823 199.105L457.494 191.054Z" fill="#803E3C"/>
<path d="M442.12 269L448.104 281.646L452.849 270.95C452.849 270.95 448.633 261.693 442.93 262.552L442.12 269Z" fill="#7F3E3B"/>
<path d="M452.386 282.274L457.147 274.472L452.849 270.95L448.104 281.646L452.386 282.274Z" fill="#7F3E3B"/>
<path d="M425.473 573.92C426.711 573.889 427.941 573.723 429.143 573.425C429.204 573.406 429.258 573.372 429.302 573.325C429.346 573.279 429.376 573.222 429.391 573.16C429.401 573.096 429.392 573.031 429.366 572.972C429.339 572.914 429.296 572.864 429.242 572.829C428.763 572.515 424.564 569.804 422.943 570.532C422.764 570.615 422.61 570.745 422.497 570.908C422.383 571.07 422.315 571.26 422.299 571.457C422.249 571.756 422.272 572.063 422.367 572.351C422.462 572.639 422.626 572.9 422.844 573.11C423.594 573.689 424.528 573.977 425.473 573.92ZM428.2 572.945C425.803 573.441 423.985 573.358 423.241 572.714C423.089 572.563 422.978 572.376 422.917 572.171C422.856 571.966 422.848 571.749 422.894 571.54C422.894 571.259 423.059 571.176 423.175 571.127C424.068 570.73 426.498 571.904 428.2 572.945Z" fill="#1D4771"/>
<path d="M429.06 573.424H429.225C429.275 573.392 429.316 573.348 429.345 573.296C429.374 573.244 429.39 573.186 429.391 573.127C429.391 572.962 429.391 568.978 427.87 567.639C427.683 567.471 427.463 567.345 427.223 567.271C426.983 567.197 426.73 567.176 426.481 567.209C426.221 567.211 425.968 567.302 425.767 567.468C425.565 567.633 425.427 567.863 425.374 568.118C425.06 569.688 427.572 572.664 428.895 573.424H429.06ZM426.696 567.82C426.83 567.817 426.963 567.839 427.088 567.888C427.213 567.936 427.327 568.009 427.424 568.101C428.296 569.387 428.746 570.912 428.713 572.466C427.391 571.408 425.82 569.159 426.018 568.217C426.018 568.068 426.134 567.87 426.547 567.82H426.696Z" fill="#1D4771"/>
<path d="M409.867 567.176C409.906 567.127 409.931 567.069 409.94 567.008C409.949 566.946 409.941 566.884 409.917 566.826C409.894 566.769 409.855 566.719 409.806 566.681C409.756 566.644 409.697 566.621 409.636 566.613C408.958 566.613 403.023 566.332 401.668 567.787V567.886C401.556 568.029 401.483 568.199 401.457 568.379C401.431 568.559 401.452 568.742 401.519 568.911C401.607 569.195 401.763 569.453 401.973 569.664C402.184 569.874 402.442 570.03 402.726 570.118C404.643 570.713 408.032 568.548 409.884 567.209L409.867 567.176ZM402.164 568.217C402.908 567.424 406.181 567.209 408.627 567.242C406.065 568.994 403.932 569.821 402.858 569.49C402.671 569.433 402.5 569.331 402.362 569.193C402.223 569.054 402.121 568.884 402.064 568.696C402.031 568.633 402.014 568.562 402.014 568.49C402.014 568.418 402.031 568.347 402.064 568.283L402.164 568.217Z" fill="#1D4771"/>
<path d="M409.867 567.176C409.892 567.124 409.905 567.068 409.905 567.01C409.905 566.953 409.892 566.897 409.867 566.845C409.785 566.713 407.933 563.539 405.751 562.877C405.438 562.786 405.109 562.759 404.785 562.799C404.461 562.838 404.148 562.944 403.866 563.109C403.073 563.572 403.023 564.117 403.122 564.464C403.552 566.002 407.768 567.357 409.586 567.341C409.643 567.34 409.699 567.324 409.749 567.295C409.798 567.266 409.839 567.225 409.867 567.176ZM403.932 563.869C404.026 563.778 404.132 563.7 404.247 563.638C404.451 563.508 404.681 563.424 404.921 563.393C405.161 563.361 405.405 563.383 405.635 563.456C407.073 563.836 408.412 565.688 409.024 566.597C407.057 566.382 404.065 565.175 403.817 564.25C403.796 564.179 403.795 564.104 403.816 564.034C403.837 563.964 403.877 563.901 403.932 563.853V563.869Z" fill="#1D4771"/>
<path d="M428.068 142.634C426.415 150.9 422.844 168.77 428.581 174.259C428.581 174.259 426.332 182.524 411.074 182.524C394.278 182.524 403.056 174.259 403.056 174.259C412.215 172.076 411.983 165.265 410.38 158.884L428.068 142.634Z" fill="#7F3E3B"/>
<path d="M400.097 123.259C400.19 123.274 400.285 123.274 400.378 123.259C400.457 123.221 400.527 123.167 400.584 123.101C400.642 123.035 400.686 122.958 400.714 122.875C400.741 122.792 400.752 122.704 400.746 122.617C400.739 122.53 400.715 122.445 400.676 122.367C400.231 121.424 399.567 120.601 398.738 119.968C397.91 119.335 396.942 118.911 395.915 118.73C395.743 118.715 395.572 118.767 395.436 118.875C395.301 118.982 395.212 119.137 395.187 119.308C395.169 119.481 395.219 119.655 395.327 119.791C395.436 119.927 395.593 120.015 395.766 120.036C396.577 120.191 397.338 120.538 397.988 121.047C398.638 121.556 399.157 122.212 399.502 122.962C399.566 123.059 399.655 123.139 399.76 123.191C399.864 123.243 399.981 123.267 400.097 123.259Z" fill="#263238"/>
<path d="M395.088 130.517C393.787 132.93 392.163 135.154 390.261 137.129C390.776 137.6 391.387 137.954 392.052 138.165C392.717 138.376 393.42 138.44 394.113 138.352L395.088 130.517Z" fill="#630F0F"/>
<path d="M396.328 128.648C396.196 129.756 395.485 130.583 394.774 130.5C394.063 130.417 393.567 129.442 393.7 128.334C393.832 127.227 394.543 126.4 395.353 126.483C396.163 126.566 396.444 127.541 396.328 128.648Z" fill="#263238"/>
<path d="M395.568 126.582L393.022 125.557C393.022 125.557 394.096 127.739 395.568 126.582Z" fill="#263238"/>
<path d="M424.464 564.035L410.975 567.176L402.775 536.163L416.265 533.022L424.464 564.035Z" fill="#7F3E3B"/>
<path d="M445.162 573.094H431.325L432.399 541.04H446.253L445.162 573.094Z" fill="#7F3E3B"/>
<path d="M430.217 571.49H445.773C446.043 571.488 446.304 571.584 446.508 571.76C446.712 571.937 446.845 572.182 446.881 572.449L448.65 584.748C448.685 585.059 448.654 585.374 448.558 585.672C448.463 585.971 448.305 586.245 448.096 586.478C447.886 586.71 447.63 586.896 447.344 587.023C447.057 587.149 446.748 587.214 446.435 587.212C441.012 587.129 438.4 586.798 431.556 586.798C427.341 586.798 421.191 587.245 415.389 587.245C409.586 587.245 409.256 581.492 411.686 580.979C422.53 578.632 424.25 575.425 427.903 572.35C428.548 571.799 429.368 571.494 430.217 571.49Z" fill="#263238"/>
<path d="M409.785 565.109L423.919 558.612C424.159 558.498 424.433 558.475 424.688 558.548C424.944 558.621 425.164 558.785 425.308 559.009L432.069 569.457C432.227 569.726 432.326 570.025 432.362 570.335C432.397 570.645 432.367 570.958 432.273 571.256C432.18 571.553 432.025 571.828 431.819 572.062C431.613 572.296 431.36 572.484 431.077 572.614C426.118 574.797 423.605 575.607 417.389 578.467C413.57 580.219 405.817 584.253 400.56 586.732C395.303 589.212 392.592 584.071 394.576 582.583C403.453 575.97 405.999 571.226 408.032 566.911C408.376 566.116 409 565.475 409.785 565.109Z" fill="#263238"/>
<path opacity="0.2" d="M402.775 536.163L407.173 552.793L420.497 549.008L416.281 533.022L402.775 536.163Z" fill="black"/>
<path opacity="0.2" d="M446.253 541.04H432.399L431.854 557.571H445.707L446.253 541.04Z" fill="black"/>
<path d="M452.535 177.399C458.288 178.672 464.437 199.353 464.437 199.353L448.17 216.661C448.17 216.661 434.664 197.221 437.425 190.079C440.219 182.623 445.674 175.912 452.535 177.399Z" fill="#263238"/>
<path opacity="0.4" d="M443.343 190.575C440.434 187.913 438.466 188.707 437.127 190.823C435.805 196.973 443.641 209.85 446.798 214.727C448.253 208.908 449.923 196.642 443.343 190.575Z" fill="black"/>
<path d="M379.648 177.813C379.648 177.813 373.035 180.127 386.26 261.379H442.467C441.525 238.499 441.492 224.382 452.386 177.399C444.51 175.774 436.526 174.725 428.498 174.258C420.001 173.646 411.471 173.646 402.974 174.258C392.079 175.267 379.648 177.813 379.648 177.813Z" fill="#263238"/>
<path opacity="0.4" d="M379.135 208.991C379.499 212.942 379.979 217.389 380.607 222.414C385.219 218.265 388.988 206.462 387.6 199.584C384.304 202.259 381.449 205.433 379.135 208.991Z" fill="black"/>
<path d="M385.153 196.642C382.12 204.276 378.705 211.752 374.92 219.042C371.179 226.595 366.752 233.789 361.695 240.533L360.637 241.839L360.108 242.483C359.926 242.698 359.777 242.897 359.496 243.194C358.501 244.28 357.393 245.255 356.19 246.104C354.064 247.576 351.736 248.734 349.28 249.542C344.996 250.91 340.548 251.7 336.055 251.89C327.64 252.224 319.217 251.474 310.993 249.658L311.902 242.715C315.705 242.715 319.689 242.715 323.474 242.401C327.277 242.214 331.064 241.794 334.815 241.144C338.299 240.601 341.706 239.646 344.965 238.301C346.281 237.739 347.512 236.993 348.619 236.086C349.041 235.732 349.424 235.333 349.759 234.895C349.759 234.895 349.958 234.631 350.09 234.449L350.47 233.904L351.247 232.813C355.395 226.405 359.091 219.716 362.307 212.793C365.613 205.767 368.919 198.477 371.944 191.302L385.153 196.642Z" fill="#803E3C"/>
<path d="M379.648 177.813C372.754 179.466 364.29 198.378 364.29 198.378L378.573 219.373C378.573 219.373 397.601 195.419 395.336 188.112C393.022 180.491 388.062 175.763 379.648 177.813Z" fill="#263238"/>
<path d="M315.87 243.773L303.951 238.268L302.761 250.121C302.761 250.121 312.679 253.047 317.639 250.121L315.87 243.773Z" fill="#7F3E3B"/>
<path d="M296.826 237.078L295.685 246.104L302.761 250.121L303.951 238.268L296.826 237.078Z" fill="#7F3E3B"/>
<path d="M434.053 129.458C431.523 142.965 430.746 148.751 423.01 154.884C411.438 164.108 395.32 158.058 393.766 144.072C392.344 131.475 396.708 111.505 410.71 107.703C413.795 106.852 417.046 106.806 420.153 107.568C423.261 108.33 426.121 109.876 428.462 112.057C430.802 114.239 432.545 116.983 433.524 120.029C434.503 123.076 434.685 126.322 434.053 129.458Z" fill="#7F3E3B"/>
<path d="M404.379 132.302C403.602 139.195 403.304 157.099 418.447 157.661C436.979 158.339 442.533 142.502 440.88 136.17C450.534 128.318 451.923 114.812 441.078 104.48C430.234 94.1475 406.363 99.917 399.75 109.985C391.369 122.466 404.379 132.302 404.379 132.302Z" fill="#263238"/>
<path d="M422.944 108.497C422.051 101.223 422.745 96.214 429.556 96.214C436.367 96.214 445.658 98.6772 449.063 105.637C452.468 112.597 452.75 123.491 443.244 122.383C433.738 121.276 424.018 117.192 422.944 108.497Z" fill="#1D4771"/>
<path d="M433.491 106.744C431.837 98.082 439.591 73.6817 458.42 72.0286C467.148 71.2847 471.182 80.6745 466.686 82.2284C474.951 82.1292 480.241 93.0565 472.538 94.6931C478.621 98.5945 477.117 106.596 468.438 110.53C461.974 113.506 435.722 118.746 433.491 106.744Z" fill="#263238"/>
<path d="M453.609 116.052C447.542 116.052 441.211 115.159 437.276 112.53C436.176 111.867 435.25 110.952 434.574 109.859C433.899 108.767 433.493 107.529 433.391 106.248C433.386 106.14 433.423 106.033 433.493 105.95C433.564 105.868 433.663 105.815 433.771 105.802C433.826 105.795 433.882 105.8 433.935 105.816C433.988 105.831 434.037 105.858 434.079 105.894C434.121 105.93 434.155 105.974 434.179 106.023C434.203 106.073 434.216 106.127 434.218 106.182C434.317 107.338 434.688 108.454 435.3 109.439C435.912 110.424 436.747 111.251 437.739 111.853C445.228 116.812 462.536 115.159 467.925 113.506C472.587 111.985 475.745 109.026 476.373 105.62C476.569 104.371 476.414 103.091 475.927 101.924C475.44 100.757 474.638 99.7472 473.612 99.0078C473.573 98.9707 473.541 98.9258 473.519 98.8761C473.498 98.8263 473.487 98.7727 473.487 98.7185C473.487 98.6642 473.498 98.6106 473.519 98.5608C473.541 98.5111 473.573 98.4663 473.612 98.4292C473.689 98.3534 473.793 98.311 473.901 98.311C474.01 98.311 474.113 98.3534 474.191 98.4292C475.345 99.2711 476.242 100.417 476.782 101.74C477.322 103.062 477.484 104.509 477.249 105.918C476.571 109.637 473.215 112.811 468.256 114.432C463.471 115.638 458.542 116.183 453.609 116.052Z" fill="#263238"/>
<path d="M400.163 130.517C398.624 132.676 397.989 135.351 398.394 137.972C398.94 141.444 402.312 141.675 404.759 139.46C407.206 137.245 409.338 133.244 407.536 130.368C407.136 129.746 406.583 129.238 405.93 128.891C405.278 128.543 404.547 128.369 403.808 128.384C403.069 128.399 402.346 128.602 401.708 128.976C401.07 129.349 400.538 129.879 400.163 130.517Z" fill="#7F3E3B"/>
<path d="M401.106 261.379C401.106 261.379 409.14 356.417 417.488 409.979C424.216 453.242 429.539 554.364 429.539 554.364H448.418C448.418 554.364 455.13 456.267 451.725 413.484C443.079 305.203 462.371 296.376 442.517 261.395L401.106 261.379Z" fill="#1D4771"/>
<path opacity="0.4" d="M424.878 297.301C417.396 305.154 411.358 314.264 407.04 324.214C409.239 345.573 411.851 369.279 414.628 390.042C426.024 360.539 429.556 328.581 424.878 297.301Z" fill="black"/>
<path d="M387.897 260.784C387.897 260.784 370.456 364.584 367.712 411.368C374.556 454.63 402.56 546.082 402.56 546.082L419.736 539.849C419.736 539.849 410.231 440.132 399.899 412.839C423.158 334.53 440.252 314.725 435.276 261.379C423.357 261.379 387.897 260.784 387.897 260.784Z" fill="#1D4771"/>
<path d="M400.263 550.644L423.473 544.346L422.15 535.088L397.303 541.817L400.263 550.644Z" fill="#263238"/>
<path d="M426.944 554.744H450.997L452.254 546.313L426.812 545.453L426.944 554.744Z" fill="#263238"/>
<path d="M443.343 258.072L445.873 263.115C446.071 263.511 445.608 263.908 444.963 263.908H385.979C385.484 263.908 385.054 263.66 385.021 263.329L384.508 258.37C384.508 258.023 384.921 257.725 385.467 257.725H442.418C442.588 257.702 442.763 257.721 442.924 257.782C443.086 257.843 443.23 257.942 443.343 258.072Z" fill="#1D4771"/>
<path opacity="0.5" d="M443.343 258.072L445.873 263.115C446.071 263.511 445.608 263.908 444.963 263.908H385.979C385.484 263.908 385.054 263.66 385.021 263.329L384.508 258.37C384.508 258.023 384.921 257.725 385.467 257.725H442.418C442.588 257.702 442.763 257.721 442.924 257.782C443.086 257.843 443.23 257.942 443.343 258.072Z" fill="black"/>
<path d="M435.689 264.421H437.21C437.524 264.421 437.756 264.255 437.739 264.073L437.012 257.461C437.012 257.262 436.731 257.114 436.433 257.114H434.896C434.598 257.114 434.367 257.262 434.383 257.461L435.094 264.073C435.127 264.288 435.392 264.421 435.689 264.421Z" fill="#1D4771"/>
<path d="M415.223 216.281C415.041 216.278 414.864 216.218 414.718 216.108C414.573 215.998 414.466 215.844 414.413 215.669C409.024 195.733 397.882 179.3 392.476 176.821C392.056 176.563 391.552 176.48 391.071 176.589C390.971 176.642 390.862 176.674 390.749 176.682C390.637 176.691 390.524 176.676 390.417 176.64C390.31 176.603 390.212 176.545 390.129 176.469C390.045 176.393 389.978 176.301 389.932 176.198C389.886 176.095 389.861 175.984 389.859 175.871C389.858 175.758 389.879 175.646 389.922 175.542C389.965 175.437 390.029 175.343 390.11 175.265C390.191 175.186 390.288 175.125 390.393 175.085C390.845 174.919 391.328 174.854 391.807 174.894C392.287 174.934 392.752 175.078 393.171 175.316C398.89 178.028 410.198 194.228 415.852 214.611C419.902 214.611 426.151 214.066 427.671 213.934C429.556 211.685 443.409 194.361 438.235 175.399C438.205 175.295 438.196 175.186 438.209 175.078C438.223 174.97 438.257 174.867 438.311 174.773C438.365 174.678 438.437 174.596 438.524 174.531C438.61 174.465 438.709 174.417 438.814 174.391C439.024 174.335 439.248 174.364 439.437 174.473C439.626 174.581 439.764 174.759 439.822 174.969C445.591 196.063 428.862 215.091 428.68 215.273C428.615 215.353 428.535 215.419 428.444 215.468C428.353 215.516 428.253 215.545 428.151 215.554C428.068 215.554 419.819 216.281 415.223 216.281Z" fill="#1D4771"/>
<path d="M442.616 227.952C433.606 211.074 429.92 209.884 428.316 204.461C429.531 201.429 431.265 198.632 433.441 196.196C432.35 195.881 430.002 195.419 428.482 195.138C428.647 194.394 428.829 193.666 428.994 192.955C427.339 192.77 425.665 192.848 424.035 193.187V191.534C421.935 191.077 419.778 190.938 417.637 191.12C417.824 191.903 418.006 192.696 418.183 193.501C416.529 193.815 414.017 194.328 412.81 194.675C415.155 197.331 416.877 200.476 417.852 203.883C412.992 212.231 394.113 265.892 424.828 270.008C455.543 274.124 451.609 244.847 442.616 227.952Z" fill="#1D4771"/>
<path opacity="0.4" d="M442.616 227.952C433.606 211.074 429.92 209.884 428.316 204.461C429.531 201.429 431.265 198.632 433.441 196.196C432.35 195.881 430.002 195.419 428.482 195.138C428.647 194.394 428.829 193.666 428.994 192.955C427.339 192.77 425.665 192.848 424.035 193.187V191.534C421.935 191.077 419.778 190.938 417.637 191.12C417.824 191.903 418.006 192.696 418.183 193.501C416.529 193.815 414.017 194.328 412.81 194.675C415.155 197.331 416.877 200.476 417.852 203.883C412.992 212.231 394.113 265.892 424.828 270.008C455.543 274.124 451.609 244.847 442.616 227.952Z" fill="white"/>
<path d="M416.595 202.279C416.404 203.13 416.321 204.002 416.347 204.875C416.347 205.486 418.001 205.899 419.836 206.081C421.671 206.263 429.374 206.561 429.126 205.701C428.878 204.841 429.506 203.668 429.54 202.94C429.573 202.213 426.481 202.18 423.886 202.279C421.29 202.378 417.108 201.353 416.595 202.279Z" fill="#1D4771"/>
<path d="M398.725 264.421H400.246C400.544 264.421 400.775 264.255 400.758 264.073L400.048 257.461C400.048 257.262 399.767 257.114 399.453 257.114H397.981C397.684 257.114 397.452 257.262 397.469 257.461L398.18 264.073C398.147 264.288 398.411 264.421 398.725 264.421Z" fill="#1D4771"/>
</svg>
