<svg width="598" height="512" viewBox="0 0 598 512" fill="none" xmlns="http://www.w3.org/2000/svg">
<path d="M635.976 449.16H-49.9746V449.503H635.976V449.16Z" fill="#EBEBEB"/>
<path d="M57.665 462.221H21.9956V462.564H57.665V462.221Z" fill="#EBEBEB"/>
<path d="M224.995 458.503H150.775V458.846H224.995V458.503Z" fill="#EBEBEB"/>
<path d="M95.1446 474.966H59.0361V475.309H95.1446V474.966Z" fill="#EBEBEB"/>
<path d="M567.244 472.661H540.862V473.004H567.244V472.661Z" fill="#EBEBEB"/>
<path d="M528.638 472.661H487.083V473.004H528.638V472.661Z" fill="#EBEBEB"/>
<path d="M379.143 466.872H304.292V467.215H379.143V466.872Z" fill="#EBEBEB"/>
<path d="M275.166 387.974H10.2652C8.18994 387.97 6.20097 387.143 4.73486 385.674C3.26875 384.206 2.44531 382.215 2.44531 380.14V7.76496C2.46338 5.70166 3.29479 3.7288 4.75895 2.27491C6.22311 0.821025 8.20177 0.00353455 10.2652 0H275.166C277.243 0 279.236 0.825319 280.705 2.2944C282.174 3.76347 282.999 5.75597 282.999 7.83355V380.14C282.999 382.218 282.174 384.21 280.705 385.679C279.236 387.148 277.243 387.974 275.166 387.974ZM10.2652 0.274381C8.2809 0.278015 6.37917 1.0688 4.97738 2.47316C3.57559 3.87753 2.78828 5.78071 2.78829 7.76496V380.14C2.78828 382.124 3.57559 384.028 4.97738 385.432C6.37917 386.836 8.2809 387.627 10.2652 387.631H275.166C277.151 387.627 279.054 386.837 280.458 385.433C281.862 384.029 282.653 382.126 282.656 380.14V7.76496C282.653 5.77945 281.862 3.8763 280.458 2.47233C279.054 1.06835 277.151 0.278008 275.166 0.274381H10.2652Z" fill="#EBEBEB"/>
<path d="M571.922 387.974H307.008C304.931 387.97 302.941 387.144 301.473 385.675C300.004 384.207 299.178 382.217 299.174 380.14V7.76496C299.196 5.7004 300.03 3.72756 301.497 2.27405C302.963 0.820546 304.943 0.003496 307.008 0H571.922C573.983 0.00714005 575.958 0.826226 577.419 2.27973C578.881 3.73323 579.71 5.70402 579.728 7.76496V380.14C579.728 382.213 578.907 384.201 577.443 385.67C575.98 387.138 573.995 387.966 571.922 387.974ZM307.008 0.274381C305.022 0.278008 303.119 1.06835 301.715 2.47233C300.311 3.8763 299.521 5.77945 299.517 7.76496V380.14C299.521 382.126 300.311 384.029 301.715 385.433C303.119 386.837 305.022 387.627 307.008 387.631H571.922C573.907 387.627 575.811 386.837 577.215 385.433C578.619 384.029 579.409 382.126 579.413 380.14V7.76496C579.409 5.77945 578.619 3.8763 577.215 2.47233C575.811 1.06835 573.907 0.278008 571.922 0.274381H307.008Z" fill="#EBEBEB"/>
<path d="M209.095 309.954C208.423 309.954 207.723 309.954 207.078 310.036C192.838 311.175 181.314 324.743 180.409 341.439C180.206 345.123 180.52 348.817 181.342 352.414C184.486 366.832 185.995 381.559 185.841 396.315V439.406C185.841 442.534 188.009 445.072 190.67 445.072H377.414V309.954H209.095Z" fill="#F0F0F0"/>
<path d="M406.155 343.647C406.155 324.249 392.175 308.691 375.397 310.036C361.157 311.174 349.633 324.742 348.727 341.438C348.52 345.122 348.83 348.816 349.646 352.414C352.795 366.831 354.309 381.558 354.16 396.315V439.406C354.16 442.534 356.314 445.072 358.989 445.072H395.893C398.555 445.072 400.722 442.534 400.722 439.406V393.735C400.61 379.891 402.102 366.08 405.167 352.578C405.842 349.65 406.174 346.653 406.155 343.647Z" fill="#FAFAFA"/>
<path d="M337.807 368.657H145.796V445.058H337.807V368.657Z" fill="#F5F5F5"/>
<path d="M82.7704 277.124H284.769C287.862 277.124 290.926 277.733 293.783 278.917C296.641 280.101 299.238 281.836 301.425 284.023C303.613 286.211 305.348 288.807 306.532 291.665C307.715 294.523 308.325 297.586 308.325 300.68V381.622H59.2148V300.68C59.2148 297.586 59.8241 294.523 61.0079 291.665C62.1917 288.807 63.9268 286.211 66.1141 284.023C68.3014 281.836 70.8982 280.101 73.7561 278.917C76.614 277.733 79.677 277.124 82.7704 277.124Z" fill="#E6E6E6"/>
<path d="M99.9058 277.124H290.847C297.007 277.124 302.915 279.571 307.27 283.927C311.626 288.283 314.073 294.19 314.073 300.35V381.594H76.7344V300.337C76.738 294.188 79.1791 288.293 83.5226 283.941C87.8661 279.59 93.7577 277.139 99.9058 277.124Z" fill="#F5F5F5"/>
<path d="M152.271 365.913H337.724C339.063 365.913 340.347 366.445 341.294 367.392C342.241 368.339 342.773 369.623 342.773 370.962V379.097C342.769 380.434 342.236 381.715 341.289 382.658C340.343 383.602 339.061 384.132 337.724 384.132H152.271C151.871 384.132 151.487 383.973 151.204 383.69C150.921 383.407 150.762 383.023 150.762 382.623V367.423C150.762 367.022 150.921 366.638 151.204 366.355C151.487 366.072 151.871 365.913 152.271 365.913Z" fill="#EBEBEB"/>
<path d="M47.4307 445.059H378.855V445.374C378.855 446.378 378.456 447.341 377.746 448.052C377.035 448.762 376.072 449.161 375.068 449.161H51.2308C50.7324 449.162 50.2386 449.066 49.7776 448.876C49.3166 448.687 48.8976 448.408 48.5445 448.056C48.1915 447.705 47.9113 447.287 47.7202 446.826C47.5291 446.366 47.4307 445.873 47.4307 445.374V445.059Z" fill="#E6E6E6"/>
<path d="M48.8841 309.954C48.2073 309.954 47.5351 309.981 46.8674 310.036C32.6271 311.175 21.1031 324.743 20.1977 341.439C19.9954 345.123 20.3094 348.817 21.1306 352.414C24.2749 366.832 25.7844 381.559 25.6304 396.315V439.406C25.6304 442.534 27.798 445.072 30.4595 445.072H147.167V309.954H48.8841Z" fill="#F0F0F0"/>
<path d="M175.908 343.647C175.908 324.249 161.942 308.691 145.15 310.036C130.91 311.174 119.386 324.742 118.481 341.438C118.274 345.122 118.583 348.816 119.4 352.414C122.556 366.83 124.07 381.558 123.913 396.315V439.406C123.913 442.534 126.067 445.072 128.742 445.072H165.592C168.253 445.072 170.421 442.534 170.421 439.406V393.735C170.309 379.891 171.8 366.08 174.866 352.578C175.559 349.652 175.909 346.655 175.908 343.647Z" fill="#FAFAFA"/>
<path d="M34.9185 188.28L554.06 188.28V31.3481L34.9185 31.3481V188.28Z" fill="#EBEBEB"/>
<path d="M48.6378 176.235L540.327 176.235V43.4074L48.6378 43.4074V176.235Z" fill="#FAFAFA"/>
<path d="M330.097 176.235H369.306L332.374 43.4072H293.166L330.097 176.235Z" fill="white"/>
<path d="M376.975 176.235H416.198L379.266 43.4072H340.043L376.975 176.235Z" fill="white"/>
<path d="M249.882 176.235H269.5L232.569 43.4072H212.964L249.882 176.235Z" fill="white"/>
<path d="M285.249 176.235H303.729V43.4074H285.249V176.235Z" fill="#EBEBEB"/>
<path d="M285.236 43.4072H281.121V176.235H285.236V43.4072Z" fill="#E0E0E0"/>
<path d="M34.9184 31.3621H31.9551V188.294H34.9184V31.3621Z" fill="#E0E0E0"/>
<path d="M548.833 441.519C552.173 441.508 555.374 440.176 557.736 437.814C560.098 435.452 561.43 432.252 561.441 428.911V305.536C561.43 302.196 560.098 298.995 557.736 296.633C555.374 294.271 552.173 292.939 548.833 292.928C545.494 292.939 542.295 294.271 539.935 296.634C537.575 298.996 536.246 302.197 536.239 305.536V428.911C536.246 432.25 537.575 435.451 539.935 437.813C542.295 440.176 545.494 441.508 548.833 441.519Z" fill="#F5F5F5"/>
<path d="M541.617 436.553C543.875 436.55 546.04 435.651 547.637 434.054C549.234 432.457 550.133 430.292 550.136 428.034V306.415C550.133 304.156 549.234 301.991 547.637 300.394C546.04 298.798 543.875 297.899 541.617 297.895C539.361 297.902 537.199 298.803 535.605 300.399C534.011 301.996 533.114 304.159 533.111 306.415V428.034C533.114 430.29 534.011 432.452 535.605 434.049C537.199 435.646 539.361 436.546 541.617 436.553Z" fill="#EBEBEB"/>
<path d="M530.532 441.519C533.871 441.508 537.07 440.176 539.43 437.813C541.79 435.451 543.119 432.25 543.126 428.911V305.536C543.119 302.197 541.79 298.996 539.43 296.634C537.07 294.271 533.871 292.939 530.532 292.928C527.192 292.939 523.991 294.271 521.629 296.633C519.267 298.995 517.935 302.196 517.924 305.536V428.911C517.935 432.252 519.267 435.452 521.629 437.814C523.991 440.176 527.192 441.508 530.532 441.519Z" fill="#F5F5F5"/>
<path d="M523.315 436.553C525.573 436.546 527.735 435.646 529.332 434.05C530.928 432.454 531.828 430.291 531.835 428.034V306.415C531.828 304.157 530.928 301.995 529.332 300.398C527.735 298.802 525.573 297.902 523.315 297.895C521.058 297.902 518.895 298.802 517.299 300.398C515.703 301.995 514.803 304.157 514.796 306.415V428.034C514.803 430.291 515.703 432.454 517.299 434.05C518.895 435.646 521.058 436.546 523.315 436.553Z" fill="#EBEBEB"/>
<path d="M512.23 441.519C515.569 441.508 518.768 440.176 521.128 437.813C523.488 435.451 524.817 432.25 524.824 428.911V305.536C524.817 302.197 523.488 298.996 521.128 296.634C518.768 294.271 515.569 292.939 512.23 292.928C508.889 292.939 505.689 294.271 503.327 296.633C500.965 298.995 499.633 302.196 499.622 305.536V428.911C499.633 432.252 500.965 435.452 503.327 437.814C505.689 440.176 508.889 441.508 512.23 441.519Z" fill="#F5F5F5"/>
<path d="M505.014 436.553C507.27 436.546 509.431 435.646 511.025 434.049C512.619 432.452 513.516 430.29 513.519 428.034V306.415C513.516 304.159 512.619 301.996 511.025 300.399C509.431 298.803 507.27 297.902 505.014 297.895C502.755 297.899 500.59 298.798 498.993 300.394C497.397 301.991 496.498 304.156 496.494 306.415V428.034C496.498 430.292 497.397 432.457 498.993 434.054C500.59 435.651 502.755 436.55 505.014 436.553Z" fill="#EBEBEB"/>
<path d="M481.322 428.911C481.322 435.874 486.964 441.519 493.923 441.519C500.882 441.519 506.524 435.874 506.524 428.911V305.55C506.524 298.587 500.882 292.942 493.923 292.942C486.964 292.942 481.322 298.587 481.322 305.55V428.911Z" fill="#F5F5F5"/>
<path d="M486.7 436.553C488.958 436.55 491.123 435.651 492.72 434.054C494.317 432.457 495.216 430.292 495.219 428.034V306.415C495.216 304.156 494.317 301.991 492.72 300.394C491.123 298.798 488.958 297.899 486.7 297.895C484.444 297.902 482.282 298.803 480.688 300.399C479.094 301.996 478.197 304.159 478.194 306.415V428.034C478.197 430.29 479.094 432.452 480.688 434.049C482.282 435.646 484.444 436.546 486.7 436.553Z" fill="#EBEBEB"/>
<path d="M475.614 441.519C478.955 441.508 482.155 440.176 484.517 437.814C486.879 435.452 488.211 432.252 488.222 428.911V305.536C488.211 302.196 486.879 298.995 484.517 296.633C482.155 294.271 478.955 292.939 475.614 292.928C472.274 292.939 469.073 294.271 466.711 296.633C464.349 298.995 463.017 302.196 463.006 305.536V428.911C463.017 432.252 464.349 435.452 466.711 437.814C469.073 440.176 472.274 441.508 475.614 441.519Z" fill="#F5F5F5"/>
<path d="M468.398 436.553C470.657 436.55 472.822 435.651 474.419 434.054C476.016 432.457 476.914 430.292 476.918 428.034V306.415C476.914 304.156 476.016 301.991 474.419 300.394C472.822 298.798 470.657 297.899 468.398 297.895C466.141 297.902 463.978 298.802 462.382 300.398C460.786 301.995 459.886 304.157 459.879 306.415V428.034C459.886 430.291 460.786 432.454 462.382 434.05C463.978 435.646 466.141 436.546 468.398 436.553Z" fill="#EBEBEB"/>
<path d="M457.313 441.519C460.652 441.508 463.851 440.176 466.211 437.813C468.571 435.451 469.9 432.25 469.907 428.911V305.536C469.9 302.197 468.571 298.996 466.211 296.634C463.851 294.271 460.652 292.939 457.313 292.928C453.972 292.939 450.772 294.271 448.41 296.633C446.048 298.995 444.716 302.196 444.705 305.536V428.911C444.716 432.252 446.048 435.452 448.41 437.814C450.772 440.176 453.972 441.508 457.313 441.519Z" fill="#F5F5F5"/>
<path d="M450.098 436.553C452.355 436.546 454.518 435.646 456.114 434.05C457.71 432.454 458.61 430.291 458.617 428.034V306.415C458.61 304.157 457.71 301.995 456.114 300.398C454.518 298.802 452.355 297.902 450.098 297.895C447.839 297.899 445.674 298.798 444.077 300.394C442.481 301.991 441.582 304.156 441.578 306.415V428.034C441.582 430.292 442.481 432.457 444.077 434.054C445.674 435.651 447.839 436.55 450.098 436.553Z" fill="#EBEBEB"/>
<path d="M438.998 441.519C442.338 441.508 445.539 440.176 447.901 437.814C450.263 435.452 451.595 432.252 451.606 428.911V305.536C451.595 302.196 450.263 298.995 447.901 296.633C445.539 294.271 442.338 292.939 438.998 292.928C435.659 292.939 432.46 294.271 430.1 296.634C427.74 298.996 426.411 302.197 426.404 305.536V428.911C426.411 432.25 427.74 435.451 430.1 437.813C432.46 440.176 435.659 441.508 438.998 441.519Z" fill="#F5F5F5"/>
<path d="M423.55 425.001H460.509C461.237 425.001 461.935 424.712 462.45 424.197C462.964 423.683 463.253 422.985 463.253 422.257C463.253 421.53 462.964 420.832 462.45 420.317C461.935 419.803 461.237 419.513 460.509 419.513H423.55C422.823 419.513 422.125 419.803 421.61 420.317C421.096 420.832 420.807 421.53 420.807 422.257C420.807 422.985 421.096 423.683 421.61 424.197C422.125 424.712 422.823 425.001 423.55 425.001Z" fill="#F5F5F5"/>
<path d="M423.55 318.679H460.509C461.237 318.679 461.935 318.39 462.45 317.875C462.964 317.361 463.253 316.663 463.253 315.935C463.253 315.207 462.964 314.509 462.45 313.995C461.935 313.48 461.237 313.191 460.509 313.191H423.55C422.823 313.191 422.125 313.48 421.61 313.995C421.096 314.509 420.807 315.207 420.807 315.935C420.807 316.663 421.096 317.361 421.61 317.875C422.125 318.39 422.823 318.679 423.55 318.679Z" fill="#F5F5F5"/>
<path d="M293 511.115C439.907 511.115 558.998 504.162 558.998 495.585C558.998 487.008 439.907 480.055 293 480.055C146.094 480.055 27.0024 487.008 27.0024 495.585C27.0024 504.162 146.094 511.115 293 511.115Z" fill="#F5F5F5"/>
<path d="M503.78 417.964H346.67C344.696 417.973 342.741 417.581 340.924 416.812C339.106 416.044 337.464 414.914 336.096 413.491C334.729 412.068 333.665 410.382 332.968 408.536C332.272 406.689 331.958 404.721 332.045 402.749L343.583 104.498C343.778 100.427 345.522 96.5839 348.457 93.7558C351.393 90.9276 355.298 89.3278 359.373 89.2836H516.483C518.457 89.2742 520.412 89.6658 522.229 90.4347C524.047 91.2036 525.689 92.3336 527.056 93.7564C528.424 95.1791 529.488 96.8648 530.185 98.7113C530.881 100.558 531.195 102.526 531.108 104.498L519.57 402.749C519.375 406.821 517.631 410.663 514.695 413.491C511.76 416.32 507.855 417.919 503.78 417.964Z" fill="#1D4771"/>
<path d="M531.005 205.12L530.045 229.768L531.553 229.826L532.513 205.178L531.005 205.12Z" fill="#1D4771"/>
<path d="M531.788 185.931L531.39 196.117L532.898 196.176L533.296 185.99L531.788 185.931Z" fill="#1D4771"/>
<path opacity="0.8" d="M503.78 417.964H346.67C344.696 417.973 342.741 417.581 340.924 416.812C339.106 416.044 337.464 414.914 336.096 413.491C334.729 412.068 333.665 410.382 332.968 408.536C332.272 406.689 331.958 404.721 332.045 402.749L343.583 104.498C343.778 100.427 345.522 96.5839 348.457 93.7558C351.393 90.9276 355.298 89.3278 359.373 89.2836H516.483C518.457 89.2742 520.412 89.6658 522.229 90.4347C524.047 91.2036 525.689 92.3336 527.056 93.7564C528.424 95.1791 529.488 96.8648 530.185 98.7113C530.881 100.558 531.195 102.526 531.108 104.498L519.57 402.749C519.375 406.821 517.631 410.663 514.695 413.491C511.76 416.32 507.855 417.919 503.78 417.964Z" fill="white"/>
<path d="M488.744 411.913H350.182C348.452 411.921 346.739 411.577 345.146 410.903C343.553 410.228 342.113 409.238 340.914 407.991C339.715 406.745 338.781 405.268 338.169 403.65C337.558 402.032 337.28 400.307 337.355 398.578L348.151 119.259C348.326 115.689 349.858 112.321 352.433 109.842C355.009 107.364 358.433 105.962 362.008 105.925H500.57C502.3 105.915 504.014 106.258 505.608 106.931C507.202 107.605 508.642 108.595 509.842 109.842C511.041 111.089 511.975 112.567 512.586 114.186C513.197 115.805 513.473 117.531 513.397 119.259L502.6 398.578C502.422 402.147 500.89 405.514 498.315 407.992C495.74 410.47 492.317 411.872 488.744 411.913Z" fill="#1D4771"/>
<path opacity="0.8" d="M426.569 396.097C430.236 392.499 430.404 386.724 426.945 383.198C423.485 379.671 417.708 379.729 414.041 383.326C410.374 386.923 410.205 392.699 413.665 396.225C417.124 399.752 422.902 399.694 426.569 396.097Z" fill="white"/>
<path d="M422.769 326.17C415.452 326.219 408.202 324.777 401.46 321.932C394.718 319.088 388.627 314.9 383.556 309.624C378.486 304.348 374.543 298.095 371.968 291.246C369.393 284.396 368.24 277.094 368.579 269.785L370.431 221.7H370.335C369.793 221.697 369.252 221.651 368.716 221.563L366.851 269.785C366.504 277.317 367.695 284.841 370.35 291.898C373.005 298.955 377.069 305.398 382.294 310.833C387.519 316.269 393.797 320.584 400.743 323.516C407.69 326.447 415.161 327.934 422.701 327.885C438.681 327.814 453.979 321.398 465.23 310.05C464.821 309.636 464.462 309.176 464.16 308.678C458.755 314.179 452.315 318.557 445.212 321.559C438.108 324.561 430.481 326.128 422.769 326.17Z" fill="white"/>
<path d="M429.41 154.257C400.01 154.257 374.808 176.207 369.896 204.592C370.262 204.57 370.629 204.57 370.994 204.592C371.214 204.592 371.419 204.592 371.639 204.592C376.495 177.154 400.901 155.999 429.341 155.999C436.659 155.948 443.911 157.389 450.655 160.233C457.398 163.076 463.491 167.264 468.563 172.54C473.635 177.816 477.579 184.07 480.155 190.92C482.731 197.77 483.884 205.074 483.545 212.384L481.322 269.812C480.962 278.78 478.515 287.541 474.175 295.398C474.72 295.556 475.241 295.787 475.725 296.084C480.17 288.013 482.673 279.018 483.037 269.812L485.26 212.384C485.612 204.849 484.426 197.322 481.773 190.261C479.121 183.199 475.057 176.753 469.831 171.313C464.605 165.874 458.326 161.557 451.376 158.624C444.427 155.692 436.952 154.206 429.41 154.257Z" fill="white"/>
<path d="M428.957 166C438.201 165.978 447.254 168.632 455.023 173.642C455.269 173.11 455.567 172.605 455.915 172.133C447.878 166.974 438.521 164.249 428.97 164.285C418.164 164.32 407.628 167.672 398.789 173.889C399.092 174.374 399.345 174.889 399.543 175.425C408.138 169.319 418.414 166.027 428.957 166Z" fill="white"/>
<path d="M375.864 275.3C375.438 272.361 375.281 269.39 375.397 266.423L377.359 215.663C377.787 205.199 381.417 195.119 387.758 186.785C387.267 186.537 386.807 186.233 386.386 185.879C379.856 194.479 376.121 204.874 375.685 215.663L373.723 266.423C373.603 269.528 373.769 272.637 374.217 275.711C374.751 275.52 375.303 275.383 375.864 275.3Z" fill="white"/>
<path d="M468.289 183.519C467.873 183.943 467.413 184.32 466.917 184.644C473.717 193.536 477.174 204.535 476.685 215.718L474.723 266.478C474.096 279.783 468.401 292.342 458.806 301.58C449.211 310.818 436.444 316.033 423.126 316.155C412.552 316.203 402.261 312.744 393.863 306.318C393.372 306.7 392.838 307.022 392.271 307.279C401.041 314.187 411.893 317.92 423.057 317.87C436.836 317.745 450.044 312.35 459.971 302.793C469.898 293.237 475.79 280.243 476.438 266.478L478.399 215.718C478.915 204.131 475.335 192.732 468.289 183.519Z" fill="white"/>
<path d="M383.285 235.844L383.93 219.079C384.473 207.572 389.399 196.709 397.698 188.719C405.996 180.729 417.038 176.218 428.558 176.111C438.255 176.04 447.664 179.408 455.114 185.616C462.563 191.825 467.571 200.473 469.249 210.025C469.81 209.925 470.379 209.875 470.95 209.874C469.244 199.896 464.047 190.85 456.287 184.351C448.526 177.852 438.708 174.323 428.585 174.396C416.605 174.503 405.119 179.192 396.488 187.502C387.856 195.812 382.735 207.111 382.174 219.079L381.557 235.967C381.953 235.919 382.351 235.891 382.75 235.885L383.285 235.844Z" fill="white"/>
<path d="M441.427 302.175C435.82 304.703 429.743 306.016 423.592 306.03C418.007 306.083 412.469 304.995 407.317 302.834C402.166 300.674 397.51 297.485 393.633 293.463C389.756 289.441 386.74 284.671 384.77 279.443C382.8 274.216 381.917 268.642 382.175 263.062L382.573 252.965H382.038C381.643 252.966 381.248 252.939 380.858 252.883L380.46 263.035C380.191 268.828 381.106 274.615 383.147 280.043C385.188 285.472 388.314 290.427 392.333 294.608C396.352 298.789 401.181 302.108 406.524 304.362C411.868 306.615 417.615 307.757 423.414 307.717C429.924 307.71 436.356 306.307 442.278 303.602C441.94 303.161 441.655 302.682 441.427 302.175Z" fill="white"/>
<path d="M470.292 227.05C470.045 227.05 469.798 227.05 469.565 227.05L468.193 263.104C467.723 274.061 463.23 284.461 455.571 292.312C455.915 292.781 456.204 293.287 456.436 293.821C464.607 285.625 469.414 274.667 469.908 263.104L471.28 227.036C470.964 227.023 470.635 227.05 470.292 227.05Z" fill="white"/>
<path d="M443.553 187.745C438.742 185.574 433.522 184.456 428.243 184.466C418.06 184.557 408.297 188.542 400.96 195.604C393.623 202.665 389.267 212.268 388.787 222.44L387.346 259.688C387.269 261.883 387.379 264.082 387.676 266.259C388.176 265.804 388.723 265.404 389.308 265.065C389.087 263.282 389.005 261.484 389.061 259.688L390.502 222.44C390.961 212.728 395.12 203.56 402.125 196.817C409.131 190.074 418.451 186.268 428.174 186.181C433.167 186.188 438.101 187.259 442.648 189.323C442.898 188.769 443.202 188.241 443.553 187.745Z" fill="white"/>
<path d="M456.751 197.993C456.418 198.487 456.037 198.947 455.613 199.365C460.772 205.919 463.406 214.108 463.035 222.441L461.594 259.688C461.144 269.12 457.203 278.047 450.537 284.736C443.871 291.424 434.957 295.396 425.527 295.878C425.348 296.492 425.104 297.086 424.8 297.648C434.821 297.337 444.355 293.254 451.495 286.216C458.635 279.177 462.854 269.703 463.309 259.688L464.75 222.441C465.143 213.59 462.3 204.9 456.751 197.993Z" fill="white"/>
<path d="M420.985 197.047C421.013 196.446 421.095 195.849 421.232 195.263C416.851 196.214 412.713 198.059 409.077 200.682C409.607 200.952 410.096 201.293 410.531 201.698C413.692 199.503 417.239 197.925 420.985 197.047Z" fill="white"/>
<path d="M453.677 263.995C451.747 270.296 447.861 275.82 442.583 279.766C437.305 283.712 430.908 285.876 424.319 285.946C420.476 285.972 416.669 285.216 413.129 283.721C409.589 282.227 406.391 280.026 403.731 277.254C401.07 274.482 399.003 271.196 397.655 267.598C396.308 263.999 395.708 260.164 395.893 256.326L397.073 225.801C397.219 222.194 398.019 218.643 399.432 215.32C398.942 214.923 398.508 214.462 398.143 213.948C396.482 217.674 395.551 221.684 395.399 225.76L394.219 256.285C394.033 260.34 394.674 264.391 396.104 268.191C397.533 271.99 399.722 275.459 402.535 278.385C405.349 281.312 408.729 283.635 412.469 285.213C416.209 286.791 420.232 287.591 424.291 287.564C431.271 287.485 438.044 285.19 443.635 281.011C449.225 276.831 453.342 270.983 455.392 264.311C454.812 264.258 454.238 264.152 453.677 263.995Z" fill="white"/>
<path d="M456.257 225.802L456.01 232.14C456.463 232.059 456.921 232.013 457.382 232.003H457.752L457.985 225.76C458.255 219.28 456.408 212.889 452.722 207.552C449.037 202.215 443.713 198.224 437.558 196.182C437.612 196.794 437.612 197.409 437.558 198.021C443.235 200.044 448.114 203.834 451.479 208.834C454.844 213.834 456.519 219.78 456.257 225.802Z" fill="white"/>
<path d="M427.447 204.592C420.858 204.655 414.543 207.237 409.798 211.809C405.053 216.38 402.238 222.595 401.93 229.176L401.669 235.954C402.242 235.991 402.812 236.079 403.37 236.214L403.644 229.176C403.932 223.044 406.561 217.256 410.989 213.003C415.418 208.751 421.308 206.359 427.447 206.321C430.411 206.304 433.348 206.891 436.078 208.046C438.808 209.201 441.275 210.899 443.328 213.037C445.382 215.175 446.979 217.708 448.022 220.483C449.065 223.257 449.533 226.215 449.397 229.176L448.478 252.965C448.22 258.321 446.179 263.437 442.679 267.499C439.179 271.56 434.421 274.335 429.162 275.382C429.224 275.957 429.224 276.536 429.162 277.111C434.875 276.04 440.059 273.075 443.878 268.693C447.697 264.312 449.927 258.77 450.207 252.965L451.126 229.176C451.273 225.985 450.769 222.797 449.643 219.808C448.517 216.818 446.793 214.09 444.577 211.789C442.36 209.488 439.698 207.663 436.753 206.426C433.808 205.188 430.641 204.564 427.447 204.592Z" fill="white"/>
<path d="M411.423 224.759C411.78 224.738 412.137 224.738 412.493 224.759C413.971 222.214 416.087 220.098 418.632 218.621C421.178 217.143 424.065 216.356 427.008 216.336C428.803 216.336 430.584 216.642 432.276 217.241C432.468 216.693 432.711 216.165 433.003 215.664C431.104 214.968 429.099 214.611 427.077 214.607C423.67 214.643 420.338 215.605 417.438 217.391C414.538 219.178 412.178 221.72 410.614 224.746C410.884 224.737 411.154 224.741 411.423 224.759Z" fill="white"/>
<path d="M441.879 249.604C441.79 251.567 441.353 253.5 440.59 255.311C441.124 255.509 441.628 255.781 442.085 256.12C442.984 254.059 443.495 251.85 443.594 249.604L444.253 232.537C444.305 230.945 444.143 229.353 443.773 227.804C443.255 228.078 442.707 228.29 442.14 228.435C442.455 229.783 442.589 231.168 442.538 232.551L441.879 249.604Z" fill="white"/>
<path d="M428.82 265.298C427.589 265.596 426.327 265.748 425.061 265.751C422.971 265.755 420.903 265.335 418.98 264.516C417.058 263.697 415.322 262.496 413.878 260.986C412.434 259.477 411.311 257.689 410.578 255.733C409.845 253.776 409.516 251.691 409.613 249.604L409.915 241.88C409.339 241.83 408.769 241.725 408.214 241.565L407.898 249.604C407.796 251.918 408.165 254.228 408.983 256.395C409.802 258.561 411.052 260.539 412.659 262.207C414.266 263.875 416.195 265.199 418.329 266.099C420.463 266.998 422.758 267.454 425.074 267.439C426.512 267.433 427.944 267.258 429.341 266.917C429.12 266.394 428.946 265.852 428.82 265.298Z" fill="white"/>
<path d="M426.679 224.731C423.678 224.767 420.805 225.952 418.651 228.042C416.497 230.132 415.226 232.969 415.1 235.967L414.702 246.311C414.665 247.276 414.762 248.241 414.99 249.179C415.426 248.653 415.934 248.191 416.499 247.807C416.431 247.316 416.403 246.82 416.417 246.325L416.815 235.981C416.937 233.451 418.023 231.064 419.85 229.309C421.676 227.553 424.105 226.564 426.638 226.542C427.858 226.539 429.067 226.784 430.191 227.261C431.314 227.739 432.329 228.439 433.175 229.32C434.02 230.201 434.677 231.245 435.108 232.387C435.538 233.53 435.732 234.747 435.678 235.967L435.281 246.311C435.191 248.146 434.596 249.919 433.559 251.436C432.522 252.952 431.086 254.151 429.409 254.899C429.379 255.547 429.287 256.19 429.134 256.82C431.345 256.055 433.275 254.644 434.677 252.771C436.078 250.898 436.886 248.648 436.995 246.311L437.407 235.967C437.484 234.514 437.263 233.061 436.757 231.697C436.252 230.332 435.473 229.086 434.468 228.034C433.463 226.981 432.254 226.146 430.915 225.578C429.575 225.01 428.134 224.722 426.679 224.731Z" fill="white"/>
<path d="M455.53 101.384H407.377C407.02 101.384 406.667 101.313 406.339 101.174C406.01 101.035 405.713 100.832 405.465 100.576C405.217 100.32 405.022 100.017 404.894 99.6841C404.765 99.3517 404.704 98.9967 404.715 98.6403C404.757 97.9026 405.078 97.2084 405.613 96.6988C406.148 96.1891 406.857 95.9023 407.596 95.8965H455.736C456.094 95.8945 456.448 95.9646 456.778 96.1027C457.108 96.2407 457.407 96.4439 457.657 96.7C457.906 96.9561 458.102 97.2599 458.232 97.5933C458.361 97.9267 458.422 98.2828 458.411 98.6403C458.366 99.377 458.044 100.069 457.51 100.578C456.976 101.087 456.268 101.375 455.53 101.384Z" fill="#1D4771"/>
<path opacity="0.2" d="M380.212 149.537C377.364 149.76 374.506 149.824 371.652 149.729C370.642 149.513 369.607 149.448 368.578 149.537H368.263C360.209 148.947 352.24 147.508 344.488 145.243C343.692 145.01 342.869 144.735 342.032 144.447L335.365 317.128L379.924 287.399C381.938 286.077 383.61 284.295 384.802 282.201C385.995 280.108 386.674 277.761 386.784 275.354L391.256 159.908C391.32 158.471 391.072 157.037 390.53 155.704C389.988 154.372 389.164 153.172 388.115 152.187C387.067 151.202 385.818 150.455 384.454 149.998C383.089 149.541 381.643 149.383 380.212 149.537Z" fill="black"/>
<path d="M369.47 136.655C366.627 136.883 363.773 136.951 360.923 136.861C359.913 136.647 358.879 136.577 357.85 136.655H357.52C349.47 136.07 341.505 134.631 333.759 132.361C324.047 129.341 315.096 124.27 307.515 117.489C305.673 115.716 303.212 114.731 300.655 114.746H289.021C286.414 114.765 283.904 115.741 281.97 117.489C273.922 124.249 264.589 129.308 254.532 132.361C246.672 134.621 238.598 136.06 230.441 136.655H230.112C229.079 136.577 228.039 136.647 227.025 136.861C224.179 136.952 221.33 136.883 218.492 136.655C217.03 136.543 215.561 136.725 214.171 137.191C212.781 137.656 211.498 138.395 210.398 139.365C209.299 140.334 208.404 141.514 207.768 142.834C207.132 144.155 206.766 145.59 206.694 147.054L202.221 262.513C202.119 264.851 202.605 267.176 203.633 269.278C204.661 271.38 206.199 273.19 208.107 274.545L272.792 320.037C275.175 321.708 278.017 322.6 280.927 322.589H292.547C295.518 322.578 298.42 321.69 300.888 320.037L369.086 274.545C371.094 273.219 372.762 271.439 373.954 269.349C375.145 267.258 375.828 264.917 375.945 262.513L380.404 147.054C380.463 145.626 380.216 144.203 379.679 142.878C379.143 141.554 378.33 140.36 377.295 139.375C376.26 138.39 375.026 137.638 373.676 137.169C372.327 136.7 370.893 136.525 369.47 136.655Z" fill="#1D4771"/>
<path opacity="0.8" d="M369.47 136.655C366.627 136.883 363.773 136.951 360.923 136.861C359.913 136.647 358.879 136.577 357.85 136.655H357.52C349.47 136.07 341.505 134.631 333.759 132.361C324.047 129.341 315.096 124.27 307.515 117.489C305.673 115.716 303.212 114.731 300.655 114.746H289.021C286.414 114.765 283.904 115.741 281.97 117.489C273.922 124.249 264.589 129.308 254.532 132.361C246.672 134.621 238.598 136.06 230.441 136.655H230.112C229.079 136.577 228.039 136.647 227.025 136.861C224.179 136.952 221.33 136.883 218.492 136.655C217.03 136.543 215.561 136.725 214.171 137.191C212.781 137.656 211.498 138.395 210.398 139.365C209.299 140.334 208.404 141.514 207.768 142.834C207.132 144.155 206.766 145.59 206.694 147.054L202.221 262.513C202.119 264.851 202.605 267.176 203.633 269.278C204.661 271.38 206.199 273.19 208.107 274.545L272.792 320.037C275.175 321.708 278.017 322.6 280.927 322.589H292.547C295.518 322.578 298.42 321.69 300.888 320.037L369.086 274.545C371.094 273.219 372.762 271.439 373.954 269.349C375.145 267.258 375.828 264.917 375.945 262.513L380.404 147.054C380.463 145.626 380.216 144.203 379.679 142.878C379.143 141.554 378.33 140.36 377.295 139.375C376.26 138.39 375.026 137.638 373.676 137.169C372.327 136.7 370.893 136.525 369.47 136.655Z" fill="white"/>
<path d="M209.781 262.294L214.047 151.897C214.142 149.873 215.008 147.962 216.467 146.556C217.926 145.151 219.868 144.357 221.895 144.338H224.405C235.261 144.203 246.048 142.588 256.467 139.536C266.377 136.533 275.669 131.78 283.905 125.502C285.261 124.397 286.957 123.793 288.706 123.793C290.456 123.793 292.152 124.397 293.508 125.502C301.323 131.82 310.273 136.588 319.876 139.55C330.169 142.617 340.84 144.233 351.58 144.352H353.899C354.898 144.343 355.889 144.539 356.81 144.926C357.731 145.314 358.563 145.885 359.255 146.606C359.948 147.327 360.485 148.181 360.836 149.117C361.186 150.053 361.342 151.05 361.293 152.048L357.027 262.308C356.97 263.55 356.621 264.761 356.008 265.843C355.396 266.925 354.537 267.848 353.501 268.536L285.729 313.809C284.472 314.667 282.985 315.125 281.463 315.125C279.94 315.125 278.454 314.667 277.196 313.809L212.909 268.536C211.904 267.844 211.09 266.908 210.543 265.817C209.996 264.726 209.734 263.514 209.781 262.294Z" fill="#1D4771"/>
<path opacity="0.2" d="M228.617 256.463L232.239 162.611C241.937 161.844 251.534 160.102 260.884 157.412C270.422 154.543 279.513 150.36 287.897 144.982C295.927 150.385 304.71 154.573 313.963 157.412C323.174 160.114 332.64 161.856 342.21 162.611L338.575 256.463L282.135 294.108L228.617 256.463Z" fill="white"/>
<path opacity="0.2" d="M247.59 246.654L250.211 178.869C255.232 177.922 260.294 176.729 265.302 175.288C272.806 173.077 280.079 170.146 287.019 166.535C293.729 170.158 300.789 173.091 308.091 175.288C313.048 176.724 318.001 177.917 322.949 178.869L320.329 246.654L283.013 271.637L247.59 246.654Z" fill="white"/>
<path d="M123.077 140.812C120.512 146.135 117.919 151.596 115.422 156.973C114.178 159.717 112.98 162.406 111.828 165.04C110.752 167.559 109.808 170.133 109.002 172.75C108.436 175.252 108.178 177.814 108.233 180.378C108.233 183.259 108.233 186.25 108.233 189.227L108.686 207.309L102.348 208.241C100.761 202.269 99.4743 196.22 98.4928 190.119C98.0263 187.046 97.5599 183.959 97.313 180.762C97.1758 179.171 97.066 177.552 97.0386 175.851C97.0386 174.987 97.0386 174.122 97.0386 173.107C97.0386 172.641 97.1072 172.147 97.1895 171.598C97.2718 171.049 97.3541 170.665 97.4364 170.226C98.1164 166.963 99.0335 163.753 100.18 160.623C101.237 157.632 102.389 154.71 103.583 151.843C105.983 146.094 108.563 140.552 111.444 134.996L123.077 140.812Z" fill="#FF8B7B"/>
<path d="M113.281 209.805L108.013 203.741L102.059 204.043C99.3154 210.559 105.283 214.716 105.283 214.716L106.34 218.283C106.449 218.639 106.635 218.966 106.884 219.242C107.134 219.517 107.441 219.735 107.784 219.879C108.126 220.023 108.497 220.09 108.868 220.075C109.24 220.06 109.604 219.963 109.934 219.792L113.281 218.132C113.747 217.904 114.139 217.548 114.411 217.106C114.683 216.664 114.824 216.154 114.818 215.635V213.591C114.762 212.189 114.218 210.85 113.281 209.805Z" fill="#FF8B7B"/>
<path d="M96.5166 480.81C95.5055 480.359 94.5521 479.788 93.6768 479.109C93.6306 479.076 93.5955 479.029 93.5759 478.975C93.5564 478.921 93.5533 478.863 93.567 478.808C93.5817 478.749 93.6127 478.696 93.6564 478.655C93.7002 478.614 93.7548 478.586 93.814 478.574C94.3216 478.478 98.8077 477.655 99.8778 478.835C99.9953 478.97 100.075 479.134 100.109 479.31C100.142 479.486 100.129 479.667 100.07 479.836C100.012 480.127 99.8803 480.398 99.6883 480.624C99.4962 480.849 99.2498 481.022 98.9723 481.126C98.1426 481.324 97.2693 481.212 96.5166 480.81ZM94.6234 479.041C96.4343 480.289 97.9708 480.865 98.7391 480.564C98.9209 480.489 99.0806 480.369 99.2031 480.216C99.3255 480.062 99.4067 479.879 99.4388 479.686C99.4836 479.621 99.5077 479.545 99.5077 479.466C99.5077 479.388 99.4836 479.311 99.4388 479.247C98.8626 478.615 96.4206 478.794 94.6234 479.041Z" fill="#1D4771"/>
<path d="M93.7314 479.151L93.6079 479.055C93.5838 479.008 93.5713 478.956 93.5713 478.904C93.5713 478.851 93.5838 478.8 93.6079 478.753C93.6079 478.616 95.1719 475.241 96.9142 474.637C97.1358 474.545 97.3764 474.508 97.6154 474.53C97.8543 474.551 98.0845 474.631 98.2861 474.761C98.5006 474.856 98.6754 475.024 98.7804 475.234C98.8855 475.444 98.9144 475.684 98.8623 475.913C98.533 477.354 95.3365 479 93.9646 479.165C93.9269 479.179 93.8867 479.185 93.8465 479.182C93.8064 479.18 93.7671 479.169 93.7314 479.151ZM97.8471 475.213C97.6176 475.125 97.3632 475.125 97.1337 475.213C96.0911 475.57 95.0073 477.354 94.3899 478.451C95.8715 478.026 98.0117 476.668 98.2038 475.803C98.2038 475.652 98.2038 475.474 97.902 475.282L97.8471 475.213Z" fill="#1D4771"/>
<path d="M143.875 91.3965C145.013 98.9146 147.579 115.309 142.105 120.206C142.105 120.206 143.806 127.848 157.731 128.122C173.055 128.424 165.4 120.659 165.4 120.659C157.168 118.505 157.621 112.318 159.35 106.529L143.875 91.3965Z" fill="#FF8B7B"/>
<path d="M175.237 78.9391L174.99 78.8157C174.882 78.7032 174.821 78.5533 174.821 78.3972C174.821 78.2412 174.882 78.0913 174.99 77.9788C175.583 77.2255 176.346 76.6229 177.216 76.22C178.086 75.8171 179.039 75.6253 179.997 75.6603C180.075 75.6688 180.15 75.6926 180.219 75.7305C180.287 75.7683 180.347 75.8193 180.396 75.8806C180.444 75.9418 180.48 76.0121 180.501 76.0873C180.522 76.1626 180.528 76.2413 180.519 76.3188C180.498 76.4778 180.416 76.6226 180.291 76.7225C180.165 76.8223 180.006 76.8694 179.846 76.8538C179.089 76.8405 178.34 77.0033 177.656 77.3295C176.973 77.6557 176.375 78.1363 175.909 78.7334C175.829 78.829 175.723 78.8994 175.603 78.9359C175.484 78.9724 175.357 78.9736 175.237 78.9391Z" fill="#263238"/>
<path d="M178.09 86.3338C178.68 88.7373 179.603 91.0463 180.834 93.1933C180.283 93.5145 179.668 93.7105 179.032 93.7674C178.397 93.8243 177.757 93.7407 177.157 93.5226L178.09 86.3338Z" fill="#FF5652"/>
<path d="M177.39 84.4959C177.266 85.5111 177.705 86.3891 178.364 86.4577C179.023 86.5263 179.654 85.7443 179.736 84.7291C179.818 83.7139 179.42 82.8359 178.762 82.7673C178.103 82.6987 177.513 83.4807 177.39 84.4959Z" fill="#263238"/>
<path d="M178.515 82.7944L181.025 82.328C181.025 82.328 179.544 84.1115 178.515 82.7944Z" fill="#263238"/>
<path d="M189.614 485.831L202.976 481.606L201.673 454.387L188.297 458.599L189.614 485.831Z" fill="#FF8B7B"/>
<path d="M79.9307 476.105L91.9622 479.507L102.046 451.644L90.0004 448.241L79.9307 476.105Z" fill="#FF8B7B"/>
<path d="M93.4988 477.107L80.6029 471.619C80.3782 471.525 80.127 471.514 79.8953 471.59C79.6635 471.665 79.4667 471.822 79.3408 472.031L73.2907 481.84C73.1441 482.084 73.0513 482.357 73.0186 482.64C72.9859 482.923 73.014 483.21 73.101 483.481C73.188 483.753 73.3319 484.003 73.5231 484.214C73.7144 484.425 73.9485 484.593 74.2099 484.707C78.7509 486.518 81.0694 487.163 86.6942 489.563C90.1788 491.031 92.9089 495.504 100.578 495.504C105.764 495.504 106.751 490.812 104.694 490.126C95.0902 487.053 97.052 482.484 95.0902 478.602C94.7546 477.93 94.1903 477.4 93.4988 477.107Z" fill="#263238"/>
<path d="M207.75 483.486C206.617 483.455 205.49 483.303 204.389 483.033C204.331 483.017 204.279 482.985 204.238 482.942C204.197 482.898 204.169 482.844 204.156 482.786C204.145 482.729 204.151 482.67 204.173 482.617C204.195 482.563 204.232 482.517 204.279 482.484C204.705 482.21 208.395 479.74 209.945 480.399C210.113 480.472 210.26 480.588 210.37 480.735C210.481 480.881 210.552 481.054 210.576 481.236C210.645 481.517 210.64 481.812 210.56 482.091C210.481 482.37 210.331 482.624 210.124 482.827C209.438 483.327 208.595 483.561 207.75 483.486ZM205.226 482.608C207.435 483.047 209.095 482.964 209.712 482.388C209.847 482.249 209.944 482.077 209.992 481.89C210.04 481.702 210.038 481.505 209.986 481.318C209.979 481.237 209.951 481.159 209.906 481.092C209.86 481.025 209.798 480.971 209.726 480.934C208.93 480.577 206.762 481.661 205.199 482.608H205.226Z" fill="#1D4771"/>
<path d="M204.458 483.033H204.307C204.262 483.01 204.223 482.975 204.197 482.931C204.17 482.887 204.156 482.837 204.156 482.786C204.156 482.621 204.047 478.986 205.377 477.779C205.543 477.619 205.743 477.5 205.962 477.431C206.181 477.362 206.413 477.345 206.64 477.381C206.877 477.388 207.106 477.472 207.291 477.621C207.477 477.769 207.609 477.974 207.669 478.204C207.998 479.576 205.789 482.32 204.609 483.047C204.559 483.056 204.506 483.052 204.458 483.033ZM206.448 477.916C206.204 477.92 205.969 478.012 205.789 478.176C204.993 478.904 204.788 480.92 204.746 482.155C205.926 481.195 207.284 479.151 207.079 478.286C207.079 478.149 206.969 477.971 206.585 477.93L206.448 477.916Z" fill="#1D4771"/>
<path d="M203.346 481.277H189.161C188.917 481.269 188.679 481.354 188.496 481.514C188.313 481.675 188.197 481.899 188.173 482.141L186.924 493.363C186.906 493.651 186.946 493.939 187.043 494.211C187.14 494.482 187.291 494.731 187.488 494.942C187.684 495.153 187.922 495.321 188.186 495.436C188.45 495.552 188.735 495.612 189.023 495.613C193.976 495.531 196.349 495.243 202.592 495.243C206.433 495.243 212.044 495.641 217.353 495.641C222.662 495.641 222.758 490.4 220.536 489.92C210.576 487.794 208.916 484.858 205.445 482.059C204.854 481.569 204.114 481.293 203.346 481.277Z" fill="#263238"/>
<path opacity="0.2" d="M201.659 454.387L202.373 468.971L188.969 472.647L188.297 458.613L201.659 454.387Z" fill="black"/>
<path opacity="0.2" d="M89.9998 448.255L102.031 451.657L96.8456 466.007L84.8003 462.605L89.9998 448.255Z" fill="black"/>
<path d="M117.397 121.798C112.129 123.032 106.339 142.006 106.339 142.006L121.032 157.549C121.032 157.549 133.517 139.619 131.061 133.143C128.468 126.393 123.557 120.343 117.397 121.798Z" fill="#1D4771"/>
<path opacity="0.2" d="M117.397 121.798C112.129 123.032 106.339 142.006 106.339 142.006L121.032 157.549C121.032 157.549 133.517 139.619 131.061 133.143C128.468 126.393 123.557 120.343 117.397 121.798Z" fill="black"/>
<path opacity="0.4" d="M125.533 133.692C128.277 131.222 130.005 131.908 131.212 133.829C132.365 139.413 124.559 152.062 121.609 156.561C120.361 151.28 119.483 139.303 125.533 133.692Z" fill="black"/>
<path d="M184.62 126.215C185.347 131.703 184.894 148.563 174.248 199.571L122.953 198.569C124.75 177.73 125.354 164.862 117.314 121.852C124.564 120.519 131.899 119.708 139.265 119.424C147.04 119.021 154.834 119.172 162.587 119.877C170.009 120.7 178.145 122.319 181.794 123.101C182.529 123.263 183.197 123.65 183.703 124.208C184.209 124.766 184.53 125.467 184.62 126.215Z" fill="#1D4771"/>
<path opacity="0.2" d="M184.62 126.215C185.347 131.703 184.894 148.563 174.248 199.571L122.953 198.569C124.75 177.73 125.354 164.862 117.314 121.852C124.564 120.519 131.899 119.708 139.265 119.424C147.04 119.021 154.834 119.172 162.587 119.877C170.009 120.7 178.145 122.319 181.794 123.101C182.529 123.263 183.197 123.65 183.703 124.208C184.209 124.766 184.53 125.467 184.62 126.215Z" fill="black"/>
<path d="M143.861 77.7868C143.12 90.3397 142.489 95.6215 148.045 102.646C156.277 113.182 171.807 110.877 176.265 98.7631C180.271 87.7879 180.806 69.1026 169.255 62.984C157.704 56.8653 144.588 65.2339 143.861 77.7868Z" fill="#FF8B7B"/>
<path d="M160.736 199.256C160.736 199.256 153.286 290.844 143.463 339.45C135.534 378.755 99.5626 463.69 99.5626 463.69L83.9092 457.077C83.9092 457.077 102.032 360.879 114.283 337.488C128.002 256.807 105.791 229.3 122.981 198.57L160.736 199.256Z" fill="#263238"/>
<path opacity="0.4" d="M146.783 249.343C141.172 273.2 144.808 294.863 148.608 309.158C150.858 293.834 152.888 277.33 154.617 261.868C152.244 257.423 149.266 253.225 146.783 249.343Z" fill="black"/>
<path d="M174.276 199.516C174.276 199.516 193.757 288.95 196.226 327.185C198.833 366.97 204.06 461.22 204.06 461.22L186.884 465.829C186.884 465.829 167.567 368.685 169.049 339.45C159.446 297.964 125.958 198.624 125.958 198.624L174.276 199.516Z" fill="#263238"/>
<path d="M206.653 465.582L184.346 469.341L182.206 461.384L206.09 457.323L206.653 465.582Z" fill="#1D4771"/>
<path d="M102.375 464.471L81.4805 458.559L82.6466 450.807L104.981 456.309L102.375 464.471Z" fill="#1D4771"/>
<path d="M122.35 195.496L119.826 200.037C119.633 200.38 120.045 200.75 120.635 200.764L174.427 201.821C174.894 201.821 175.291 201.615 175.333 201.327L176.005 196.745C176.005 196.429 175.662 196.155 175.154 196.141L123.2 195.126C123.039 195.106 122.874 195.131 122.725 195.196C122.576 195.261 122.446 195.364 122.35 195.496Z" fill="white"/>
<path d="M129.058 201.437H127.686C127.411 201.437 127.205 201.272 127.233 201.108L128.152 195.154C128.152 194.989 128.426 194.852 128.701 194.852H130.073C130.347 194.852 130.553 195.003 130.525 195.181L129.606 201.121C129.593 201.3 129.346 201.437 129.058 201.437Z" fill="#263238"/>
<path d="M162.793 202.095H161.421C161.147 202.095 160.941 201.944 160.968 201.766L161.887 195.825C161.887 195.647 162.162 195.51 162.45 195.51H163.822C164.096 195.51 164.302 195.661 164.275 195.839L163.355 201.779C163.314 201.958 163.067 202.095 162.793 202.095Z" fill="#263238"/>
<path d="M187.46 132.677C189.971 138.014 192.769 143.556 195.691 148.811C198.465 154.019 201.625 159.013 205.144 163.751C205.583 164.313 206.022 164.889 206.379 165.301C206.735 165.713 207.188 166.206 207.654 166.673C208.614 167.609 209.631 168.484 210.7 169.293C213.001 171.031 215.417 172.612 217.93 174.026C223.191 176.995 228.619 179.656 234.187 181.997L232.513 188.171C226.053 187.083 219.729 185.303 213.65 182.861C210.486 181.608 207.43 180.099 204.513 178.348C202.978 177.417 201.507 176.386 200.109 175.261C199.382 174.685 198.737 174.04 197.983 173.368C197.228 172.695 196.611 171.996 196.117 171.392C194.937 170.116 193.894 168.813 192.824 167.51C191.754 166.206 190.794 164.848 189.861 163.49C187.94 160.746 186.212 158.002 184.538 155.259C181.202 149.685 178.228 143.901 175.634 137.945L187.46 132.677Z" fill="#FF8B7B"/>
<path d="M181.026 122.854C193.044 125.475 195.952 144.366 195.952 144.366L184.113 158.167C184.113 158.167 165.304 140.332 166.278 130.633C166.923 123.472 174.469 121.428 181.026 122.854Z" fill="#1D4771"/>
<path opacity="0.2" d="M181.026 122.854C193.044 125.475 195.952 144.366 195.952 144.366L184.113 158.167C184.113 158.167 165.304 140.332 166.278 130.633C166.923 123.472 174.469 121.428 181.026 122.854Z" fill="black"/>
<path d="M248.084 186.853L244.751 182.916C244.751 182.916 233.995 180.405 229.235 182.738L227.767 187.169L239.784 193.397L242.295 194.577C242.892 194.857 243.57 194.913 244.205 194.734C244.84 194.556 245.389 194.154 245.752 193.603L248.167 190.201C248.524 189.712 248.71 189.119 248.695 188.513C248.681 187.908 248.466 187.324 248.084 186.853Z" fill="#FF8B7B"/>
<path d="M178.941 147.136C181.04 141.539 182.206 134.789 181.684 131.565C180.971 137.3 176.608 145.147 172.232 150.978C164.369 154.12 155.896 155.441 147.45 154.842C139.004 154.243 130.802 151.74 123.461 147.52C119.853 140.222 116.862 128.821 118.755 122.017C116.437 125.474 114.722 134.926 115.819 141.594C112.129 137.821 109.975 133.582 109.961 129.411C109.961 109.368 134.121 110.589 134.45 95.9643C134.779 81.3398 128.825 51.4461 158.65 57.8255C178.186 56.9063 174.098 74.1374 170.915 84.6187C168.02 94.2906 197.571 131.414 178.941 147.136Z" fill="#263238"/>
<path d="M158.706 57.8258C170.916 51.3093 183.4 61.5711 177.007 72.3131C171.368 72.0661 166.8 75.6468 171.217 82.8081C158.116 74.5493 150.09 58.5529 158.706 57.8258Z" fill="#263238"/>
<path d="M171.546 80.9424C172.874 83.231 173.432 85.8857 173.138 88.5153C172.753 91.8902 170.119 91.8902 168.267 89.8872C166.415 87.8842 164.879 83.7274 165.949 81.1482C166.163 80.5914 166.536 80.1097 167.021 79.763C167.507 79.4163 168.083 79.2198 168.68 79.1979C169.276 79.1759 169.865 79.3296 170.375 79.6397C170.884 79.9499 171.292 80.4028 171.546 80.9424Z" fill="#FF8B7B"/>
</svg>
