<svg width="883" height="866" viewBox="0 0 883 866" fill="none" xmlns="http://www.w3.org/2000/svg">
<path d="M752.229 865.673C752.229 865.962 608.79 866.21 431.908 866.21C255.026 866.21 111.525 865.962 111.525 865.673C111.525 865.384 254.944 865.136 431.908 865.136C608.872 865.136 752.229 865.404 752.229 865.673Z" fill="#263238"/>
<path d="M612.466 612.796C580.551 590.508 573.321 549.133 574.582 511.93C574.788 505.733 574.106 499.165 577.06 493.732C580.014 488.299 586.913 484.561 592.47 487.163C597.076 489.332 599.08 494.703 601.662 499.144C605.108 505.059 610.156 509.879 616.225 513.046C620.17 515.112 625.066 516.351 628.97 514.203C634.341 511.249 634.961 503.874 634.919 497.677C634.919 486.151 634.85 474.639 634.713 463.14C634.341 456.965 634.969 450.771 636.572 444.797C638.493 438.93 642.769 433.498 648.614 431.845C654.46 430.193 661.752 433.601 663.074 439.633C663.302 442.187 663.364 444.754 663.26 447.317C663.425 449.899 664.623 452.729 667.04 453.514C669.457 454.299 671.977 452.502 673.836 450.684C680.198 444.487 684.536 436.41 688.564 428.437C692.592 420.463 696.538 412.263 702.321 405.467C708.105 398.671 716.099 393.279 725.044 392.763C733.988 392.247 743.304 397.741 745.535 406.417C747.766 415.093 742.705 423.954 737.272 430.998C729.074 441.454 719.411 450.672 708.58 458.368C706.466 459.522 704.779 461.326 703.767 463.512C702.425 467.643 706.329 471.774 710.398 473.076C715.005 474.604 720.003 474.129 724.858 474.707C729.712 475.286 734.876 477.393 736.715 481.937C739.235 488.258 733.947 494.868 728.762 499.206C718.351 507.882 706.529 514.708 693.811 519.387C689.267 521.04 684.495 522.507 680.818 525.688C677.141 528.869 674.952 534.425 677.162 538.784C679.372 543.142 685.053 544.526 689.824 543.638C694.596 542.75 698.83 540.189 703.375 538.474C711.865 535.272 722.813 535.851 728.163 543.184C729.82 545.71 730.869 548.586 731.228 551.586C731.586 554.586 731.244 557.628 730.228 560.473C728.161 566.136 724.979 571.327 720.871 575.738C707.342 591.903 689.763 604.185 669.932 611.33C650.246 618.146 632.007 620.005 612.445 612.838" fill="#1D4771"/>
<path d="M736.447 397.865C736.447 397.865 736.261 398.071 735.848 398.443L734.009 400.075C732.398 401.521 730.022 403.628 727.027 406.417C718.535 414.301 710.649 422.815 703.437 431.886C698.831 437.608 694.059 444.094 688.978 451.138C683.896 458.182 678.65 465.783 673.444 473.86C667.894 482.377 662.812 491.19 658.22 500.259C655.824 504.989 653.717 509.926 651.548 514.967L645.145 530.356C636.704 549.74 629.353 569.58 623.125 589.784C618.108 606.315 614.651 623.279 612.797 640.455C611.595 652.046 611.402 663.719 612.218 675.344C612.549 679.475 612.859 682.635 613.148 684.784C613.272 685.817 613.354 686.643 613.437 687.242V688.089C613.348 687.82 613.286 687.543 613.251 687.263C613.148 686.664 613.024 685.858 612.859 684.825C612.487 682.759 612.094 679.496 611.723 675.364C610.726 663.718 610.795 652.006 611.929 640.372C613.668 623.123 617.05 606.08 622.03 589.475C628.205 569.214 635.537 549.323 643.988 529.901L650.557 514.574C652.726 509.555 654.853 504.576 657.27 499.825C661.894 490.729 667.018 481.895 672.618 473.364C677.906 465.102 683.235 457.624 688.255 450.642C693.274 443.66 698.129 437.133 702.714 431.432C710 422.385 717.991 413.931 726.614 406.148C729.671 403.401 732.109 401.335 733.761 399.951L735.682 398.402C735.918 398.197 736.174 398.017 736.447 397.865Z" fill="#263238"/>
<path d="M657.539 499.785C657.248 498.934 657.047 498.055 656.94 497.162C656.61 495.447 656.238 493.03 655.804 489.89C654.916 483.694 654.007 475.204 653.036 465.805C652.065 456.406 650.971 447.896 650.062 441.761C649.587 438.704 649.174 436.246 648.884 434.531C648.659 433.654 648.541 432.752 648.533 431.846C648.889 432.673 649.145 433.54 649.297 434.428C649.752 436.122 650.268 438.559 650.847 441.637C652.024 447.834 653.181 456.262 654.152 465.681C655.123 475.1 655.949 483.363 656.589 489.787C656.899 492.679 657.168 495.137 657.374 497.1C657.535 497.985 657.59 498.886 657.539 499.785Z" fill="#263238"/>
<path d="M737.025 484.953C736.02 485.172 734.996 485.297 733.968 485.325C731.902 485.511 728.969 485.759 725.334 486.172C718.063 486.957 708.065 488.403 697.096 490.469C686.128 492.534 676.274 494.868 669.189 496.666C665.657 497.574 662.806 498.401 660.927 498.959C659.923 499.315 658.884 499.564 657.828 499.702C658.783 499.222 659.778 498.828 660.803 498.525C662.744 497.843 665.554 496.893 669.065 495.881C676.109 493.815 685.962 491.357 696.972 489.25C706.299 487.467 715.709 486.157 725.168 485.325C728.825 485.015 731.778 484.891 733.844 484.85C734.905 484.778 735.971 484.813 737.025 484.953Z" fill="#263238"/>
<path d="M623.041 588.029C622.82 587.73 622.64 587.404 622.504 587.058L621.14 584.187C619.963 581.687 618.372 577.99 616.472 573.466C612.63 564.377 607.734 551.653 602.529 537.524C597.323 523.395 592.531 510.67 588.895 501.478C587.119 497.016 585.652 493.36 584.558 490.634L583.401 487.68C583.24 487.339 583.129 486.977 583.07 486.605C583.291 486.905 583.471 487.231 583.607 487.576L584.971 490.448C586.127 492.947 587.739 496.645 589.639 501.168C593.481 510.257 598.377 522.982 603.582 537.111C608.788 551.24 613.58 563.964 617.216 573.156C618.992 577.618 620.459 581.274 621.533 584.001C622.008 585.178 622.4 586.067 622.71 586.955C622.871 587.296 622.982 587.657 623.041 588.029Z" fill="#263238"/>
<path d="M728.554 554.008C728.223 554.198 727.869 554.343 727.5 554.442L724.443 555.474L713.144 559.131C703.601 562.229 690.422 566.65 675.962 571.525C661.503 576.4 648.262 580.737 638.656 583.629C633.864 585.096 629.96 586.211 627.254 586.955L624.135 587.761C623.772 587.876 623.398 587.952 623.02 587.988C623.35 587.798 623.704 587.652 624.073 587.554L627.13 586.521L638.429 582.865C647.973 579.766 661.151 575.346 675.611 570.471C690.071 565.596 703.291 561.258 712.896 558.366C717.709 556.9 721.592 555.784 724.319 555.041L727.438 554.235C727.801 554.12 728.175 554.044 728.554 554.008Z" fill="#263238"/>
<path d="M685.509 52.9424L674.871 56.7432L670.306 42.8414C661.919 17.2066 635.19 3.59399 610.629 12.2491C586.069 20.9042 572.993 49.0177 581.38 74.6524L585.945 88.5542L575.265 92.3757C571.193 93.9552 567.886 97.0433 566.032 100.998C564.178 104.953 563.919 109.47 565.309 113.611L594.91 204.065C595.524 206.115 596.544 208.021 597.91 209.668C599.275 211.316 600.958 212.673 602.857 213.657C604.757 214.642 606.836 215.235 608.969 215.4C611.103 215.566 613.248 215.301 615.277 214.621L725.521 175.188C729.647 173.611 733.001 170.495 734.877 166.497C736.753 162.498 737.005 157.927 735.58 153.746L705.959 63.2913C705.329 61.2473 704.293 59.3511 702.914 57.7161C701.534 56.0811 699.84 54.7406 697.931 53.7748C696.023 52.8089 693.939 52.2374 691.805 52.0944C689.671 51.9514 687.529 52.2398 685.509 52.9424ZM601.478 67.402C599.217 60.7366 599.623 53.4547 602.611 47.0819C605.599 40.7091 610.938 35.7399 617.508 33.2154C620.752 32.1054 624.187 31.6603 627.607 31.9066C631.027 32.1529 634.362 33.0857 637.414 34.6491C640.466 36.2126 643.172 38.3748 645.37 41.0067C647.567 43.6386 649.213 46.6863 650.207 49.9679L654.751 63.8697L606.023 81.3038L601.478 67.402ZM663.448 147.673L671.008 170.767C671.147 171.23 671.102 171.729 670.883 172.16C670.664 172.591 670.287 172.92 669.831 173.081L659.234 176.861C658.812 176.978 658.362 176.927 657.977 176.719C657.591 176.511 657.302 176.162 657.168 175.745L649.546 152.755C645.343 152.526 641.311 151.018 637.988 148.434C634.665 145.85 632.212 142.312 630.955 138.295C629.159 132.984 629.486 127.184 631.87 122.109C634.253 117.035 638.507 113.079 643.742 111.07C646.326 110.187 649.062 109.833 651.786 110.03C654.51 110.227 657.166 110.97 659.597 112.215C662.028 113.46 664.183 115.182 665.934 117.278C667.685 119.374 668.996 121.801 669.789 124.414C671.118 128.495 671.228 132.875 670.106 137.017C668.983 141.159 666.676 144.884 663.469 147.735L663.448 147.673Z" fill="#1D4771"/>
<path d="M674.397 56.4954C674.397 56.7846 654.67 64.2003 630.131 73.0206C605.591 81.8409 585.574 88.9261 585.471 88.7195C585.368 88.513 605.198 81.0353 629.759 72.1943C654.319 63.3533 674.294 56.2269 674.397 56.4954Z" fill="#263238"/>
<path d="M697.821 60.2959C697.912 60.4752 697.988 60.6617 698.048 60.8536C698.213 61.2667 698.399 61.8038 698.647 62.4648C699.184 63.9728 699.928 66.0591 700.857 68.6618L708.789 91.7558C712.095 101.547 716.04 113.156 720.419 126.046C722.485 132.511 724.922 139.245 727.194 146.33C728.411 149.981 728.936 153.827 728.744 157.671C728.568 159.67 728 161.614 727.071 163.393C726.078 165.165 724.752 166.729 723.166 167.999C719.975 170.329 716.433 172.135 712.673 173.349L702.035 177.17L681.895 184.38L647.791 196.526L624.759 204.623L618.562 206.689L616.909 207.226C616.733 207.304 616.544 207.353 616.352 207.37C616.352 207.37 616.517 207.37 616.868 207.122L618.479 206.482L624.676 204.148L647.584 195.72L681.626 183.326L701.725 176.055L712.363 172.213C716.016 171.048 719.456 169.297 722.547 167.028C724.022 165.85 725.257 164.398 726.182 162.752C727.057 161.108 727.584 159.301 727.732 157.443C727.922 153.74 727.417 150.034 726.244 146.516C724.013 139.493 721.659 132.697 719.531 126.232C715.234 113.321 711.268 101.671 708.128 91.8797C704.989 82.0885 702.345 74.2184 700.527 68.6824C699.659 65.9764 698.998 63.8695 698.461 62.3409L697.965 60.6884C697.903 60.5632 697.855 60.4316 697.821 60.2959Z" fill="#263238"/>
<path d="M639.65 31.8106C639.65 31.8106 638.555 31.2735 636.531 30.4473C633.645 29.3386 630.594 28.7241 627.504 28.6295C622.924 28.4725 618.367 29.3332 614.16 31.1496C609.044 33.4114 604.67 37.0699 601.539 41.7051C598.387 46.327 596.696 51.789 596.684 57.3834C596.728 61.9686 597.423 66.5243 598.75 70.9134C599.824 74.6729 600.94 77.6681 601.683 79.7544C602.122 80.8141 602.481 81.905 602.758 83.0181C602.171 82.0273 601.68 80.9829 601.291 79.899C600.444 77.8333 599.225 74.9001 598.027 71.12C596.556 66.6847 595.756 62.0549 595.652 57.3834C595.597 51.5777 597.327 45.8954 600.609 41.106C603.849 36.3016 608.403 32.53 613.726 30.2407C618.064 28.4143 622.764 27.6087 627.463 27.8859C630.619 28.0467 633.72 28.7817 636.614 30.0548C637.387 30.4117 638.133 30.826 638.844 31.2942C639.138 31.4233 639.41 31.5975 639.65 31.8106Z" fill="#263238"/>
<path d="M640.601 112.64C640.931 112.44 641.277 112.267 641.634 112.123C642.668 111.657 643.739 111.277 644.836 110.987C646.577 110.473 648.373 110.168 650.186 110.078C652.652 109.946 655.12 110.318 657.437 111.173C662.725 113.032 667.579 118.424 669.975 125.633C671.124 129.502 671.124 133.621 669.975 137.49C668.701 141.689 666.417 145.511 663.324 148.623L663.448 148.066C666.195 155.605 669.19 163.785 672.289 172.316L672.475 172.833L671.958 173.019L667.228 174.589L656.9 178.038L656.383 178.204L656.218 177.687C653.388 169.135 650.289 161.162 647.955 153.333L648.41 153.684C644.371 153.349 640.521 151.833 637.338 149.326C634.458 147.108 632.096 144.288 630.418 141.063C628.903 138.204 628.149 135.003 628.228 131.768C628.324 128.462 629.149 125.217 630.646 122.268C632.142 119.318 634.272 116.736 636.883 114.705C637.958 113.833 639.164 113.136 640.457 112.64C639.29 113.332 638.159 114.084 637.069 114.891C634.201 117.318 632.003 120.441 630.686 123.96C629.556 126.613 629.028 129.484 629.138 132.366C629.249 135.248 629.996 138.07 631.327 140.629C632.977 143.732 635.282 146.438 638.081 148.561C641.118 150.945 644.789 152.382 648.637 152.693H648.988L649.091 153.003C651.364 160.687 654.483 168.722 657.354 177.315L656.672 176.985L667.001 173.535L671.71 171.945L671.38 172.647C668.302 164.116 665.327 155.915 662.601 148.376V148.066L662.849 147.818C665.852 144.835 668.091 141.171 669.376 137.138C670.472 133.438 670.472 129.499 669.376 125.798C667.125 118.857 662.477 113.59 657.437 111.731C655.206 110.871 652.824 110.47 650.434 110.553C648.65 110.594 646.876 110.837 645.146 111.276C642.068 112.041 640.622 112.743 640.601 112.64Z" fill="#263238"/>
<path d="M576.749 709.076L370.411 708.126C358.495 708.061 347.093 703.268 338.708 694.802C330.322 686.335 325.64 674.887 325.69 662.971L327.879 145.711C327.904 139.808 329.091 133.967 331.374 128.522C333.657 123.078 336.991 118.137 341.184 113.982C345.378 109.827 350.349 106.539 355.815 104.306C361.28 102.073 367.131 100.939 373.035 100.969L579.352 101.919C591.268 101.979 602.673 106.766 611.062 115.229C619.451 123.692 624.138 135.138 624.094 147.054L621.904 664.293C621.88 670.198 620.693 676.041 618.41 681.488C616.128 686.935 612.795 691.878 608.602 696.037C604.409 700.195 599.438 703.487 593.972 705.725C588.507 707.962 582.655 709.101 576.749 709.076Z" fill="#455A64"/>
<path d="M579.042 119.705H539.051C537.746 119.729 536.459 120.01 535.262 120.532C534.066 121.053 532.984 121.806 532.079 122.746C531.174 123.686 530.462 124.795 529.986 126.01C529.509 127.225 529.276 128.521 529.301 129.826V137.077C529.325 138.381 529.093 139.676 528.616 140.89C528.139 142.104 527.427 143.212 526.521 144.15C525.616 145.088 524.534 145.839 523.338 146.358C522.142 146.878 520.855 147.156 519.551 147.178L441.593 146.827C438.956 146.756 436.454 145.642 434.638 143.729C432.822 141.816 431.839 139.26 431.905 136.622V129.372C431.972 126.738 430.992 124.185 429.18 122.272C427.368 120.36 424.872 119.243 422.238 119.168H408.171L373.158 119.002C364.83 118.953 356.822 122.205 350.887 128.047C344.952 133.889 341.574 141.845 341.492 150.173L339.426 655.06C339.407 659.191 340.202 663.286 341.765 667.11C343.329 670.934 345.63 674.413 348.538 677.348C351.446 680.282 354.904 682.616 358.713 684.214C362.523 685.813 366.61 686.645 370.741 686.664L576.646 687.614C580.78 687.633 584.877 686.838 588.704 685.273C592.53 683.709 596.011 681.406 598.948 678.496C601.885 675.586 604.22 672.127 605.819 668.314C607.419 664.502 608.252 660.412 608.271 656.278L610.336 151.392C610.386 143.041 607.117 135.012 601.249 129.07C595.38 123.128 587.393 119.759 579.042 119.705Z" fill="white"/>
<path d="M551.342 620.253L398.236 619.592C396.645 619.592 395.364 617.857 395.385 615.75L395.55 575.697C395.55 573.631 396.852 571.855 398.442 571.855L551.548 572.557C552.43 572.71 553.218 573.197 553.749 573.916C554.28 574.636 554.513 575.533 554.399 576.42L554.254 616.432C554.254 618.559 552.932 620.274 551.342 620.253Z" fill="#1D4771"/>
<path d="M442.291 591.804C441.437 591.804 440.6 591.503 440.177 591.064L440.413 590.601C440.819 590.999 441.543 591.292 442.291 591.292C443.356 591.292 443.82 590.845 443.82 590.284C443.82 588.722 440.315 589.682 440.315 587.576C440.315 586.738 440.966 586.015 442.413 586.015C443.056 586.015 443.722 586.202 444.178 586.519L443.974 586.999C443.487 586.681 442.917 586.527 442.413 586.527C441.372 586.527 440.909 586.99 440.909 587.56C440.909 589.121 444.413 588.178 444.413 590.251C444.413 591.089 443.747 591.804 442.291 591.804ZM445.725 591.755V586.063H446.326V591.755H445.725ZM452.341 586.063H452.935V591.755H452.439L448.78 587.137V591.755H448.178V586.063H448.674L452.341 590.682V586.063ZM458.802 590.828V588.909H459.379V591.08C458.842 591.56 458.078 591.804 457.289 591.804C455.557 591.804 454.289 590.576 454.289 588.909C454.289 587.243 455.557 586.015 457.297 586.015C458.159 586.015 458.907 586.291 459.411 586.836L459.037 587.218C458.558 586.746 457.988 586.551 457.322 586.551C455.915 586.551 454.882 587.551 454.882 588.909C454.882 590.259 455.915 591.267 457.314 591.267C457.858 591.267 458.362 591.146 458.802 590.828ZM465.503 591.804C464.048 591.804 463.161 590.959 463.161 589.324V586.063H463.763V589.3C463.763 590.65 464.397 591.267 465.503 591.267C466.617 591.267 467.251 590.65 467.251 589.3V586.063H467.837V589.324C467.837 590.959 466.959 591.804 465.503 591.804ZM471.78 586.063C473.228 586.063 474.106 586.795 474.106 588.015C474.106 589.227 473.228 589.958 471.78 589.958H470.252V591.755H469.65V586.063H471.78ZM471.764 589.43C472.902 589.43 473.504 588.909 473.504 588.015C473.504 587.104 472.902 586.584 471.764 586.584H470.252V589.43H471.764Z" fill="#E8E8E3"/>
<path d="M428.776 268.122L375.648 267.881L375.604 277.63L428.732 277.871L428.776 268.122Z" fill="#1D4771"/>
<path opacity="0.1" d="M428.776 268.122L375.648 267.881L375.604 277.63L428.732 277.871L428.776 268.122Z" fill="black"/>
<path d="M584.516 327.984C584.933 327.942 585.343 327.845 585.734 327.695C586.306 327.472 586.803 327.091 587.169 326.598C587.534 326.105 587.753 325.518 587.8 324.906C587.8 321.622 587.8 316.83 587.8 310.674C587.8 307.596 587.8 304.147 587.8 300.346C587.8 299.416 587.8 298.445 587.8 297.475C587.935 296.532 587.73 295.573 587.222 294.769C586.937 294.383 586.567 294.068 586.141 293.849C585.714 293.631 585.243 293.514 584.764 293.508H581.541H551.693L378.921 292.868C378.479 292.861 378.042 292.96 377.646 293.158C377.25 293.356 376.908 293.646 376.649 294.004C376.15 294.812 375.96 295.773 376.112 296.71C376.112 298.776 376.112 300.842 376.112 302.907C376.112 307.039 376.112 311.17 376.112 315.301C376.112 317.367 376.112 319.432 376.112 321.498C376.026 322.46 376.026 323.428 376.112 324.39C376.221 324.802 376.422 325.185 376.702 325.507C376.981 325.829 377.33 326.083 377.723 326.249C378.13 326.411 378.566 326.488 379.004 326.476H389.518L435.396 326.724L513.065 327.199L565.429 327.612L579.661 327.778H583.359C584.206 327.778 584.619 327.778 584.619 327.778H583.359H579.661H565.429H513.065L435.396 327.53L389.518 327.344H379.004C378.425 327.367 377.848 327.269 377.31 327.055C376.766 326.823 376.283 326.469 375.896 326.022C375.509 325.574 375.23 325.044 375.079 324.473C374.96 323.93 374.918 323.374 374.955 322.82V321.292C374.955 319.226 374.955 317.16 374.955 315.095C374.955 310.963 374.955 306.832 374.955 302.701C374.955 300.635 374.955 298.569 374.955 296.504C374.916 295.954 374.916 295.401 374.955 294.851C375.033 294.244 375.268 293.667 375.637 293.178C375.993 292.679 376.465 292.274 377.012 291.997C377.558 291.72 378.164 291.58 378.777 291.587L551.548 292.538L581.397 292.744H584.619C585.187 292.745 585.746 292.882 586.249 293.144C586.753 293.407 587.186 293.787 587.511 294.252C588.093 295.15 588.328 296.23 588.172 297.289C588.172 298.259 588.172 299.23 588.172 300.16C588.172 303.919 588.172 307.369 588.172 310.488C588.172 316.685 588.027 321.436 587.986 324.741C587.935 325.377 587.705 325.984 587.32 326.493C586.936 327.002 586.415 327.39 585.817 327.612C585.426 327.855 584.976 327.983 584.516 327.984Z" fill="#E0E0E0"/>
<path d="M488.774 303.238H391.605V312.347H488.774V303.238Z" fill="#1D4771"/>
<path opacity="0.2" d="M488.774 303.238H391.605V312.347H488.774V303.238Z" fill="white"/>
<path d="M428.413 357.066L375.285 356.825L375.241 366.575L428.369 366.816L428.413 357.066Z" fill="#1D4771"/>
<path opacity="0.1" d="M428.413 357.066L375.285 356.825L375.241 366.575L428.369 366.816L428.413 357.066Z" fill="black"/>
<path d="M583.175 416.931C583.592 416.879 584.006 416.804 584.414 416.704C584.991 416.52 585.522 416.215 585.971 415.809C586.42 415.402 586.776 414.904 587.017 414.349C587.342 413.515 587.469 412.617 587.389 411.725C587.389 410.734 587.389 409.66 587.389 408.462C587.389 406.065 587.389 403.339 587.389 400.199V387.082C587.487 386.132 587.277 385.176 586.79 384.355C586.28 383.514 585.479 382.889 584.538 382.6C583.509 382.416 582.461 382.361 581.419 382.434H551.694L379.522 381.794C378.596 381.796 377.702 382.135 377.007 382.746C376.312 383.358 375.862 384.201 375.742 385.12C375.742 387.082 375.742 389.251 375.742 391.317C375.742 395.448 375.742 399.579 375.742 403.711C375.742 405.776 375.742 407.842 375.742 409.908C375.665 410.873 375.707 411.844 375.866 412.799C376.124 413.637 376.655 414.364 377.374 414.865C378.137 415.349 379.033 415.581 379.935 415.526H382.806H388.776L434.489 415.753L511.889 416.228L564.067 416.642L578.258 416.807H564.067H511.889L434.448 416.724L388.735 416.559H379.749C378.632 416.625 377.523 416.328 376.589 415.712C375.649 415.061 374.963 414.105 374.647 413.006C374.462 411.956 374.406 410.888 374.482 409.825C374.482 407.759 374.482 405.694 374.482 403.628C374.482 399.497 374.482 395.365 374.482 391.234C374.482 389.168 374.482 387.103 374.482 385.037C374.633 383.856 375.209 382.77 376.102 381.983C376.996 381.196 378.145 380.762 379.336 380.761L551.508 381.711L581.233 381.939C582.34 381.871 583.451 381.947 584.538 382.166C585.611 382.517 586.516 383.252 587.079 384.232C587.613 385.141 587.845 386.197 587.74 387.247C587.74 388.218 587.74 389.168 587.74 390.119C587.74 393.857 587.74 397.286 587.74 400.447C587.74 403.607 587.74 406.272 587.74 408.709C587.74 409.887 587.74 410.982 587.74 411.994C587.815 412.918 587.666 413.846 587.306 414.7C587.038 415.27 586.65 415.775 586.169 416.182C585.687 416.588 585.124 416.886 584.517 417.055C584.066 417.092 583.612 417.05 583.175 416.931Z" fill="#E0E0E0"/>
<path d="M428.011 449.873L374.883 449.632L374.839 459.382L427.967 459.623L428.011 449.873Z" fill="#1D4771"/>
<path opacity="0.1" d="M428.011 449.873L374.883 449.632L374.839 459.382L427.967 459.623L428.011 449.873Z" fill="black"/>
<path d="M582.758 509.7C583.176 509.651 583.59 509.575 583.998 509.473C584.572 509.29 585.101 508.988 585.55 508.585C585.998 508.183 586.357 507.69 586.6 507.138C586.924 506.304 587.051 505.406 586.972 504.515C586.972 503.503 586.972 502.449 586.972 501.231C586.972 498.855 586.972 496.108 586.972 492.968V479.851C587.071 478.902 586.861 477.945 586.373 477.124C585.851 476.298 585.054 475.683 584.122 475.389C583.094 475.198 582.046 475.136 581.002 475.203H551.278L379.106 474.563C378.18 474.565 377.286 474.904 376.59 475.515C375.895 476.127 375.446 476.97 375.325 477.889C375.325 479.954 375.325 482.02 375.325 484.086C375.325 488.217 375.325 492.348 375.325 496.48C375.325 498.545 375.325 500.611 375.325 502.677C375.249 503.635 375.29 504.6 375.449 505.548C375.697 506.391 376.23 507.121 376.957 507.614C377.716 508.109 378.616 508.341 379.519 508.274H388.504L434.217 508.522L511.617 508.997L563.796 509.411L577.987 509.576H563.796H511.617L434.217 509.349L388.504 509.163H379.519C378.401 509.238 377.289 508.94 376.358 508.316C375.418 507.665 374.732 506.709 374.417 505.61C374.231 504.56 374.176 503.492 374.251 502.429C374.251 500.363 374.251 498.297 374.251 496.232C374.251 492.1 374.251 487.969 374.251 483.838C374.251 481.772 374.251 479.707 374.251 477.538C374.397 476.358 374.969 475.273 375.859 474.485C376.749 473.698 377.897 473.263 379.085 473.262L551.257 474.212L580.982 474.439C582.089 474.371 583.2 474.448 584.287 474.666C585.36 475.017 586.265 475.753 586.828 476.732C587.362 477.642 587.593 478.698 587.489 479.748C587.489 480.719 587.489 481.69 587.489 482.619C587.489 486.358 587.489 489.787 587.489 492.947C587.489 496.108 587.489 498.773 587.489 501.21C587.489 502.387 587.489 503.482 587.489 504.494C587.568 505.418 587.419 506.348 587.055 507.2C586.787 507.77 586.399 508.276 585.918 508.682C585.436 509.089 584.873 509.386 584.266 509.555C583.782 509.721 583.265 509.771 582.758 509.7Z" fill="#E0E0E0"/>
<path d="M486.7 394.76L389.533 394.319L389.492 403.429L486.659 403.87L486.7 394.76Z" fill="#1D4771"/>
<path opacity="0.2" d="M486.7 394.76L389.533 394.319L389.492 403.429L486.659 403.87L486.7 394.76Z" fill="white"/>
<path d="M398.317 492.843C398.256 493.674 397.953 494.469 397.444 495.129C396.936 495.789 396.245 496.285 395.457 496.556C394.669 496.827 393.819 496.861 393.012 496.653C392.206 496.445 391.478 496.005 390.919 495.387C390.359 494.77 389.994 494.001 389.868 493.178C389.741 492.354 389.859 491.512 390.207 490.755C390.555 489.998 391.118 489.36 391.825 488.92C392.532 488.479 393.353 488.256 394.186 488.278C395.337 488.342 396.416 488.858 397.189 489.712C397.963 490.567 398.368 491.692 398.317 492.843Z" fill="#1D4771"/>
<path d="M411.477 492.906C411.517 493.488 411.438 494.072 411.243 494.623C411.048 495.173 410.742 495.677 410.344 496.104C409.946 496.531 409.464 496.871 408.928 497.104C408.393 497.337 407.816 497.457 407.232 497.457C406.648 497.457 406.07 497.337 405.535 497.104C405 496.871 404.518 496.531 404.12 496.104C403.722 495.677 403.416 495.173 403.221 494.623C403.026 494.072 402.946 493.488 402.987 492.906C402.946 492.323 403.026 491.739 403.221 491.188C403.416 490.638 403.722 490.134 404.12 489.707C404.518 489.28 405 488.94 405.535 488.707C406.07 488.474 406.648 488.354 407.232 488.354C407.816 488.354 408.393 488.474 408.928 488.707C409.464 488.94 409.946 489.28 410.344 489.707C410.742 490.134 411.048 490.638 411.243 491.188C411.438 491.739 411.517 492.323 411.477 492.906Z" fill="#1D4771"/>
<path d="M424.655 492.968C424.594 493.798 424.291 494.593 423.782 495.253C423.274 495.913 422.583 496.409 421.795 496.68C421.007 496.951 420.157 496.985 419.35 496.777C418.544 496.569 417.815 496.129 417.256 495.511C416.697 494.894 416.332 494.125 416.206 493.302C416.079 492.478 416.197 491.636 416.545 490.879C416.893 490.122 417.456 489.484 418.163 489.044C418.87 488.603 419.691 488.38 420.524 488.402C421.673 488.472 422.749 488.989 423.521 489.842C424.293 490.695 424.701 491.817 424.655 492.968Z" fill="#1D4771"/>
<path d="M437.814 493.03C437.753 493.861 437.449 494.656 436.941 495.316C436.432 495.976 435.741 496.472 434.953 496.743C434.165 497.014 433.315 497.047 432.509 496.839C431.702 496.632 430.974 496.192 430.415 495.574C429.856 494.956 429.49 494.188 429.364 493.364C429.237 492.541 429.355 491.698 429.703 490.941C430.051 490.184 430.614 489.546 431.321 489.106C432.028 488.666 432.849 488.443 433.682 488.465C434.831 488.534 435.907 489.051 436.679 489.904C437.452 490.758 437.859 491.88 437.814 493.03Z" fill="#1D4771"/>
<path d="M450.969 493.071C450.912 493.903 450.612 494.7 450.106 495.363C449.6 496.026 448.91 496.525 448.122 496.799C447.334 497.073 446.483 497.11 445.675 496.904C444.867 496.698 444.136 496.26 443.575 495.643C443.014 495.025 442.647 494.257 442.519 493.433C442.391 492.609 442.508 491.765 442.856 491.007C443.204 490.249 443.766 489.609 444.474 489.168C445.182 488.727 446.004 488.504 446.838 488.526C447.983 488.596 449.056 489.11 449.828 489.959C450.599 490.808 451.009 491.924 450.969 493.071Z" fill="#1D4771"/>
<path d="M464.149 493.133C464.093 493.961 463.796 494.754 463.294 495.415C462.793 496.076 462.109 496.576 461.327 496.854C460.545 497.131 459.699 497.174 458.893 496.977C458.087 496.78 457.356 496.352 456.791 495.745C456.225 495.137 455.849 494.378 455.709 493.56C455.569 492.743 455.672 491.902 456.004 491.141C456.336 490.381 456.883 489.734 457.578 489.28C458.273 488.827 459.085 488.586 459.914 488.588C461.078 488.631 462.177 489.134 462.971 489.986C463.764 490.838 464.188 491.969 464.149 493.133Z" fill="#1D4771"/>
<path d="M477.307 493.195C477.347 493.777 477.268 494.361 477.073 494.912C476.878 495.462 476.572 495.966 476.174 496.393C475.776 496.82 475.294 497.161 474.758 497.393C474.223 497.626 473.646 497.746 473.062 497.746C472.478 497.746 471.901 497.626 471.365 497.393C470.83 497.161 470.348 496.82 469.95 496.393C469.552 495.966 469.246 495.462 469.051 494.912C468.856 494.361 468.776 493.777 468.817 493.195C468.776 492.612 468.856 492.028 469.051 491.477C469.246 490.927 469.552 490.423 469.95 489.996C470.348 489.569 470.83 489.229 471.365 488.996C471.901 488.763 472.478 488.643 473.062 488.643C473.646 488.643 474.223 488.763 474.758 488.996C475.294 489.229 475.776 489.569 476.174 489.996C476.572 490.423 476.878 490.927 477.073 491.477C477.268 492.028 477.347 492.612 477.307 493.195Z" fill="#1D4771"/>
<path d="M490.467 493.257C490.411 494.085 490.114 494.878 489.612 495.539C489.111 496.2 488.427 496.7 487.645 496.978C486.863 497.255 486.017 497.298 485.211 497.101C484.405 496.904 483.675 496.476 483.109 495.869C482.543 495.261 482.167 494.502 482.028 493.684C481.888 492.867 481.99 492.026 482.322 491.265C482.654 490.505 483.201 489.858 483.896 489.404C484.591 488.951 485.403 488.71 486.233 488.712C487.396 488.755 488.495 489.258 489.289 490.11C490.083 490.962 490.506 492.093 490.467 493.257Z" fill="#1D4771"/>
<path d="M503.626 493.319C503.569 494.151 503.268 494.948 502.762 495.611C502.256 496.274 501.566 496.773 500.778 497.047C499.99 497.321 499.139 497.358 498.331 497.152C497.523 496.946 496.793 496.508 496.232 495.891C495.671 495.273 495.303 494.505 495.175 493.681C495.047 492.857 495.165 492.013 495.512 491.255C495.86 490.497 496.423 489.857 497.131 489.416C497.839 488.975 498.66 488.752 499.494 488.774C500.639 488.844 501.712 489.358 502.484 490.207C503.256 491.056 503.665 492.172 503.626 493.319Z" fill="#1D4771"/>
<g opacity="0.2">
<path d="M398.317 492.843C398.256 493.674 397.953 494.469 397.444 495.129C396.936 495.789 396.245 496.285 395.457 496.556C394.669 496.827 393.819 496.861 393.012 496.653C392.206 496.445 391.478 496.005 390.919 495.387C390.359 494.77 389.994 494.001 389.868 493.178C389.741 492.354 389.859 491.512 390.207 490.755C390.555 489.998 391.118 489.36 391.825 488.92C392.532 488.479 393.353 488.256 394.186 488.278C395.337 488.342 396.416 488.858 397.189 489.712C397.963 490.567 398.368 491.692 398.317 492.843Z" fill="white"/>
<path d="M411.477 492.906C411.517 493.488 411.438 494.072 411.243 494.623C411.048 495.173 410.742 495.677 410.344 496.104C409.946 496.531 409.464 496.871 408.928 497.104C408.393 497.337 407.816 497.457 407.232 497.457C406.648 497.457 406.07 497.337 405.535 497.104C405 496.871 404.518 496.531 404.12 496.104C403.722 495.677 403.416 495.173 403.221 494.623C403.026 494.072 402.946 493.488 402.987 492.906C402.946 492.323 403.026 491.739 403.221 491.188C403.416 490.638 403.722 490.134 404.12 489.707C404.518 489.28 405 488.94 405.535 488.707C406.07 488.474 406.648 488.354 407.232 488.354C407.816 488.354 408.393 488.474 408.928 488.707C409.464 488.94 409.946 489.28 410.344 489.707C410.742 490.134 411.048 490.638 411.243 491.188C411.438 491.739 411.517 492.323 411.477 492.906Z" fill="white"/>
<path d="M424.655 492.968C424.594 493.798 424.291 494.593 423.782 495.253C423.274 495.913 422.583 496.409 421.795 496.68C421.007 496.951 420.157 496.985 419.35 496.777C418.544 496.569 417.815 496.129 417.256 495.511C416.697 494.894 416.332 494.125 416.206 493.302C416.079 492.478 416.197 491.636 416.545 490.879C416.893 490.122 417.456 489.484 418.163 489.044C418.87 488.603 419.691 488.38 420.524 488.402C421.673 488.472 422.749 488.989 423.521 489.842C424.293 490.695 424.701 491.817 424.655 492.968Z" fill="white"/>
<path d="M437.814 493.03C437.753 493.861 437.449 494.656 436.941 495.316C436.432 495.976 435.741 496.472 434.953 496.743C434.165 497.014 433.315 497.047 432.509 496.839C431.702 496.632 430.974 496.192 430.415 495.574C429.856 494.956 429.49 494.188 429.364 493.364C429.237 492.541 429.355 491.698 429.703 490.941C430.051 490.184 430.614 489.546 431.321 489.106C432.028 488.666 432.849 488.443 433.682 488.465C434.831 488.534 435.907 489.051 436.679 489.904C437.452 490.758 437.859 491.88 437.814 493.03Z" fill="white"/>
<path d="M450.971 493.071C450.914 493.903 450.614 494.7 450.108 495.363C449.602 496.026 448.912 496.525 448.124 496.799C447.336 497.073 446.485 497.11 445.677 496.904C444.868 496.698 444.138 496.26 443.577 495.643C443.016 495.025 442.649 494.257 442.521 493.433C442.393 492.609 442.51 491.765 442.858 491.007C443.206 490.249 443.768 489.609 444.476 489.168C445.184 488.727 446.006 488.504 446.84 488.526C447.985 488.596 449.058 489.11 449.83 489.959C450.601 490.808 451.011 491.924 450.971 493.071Z" fill="white"/>
<path d="M464.149 493.133C464.093 493.961 463.796 494.754 463.294 495.415C462.793 496.076 462.109 496.576 461.327 496.854C460.545 497.131 459.699 497.174 458.893 496.977C458.087 496.78 457.356 496.352 456.791 495.745C456.225 495.137 455.849 494.378 455.709 493.56C455.569 492.743 455.672 491.902 456.004 491.141C456.336 490.381 456.883 489.734 457.578 489.28C458.273 488.827 459.085 488.586 459.914 488.588C461.078 488.631 462.177 489.134 462.971 489.986C463.764 490.838 464.188 491.969 464.149 493.133Z" fill="white"/>
<path d="M477.309 493.194C477.349 493.776 477.27 494.361 477.075 494.911C476.88 495.461 476.574 495.966 476.176 496.393C475.778 496.82 475.296 497.16 474.76 497.393C474.225 497.626 473.648 497.746 473.064 497.746C472.48 497.746 471.902 497.626 471.367 497.393C470.832 497.16 470.35 496.82 469.952 496.393C469.554 495.966 469.248 495.461 469.053 494.911C468.858 494.361 468.778 493.776 468.819 493.194C468.778 492.612 468.858 492.027 469.053 491.477C469.248 490.927 469.554 490.422 469.952 489.996C470.35 489.569 470.832 489.228 471.367 488.995C471.902 488.763 472.48 488.643 473.064 488.643C473.648 488.643 474.225 488.763 474.76 488.995C475.296 489.228 475.778 489.569 476.176 489.996C476.574 490.422 476.88 490.927 477.075 491.477C477.27 492.027 477.349 492.612 477.309 493.194Z" fill="white"/>
<path d="M490.467 493.256C490.411 494.084 490.114 494.877 489.612 495.539C489.111 496.2 488.427 496.7 487.645 496.977C486.863 497.255 486.017 497.298 485.211 497.101C484.405 496.904 483.675 496.475 483.109 495.868C482.543 495.261 482.167 494.502 482.028 493.684C481.888 492.866 481.99 492.025 482.322 491.265C482.654 490.504 483.201 489.857 483.896 489.404C484.591 488.95 485.403 488.71 486.233 488.712C487.396 488.755 488.495 489.257 489.289 490.109C490.083 490.961 490.506 492.093 490.467 493.256Z" fill="white"/>
<path d="M503.622 493.318C503.565 494.151 503.264 494.948 502.758 495.61C502.252 496.273 501.562 496.773 500.774 497.047C499.986 497.321 499.136 497.357 498.327 497.152C497.519 496.946 496.789 496.507 496.228 495.89C495.667 495.273 495.299 494.504 495.171 493.68C495.044 492.856 495.161 492.012 495.508 491.254C495.856 490.496 496.419 489.857 497.127 489.416C497.835 488.975 498.657 488.752 499.49 488.774C500.636 488.843 501.708 489.357 502.48 490.206C503.252 491.055 503.661 492.172 503.622 493.318Z" fill="white"/>
</g>
<path d="M484.932 195.122C486.367 194.49 487.584 193.45 488.433 192.131C489.281 190.813 489.723 189.274 489.703 187.706C489.757 186.687 489.602 185.667 489.249 184.71C488.896 183.752 488.352 182.877 487.649 182.136C486.947 181.396 486.101 180.807 485.163 180.404C484.225 180.001 483.215 179.793 482.195 179.793C481.174 179.793 480.164 180.001 479.227 180.404C478.289 180.807 477.443 181.396 476.741 182.136C476.038 182.877 475.494 183.752 475.14 184.71C474.787 185.667 474.633 186.687 474.686 187.706C474.655 189.289 475.093 190.847 475.946 192.181C476.799 193.516 478.028 194.568 479.478 195.204C467.911 196.939 468.427 209.499 468.427 209.499L495.777 209.622C495.777 209.622 496.417 196.836 484.932 195.122Z" fill="#1D4771"/>
<path opacity="0.1" d="M484.932 195.122C486.367 194.49 487.584 193.45 488.433 192.131C489.281 190.813 489.723 189.274 489.703 187.706C489.757 186.687 489.602 185.667 489.249 184.71C488.896 183.752 488.352 182.877 487.649 182.136C486.947 181.396 486.101 180.807 485.163 180.404C484.225 180.001 483.215 179.793 482.195 179.793C481.174 179.793 480.164 180.001 479.227 180.404C478.289 180.807 477.443 181.396 476.741 182.136C476.038 182.877 475.494 183.752 475.14 184.71C474.787 185.667 474.633 186.687 474.686 187.706C474.655 189.289 475.093 190.847 475.946 192.181C476.799 193.516 478.028 194.568 479.478 195.204C467.911 196.939 468.427 209.499 468.427 209.499L495.777 209.622C495.777 209.622 496.417 196.836 484.932 195.122Z" fill="black"/>
<path d="M529.372 217.723L431.895 217.28L431.842 228.93L529.319 229.373L529.372 217.723Z" fill="#1D4771"/>
<path opacity="0.2" d="M529.372 217.723L431.895 217.28L431.842 228.93L529.319 229.373L529.372 217.723Z" fill="white"/>
<path d="M171.016 278.099H170.045L167.236 278.305C165.716 278.396 164.204 278.597 162.712 278.904C161.746 279.04 160.788 279.226 159.841 279.462L156.639 280.35C151.19 282.022 146.048 284.568 141.415 287.89C135.295 292.332 130.184 298.021 126.419 304.58C124.206 308.361 122.445 312.389 121.172 316.582C119.834 321.138 119.064 325.842 118.879 330.587C118.756 333.079 118.797 335.577 119.003 338.064C119.003 339.324 119.354 340.585 119.519 341.865C119.658 343.156 119.9 344.434 120.242 345.687C122.1 353.976 125.869 361.716 131.248 368.29C136.628 374.864 143.47 380.089 151.227 383.55C156.842 385.973 162.86 387.325 168.971 387.537C175.283 387.884 181.602 386.978 187.562 384.872L189.38 384.19H189.628L189.834 384.314L215.882 397.535L215.118 398.196C212.329 389.561 209.644 381.195 207.041 373.16V372.85L207.268 372.623C213.587 366.258 218.278 358.464 220.943 349.901C223.357 342.072 224.061 333.816 223.009 325.691C222.072 318.471 219.751 311.499 216.171 305.159C213.086 299.712 209.105 294.824 204.397 290.699C200.512 287.434 196.213 284.697 191.611 282.56C188.128 281.058 184.501 279.916 180.787 279.152L176.655 278.47L173.66 278.243L171.842 278.119H171.223C171.429 278.096 171.636 278.096 171.842 278.119H173.681L176.676 278.243L180.807 278.842C184.568 279.551 188.245 280.651 191.776 282.127C196.457 284.238 200.834 286.969 204.789 290.245C209.584 294.351 213.649 299.24 216.812 304.704C220.493 311.113 222.886 318.179 223.855 325.505C224.995 333.755 224.34 342.154 221.934 350.128C219.252 358.869 214.489 366.829 208.053 373.325L208.177 372.788C210.78 380.823 213.486 389.189 216.295 397.803L216.688 399.063L215.51 398.464L189.462 385.265H189.917L188.058 385.946C181.982 388.084 175.547 389.01 169.116 388.673C162.873 388.435 156.729 387.034 151 384.542C140.072 379.861 130.98 371.727 125.117 361.386C122.419 356.609 120.449 351.457 119.271 346.1C118.949 344.815 118.708 343.511 118.549 342.196C118.383 340.894 118.115 339.614 118.053 338.333C117.494 330.983 118.271 323.593 120.346 316.52C121.65 312.27 123.46 308.192 125.737 304.374C129.592 297.755 134.809 292.03 141.043 287.58C145.752 284.25 150.98 281.723 156.515 280.102L159.758 279.276C160.713 279.055 161.678 278.882 162.65 278.76C164.157 278.48 165.683 278.315 167.215 278.264L170.045 278.161C170.367 278.117 170.691 278.096 171.016 278.099Z" fill="#1D4771"/>
<path d="M182.791 326.27H178.969L170.706 314.661V307.038C170.706 307.038 164.799 306.667 165.501 316.644C166.203 326.621 165.501 324.08 165.501 324.08C165.501 324.08 152.962 324.08 151.93 325.216C150.897 326.352 150.835 338.457 150.69 345.212C150.611 346.84 151.078 348.448 152.018 349.78C152.957 351.113 154.315 352.093 155.875 352.565C156.312 352.687 156.764 352.749 157.218 352.751C160.358 352.751 176.325 350.211 176.325 350.211H182.914L182.791 326.27Z" fill="#1D4771"/>
<path d="M193.718 324.224L191.363 350.334H184.836V324.761L193.718 324.224Z" fill="#1D4771"/>
<path d="M271.57 855.779V838.118L239.903 837.891L239.635 864.599L241.597 864.744C250.335 865.302 286.05 866.128 291.916 864.31C298.444 862.286 271.57 855.779 271.57 855.779Z" fill="#1D4771"/>
<path d="M292.662 862.657C292.662 862.946 280.805 863.194 266.201 863.194C251.597 863.194 239.74 862.946 239.74 862.657C239.74 862.368 251.597 862.12 266.201 862.12C280.805 862.12 292.662 862.368 292.662 862.657Z" fill="#263238"/>
<path d="M272.127 859.394C271.858 859.249 272.127 858.32 272.767 857.328C273.408 856.336 274.275 855.923 274.482 856.13C274.688 856.337 274.254 857.121 273.635 857.968C273.015 858.815 272.395 859.538 272.127 859.394Z" fill="#263238"/>
<path d="M274.153 860.549C273.864 860.549 274.008 859.393 274.628 858.298C275.248 857.203 276.074 856.542 276.301 856.707C276.528 856.873 276.157 857.802 275.578 858.773C275 859.744 274.421 860.653 274.153 860.549Z" fill="#263238"/>
<path d="M249.281 862.574C249.157 862.574 248.682 862.203 248 861.418C247.168 860.409 246.241 859.482 245.232 858.65C244.24 857.857 243.058 857.337 241.803 857.142C240.833 857.018 240.213 857.142 240.151 857.018C240.089 856.894 240.688 856.46 241.824 856.377C243.323 856.346 244.786 856.843 245.955 857.782C247.051 858.675 247.975 859.76 248.682 860.984C249.157 861.893 249.405 862.492 249.281 862.574Z" fill="#263238"/>
<path d="M272.233 856.068C272.377 856.316 271.84 856.935 270.932 857.266C270.023 857.596 269.217 857.473 269.176 857.266C269.134 857.059 269.775 856.626 270.56 856.336C271.345 856.047 272.068 855.82 272.233 856.068Z" fill="#263238"/>
<path d="M271.737 854.353C271.737 854.663 270.91 854.911 269.836 854.931C268.762 854.952 267.915 854.704 267.936 854.415C267.957 854.126 268.803 853.857 269.836 853.837C270.869 853.816 271.695 854.064 271.737 854.353Z" fill="#263238"/>
<path d="M349.548 855.779V838.118L317.882 837.891L317.613 864.331L319.576 864.476C328.313 865.033 364.049 866.128 369.895 864.31C376.422 862.286 349.548 855.779 349.548 855.779Z" fill="#1D4771"/>
<path d="M370.64 862.698C370.64 862.987 358.803 863.235 344.179 863.235C329.554 863.235 317.738 862.987 317.738 862.698C317.738 862.409 329.574 862.161 344.179 862.161C358.783 862.161 370.64 862.409 370.64 862.698Z" fill="#263238"/>
<path d="M350.108 859.394C349.86 859.249 350.108 858.32 350.749 857.328C351.389 856.336 352.257 855.923 352.463 856.13C352.67 856.337 352.236 857.121 351.616 857.968C350.997 858.815 350.377 859.538 350.108 859.394Z" fill="#263238"/>
<path d="M352.129 860.549C351.861 860.549 351.985 859.393 352.625 858.298C353.265 857.203 354.071 856.542 354.298 856.707C354.525 856.873 354.133 857.802 353.555 858.773C352.976 859.744 352.418 860.653 352.129 860.549Z" fill="#263238"/>
<path d="M327.26 862.574C327.136 862.574 326.681 862.203 325.979 861.418C325.147 860.409 324.22 859.482 323.211 858.65C322.219 857.857 321.037 857.337 319.782 857.142C318.832 857.018 318.191 857.142 318.129 857.018C318.067 856.894 318.666 856.46 319.803 856.377C321.302 856.346 322.765 856.843 323.934 857.782C325.035 858.669 325.96 859.755 326.661 860.984C327.136 861.893 327.383 862.492 327.26 862.574Z" fill="#263238"/>
<path d="M350.211 856.068C350.356 856.316 349.819 856.935 348.91 857.266C348.001 857.596 347.196 857.473 347.154 857.266C347.113 857.059 347.753 856.626 348.538 856.336C349.323 856.047 350.046 855.82 350.211 856.068Z" fill="#263238"/>
<path d="M349.757 854.353C349.757 854.663 348.931 854.911 347.857 854.931C346.783 854.952 345.956 854.704 345.977 854.415C345.998 854.126 346.824 853.857 347.857 853.837C348.89 853.816 349.757 854.064 349.757 854.353Z" fill="#263238"/>
<path d="M466.217 331.31C465.391 330.463 463.346 330.876 463.346 330.876C463.551 329.687 463.551 328.471 463.346 327.282C462.974 326.125 460.371 326.352 460.371 326.352C460.251 325.378 460.251 324.393 460.371 323.419C460.392 323.203 460.346 322.986 460.238 322.798C460.131 322.609 459.968 322.458 459.772 322.366C458.541 321.863 457.218 321.624 455.889 321.663C454.298 320.527 460.743 311.5 463.139 308.608C465.535 305.716 465.102 303.465 462.974 303.465C461.507 303.465 453.988 312.141 451.675 315.053C449.361 317.966 443.226 326.063 443.02 319.598C442.813 313.132 440.211 308.257 438.579 307.431C436.947 306.605 435.212 308.546 436.1 310.343C436.88 312.385 437.367 314.527 437.546 316.706C437.77 318.441 437.693 320.202 437.319 321.911C436.634 325.091 435.701 328.213 434.53 331.248H434.365C434.365 331.248 389.292 374.482 386.028 377.56C383.116 380.328 324.534 374.275 312.78 373.036C308.786 372.452 304.753 372.175 300.717 372.21C295.615 372.437 294.706 373.16 289.624 373.222C276.792 373.364 263.988 374.49 251.327 376.589C245.594 377.564 240.239 380.094 235.846 383.904C231.453 387.715 228.191 392.658 226.416 398.196C214.579 435.171 187.767 522.692 183.037 571.855C179.462 578.337 176.235 585.005 173.37 591.83C170.044 600.877 170.85 601.187 171.965 601.394C174.981 601.952 178.41 585.715 179.691 589.64C180.971 593.565 173.184 608.995 176.344 609.45C180.475 610.028 183.76 592.925 184.152 591.561C184.545 590.198 186.59 590.632 186.218 591.912C185.619 593.73 179.814 613.003 183.863 613.622C186.094 613.953 186.342 609.884 186.342 609.884C186.342 609.884 190.473 591.437 192.353 591.809C194.233 592.181 192.229 603.067 191.279 606.703C190.329 610.338 191.651 612.176 193.592 611.288C194.914 610.669 198.075 599.617 198.942 596.023C199.81 592.429 201.979 582.472 204.891 588.236C207.804 593.999 212.225 597.345 214.042 597.428C214.452 597.38 214.838 597.212 215.151 596.943C215.464 596.675 215.689 596.319 215.798 595.921C215.907 595.523 215.894 595.102 215.762 594.712C215.629 594.321 215.383 593.979 215.054 593.73C213.491 592.203 212.149 590.465 211.068 588.566C210.104 587.087 209.405 585.451 209.002 583.732C208.17 580.306 207.685 576.804 207.556 573.28L207.226 571.215C211.853 548.306 225.176 481.07 244.407 438.125L252.298 454.361L255.727 466.383L234.699 518.293L324.389 517.115L311.004 465.598L327.261 411.891C344.839 412.283 389.974 412.944 397.493 409.536C406.954 405.405 455.889 343.6 455.889 343.6C459.079 341.122 462.133 338.474 465.04 335.668C465.04 335.668 468.014 333.169 466.217 331.31Z" fill="#FFBE9D"/>
<path d="M230.752 479.933C233.355 471.051 246.719 427.135 246.719 427.135C246.719 427.135 253.288 462.933 251.553 467.25C249.957 470.946 248.071 474.51 245.914 477.909C230.752 500.982 232.735 512.529 232.735 512.529L324.347 509.74C324.553 496.933 316.972 467.147 315.402 462.396C313.832 457.645 319.058 442.09 319.058 442.09C319.058 442.09 329.387 431.576 329.015 426.164C328.819 421.303 328.218 416.466 327.218 411.705L382.99 413.77L381.235 375.969L301.129 367.954C298.34 375.824 273.118 371.961 273.118 371.961C245.893 372.87 244.199 377.869 232.879 386.669C221.56 395.469 202.824 470.989 202.824 470.989L230.752 479.933Z" fill="#1D4771"/>
<path d="M284.914 470.988C283.326 471.272 281.709 471.355 280.101 471.236C277.106 471.236 272.995 471.03 268.471 470.575C263.947 470.121 259.857 469.481 256.945 468.902C255.339 468.695 253.764 468.293 252.256 467.704C253.871 467.705 255.482 467.857 257.069 468.159C260.002 468.53 264.071 469.047 268.574 469.501C273.078 469.956 277.168 470.266 280.121 470.472C281.732 470.492 283.336 470.665 284.914 470.988Z" fill="#263238"/>
<path d="M291.196 463.201C289.608 463.979 287.929 464.555 286.197 464.916C277.956 467.081 269.453 468.089 260.934 467.911C259.171 467.968 257.408 467.802 255.688 467.415C257.427 467.195 259.181 467.106 260.934 467.147C264.177 467.043 268.639 466.816 273.555 466.238C278.472 465.659 282.851 464.833 285.949 464.172C287.67 463.712 289.425 463.388 291.196 463.201Z" fill="#263238"/>
<path d="M322.012 428.457C321.97 430.032 321.756 431.597 321.372 433.125C320.835 435.997 320.008 439.921 318.955 444.218C317.901 448.515 316.889 452.481 315.98 455.166C315.615 456.703 315.074 458.193 314.369 459.607C314.484 458.037 314.775 456.485 315.237 454.98C316.022 451.758 316.91 448.039 317.901 443.97C318.893 439.901 319.843 436.183 320.628 432.96C320.908 431.409 321.372 429.897 322.012 428.457Z" fill="#263238"/>
<path d="M231.726 474.666C226.947 473.928 222.231 472.83 217.617 471.381C212.903 470.279 208.277 468.829 203.777 467.043C208.554 467.793 213.269 468.891 217.886 470.328C222.601 471.426 227.227 472.876 231.726 474.666Z" fill="#263238"/>
<path d="M328.211 411.25C327.432 411.384 326.636 411.384 325.857 411.25C323.699 411.029 321.58 410.522 319.556 409.742C316.177 408.472 313.101 406.51 310.525 403.98C307.95 401.451 305.932 398.411 304.601 395.055C303.13 391.364 302.502 387.391 302.763 383.426C302.855 380.155 303.833 376.971 305.592 374.213C306.83 372.355 308.679 370.988 310.819 370.35C311.39 370.192 311.981 370.116 312.574 370.123C312.988 370.123 313.194 370.123 313.194 370.123C313.194 370.123 312.327 370.123 310.943 370.681C308.98 371.406 307.315 372.765 306.212 374.543C303.403 378.964 302.618 387.041 305.613 394.58C307.007 398.135 309.19 401.328 311.996 403.917C314.296 406.036 316.944 407.741 319.825 408.957C322.528 410.026 325.34 410.795 328.211 411.25Z" fill="#263238"/>
<path d="M376.363 413.026C375.846 406.692 375.681 400.333 375.867 393.981C375.705 387.633 375.898 381.282 376.445 374.956C376.963 381.284 377.128 387.635 376.941 393.981C377.115 400.335 376.922 406.694 376.363 413.026Z" fill="#263238"/>
<path d="M300.594 370.268C300.821 365.661 301.296 360.456 301.296 360.456C301.296 360.456 312.699 359.196 313.38 347.422C314.062 335.647 313.38 308.484 313.38 308.484L292.724 297.908L269.795 315.941L273.327 374.812L294.356 376.155C295.963 376.199 297.522 375.605 298.692 374.501C299.861 373.397 300.545 371.875 300.594 370.268Z" fill="#FFBE9D"/>
<path d="M302.638 338.105C302.638 338.105 302.638 338.332 302.452 338.601C302.298 338.796 302.1 338.95 301.873 339.051C301.646 339.152 301.398 339.196 301.151 339.179C299.829 339.179 298.548 337.651 298.094 335.874C297.878 335.013 297.878 334.112 298.094 333.251C298.136 332.875 298.272 332.516 298.488 332.205C298.704 331.895 298.995 331.644 299.333 331.474C299.611 331.359 299.923 331.359 300.201 331.474C300.407 331.577 300.573 331.743 300.676 331.949C300.82 332.301 300.676 332.528 300.676 332.507C300.676 332.486 300.676 332.301 300.469 332.094C300.361 331.946 300.202 331.843 300.023 331.805C299.844 331.767 299.657 331.796 299.498 331.887C299.245 332.041 299.034 332.255 298.886 332.512C298.738 332.768 298.657 333.058 298.651 333.354C298.477 334.122 298.477 334.92 298.651 335.688C299.064 337.299 300.18 338.601 301.171 338.725C301.365 338.751 301.563 338.737 301.751 338.684C301.939 338.63 302.115 338.539 302.266 338.415C302.514 338.25 302.597 338.084 302.638 338.105Z" fill="#EB996E"/>
<path d="M320.464 302.122C318.874 296.71 313.111 294.024 307.864 292.537C299.87 290.265 291.235 289.273 283.427 292.145C275.619 295.016 266.241 300.056 266.241 308.67C261.635 308.298 258.991 312.326 257.173 317.325C256.011 320.37 255.314 323.574 255.107 326.827C254.529 338.105 251.368 353.68 244.056 361.943C239.925 366.549 234.203 369.731 231.848 375.473C229.782 380.451 230.856 386.359 228.935 391.399C227.221 395.84 223.441 399.001 220.673 402.864C217.853 407.246 216.193 412.273 215.85 417.472C215.507 422.672 216.491 427.874 218.71 432.588C220.946 437.182 224.093 441.273 227.96 444.611C231.828 447.949 236.334 450.465 241.205 452.005C250.854 454.941 261.143 455.041 270.848 452.295C278.131 450.553 284.924 447.185 290.719 442.441C296.648 437.6 300.72 430.856 302.245 423.355C303.712 414.927 301.357 406.355 299.601 397.968C294.107 371.466 295.677 370.082 302.617 345.48C302.782 345.046 302.865 344.592 302.989 344.158C303.113 343.724 303.175 343.517 303.258 343.187C303.455 342.214 303.558 341.225 303.567 340.233C302.554 340.61 301.453 340.69 300.396 340.463C299.338 340.236 298.368 339.712 297.598 338.952C296.826 338.142 296.288 337.139 296.041 336.048C295.793 334.957 295.846 333.819 296.193 332.755C296.68 331.592 297.407 330.544 298.325 329.68C299.243 328.815 300.332 328.153 301.522 327.736C303.815 326.786 306.273 326.29 308.525 325.236C313.297 322.964 316.602 318.254 318.853 313.318C320.704 309.896 321.276 305.927 320.464 302.122Z" fill="#263238"/>
<path d="M303.466 338.664C303.902 339.308 304.263 340.002 304.54 340.729C305.159 342.031 305.986 343.869 306.895 345.997L307.06 346.389H306.626L304.56 346.575C303.135 346.575 301.937 346.844 300.532 346.823C300.41 346.795 300.297 346.737 300.203 346.654C300.109 346.571 300.038 346.466 299.995 346.348C299.934 346.16 299.934 345.957 299.995 345.769C300.043 345.491 300.105 345.215 300.181 344.943L300.553 343.477C300.74 342.498 301.031 341.543 301.421 340.626C301.382 341.623 301.237 342.614 300.987 343.58L300.698 345.046C300.594 345.542 300.408 346.306 300.698 346.245C301.73 346.245 303.197 346.017 304.56 345.935L306.626 345.749L306.358 346.203C305.469 344.138 304.726 342.196 304.292 340.853C303.911 340.167 303.633 339.43 303.466 338.664Z" fill="#1D4771"/>
<path d="M232.736 512.529L324.348 509.741L364.215 665.367L356.882 843.88H308.442L314.371 669.168L278.945 560.824L284.398 850.8L235.442 851.523L230.299 578.961C230.071 571.38 227.593 554.297 228.522 546.778L232.736 512.529Z" fill="#263238"/>
<path d="M291.135 563.034C289.635 563.128 288.13 563.038 286.652 562.766C283.884 562.435 280.104 561.857 275.952 561.03C271.8 560.204 268.082 559.254 265.397 558.49C263.961 558.174 262.573 557.674 261.266 557.002C261.266 556.693 268 558.304 276.262 559.977C284.525 561.65 291.176 562.724 291.135 563.034Z" fill="#455A64"/>
<path d="M356.389 834.089C356.389 834.378 345.42 834.626 331.89 834.626C318.36 834.626 307.371 834.378 307.371 834.089C307.371 833.8 318.34 833.552 331.89 833.552C345.441 833.552 356.389 833.779 356.389 834.089Z" fill="#455A64"/>
<path d="M283.963 843.26C283.963 843.57 273.304 843.797 260.166 843.797C247.029 843.797 236.391 843.57 236.391 843.26C236.391 842.95 247.049 842.723 260.166 842.723C273.283 842.723 283.963 842.971 283.963 843.26Z" fill="#455A64"/>
<path d="M277.644 842.517C277.355 842.517 276.074 779.164 274.772 701.02C273.471 622.876 272.707 559.481 272.975 559.481C273.244 559.481 274.566 622.814 275.847 700.999C277.127 779.184 277.954 842.517 277.644 842.517Z" fill="#455A64"/>
<path d="M349.877 834.089C349.855 833.807 349.855 833.524 349.877 833.242V830.763C349.877 828.532 350.043 825.33 350.167 821.261C350.456 812.999 350.869 800.997 351.385 786.29C352.501 756.71 354.071 715.934 355.785 670.923C355.785 670.489 355.785 670.076 355.785 669.704V669.849C344.941 626.47 335.129 587.099 328.002 558.613L319.74 524.923C318.789 520.977 318.066 517.899 317.55 515.751C317.302 514.739 317.137 513.954 316.992 513.355C316.912 513.086 316.863 512.809 316.848 512.529C316.955 512.789 317.038 513.059 317.096 513.334C317.261 513.913 317.467 514.698 317.757 515.689C318.314 517.755 319.12 520.895 320.153 524.819C322.218 532.793 325.131 544.278 328.766 558.428C335.955 586.892 345.87 626.16 356.859 669.601V669.746C356.859 670.117 356.859 670.551 356.859 670.964C355.021 715.975 353.348 756.73 352.129 786.31C351.489 801.038 350.952 812.957 350.58 821.261C350.373 825.392 350.208 828.532 350.105 830.763C350.105 831.817 349.981 832.643 349.96 833.242C349.963 833.526 349.935 833.81 349.877 834.089Z" fill="#455A64"/>
<path d="M334.077 666.069C330.598 667.213 327.014 668.009 323.377 668.445C318.915 669.209 315.115 669.746 313.4 669.829V669.416C313.958 669.581 314.247 669.684 314.247 669.767C314.247 669.849 313.896 669.767 313.318 669.767H312.078L313.318 669.395C314.929 668.92 318.73 668.135 323.191 667.329C326.77 666.553 330.416 666.131 334.077 666.069Z" fill="#455A64"/>
<path d="M333.23 671.997C330.008 672.145 326.78 672 323.584 671.564C320.357 671.498 317.143 671.145 313.979 670.51C320.434 669.983 326.932 670.485 333.23 671.997Z" fill="#455A64"/>
<path opacity="0.2" d="M232.344 515.814C233.429 517.207 234.795 518.356 236.354 519.185C237.913 520.014 239.63 520.506 241.391 520.627C245.081 521.064 248.813 520.994 252.484 520.42C276.136 517.797 301.192 515.38 324.348 509.741C294.375 511.414 262.709 510.856 232.736 512.529L232.426 515.091" fill="black"/>
<g opacity="0.2">
<path d="M263.225 558.056L280.122 623.619L278.944 560.824L263.225 558.056Z" fill="black"/>
</g>
</svg>
