<svg width="644" height="532" viewBox="0 0 644 532" fill="none" xmlns="http://www.w3.org/2000/svg">
<path d="M689.055 467.337H-24.6543V467.694H689.055V467.337Z" fill="#E6E6E6"/>
<path d="M153.515 488.933H106.239V489.29H153.515V488.933Z" fill="#E6E6E6"/>
<path d="M91.2808 488.933H63.8887V489.29H91.2808V488.933Z" fill="#E6E6E6"/>
<path d="M275.889 494.186H248.497V494.543H275.889V494.186Z" fill="#E6E6E6"/>
<path d="M418.716 502.151H357.066V502.508H418.716V502.151Z" fill="#E6E6E6"/>
<path d="M344.363 502.151H335.327V502.508H344.363V502.151Z" fill="#E6E6E6"/>
<path d="M622.465 494.186H488.745V494.543H622.465V494.186Z" fill="#E6E6E6"/>
<path d="M313.643 403.674H38.023C35.8638 403.67 33.7944 402.81 32.2689 401.281C30.7435 399.753 29.8867 397.682 29.8867 395.523V8.07918C29.9055 5.93238 30.7706 3.87969 32.294 2.36697C33.8174 0.85425 35.8761 0.00367758 38.023 0H313.643C315.805 0 317.878 0.858717 319.406 2.38724C320.935 3.91577 321.794 5.98889 321.794 8.15055V395.523C321.794 397.685 320.935 399.758 319.406 401.287C317.878 402.815 315.805 403.674 313.643 403.674ZM38.023 0.285485C35.9585 0.289266 33.9798 1.11205 32.5212 2.57324C31.0627 4.03444 30.2436 6.01464 30.2436 8.07918V395.523C30.2436 397.588 31.0627 399.568 32.5212 401.029C33.9798 402.49 35.9585 403.313 38.023 403.317H313.643C315.709 403.313 317.689 402.491 319.15 401.03C320.611 399.569 321.433 397.589 321.437 395.523V8.07918C321.433 6.01333 320.611 4.03316 319.15 2.57237C317.689 1.11159 315.709 0.289258 313.643 0.285485H38.023Z" fill="#E6E6E6"/>
<path d="M622.409 403.674H346.775C344.614 403.67 342.543 402.81 341.015 401.282C339.488 399.755 338.628 397.684 338.624 395.523V8.07918C338.647 5.93108 339.515 3.8784 341.04 2.36608C342.566 0.853751 344.626 0.00363747 346.775 0H622.409C624.553 0.00742899 626.608 0.859661 628.129 2.37198C629.649 3.8843 630.512 5.93485 630.531 8.07918V395.523C630.531 397.68 629.676 399.749 628.154 401.276C626.631 402.804 624.566 403.666 622.409 403.674ZM346.775 0.285485C344.709 0.289258 342.729 1.11159 341.268 2.57237C339.807 4.03316 338.985 6.01333 338.981 8.07918V395.523C338.985 397.589 339.807 399.569 341.268 401.03C342.729 402.491 344.709 403.313 346.775 403.317H622.409C624.475 403.313 626.455 402.491 627.916 401.03C629.377 399.569 630.199 397.589 630.203 395.523V8.07918C630.199 6.01333 629.377 4.03316 627.916 2.57237C626.455 1.11159 624.475 0.289258 622.409 0.285485H346.775Z" fill="#E6E6E6"/>
<path d="M357.038 345.407H325.649V469.92H357.038V345.407Z" fill="#E0E0E0"/>
<path d="M351.07 469.92H357.037V452.963H344.818L351.07 469.92Z" fill="#FAFAFA"/>
<path d="M219.491 345.407H188.102V469.92H219.491V345.407Z" fill="#E0E0E0"/>
<path d="M357.037 345.407H214.295V459.514H357.037V345.407Z" fill="#FAFAFA"/>
<path d="M351.855 351.016V381.206H219.433V351.016H351.812M352.369 350.46H218.919V381.749H352.412V350.46H352.369Z" fill="#E0E0E0"/>
<path d="M220.247 469.92H214.295V452.963H226.499L220.247 469.92Z" fill="#FAFAFA"/>
<path d="M282.512 366.104C282.512 366.728 282.697 367.338 283.043 367.857C283.39 368.376 283.883 368.78 284.459 369.019C285.036 369.257 285.67 369.32 286.282 369.198C286.894 369.076 287.456 368.776 287.897 368.335C288.338 367.894 288.639 367.332 288.76 366.72C288.882 366.108 288.82 365.473 288.581 364.897C288.342 364.321 287.938 363.828 287.419 363.481C286.9 363.135 286.29 362.95 285.666 362.95C284.83 362.95 284.027 363.282 283.436 363.874C282.844 364.465 282.512 365.268 282.512 366.104Z" fill="#E6E6E6"/>
<path d="M351.855 387.358V417.548H219.433V387.358H351.812M352.369 386.816H218.919V418.105H352.412V386.83L352.369 386.816Z" fill="#E0E0E0"/>
<path d="M282.512 402.532C282.512 403.156 282.697 403.766 283.043 404.284C283.39 404.803 283.883 405.207 284.459 405.446C285.036 405.685 285.67 405.747 286.282 405.626C286.894 405.504 287.456 405.204 287.897 404.762C288.338 404.321 288.639 403.759 288.76 403.147C288.882 402.535 288.82 401.901 288.581 401.325C288.342 400.748 287.938 400.255 287.419 399.909C286.9 399.562 286.29 399.377 285.666 399.377C284.83 399.377 284.027 399.71 283.436 400.301C282.844 400.893 282.512 401.695 282.512 402.532Z" fill="#E6E6E6"/>
<path d="M351.855 423.715V453.919H219.433V423.715H351.812M352.369 423.158H218.919V454.461H352.412V423.158H352.369Z" fill="#E0E0E0"/>
<path d="M282.512 438.817C282.515 439.44 282.702 440.049 283.05 440.566C283.399 441.083 283.892 441.485 284.469 441.721C285.046 441.958 285.679 442.018 286.29 441.895C286.901 441.772 287.462 441.47 287.902 441.028C288.342 440.587 288.641 440.025 288.761 439.413C288.882 438.801 288.819 438.168 288.579 437.592C288.34 437.017 287.936 436.525 287.417 436.179C286.899 435.833 286.29 435.648 285.666 435.648C285.251 435.648 284.839 435.73 284.456 435.89C284.072 436.049 283.724 436.283 283.431 436.577C283.138 436.872 282.905 437.221 282.748 437.605C282.59 437.99 282.51 438.402 282.512 438.817Z" fill="#E6E6E6"/>
<path d="M200.322 273.094H168.933V469.935H200.322V273.094Z" fill="#E0E0E0"/>
<path d="M194.355 469.92H200.322V452.963H188.117L194.355 469.92Z" fill="#FAFAFA"/>
<path d="M83.0164 273.094H51.6274V469.935H83.0164V273.094Z" fill="#E0E0E0"/>
<path d="M200.32 273.094H77.8052V459.529H200.32V273.094Z" fill="#FAFAFA"/>
<path d="M195.039 278.347V320.555H83.0865V278.347H195.039ZM195.696 277.704H82.4014V321.169H195.667V277.718L195.696 277.704Z" fill="#E0E0E0"/>
<path d="M195.04 325.708V437.66H141.712V325.708H195.04ZM195.697 325.051H141.069V438.317H195.697V325.051Z" fill="#E0E0E0"/>
<path d="M136.415 325.708V437.66H83.0865V325.708H136.415ZM137.057 325.051H82.4014V438.317H137.029V325.051H137.057Z" fill="#E0E0E0"/>
<path d="M83.7718 469.92H77.8052V452.963H90.0239L83.7718 469.92Z" fill="#FAFAFA"/>
<path d="M135.902 299.472C135.899 300.1 136.083 300.714 136.429 301.237C136.775 301.76 137.269 302.168 137.848 302.41C138.427 302.652 139.065 302.717 139.68 302.596C140.296 302.476 140.862 302.175 141.306 301.732C141.751 301.29 142.054 300.725 142.178 300.11C142.301 299.495 142.239 298.857 142 298.277C141.76 297.697 141.354 297.202 140.833 296.853C140.311 296.504 139.698 296.318 139.071 296.318C138.233 296.318 137.429 296.65 136.835 297.241C136.241 297.832 135.906 298.634 135.902 299.472Z" fill="#E6E6E6"/>
<path d="M147.207 379.022C147.207 379.65 147.393 380.263 147.742 380.784C148.091 381.306 148.587 381.712 149.167 381.951C149.746 382.191 150.384 382.253 150.999 382.129C151.615 382.006 152.179 381.703 152.622 381.258C153.064 380.813 153.365 380.247 153.486 379.632C153.606 379.016 153.541 378.378 153.299 377.8C153.057 377.221 152.649 376.727 152.126 376.381C151.603 376.034 150.989 375.851 150.362 375.853C149.946 375.853 149.535 375.936 149.151 376.095C148.767 376.254 148.419 376.488 148.126 376.782C147.833 377.077 147.601 377.426 147.443 377.811C147.285 378.195 147.205 378.607 147.207 379.022Z" fill="#E6E6E6"/>
<path d="M124.611 379.022C124.614 379.646 124.801 380.254 125.149 380.771C125.498 381.288 125.991 381.69 126.568 381.927C127.145 382.163 127.779 382.224 128.39 382.1C129.001 381.977 129.561 381.675 130.001 381.234C130.441 380.792 130.74 380.23 130.86 379.618C130.981 379.007 130.918 378.373 130.679 377.797C130.439 377.222 130.035 376.73 129.517 376.384C128.998 376.038 128.389 375.853 127.765 375.853C127.35 375.853 126.939 375.935 126.555 376.095C126.171 376.254 125.823 376.488 125.53 376.782C125.237 377.077 125.005 377.426 124.847 377.811C124.689 378.195 124.609 378.607 124.611 379.022Z" fill="#E6E6E6"/>
<path d="M121.042 218.209H107.81C109.03 224.628 109.798 231.125 110.108 237.651C110.108 244.788 100.031 273.094 114.391 273.094C128.75 273.094 118.673 244.859 118.673 237.651C119.007 231.123 119.799 224.626 121.042 218.209Z" fill="#E0E0E0"/>
<path d="M70.6968 247.157V255.722C70.7118 260.313 72.5424 264.712 75.7889 267.959C79.0354 271.205 83.4344 273.036 88.0256 273.051H96.5901C101.181 273.036 105.58 271.205 108.827 267.959C112.073 264.712 113.904 260.313 113.919 255.722V247.157H70.6968Z" fill="#F5F5F5"/>
<path d="M254.649 327.25C254.649 337.242 265.826 345.407 279.486 345.407H291.819C305.479 345.407 316.656 337.242 316.656 327.25H254.649Z" fill="#E0E0E0"/>
<path d="M581.441 312.605C573.962 318.714 563.627 329.891 554.178 345.621C547.868 356.098 544.072 367.032 542.401 381.563C542.401 365.148 542.501 347.519 542.558 330.876C544.457 326.593 548.796 316.716 551.908 308.922C562.285 282.9 566.182 276.491 575.503 254.052C587.965 224.076 600.726 188.591 597.072 191.431C589.62 197.212 561.072 250.669 557.989 258.32C549.585 278.738 544.389 300.333 542.587 322.34C542.587 306.638 542.701 292.364 542.758 281.287C542.958 245.159 543.572 233.497 543.872 229.9C545.028 228.073 546.384 225.946 547.183 224.804C553.892 215.098 556.476 206.847 562.785 192.373C571.749 171.89 579.457 135.505 577.202 137.332C567.81 144.983 560.415 161.398 550.68 182.339C540.945 203.279 543.729 215.312 541.802 233.183C541.402 236.695 541.088 249.941 540.86 268.283C538.348 248.728 533.609 235.852 524.973 224.148C514.353 209.745 504.075 200.024 496.539 194.943C489.002 189.861 509.557 225.232 519.377 240.62C528.127 254.38 536.192 266.499 540.788 278.447C540.546 303.326 540.432 334.815 540.432 364.092C538.176 350.76 534.494 336.385 529.583 325.266C523.674 311.905 514.595 291.408 507.358 284.456C505.631 282.786 514.924 322.654 520.89 333.245C526.857 343.837 531.239 353.843 534.993 359.852C535.864 361.28 538.776 366.661 540.432 369.773C540.432 405.558 540.631 437.133 540.945 447.881H542.487C542.387 445.112 542.359 426.898 542.401 402.803C546.127 389.728 554.634 374.797 561.657 361.18C569.308 346.434 588.921 306.538 581.441 312.605Z" fill="#E0E0E0"/>
<path d="M564.07 469.92H519.335L515.952 426.07H567.453L564.07 469.92Z" fill="#F0F0F0"/>
<path d="M570.779 431.18H512.612L510.956 416.378H572.449L570.779 431.18Z" fill="#F5F5F5"/>
<path d="M152.717 29.262H72.71V117.12H152.717V29.262Z" fill="#E0E0E0"/>
<path d="M161.382 29.262H78.7344V117.12H161.382V29.262Z" fill="#F5F5F5"/>
<path d="M154.458 110.196V36.1849L85.657 36.1849V110.196H154.458Z" fill="white"/>
<path d="M137.771 92.2397V54.1134H102.328V92.2397H137.771Z" fill="#F5F5F5"/>
<path d="M560.659 39.4967H486.333V121.116H560.659V39.4967Z" fill="#E0E0E0"/>
<path d="M568.709 39.4967H491.942V121.116H568.709V39.4967Z" fill="#F5F5F5"/>
<path d="M562.286 114.679V45.9343L498.38 45.9343V114.679H562.286Z" fill="white"/>
<path d="M530.326 100.247C541.339 100.247 550.267 91.3195 550.267 80.3064C550.267 69.2933 541.339 60.3654 530.326 60.3654C519.313 60.3654 510.385 69.2933 510.385 80.3064C510.385 91.3195 519.313 100.247 530.326 100.247Z" fill="#F5F5F5"/>
<path d="M235.835 81.6483H176.483V146.824H235.835V81.6483Z" fill="#E0E0E0"/>
<path d="M242.259 81.6483H180.952V146.824H242.259V81.6483Z" fill="#F5F5F5"/>
<path d="M237.12 141.685V86.7869H186.089V141.685H237.12Z" fill="white"/>
<path d="M211.612 100.347L197.652 124.528H225.573L211.612 100.347Z" fill="#F5F5F5"/>
<path d="M332.2 531.799C485.051 531.799 608.962 524.564 608.962 515.64C608.962 506.716 485.051 499.482 332.2 499.482C179.348 499.482 55.4375 506.716 55.4375 515.64C55.4375 524.564 179.348 531.799 332.2 531.799Z" fill="#F5F5F5"/>
<path d="M473.872 154.775L459.712 149.065C459.712 149.065 441.027 183.138 435.674 184.865C428.394 187.206 413.32 193.715 404.385 194.857C403.172 196.284 401.187 200.724 401.373 202.337C413.378 206.348 439.756 201.023 445.409 196.827C458.27 187.306 473.872 154.775 473.872 154.775Z" fill="#E58A7B"/>
<path d="M478.225 147.024C480.866 156.773 466.563 176.386 466.563 176.386L447.821 165.88C447.821 165.88 451.332 157.815 455.614 149.608C462.48 136.347 475.213 135.905 478.225 147.024Z" fill="#1D4771"/>
<path opacity="0.2" d="M478.225 147.024C480.866 156.773 466.563 176.386 466.563 176.386L447.821 165.88C447.821 165.88 451.332 157.815 455.614 149.608C462.48 136.347 475.213 135.905 478.225 147.024Z" fill="black"/>
<path opacity="0.2" d="M455.257 170.077L462.637 174.216L463.936 151.563C459.639 154.86 456.613 164.795 455.257 170.077Z" fill="black"/>
<path d="M465.891 139.687C465.891 139.687 451.303 172.147 459.811 232.583H517.293C518.206 223.762 515.18 180.711 526.128 139.145C519.823 137.912 513.443 137.097 507.03 136.704C498.895 136.232 490.741 136.232 482.606 136.704C476.968 137.276 471.38 138.274 465.891 139.687Z" fill="#1D4771"/>
<path opacity="0.2" d="M465.891 139.687C465.891 139.687 451.303 172.147 459.811 232.583H517.293C518.206 223.762 515.18 180.711 526.128 139.145C519.823 137.912 513.443 137.097 507.03 136.704C498.895 136.232 490.741 136.232 482.606 136.704C476.968 137.276 471.38 138.274 465.891 139.687Z" fill="black"/>
<g style="mix-blend-mode:multiply">
<path d="M452.56 516.925C452.474 518.467 474.271 519.709 501.235 519.709C528.199 519.709 550.152 518.467 550.238 516.925C550.324 515.384 528.541 514.156 501.563 514.156C474.585 514.156 452.66 515.398 452.56 516.925Z" fill="#E8ECF1"/>
</g>
<path d="M490.93 476.419L480.734 480.365L489.516 503.052L499.712 499.106L490.93 476.419Z" fill="#E58A7B"/>
<path d="M536.393 505.948H525.644L521.705 481.068H532.453L536.393 505.948Z" fill="#E58A7B"/>
<path d="M524.901 504.706H536.977C537.187 504.707 537.389 504.782 537.549 504.918C537.708 505.054 537.814 505.242 537.848 505.449L539.404 514.998C539.437 515.238 539.418 515.482 539.348 515.713C539.278 515.945 539.159 516.158 538.999 516.34C538.839 516.521 538.642 516.666 538.422 516.765C538.201 516.863 537.961 516.913 537.72 516.911C533.509 516.84 531.482 516.583 526.172 516.583C522.903 516.583 516.18 516.925 511.641 516.925C507.101 516.925 506.802 512.472 508.672 512.058C517.065 510.245 520.319 507.775 523.117 505.377C523.61 504.944 524.245 504.705 524.901 504.706Z" fill="#263238"/>
<path d="M489.217 501.024L500.636 497.684C500.84 497.626 501.057 497.64 501.252 497.723C501.446 497.806 501.607 497.954 501.706 498.141L505.989 506.705C506.088 506.922 506.139 507.159 506.138 507.398C506.136 507.637 506.083 507.872 505.981 508.089C505.879 508.305 505.731 508.496 505.547 508.649C505.364 508.802 505.149 508.913 504.918 508.975C500.764 510.117 497.981 510.816 492.785 512.329C489.202 513.371 485.548 515.07 482.008 516.197C479.553 516.982 473.786 517.011 470.803 517.011C466.392 517.011 465.407 512.358 467.306 512.143C472.088 511.615 472.73 511.858 475.371 510.53C479.691 508.642 483.608 505.937 486.904 502.565C487.526 501.857 488.323 501.325 489.217 501.024Z" fill="#263238"/>
<path d="M406.183 194.8L394.364 189.846L389.497 202.95C394.341 203.688 399.269 203.688 404.113 202.95L406.183 194.8Z" fill="#E58A7B"/>
<path d="M385.571 189.504L385.257 198.211L389.496 202.922L394.364 189.818L385.571 189.504Z" fill="#E58A7B"/>
<path d="M492.328 478.346L482.101 482.294L486.63 494.026L496.857 490.077L492.328 478.346Z" fill="#CF6F64"/>
<path d="M532.453 481.068H521.705L523.746 493.901H534.494L532.453 481.068Z" fill="#CF6F64"/>
<path opacity="0.2" d="M457.984 216.24C458.198 218.823 458.441 221.464 458.755 224.176L501.492 210.301C508.166 208.323 513.966 204.129 517.936 198.411C518.107 194.6 518.321 190.589 518.65 186.406C518.792 184.38 518.964 182.295 519.149 180.183C519.335 178.07 519.592 175.729 519.863 173.474L457.984 216.24Z" fill="black"/>
<path d="M471.944 169.42L470.516 169.249C471.358 162.112 476.683 156.488 482.292 156.631V158.058C477.382 157.958 472.7 163.025 471.944 169.42Z" fill="white"/>
<path d="M479.553 182.595H479.31V181.168C484.22 181.353 488.831 176.229 489.587 169.848L491.015 170.02C490.258 177 485.105 182.595 479.553 182.595Z" fill="white"/>
<path d="M506.231 109.197C504.218 117.062 501.849 131.465 507.03 136.704C507.03 136.704 503.404 144.683 488.802 144.683C475.456 144.683 482.607 136.704 482.607 136.704C491.486 134.62 491.643 128.139 490.472 122.001L506.231 109.197Z" fill="#E58A7B"/>
<path d="M499.807 114.422L490.486 122.001C490.775 123.412 490.942 124.844 490.985 126.284C493.712 128.996 499.179 122.13 499.735 118.618C500.018 117.236 500.043 115.813 499.807 114.422Z" fill="#CF6F64"/>
<path d="M474.457 109.097C475.105 110.222 475.979 111.2 477.022 111.971C478.066 112.742 479.258 113.29 480.523 113.58C483.949 114.336 485.662 111.181 484.72 108.013C483.877 105.158 481.065 101.318 477.583 101.975C476.837 102.128 476.138 102.458 475.546 102.938C474.954 103.417 474.485 104.031 474.179 104.728C473.873 105.426 473.738 106.186 473.786 106.947C473.835 107.707 474.065 108.444 474.457 109.097Z" fill="#CF6F64"/>
<path d="M480.123 83.9321C474.785 86.373 472.9 107.584 479.609 110.725C486.318 113.865 490.229 79.293 480.123 83.9321Z" fill="#263238"/>
<path d="M507.858 97.3641C506.573 108.013 506.43 114.279 500.721 119.732C498.951 121.541 496.716 122.827 494.263 123.446C491.809 124.065 489.232 123.994 486.816 123.241C484.4 122.488 482.239 121.082 480.571 119.178C478.904 117.274 477.796 114.946 477.368 112.452C475.641 102.888 478.025 87.0867 488.702 82.8473C490.945 81.8578 493.412 81.4863 495.847 81.7714C498.283 82.0565 500.597 82.9877 502.552 84.4686C504.506 85.9495 506.028 87.9262 506.961 90.1936C507.894 92.4611 508.204 94.9368 507.858 97.3641Z" fill="#E58A7B"/>
<path d="M490.315 89.442C498.223 87.4294 504.033 86.059 501.949 92.6394C499.194 101.432 495.882 109.94 500.322 110.325C503.034 110.568 515.024 105.486 513.497 100.333C512.169 95.8511 517.779 94.6235 518.778 92.3539C522.475 84.132 511.898 85.2169 513.782 80.2209C515.666 75.2249 505.218 67.1743 499.508 71.1853C490.215 77.6658 474.271 77.5659 482.65 66.9031C488.66 59.2949 477.94 60.8508 477.94 60.8508C477.94 60.8508 484.42 64.6906 473.515 70.6286C461.981 76.9664 472.558 93.9955 490.315 89.442Z" fill="#263238"/>
<path d="M512.055 109.097C510.494 111.356 508.148 112.954 505.474 113.58C501.949 114.336 500.593 111.181 501.92 108.013C503.105 105.158 506.359 101.318 509.728 101.975C513.097 102.631 513.868 106.3 512.055 109.097Z" fill="#E58A7B"/>
<path d="M459.811 232.584C459.811 232.584 450.161 318.942 449.405 351.716C448.634 385.803 482.107 492.16 482.107 492.16L499.236 485.022C499.236 485.022 479.252 387.844 482.107 354.371C485.133 317.872 497.637 232.641 497.637 232.641L459.811 232.584Z" fill="#1D4771"/>
<path opacity="0.2" d="M483.791 256.293C476.097 272.252 481.279 303.812 485.447 322.511C487.031 309.307 488.916 294.976 490.7 281.715C490.529 261.332 488.944 245.587 483.791 256.293Z" fill="black"/>
<path d="M498.48 479.37C498.566 479.37 500.507 484.822 500.507 484.822L480.751 493.13L477.64 487.335L498.48 479.37Z" fill="#1D4771"/>
<path d="M480.209 232.584C480.209 232.584 487.589 314.717 492.47 345.478C497.838 379.179 518.878 491.417 518.878 491.417H538.562C538.562 491.417 526.771 381.906 524.545 348.533C522.118 312.333 517.293 232.584 517.293 232.584H480.209Z" fill="#1D4771"/>
<path d="M538.862 486.293C538.947 486.293 539.518 491.788 539.518 491.788H517.879L516.337 485.479L538.862 486.293Z" fill="#1D4771"/>
<path opacity="0.2" d="M531.325 479.784C531.28 479.784 531.237 479.769 531.203 479.74C531.169 479.711 531.146 479.671 531.139 479.627C531.025 478.628 520.391 379.707 518.393 349.732C516.223 317.215 511.855 245.088 511.812 244.36C511.81 244.336 511.813 244.312 511.821 244.29C511.829 244.267 511.841 244.247 511.857 244.229C511.873 244.212 511.893 244.198 511.914 244.188C511.936 244.179 511.96 244.174 511.983 244.174C512.03 244.174 512.075 244.192 512.11 244.223C512.144 244.255 512.165 244.299 512.169 244.345C512.169 245.073 516.58 317.144 518.749 349.717C520.748 379.693 531.382 478.542 531.482 479.612C531.486 479.636 531.485 479.66 531.479 479.683C531.473 479.707 531.463 479.728 531.448 479.747C531.433 479.766 531.414 479.782 531.393 479.793C531.372 479.804 531.349 479.811 531.325 479.812V479.784Z" fill="black"/>
<path d="M491.528 100.333C491.528 101.204 490.986 101.903 490.415 101.903C489.844 101.903 489.43 101.204 489.487 100.333C489.544 99.4624 490.03 98.763 490.601 98.763C491.172 98.763 491.585 99.4767 491.528 100.333Z" fill="#263238"/>
<path d="M481.736 100.333C481.736 101.204 481.179 101.903 480.622 101.903C480.066 101.903 479.637 101.204 479.68 100.333C479.723 99.4624 480.237 98.763 480.808 98.763C481.379 98.763 481.793 99.4767 481.736 100.333Z" fill="#263238"/>
<path d="M484.819 100.776C483.628 103.435 482.092 105.925 480.251 108.184C481.679 109.612 484.348 108.955 484.348 108.955L484.819 100.776Z" fill="#DF5753"/>
<path d="M485.076 112.595C485.043 112.595 485.01 112.588 484.979 112.575C484.949 112.562 484.921 112.543 484.899 112.519C484.876 112.495 484.858 112.466 484.847 112.435C484.836 112.404 484.831 112.371 484.833 112.338C484.837 112.268 484.867 112.203 484.917 112.155C484.968 112.107 485.035 112.081 485.104 112.081C486.196 112.088 487.275 111.851 488.263 111.387C489.252 110.922 490.123 110.243 490.814 109.397C490.863 109.354 490.927 109.33 490.992 109.33C491.058 109.33 491.121 109.354 491.171 109.397C491.217 109.445 491.243 109.509 491.243 109.576C491.243 109.642 491.217 109.706 491.171 109.754C490.431 110.653 489.5 111.374 488.445 111.866C487.391 112.357 486.239 112.606 485.076 112.595Z" fill="#263238"/>
<path d="M493.27 97.7066C493.201 97.7417 493.126 97.76 493.049 97.76C492.972 97.76 492.896 97.7417 492.827 97.7066C492.293 97.3614 491.686 97.1467 491.053 97.0798C490.421 97.0128 489.782 97.0955 489.188 97.3212C489.13 97.3502 489.066 97.3673 489.002 97.3715C488.937 97.3756 488.872 97.3668 488.811 97.3455C488.75 97.3243 488.694 97.2909 488.645 97.2475C488.597 97.2041 488.558 97.1515 488.531 97.0929C488.478 96.9658 488.477 96.8231 488.527 96.6952C488.578 96.5672 488.677 96.4641 488.802 96.4077C489.548 96.1029 490.357 95.9827 491.16 96.0572C491.963 96.1318 492.735 96.3989 493.413 96.8359C493.467 96.8731 493.514 96.9208 493.55 96.9763C493.586 97.0317 493.611 97.0937 493.623 97.1588C493.635 97.2239 493.634 97.2907 493.62 97.3553C493.606 97.4199 493.579 97.4811 493.541 97.5354C493.469 97.6172 493.375 97.6766 493.27 97.7066Z" fill="#263238"/>
<path d="M477.953 94.8518C477.877 94.8334 477.807 94.7938 477.753 94.7376C477.705 94.6911 477.668 94.6355 477.642 94.5743C477.616 94.513 477.603 94.4472 477.603 94.3807C477.603 94.3143 477.616 94.2485 477.642 94.1872C477.668 94.1259 477.705 94.0704 477.753 94.0239C478.3 93.4103 478.981 92.9313 479.744 92.6243C480.507 92.3172 481.33 92.1905 482.149 92.2539C482.215 92.264 482.278 92.2875 482.334 92.3229C482.39 92.3584 482.439 92.405 482.476 92.4598C482.514 92.5147 482.539 92.5767 482.552 92.6419C482.565 92.7071 482.564 92.7743 482.549 92.8391C482.518 92.9713 482.441 93.0877 482.33 93.1666C482.22 93.2454 482.085 93.2813 481.95 93.2673C481.301 93.2265 480.652 93.3338 480.051 93.5811C479.45 93.8284 478.913 94.2092 478.481 94.6948C478.416 94.767 478.332 94.8199 478.239 94.8476C478.146 94.8753 478.047 94.8767 477.953 94.8518Z" fill="#263238"/>
<path d="M531.653 153.19L516.808 149.236C516.808 149.236 502.248 185.079 497.095 187.406C490.101 190.603 472.387 201.68 464.85 206.918C464.436 208.703 464.764 213.427 465.706 214.726C478.553 212.385 503.147 202.922 508.286 198.111C520.005 187.134 531.653 153.19 531.653 153.19Z" fill="#E58A7B"/>
<path d="M521.289 506.591C520.565 506.648 519.843 506.451 519.248 506.034C519.064 505.868 518.927 505.657 518.849 505.422C518.772 505.186 518.757 504.935 518.806 504.692C518.815 504.541 518.864 504.394 518.95 504.268C519.035 504.143 519.153 504.043 519.291 503.979C520.49 503.365 523.844 505.492 524.23 505.734C524.272 505.76 524.305 505.8 524.323 505.846C524.341 505.892 524.343 505.943 524.33 505.991C524.317 506.041 524.293 506.087 524.258 506.124C524.223 506.162 524.179 506.19 524.13 506.205C523.199 506.434 522.247 506.563 521.289 506.591ZM519.862 504.364C519.754 504.34 519.642 504.34 519.534 504.364C519.479 504.392 519.433 504.435 519.403 504.488C519.373 504.541 519.358 504.602 519.362 504.664C519.324 504.83 519.331 505.003 519.381 505.166C519.431 505.329 519.523 505.476 519.648 505.592C520.204 506.091 521.603 506.148 523.445 505.791C522.348 505.069 521.114 504.583 519.819 504.364H519.862Z" fill="#1D4771"/>
<path d="M524.06 506.205C524.022 506.217 523.982 506.217 523.945 506.205C522.875 505.606 520.862 503.251 521.162 502.051C521.207 501.861 521.314 501.692 521.467 501.57C521.62 501.449 521.809 501.382 522.004 501.381C522.196 501.355 522.391 501.371 522.575 501.428C522.76 501.484 522.93 501.58 523.075 501.709C524.259 502.722 524.331 505.834 524.331 505.991C524.338 506.038 524.329 506.086 524.306 506.127C524.282 506.169 524.246 506.201 524.202 506.22C524.154 506.229 524.105 506.224 524.06 506.205ZM522.147 501.852H522.047C521.719 501.852 521.676 502.037 521.662 502.109C521.49 502.808 522.761 504.592 523.817 505.434C523.812 504.229 523.439 503.053 522.746 502.066C522.581 501.921 522.367 501.845 522.147 501.852Z" fill="#1D4771"/>
<path d="M483.391 504.806C482.518 505.111 481.567 505.111 480.694 504.806C480.495 504.699 480.327 504.543 480.205 504.353C480.083 504.164 480.01 503.946 479.994 503.721C479.976 503.58 479.994 503.437 480.047 503.305C480.099 503.172 480.184 503.055 480.294 502.965C481.436 501.937 486.103 502.965 486.632 503.165C486.682 503.178 486.726 503.207 486.757 503.249C486.788 503.29 486.804 503.341 486.803 503.393C486.805 503.447 486.791 503.5 486.763 503.545C486.735 503.591 486.694 503.627 486.646 503.65C485.595 504.125 484.506 504.511 483.391 504.806ZM481.065 503.108C480.901 503.14 480.749 503.214 480.622 503.322C480.577 503.356 480.542 503.402 480.522 503.455C480.501 503.508 480.497 503.566 480.508 503.621C480.517 503.771 480.564 503.916 480.644 504.044C480.724 504.171 480.834 504.276 480.965 504.349C481.721 504.749 483.477 504.435 485.747 503.479C484.218 503.093 482.635 502.968 481.065 503.108Z" fill="#1D4771"/>
<path d="M486.604 503.65H486.489C485.062 503.393 482.207 501.752 482.122 500.524C482.122 500.238 482.25 499.839 482.935 499.61C483.167 499.528 483.412 499.493 483.658 499.508C483.903 499.523 484.143 499.587 484.363 499.696C485.904 500.453 486.718 503.193 486.761 503.322C486.771 503.365 486.769 503.41 486.757 503.452C486.744 503.495 486.721 503.534 486.689 503.564C486.668 503.599 486.639 503.629 486.604 503.65ZM483.221 500.039H483.078C482.635 500.196 482.635 500.381 482.635 500.438C482.635 501.181 484.705 502.537 486.147 502.993C485.815 501.847 485.112 500.843 484.149 500.139C483.862 499.993 483.532 499.957 483.221 500.039Z" fill="#1D4771"/>
<path d="M466.063 206.076L451.175 212.928L449.448 217.21L454.943 220.907C454.943 220.907 465.221 219.794 468.147 213.185L466.063 206.076Z" fill="#E58A7B"/>
<path d="M466.691 214.969C466.358 212.109 465.414 209.353 463.922 206.89L466.277 205.12C468.049 207.958 469.179 211.149 469.589 214.469L466.691 214.969Z" fill="#263238"/>
<path d="M469.232 208.103C469.546 208.598 469.701 209.178 469.675 209.764C469.648 210.35 469.442 210.914 469.083 211.378C468.725 211.843 468.232 212.186 467.672 212.36C467.112 212.535 466.512 212.533 465.953 212.354C465.395 212.176 464.904 211.829 464.55 211.362C464.195 210.895 463.992 210.33 463.97 209.744C463.947 209.157 464.106 208.579 464.425 208.086C464.743 207.593 465.205 207.21 465.749 206.99C466.359 206.679 467.067 206.621 467.719 206.83C468.372 207.038 468.915 207.496 469.232 208.103Z" fill="#263238"/>
<path d="M441.112 218.466L443.096 220.465L456.457 214.755L451.175 212.928L441.112 218.466Z" fill="#E58A7B"/>
<path opacity="0.2" d="M498.48 479.37C498.566 479.37 500.507 484.822 500.507 484.822L480.751 493.13L477.64 487.335L498.48 479.37Z" fill="black"/>
<path opacity="0.2" d="M538.862 486.293C538.947 486.293 539.518 491.788 539.518 491.788H517.879L516.337 485.479L538.862 486.293Z" fill="black"/>
<path d="M535.521 149.079C539.447 161.741 524.102 179.055 524.102 179.055L502.905 170.405C505.417 163.087 508.314 155.907 511.584 148.894C518.093 134.862 531.553 136.304 535.521 149.079Z" fill="#1D4771"/>
<path opacity="0.2" d="M535.521 149.079C539.447 161.741 524.102 179.055 524.102 179.055L502.905 170.405C505.417 163.087 508.314 155.907 511.584 148.894C518.093 134.862 531.553 136.304 535.521 149.079Z" fill="black"/>
<path d="M324.891 22.2248H315.77V23.695H324.891V22.2248Z" fill="#1D4771"/>
<path d="M442.965 80.4158L441.861 104.914L443.33 104.98L444.433 80.482L442.965 80.4158Z" fill="#1D4771"/>
<path d="M440.126 28.8196H271.691L256.018 379.565H424.453L440.126 28.8196Z" fill="#1D4771"/>
<path opacity="0.56" d="M435.102 33.6443H266.666L250.993 384.389H419.428L435.102 33.6443Z" fill="#FAFAFA"/>
<path opacity="0.07" d="M430.078 38.4544H261.642L245.955 389.2H414.39L430.078 38.4544Z" fill="#1D4771"/>
<path d="M410.908 191.431H267.138L265.939 218.266H409.709L410.908 191.431Z" fill="white"/>
<path d="M346.203 171.847H268.009L267.48 183.852H345.674L346.203 171.847Z" fill="#1D4771"/>
<path d="M407.667 263.858H263.897L262.698 290.693H406.468L407.667 263.858Z" fill="white"/>
<path opacity="0.47" d="M381.302 326.936H284.623L283.182 359.095H379.861L381.302 326.936Z" fill="#1D4771"/>
<path d="M374.837 364.092H278.158C278.115 364.102 278.071 364.102 278.029 364.092C278.015 364.05 278.015 364.005 278.029 363.963L279.457 331.789C279.456 331.767 279.461 331.746 279.47 331.725C279.479 331.705 279.491 331.687 279.507 331.673C279.524 331.658 279.543 331.647 279.563 331.64C279.584 331.633 279.606 331.63 279.628 331.632H376.307C376.325 331.623 376.344 331.619 376.364 331.619C376.384 331.619 376.403 331.623 376.421 331.632C376.431 331.649 376.436 331.669 376.436 331.689C376.436 331.709 376.431 331.729 376.421 331.746L375.022 363.992C375.005 364.025 374.978 364.053 374.945 364.07C374.912 364.088 374.874 364.096 374.837 364.092ZM278.329 363.749H374.665L376.093 331.918H279.756L278.329 363.749Z" fill="white"/>
<path d="M329.317 244.274H264.769L264.241 256.293H328.774L329.317 244.274Z" fill="#1D4771"/>
<path d="M379.461 104.744C379.092 112.554 376.315 120.058 371.511 126.226C367.954 130.886 363.377 134.668 358.132 137.284C352.886 139.899 347.111 141.278 341.249 141.314C336.513 141.35 331.819 140.416 327.457 138.57C323.095 136.723 319.157 134.003 315.886 130.577C312.615 127.151 310.08 123.091 308.438 118.648C306.795 114.206 306.079 109.474 306.335 104.744C306.837 94.9288 311.069 85.6764 318.167 78.8787C325.264 72.0809 334.691 68.2514 344.518 68.1733C349.258 68.1291 353.957 69.0574 358.325 70.9008C362.692 72.7442 366.635 75.4636 369.91 78.891C373.184 82.3184 375.722 86.3809 377.365 90.8275C379.007 95.2741 379.721 100.01 379.461 104.744Z" fill="white"/>
<path d="M382.902 75.8243C382.809 77.9009 382.07 79.8968 380.789 81.5339C379.841 82.7715 378.623 83.7761 377.228 84.4712C375.833 85.1664 374.297 85.5336 372.739 85.545C371.228 85.5541 369.739 85.1934 368.4 84.4942C367.062 83.795 365.914 82.7787 365.059 81.5339C363.927 79.852 363.366 77.8498 363.46 75.8243C363.598 73.2184 364.725 70.7633 366.611 68.9596C368.497 67.156 371 66.1396 373.609 66.1178C374.868 66.1063 376.116 66.3527 377.276 66.8418C378.436 67.331 379.484 68.0524 380.354 68.9618C381.225 69.8712 381.9 70.9492 382.338 72.1294C382.776 73.3096 382.968 74.5671 382.902 75.8243Z" fill="#1D4771"/>
<path d="M282.626 204.849C282.557 205.999 282.055 207.08 281.221 207.875C280.386 208.67 279.282 209.118 278.129 209.131C277.573 209.137 277.021 209.03 276.508 208.815C275.995 208.6 275.531 208.282 275.146 207.88C274.761 207.479 274.462 207.003 274.268 206.481C274.074 205.96 273.989 205.404 274.018 204.849C274.08 203.696 274.58 202.611 275.416 201.815C276.252 201.018 277.36 200.572 278.515 200.566C279.07 200.562 279.621 200.671 280.133 200.887C280.646 201.102 281.108 201.42 281.493 201.821C281.878 202.222 282.177 202.698 282.372 203.218C282.566 203.739 282.653 204.293 282.626 204.849Z" fill="#263238"/>
<path d="M301.867 204.849C301.802 206 301.3 207.084 300.465 207.879C299.63 208.674 298.524 209.122 297.37 209.131C296.815 209.136 296.265 209.027 295.754 208.811C295.242 208.595 294.78 208.276 294.397 207.875C294.013 207.474 293.715 206.999 293.522 206.478C293.329 205.958 293.244 205.403 293.274 204.849C293.335 203.699 293.833 202.615 294.666 201.82C295.499 201.024 296.604 200.576 297.756 200.566C298.312 200.56 298.864 200.667 299.377 200.882C299.89 201.098 300.354 201.416 300.739 201.817C301.124 202.218 301.423 202.694 301.617 203.216C301.811 203.737 301.896 204.293 301.867 204.849Z" fill="#263238"/>
<path d="M321.123 204.849C321.058 206 320.557 207.084 319.722 207.879C318.887 208.674 317.78 209.122 316.627 209.131C316.071 209.136 315.521 209.027 315.008 208.811C314.496 208.595 314.034 208.277 313.649 207.876C313.264 207.475 312.965 207 312.77 206.479C312.575 205.959 312.489 205.404 312.516 204.849C312.581 203.697 313.082 202.614 313.918 201.819C314.753 201.023 315.859 200.575 317.012 200.566C317.569 200.56 318.121 200.667 318.634 200.882C319.147 201.098 319.61 201.416 319.996 201.817C320.381 202.218 320.68 202.694 320.874 203.216C321.068 203.737 321.153 204.293 321.123 204.849Z" fill="#263238"/>
<path d="M279.385 277.276C279.316 278.426 278.814 279.507 277.98 280.302C277.145 281.097 276.041 281.546 274.888 281.558C274.333 281.563 273.782 281.454 273.27 281.238C272.757 281.022 272.295 280.704 271.91 280.303C271.525 279.902 271.226 279.427 271.031 278.906C270.837 278.386 270.75 277.831 270.777 277.276C270.843 276.124 271.344 275.041 272.179 274.246C273.014 273.45 274.12 273.003 275.274 272.993C275.829 272.989 276.38 273.098 276.892 273.314C277.405 273.53 277.867 273.848 278.252 274.249C278.637 274.649 278.936 275.125 279.131 275.645C279.326 276.166 279.412 276.721 279.385 277.276Z" fill="#263238"/>
<path d="M298.627 277.276C298.561 278.425 298.062 279.506 297.23 280.301C296.398 281.096 295.295 281.545 294.144 281.558C293.588 281.565 293.036 281.457 292.523 281.242C292.01 281.027 291.547 280.709 291.161 280.307C290.776 279.906 290.477 279.43 290.283 278.909C290.089 278.387 290.004 277.831 290.033 277.276C290.099 276.124 290.6 275.041 291.435 274.246C292.27 273.45 293.377 273.003 294.53 272.993C295.085 272.989 295.635 273.098 296.147 273.314C296.658 273.53 297.12 273.848 297.504 274.249C297.887 274.65 298.185 275.126 298.378 275.646C298.571 276.167 298.656 276.721 298.627 277.276Z" fill="#263238"/>
<path d="M317.925 277.276C317.859 278.427 317.358 279.511 316.523 280.306C315.688 281.101 314.581 281.549 313.428 281.558C312.873 281.561 312.323 281.45 311.812 281.234C311.301 281.017 310.839 280.699 310.454 280.299C310.07 279.898 309.771 279.424 309.575 278.904C309.38 278.384 309.292 277.83 309.317 277.276C309.386 276.126 309.888 275.044 310.722 274.25C311.557 273.455 312.661 273.006 313.814 272.994C314.37 272.987 314.922 273.095 315.435 273.31C315.948 273.525 316.411 273.843 316.797 274.244C317.182 274.646 317.481 275.122 317.675 275.643C317.869 276.165 317.954 276.72 317.925 277.276Z" fill="#263238"/>
<path d="M337.138 277.276C337.069 278.426 336.567 279.507 335.733 280.302C334.898 281.097 333.794 281.546 332.642 281.558C332.086 281.56 331.537 281.45 331.025 281.234C330.514 281.017 330.052 280.699 329.668 280.298C329.283 279.898 328.984 279.423 328.789 278.904C328.593 278.384 328.505 277.83 328.531 277.276C328.599 276.125 329.101 275.044 329.936 274.249C330.77 273.455 331.875 273.006 333.027 272.993C333.583 272.989 334.134 273.098 334.646 273.314C335.158 273.53 335.621 273.848 336.005 274.249C336.39 274.649 336.689 275.125 336.884 275.645C337.079 276.166 337.165 276.721 337.138 277.276Z" fill="#263238"/>
<path d="M356.466 277.276C356.397 278.426 355.895 279.507 355.06 280.302C354.226 281.097 353.121 281.546 351.969 281.558C351.413 281.565 350.861 281.457 350.348 281.242C349.835 281.027 349.371 280.709 348.986 280.307C348.601 279.906 348.302 279.43 348.108 278.909C347.914 278.387 347.829 277.831 347.858 277.276C347.923 276.124 348.425 275.041 349.26 274.246C350.095 273.45 351.201 273.003 352.355 272.993C352.91 272.989 353.461 273.098 353.973 273.314C354.485 273.53 354.948 273.848 355.333 274.249C355.718 274.649 356.017 275.125 356.212 275.645C356.406 276.166 356.493 276.721 356.466 277.276Z" fill="#263238"/>
<path d="M353.545 102.839C359.519 96.9966 359.836 87.6317 354.253 81.9221C348.669 76.2125 339.3 76.3203 333.325 82.1628C327.351 88.0053 327.034 97.3701 332.617 103.08C338.201 108.789 347.57 108.682 353.545 102.839Z" fill="#1D4771"/>
<path d="M371.511 126.227C367.955 130.886 363.378 134.668 358.132 137.284C352.886 139.899 347.111 141.278 341.25 141.314C335.566 141.363 329.958 140.012 324.919 137.38C319.881 134.749 315.567 130.919 312.359 126.227C319.296 119.318 330.273 114.807 342.435 114.807C354.596 114.807 365.188 119.318 371.511 126.227Z" fill="#1D4771"/>
<path opacity="0.1" d="M353.545 102.839C359.519 96.9966 359.836 87.6317 354.253 81.9221C348.669 76.2125 339.3 76.3203 333.325 82.1628C327.351 88.0053 327.034 97.3701 332.617 103.08C338.201 108.789 347.57 108.682 353.545 102.839Z" fill="white"/>
<path opacity="0.1" d="M371.511 126.227C367.955 130.886 363.378 134.668 358.132 137.284C352.886 139.899 347.111 141.278 341.25 141.314C335.566 141.363 329.958 140.012 324.919 137.38C319.881 134.749 315.567 130.919 312.359 126.227C319.296 119.318 330.273 114.807 342.435 114.807C354.596 114.807 365.188 119.318 371.511 126.227Z" fill="white"/>
<path d="M161.495 224.732C160.139 227.701 158.711 230.97 157.469 234.139C156.228 237.308 154.957 240.577 153.858 243.831C151.614 250.245 149.905 256.834 148.748 263.53L148.434 265.628C148.404 265.988 148.438 266.35 148.534 266.699C148.871 267.882 149.401 269.001 150.104 270.01C151.937 272.623 154.063 275.018 156.442 277.147C158.949 279.479 161.579 281.676 164.321 283.728C167.062 285.84 169.945 287.896 172.786 289.837L170.116 294.847C163.334 291.892 156.895 288.201 150.918 283.842C147.728 281.516 144.85 278.791 142.353 275.734C140.873 273.914 139.719 271.852 138.942 269.639C138.49 268.256 138.258 266.811 138.256 265.357C138.256 265.014 138.256 264.515 138.256 264.272V263.572L138.399 262.145C139.217 254.708 140.781 247.373 143.067 240.248C144.18 236.737 145.365 233.24 146.721 229.828C148.077 226.417 149.476 223.077 151.203 219.608L161.495 224.732Z" fill="#E58A7B"/>
<path d="M170.774 288.952L180.866 283.842L178.254 294.919C178.254 294.919 171.331 296.86 168.119 293.491L170.774 288.952Z" fill="#E58A7B"/>
<path d="M190.1 285.655L187.416 294.819L178.252 294.919L180.865 283.842L190.1 285.655Z" fill="#E58A7B"/>
<path d="M204.346 171.29C204.886 173.268 205.637 175.182 206.587 177C206.309 177.314 205.952 177.548 205.552 177.676C205.153 177.804 204.726 177.822 204.317 177.728L204.346 171.29Z" fill="#DF5753"/>
<path d="M204.047 171.376C204.638 171.376 205.117 170.641 205.117 169.734C205.117 168.828 204.638 168.093 204.047 168.093C203.455 168.093 202.976 168.828 202.976 169.734C202.976 170.641 203.455 171.376 204.047 171.376Z" fill="#263238"/>
<path d="M203.732 168.15L205.902 167.536C205.902 167.536 204.846 169.22 203.732 168.15Z" fill="#263238"/>
<path d="M176.468 181.767C177.767 188.405 179.066 200.58 174.413 205.02C174.413 205.02 176.24 211.757 188.587 211.757C202.162 211.757 195.067 205.02 195.067 205.02C187.659 203.25 187.845 197.754 189.144 192.587L176.468 181.767Z" fill="#E58A7B"/>
<path d="M172.857 166.636C173.542 177.728 173.599 182.438 179.195 188.133C187.631 196.698 201.106 193.443 203.747 182.424C206.13 172.432 204.617 155.988 193.755 151.577C191.37 150.595 188.775 150.237 186.213 150.538C183.652 150.838 181.21 151.787 179.118 153.295C177.026 154.803 175.353 156.819 174.257 159.154C173.162 161.488 172.68 164.064 172.857 166.636Z" fill="#E58A7B"/>
<path d="M173.957 154.161C168.39 156.188 160.968 154.675 163.879 171.847C166.963 190.032 162.224 196.013 162.224 196.013C162.224 196.013 183.335 200.509 204.889 195.742C204.889 195.742 198.309 184.237 200.15 175.758C202.505 165.052 200.65 161.098 200.65 161.098C200.65 161.098 181.779 151.306 173.957 154.161Z" fill="#263238"/>
<path d="M197.509 172.418C197.515 174.526 198.119 176.59 199.251 178.37C200.764 180.682 202.548 179.797 202.991 177.342C203.39 175.187 203.09 171.376 201.163 169.891C199.236 168.407 197.538 169.862 197.509 172.418Z" fill="#E58A7B"/>
<path d="M169.118 156.031C167.519 151.535 175.141 144.612 191.271 147.466C207.401 150.321 208.1 163.753 208.1 163.753L204.846 159.871L204.989 163.953L188.416 167.136L169.118 156.031Z" fill="#263238"/>
<path d="M170.488 205.777C170.393 205.125 170.556 204.462 170.942 203.928C171.329 203.395 171.909 203.034 172.558 202.922C177.582 202.094 189.002 200.409 194.74 201.209C199.022 201.808 200.135 204.292 200.321 206.333C200.35 206.691 200.302 207.05 200.181 207.388C200.059 207.725 199.867 208.032 199.617 208.289C199.367 208.546 199.065 208.747 198.73 208.877C198.396 209.007 198.038 209.065 197.68 209.045L172.872 207.932C172.287 207.902 171.73 207.672 171.296 207.279C170.861 206.886 170.576 206.355 170.488 205.777Z" fill="#1D4771"/>
<path opacity="0.6" d="M170.488 205.777C170.393 205.125 170.556 204.462 170.942 203.928C171.329 203.395 171.909 203.034 172.558 202.922C177.582 202.094 189.002 200.409 194.74 201.209C199.022 201.808 200.135 204.292 200.321 206.333C200.35 206.691 200.302 207.05 200.181 207.388C200.059 207.725 199.867 208.032 199.617 208.289C199.367 208.546 199.065 208.747 198.73 208.877C198.396 209.007 198.038 209.065 197.68 209.045L172.872 207.932C172.287 207.902 171.73 207.672 171.296 207.279C170.861 206.886 170.576 206.355 170.488 205.777Z" fill="black"/>
<path d="M184.833 455.146L194.04 461.541L209.442 440.658L200.235 434.277L184.833 455.146Z" fill="#E58A7B"/>
<path d="M163.365 454.732L173.085 460.271L186.717 438.189L176.997 432.65L163.365 454.732Z" fill="#E58A7B"/>
<path d="M209.428 440.658L201.492 451.421L192.285 445.04L200.221 434.277L209.428 440.658Z" fill="#CF6F64"/>
<path d="M176.982 432.65L186.717 438.203L179.694 449.579L169.959 444.027L176.982 432.65Z" fill="#CF6F64"/>
<path d="M192.599 275.491C192.599 275.491 228.541 320.783 221.79 364.106C216.351 399.092 184.805 446.468 184.805 446.468L169.974 439.102C180.428 418.155 189.349 396.478 196.667 374.24C198.924 367.336 199.582 360.01 198.593 352.814C197.604 345.618 194.993 338.741 190.957 332.702C172.744 306.11 143.567 321.94 163.194 275.491H192.599Z" fill="#1D4771"/>
<path opacity="0.6" d="M192.599 275.491C192.599 275.491 228.541 320.783 221.79 364.106C216.351 399.092 184.805 446.468 184.805 446.468L169.974 439.102C180.428 418.155 189.349 396.478 196.667 374.24C198.924 367.336 199.582 360.01 198.593 352.814C197.604 345.618 194.993 338.741 190.957 332.702C172.744 306.11 143.567 321.94 163.194 275.491H192.599Z" fill="black"/>
<path opacity="0.4" d="M210.227 304.582L205.003 299.387C205.003 299.801 215.123 362.279 217.964 379.836C219.64 374.707 220.924 369.458 221.804 364.134C225.144 342.88 218.164 321.169 210.227 304.582Z" fill="black"/>
<path d="M208.643 275.491C208.643 275.491 251.923 332.417 253.15 366.546C254.164 395.095 206.045 450.407 206.045 450.407L192.057 441.357C192.057 441.357 220.22 402.075 227.314 369.987C224.573 338.184 166.62 275.491 166.62 275.491H208.643Z" fill="#1D4771"/>
<path opacity="0.6" d="M208.643 275.491C208.643 275.491 251.923 332.417 253.15 366.546C254.164 395.095 206.045 450.407 206.045 450.407L192.057 441.357C192.057 441.357 220.22 402.075 227.314 369.987C224.573 338.184 166.62 275.491 166.62 275.491H208.643Z" fill="black"/>
<path d="M155.1 207.561C150.475 208.66 146.036 225.475 146.036 225.475L164.121 237.551C164.121 237.551 170.145 224.247 168.032 218.423C165.848 212.357 160.909 206.176 155.1 207.561Z" fill="#1D4771"/>
<path opacity="0.2" d="M158.64 218.395L157.384 233.054L164.107 237.565C165.963 233.386 167.338 229.009 168.204 224.518L158.64 218.395Z" fill="black"/>
<path d="M213.995 207.889C213.995 207.889 219.334 209.759 208.643 275.477H163.165C163.936 256.921 163.95 245.502 155.1 207.561C161.468 206.248 167.922 205.399 174.413 205.02C181.289 204.527 188.192 204.527 195.068 205.02C203.946 205.834 213.995 207.889 213.995 207.889Z" fill="#1D4771"/>
<path d="M218.621 218.395C219.648 221.25 220.733 224.319 221.875 227.273C223.017 230.228 224.102 233.268 225.258 236.266L228.755 245.23L229.64 247.471L230.097 248.585L230.311 249.141C230.311 249.241 230.311 249.241 230.311 249.227C230.05 248.859 229.708 248.556 229.312 248.342C228.747 248.01 228.111 247.819 227.456 247.785C226.913 247.768 226.372 247.871 225.872 248.085C225.215 248.385 225.215 248.513 225.23 248.499C225.348 248.404 225.454 248.293 225.544 248.171C226.334 247.133 227.018 246.019 227.585 244.845C228.256 243.532 228.898 242.133 229.54 240.72C230.796 237.865 231.953 234.91 233.109 231.927C234.265 228.943 235.364 225.931 236.435 222.891L239.689 213.784L245.185 215.212C244.1 221.721 242.701 228.058 241.017 234.51C240.203 237.722 239.247 240.905 238.162 244.117C237.62 245.73 237.02 247.328 236.335 248.97C235.621 250.752 234.741 252.462 233.708 254.08C233.329 254.625 232.909 255.14 232.452 255.622C231.723 256.409 230.839 257.036 229.854 257.463C228.981 257.838 228.035 258.014 227.085 257.977C226.021 257.937 224.985 257.628 224.073 257.078C222.998 256.407 222.105 255.48 221.475 254.38C221.261 254.009 221.076 253.638 220.947 253.366L220.676 252.824L220.134 251.711L219.049 249.498C217.621 246.529 216.194 243.532 214.952 240.52C213.71 237.508 212.397 234.453 211.169 231.384C209.942 228.315 208.843 225.246 207.801 221.935L218.621 218.395Z" fill="#E58A7B"/>
<path d="M213.995 207.889C219.462 209.188 225.614 225.346 225.614 225.346L209.356 239.178C209.356 239.178 198.836 221.563 200.963 215.754C203.175 209.702 206.858 206.19 213.995 207.889Z" fill="#1D4771"/>
<path d="M242.272 208.674L247.982 203.906L251.95 210.087L249.024 215.24C249.024 215.24 244.37 219.522 240.259 217.338C239.607 215.872 239.45 214.233 239.813 212.669C240.177 211.105 241.04 209.703 242.272 208.674Z" fill="#E58A7B"/>
<path d="M258.289 203.921L257.86 205.477L248.825 206.99L247.94 203.906L258.289 203.921Z" fill="#E58A7B"/>
<path d="M207.158 451.135L190.856 440.601L193.783 435.519L212.096 446.782L207.158 451.135Z" fill="#1D4771"/>
<path d="M179.466 459.529C178.036 459.354 176.661 458.866 175.441 458.101C175.39 458.084 175.347 458.051 175.316 458.007C175.285 457.964 175.268 457.912 175.268 457.858C175.268 457.805 175.285 457.753 175.316 457.71C175.347 457.666 175.39 457.633 175.441 457.616C175.883 457.473 179.723 456.288 180.836 457.202C180.961 457.306 181.056 457.441 181.112 457.594C181.167 457.748 181.18 457.913 181.15 458.073C181.13 458.33 181.045 458.577 180.903 458.792C180.76 459.007 180.566 459.182 180.337 459.3C180.069 459.446 179.77 459.524 179.466 459.529ZM176.254 457.958C178.038 458.872 179.466 459.2 180.151 458.858C180.3 458.775 180.426 458.655 180.516 458.511C180.606 458.366 180.657 458.2 180.665 458.03C180.665 457.801 180.665 457.701 180.536 457.644C179.937 457.159 177.796 457.53 176.226 457.958H176.254Z" fill="#263238"/>
<path d="M175.541 458.201C175.466 458.2 175.394 458.169 175.341 458.115C175.32 458.076 175.309 458.032 175.309 457.987C175.309 457.942 175.32 457.898 175.341 457.858C175.341 457.73 176.269 454.632 177.725 453.933C177.911 453.848 178.113 453.804 178.318 453.804C178.522 453.804 178.724 453.848 178.91 453.933C179.11 453.996 179.284 454.125 179.403 454.298C179.522 454.471 179.58 454.679 179.567 454.889C179.467 456.174 176.855 457.944 175.655 458.244L175.541 458.201ZM178.31 454.304C178.172 454.308 178.035 454.342 177.911 454.404C177.026 454.832 176.298 456.502 175.941 457.516C177.197 456.988 178.924 455.589 178.981 454.804C178.981 454.675 178.981 454.518 178.653 454.375C178.546 454.318 178.43 454.279 178.31 454.261V454.304Z" fill="#263238"/>
<path d="M199.836 465.695C198.223 465.695 195.982 463.625 194.754 462.355C194.723 462.311 194.706 462.259 194.706 462.205C194.706 462.151 194.723 462.099 194.754 462.055C194.782 462.009 194.823 461.971 194.87 461.946C194.918 461.921 194.972 461.909 195.025 461.912C195.596 461.912 200.55 462.655 201.249 464.053C201.323 464.179 201.362 464.322 201.362 464.467C201.362 464.613 201.323 464.756 201.249 464.881C201.144 465.099 200.986 465.287 200.788 465.427C200.591 465.566 200.362 465.654 200.121 465.681L199.836 465.695ZM195.696 462.555C197.495 464.296 199.079 465.267 199.979 465.152C200.136 465.132 200.286 465.073 200.416 464.981C200.545 464.889 200.65 464.766 200.721 464.624C200.753 464.576 200.77 464.519 200.77 464.46C200.77 464.402 200.753 464.345 200.721 464.296C200.35 463.525 197.709 462.869 195.696 462.555Z" fill="#263238"/>
<path d="M195.853 462.483C195.532 462.492 195.212 462.468 194.896 462.412C194.852 462.405 194.811 462.387 194.776 462.36C194.741 462.332 194.713 462.296 194.696 462.255C194.675 462.213 194.664 462.166 194.664 462.119C194.664 462.072 194.675 462.026 194.696 461.984C194.782 461.884 196.709 459.557 198.536 459.4C199.053 459.36 199.566 459.524 199.964 459.857C200.52 460.342 200.492 460.77 200.349 461.042C199.992 462.012 197.523 462.483 195.853 462.483ZM195.482 461.955C197.08 462.041 199.635 461.513 199.964 460.813C199.964 460.813 200.078 460.585 199.707 460.271C199.559 460.142 199.387 460.046 199.2 459.987C199.013 459.928 198.817 459.908 198.622 459.928C197.391 460.272 196.295 460.984 195.482 461.969V461.955Z" fill="#263238"/>
<path d="M175.927 456.659L163.822 453.233C163.614 453.17 163.389 453.186 163.191 453.278C162.994 453.371 162.837 453.533 162.752 453.733L158.669 462.911C158.573 463.146 158.528 463.399 158.537 463.653C158.546 463.907 158.608 464.156 158.72 464.383C158.832 464.611 158.991 464.813 159.187 464.975C159.382 465.137 159.609 465.256 159.854 465.324C164.136 466.437 166.192 466.751 171.516 468.278C174.799 469.192 179.481 470.891 184.006 472.175C188.531 473.46 190.044 469.049 188.288 468.107C180.352 463.911 179.724 460.97 177.554 457.83C177.165 457.261 176.59 456.847 175.927 456.659Z" fill="#1D4771"/>
<path d="M195.083 460.685L184.748 453.548C184.573 453.42 184.357 453.361 184.141 453.382C183.925 453.403 183.725 453.503 183.578 453.662L176.726 461.027C176.559 461.218 176.435 461.441 176.361 461.684C176.287 461.926 176.265 462.181 176.298 462.432C176.33 462.683 176.416 462.925 176.549 463.14C176.682 463.356 176.859 463.541 177.069 463.682C180.709 466.123 182.593 467.108 187.146 470.263C190.001 472.204 195.525 476.515 199.379 479.198C203.233 481.882 206.102 478.199 204.732 476.743C198.594 470.191 197.252 466.08 196.239 462.355C196.063 461.679 195.653 461.087 195.083 460.685Z" fill="#1D4771"/>
<path d="M186.703 447.41L168.075 438.146L170.002 433.093L189.9 442.856L186.703 447.41Z" fill="#1D4771"/>
<path d="M162.48 272.808L160.909 276.919C160.752 277.233 161.124 277.561 161.652 277.561H208.871C209.285 277.561 209.627 277.361 209.656 277.104L210.055 273.022C210.055 272.751 209.727 272.508 209.285 272.508H163.222C163.083 272.495 162.943 272.516 162.814 272.568C162.685 272.62 162.57 272.702 162.48 272.808Z" fill="#1D4771"/>
<path opacity="0.4" d="M162.48 272.808L160.909 276.919C160.752 277.233 161.124 277.561 161.652 277.561H208.871C209.285 277.561 209.627 277.361 209.656 277.104L210.055 273.022C210.055 272.751 209.727 272.508 209.285 272.508H163.222C163.083 272.495 162.943 272.516 162.814 272.568C162.685 272.62 162.57 272.702 162.48 272.808Z" fill="white"/>
<path d="M169.917 277.961H168.675C168.432 277.961 168.247 277.832 168.261 277.675L168.846 272.38C168.846 272.237 169.075 272.109 169.317 272.109H170.559C170.802 272.109 170.987 272.237 170.973 272.38L170.388 277.675C170.374 277.832 170.159 277.961 169.917 277.961Z" fill="#1D4771"/>
<path d="M199.036 277.961H197.809C197.566 277.961 197.381 277.832 197.395 277.675L197.966 272.38C197.966 272.237 198.208 272.109 198.451 272.109H199.679C199.921 272.109 200.121 272.237 200.093 272.38L199.522 277.675C199.45 277.832 199.293 277.961 199.036 277.961Z" fill="#1D4771"/>
<g style="mix-blend-mode:multiply">
<path d="M168.832 519.694C189.951 519.694 207.072 518.455 207.072 516.925C207.072 515.396 189.951 514.156 168.832 514.156C147.712 514.156 130.591 515.396 130.591 516.925C130.591 518.455 147.712 519.694 168.832 519.694Z" fill="#F5F5F5"/>
</g>
<path d="M192.128 513.014C185.362 511.044 177.854 508.517 173.315 505.877C173.186 505.791 173.043 505.748 172.915 505.677V475.044H186.604C187.643 474.983 188.619 474.527 189.333 473.769C190.047 473.012 190.445 472.01 190.445 470.969C190.445 469.928 190.047 468.927 189.333 468.169C188.619 467.412 187.643 466.955 186.604 466.894H172.986V327.264H164.764V466.894H151.161C150.606 466.861 150.049 466.942 149.526 467.132C149.003 467.322 148.525 467.617 148.12 467.998C147.715 468.38 147.392 468.84 147.172 469.351C146.951 469.862 146.837 470.413 146.837 470.969C146.837 471.526 146.951 472.076 147.172 472.587C147.392 473.098 147.715 473.558 148.12 473.94C148.525 474.322 149.003 474.617 149.526 474.806C150.049 474.996 150.606 475.077 151.161 475.044H164.764V505.634C164.636 505.634 164.507 505.748 164.379 505.834C159.768 508.517 152.317 511.044 145.551 512.971C145.094 513.109 144.702 513.406 144.445 513.809C144.188 514.212 144.084 514.693 144.151 515.165C144.219 515.638 144.453 516.071 144.812 516.386C145.171 516.701 145.631 516.877 146.108 516.882H191.571C192.028 516.851 192.459 516.664 192.795 516.353C193.13 516.042 193.348 515.626 193.413 515.173C193.479 514.72 193.387 514.259 193.153 513.866C192.919 513.473 192.557 513.172 192.128 513.014Z" fill="#E0E0E0"/>
<path d="M194.226 313.047H143.467C139.384 313.047 136.073 316.357 136.073 320.441V335.529C136.073 339.612 139.384 342.923 143.467 342.923H194.226C198.31 342.923 201.62 339.612 201.62 335.529V320.441C201.62 316.357 198.31 313.047 194.226 313.047Z" fill="#1D4771"/>
<path d="M142.996 342.937V345.535C142.996 347.676 145.322 349.418 148.177 349.418H189.572C192.427 349.418 194.754 347.676 194.754 345.535V342.937H142.996Z" fill="#1D4771"/>
<path opacity="0.3" d="M142.996 342.937V345.535C142.996 347.676 145.322 349.418 148.177 349.418H189.572C192.427 349.418 194.754 347.676 194.754 345.535V342.937H142.996Z" fill="white"/>
</svg>
