<svg width="307" height="310" viewBox="0 0 307 310" fill="none" xmlns="http://www.w3.org/2000/svg">
<g clip-path="url(#clip0_131_10714)">
<path d="M153.134 309.988C237.708 309.988 306.269 305.958 306.269 300.988C306.269 296.017 237.708 291.987 153.134 291.987C68.5606 291.987 0 296.017 0 300.988C0 305.958 68.5606 309.988 153.134 309.988Z" fill="#E6E6E6"/>
<path d="M173.597 72.2644H171.95V27.1051C171.95 20.1732 169.198 13.5252 164.299 8.62355C159.401 3.72195 152.757 0.968262 145.829 0.968262H50.2133C43.2857 0.968262 36.6418 3.72195 31.7433 8.62355C26.8447 13.5252 24.0928 20.1732 24.0928 27.1051V274.851C24.0928 281.783 26.8447 288.431 31.7433 293.333C36.6418 298.234 43.2857 300.988 50.2133 300.988H145.829C152.757 300.988 159.401 298.234 164.299 293.333C169.198 288.431 171.95 281.783 171.95 274.851V104.409H173.597V72.2644Z" fill="#3F3D56"/>
<path d="M166.39 27.2878V274.669C166.39 279.846 164.335 284.81 160.676 288.471C157.018 292.132 152.056 294.188 146.883 294.188H50.808C45.6346 294.188 40.6731 292.131 37.0149 288.471C33.3568 284.811 31.3015 279.846 31.3013 274.669V27.2878C31.3014 22.111 33.3566 17.1462 37.0149 13.4856C40.6732 9.82509 45.6349 7.76855 50.8085 7.76843H62.4638C61.891 9.17662 61.6728 10.7041 61.8285 12.2164C61.9841 13.7288 62.5088 15.1797 63.3564 16.4415C64.204 17.7033 65.3485 18.7374 66.6892 19.4527C68.0299 20.1681 69.5257 20.5428 71.0451 20.5439H125.823C127.342 20.5428 128.838 20.1682 130.179 19.4529C131.52 18.7376 132.664 17.7035 133.512 16.4417C134.359 15.1798 134.884 13.7289 135.04 12.2165C135.195 10.7041 134.977 9.17665 134.405 7.76843H146.883C152.056 7.76855 157.018 9.82509 160.676 13.4856C164.335 17.1462 166.39 22.111 166.39 27.2878Z" fill="white"/>
<path d="M75.6837 214.587H73.6631L74.3377 175.095H75.0123L75.6837 214.587Z" fill="#E6E6E6"/>
<path d="M77.3672 150.232L80.6287 145.189C79.6615 142.515 78.5444 139.899 77.2827 137.351L75.1739 139.056L76.8437 136.474C75.2521 133.339 74.0001 131.364 74.0001 131.364C74.0001 131.364 67.4601 141.677 65.2739 152.598L69.4591 159.07L64.8269 155.326C64.6619 156.598 64.577 157.879 64.5728 159.162C64.5728 172.095 68.794 182.579 74.001 182.579C79.208 182.579 83.4292 172.093 83.4292 159.162C83.4292 155.152 82.5225 150.958 81.2705 147.077L77.3672 150.232Z" fill="#CCCCCC"/>
<path d="M128.284 214.587H126.264L126.938 175.095H127.613L128.284 214.587Z" fill="#E6E6E6"/>
<path d="M129.968 150.232L133.229 145.189C132.262 142.515 131.145 139.899 129.883 137.351L127.774 139.056L129.444 136.474C127.853 133.339 126.601 131.364 126.601 131.364C126.601 131.364 120.06 141.678 117.876 152.598L122.058 159.069L117.425 155.325C117.261 156.597 117.176 157.878 117.171 159.161C117.171 172.094 121.393 182.578 126.6 182.578C131.807 182.578 136.028 172.092 136.028 159.161C136.028 155.152 135.121 150.957 133.869 147.076L129.968 150.232Z" fill="#CCCCCC"/>
<path d="M74.1461 83.6799C84.3992 83.6799 92.7111 75.3629 92.7111 65.1034C92.7111 54.8438 84.3992 46.5268 74.1461 46.5268C63.8929 46.5268 55.5811 54.8438 55.5811 65.1034C55.5811 75.3629 63.8929 83.6799 74.1461 83.6799Z" fill="#E6E6E6"/>
<path d="M99.8602 208.837H95.6943L97.0831 127.409H98.4714L99.8602 208.837Z" fill="#E6E6E6"/>
<path d="M103.332 76.1435L110.057 65.7455C108.062 60.2332 105.759 54.8378 103.157 49.5851L98.8087 53.0992L102.252 47.7747C98.9688 41.3116 96.3887 37.2394 96.3887 37.2394C96.3887 37.2394 82.9021 58.5052 78.3962 81.0212L87.0235 94.3664L77.4702 86.6455C77.13 89.2684 76.955 91.9101 76.9463 94.5549C76.9463 121.221 85.65 142.839 96.3865 142.839C107.123 142.839 115.827 121.221 115.827 94.5549C115.827 86.2882 113.958 77.6394 111.379 69.6386L103.332 76.1435Z" fill="#CCCCCC"/>
<path d="M166.39 220.574V275.929C166.39 287.157 157.657 296.258 146.883 296.259H50.8084C40.0351 296.259 31.3012 287.157 31.3008 275.929V225.971C47.958 205.593 72.0417 193.414 97.7094 192.389C123.377 191.363 148.285 201.585 166.39 220.574Z" fill="#E6E6E6"/>
<path opacity="0.2" d="M98.9502 275.179C114.65 275.179 127.377 262.444 127.377 246.734C127.377 231.025 114.65 218.29 98.9502 218.29C83.2505 218.29 70.5234 231.025 70.5234 246.734C70.5234 262.444 83.2505 275.179 98.9502 275.179Z" fill="#A8D930"/>
<path d="M98.9502 269.638C111.592 269.638 121.839 259.384 121.839 246.734C121.839 234.085 111.592 223.831 98.9502 223.831C86.3089 223.831 76.061 234.085 76.061 246.734C76.061 259.384 86.3089 269.638 98.9502 269.638Z" fill="#A8D930"/>
<path d="M96.2807 256.527L88.2139 246.149L92.905 242.498L96.7242 247.412L109.627 233.783L113.941 237.873L96.2807 256.527Z" fill="white"/>
<path d="M220.588 211.111C228.785 211.111 235.43 204.462 235.43 196.26C235.43 188.059 228.785 181.41 220.588 181.41C212.392 181.41 205.747 188.059 205.747 196.26C205.747 204.462 212.392 211.111 220.588 211.111Z" fill="#2F2E41"/>
<path d="M226.603 279.628L227.746 285.025L249.095 283.18L247.408 275.215L226.603 279.628Z" fill="#FFB8B8"/>
<path d="M224.94 296.495L221.347 279.533L227.897 278.144L230.102 288.553C230.284 289.413 230.295 290.301 230.134 291.166C229.974 292.031 229.644 292.856 229.165 293.594C228.685 294.331 228.066 294.967 227.341 295.465C226.616 295.963 225.8 296.313 224.94 296.495Z" fill="#2F2E41"/>
<path d="M213.228 279.34L210.825 284.306L190.542 277.395L194.089 270.067L213.228 279.34Z" fill="#FFB8B8"/>
<path d="M207.693 287.17L212.327 277.594L218.353 280.513L210.801 296.119C209.203 295.345 207.978 293.967 207.395 292.289C206.812 290.611 206.919 288.77 207.693 287.17Z" fill="#2F2E41"/>
<path d="M173.264 269.533C173.958 269.663 174.673 269.638 175.357 269.461C176.04 269.285 176.677 268.96 177.222 268.51C177.767 268.061 178.207 267.497 178.511 266.859C178.814 266.221 178.974 265.524 178.98 264.817L212.428 233.959L204.122 227.522L173.838 259.897C172.65 259.966 171.529 260.469 170.688 261.31C169.846 262.151 169.342 263.272 169.271 264.46C169.201 265.648 169.568 266.821 170.304 267.756C171.04 268.691 172.094 269.323 173.264 269.533L173.264 269.533Z" fill="#FFB8B8"/>
<path d="M218.725 211.781C224.826 211.781 229.771 206.833 229.771 200.728C229.771 194.624 224.826 189.676 218.725 189.676C212.625 189.676 207.679 194.624 207.679 200.728C207.679 206.833 212.625 211.781 218.725 211.781Z" fill="#FFB8B8"/>
<path d="M228.638 265.699C220.89 265.699 211.558 264.066 205.801 257.384L205.672 257.234L205.807 257.086C205.852 257.038 210.085 252.195 205.857 243.558L200.041 245.348L194.253 237.703L197.46 228.077L210.582 217.502C212.462 215.994 214.751 215.086 217.152 214.895C221.498 214.475 225.732 213.268 229.648 211.334C231.44 210.463 233.413 210.031 235.405 210.074L235.663 210.082C236.268 210.099 236.864 210.239 237.414 210.493C237.964 210.747 238.457 211.111 238.862 211.561C239.268 212.012 239.578 212.54 239.773 213.114C239.968 213.688 240.045 214.296 239.999 214.9C239.108 226.434 237.538 254.296 242.154 263.889L242.273 264.137L242.007 264.205C237.619 265.192 233.136 265.693 228.639 265.698L228.638 265.699Z" fill="#A8D930"/>
<path d="M207.321 257.237C207.321 257.237 178.088 254.537 174.94 263.087C171.792 271.638 175.39 275.688 180.787 277.488C186.183 279.288 199.226 281.538 199.226 281.538L205.072 274.338L220.363 275.238C220.363 275.238 237.401 285.126 242.112 295.702C243.123 297.99 244.735 299.962 246.776 301.407C248.817 302.852 251.212 303.716 253.705 303.908C257.483 304.171 260.839 302.744 260.839 296.838C260.839 283.337 241.95 263.987 241.95 263.987L207.321 257.237Z" fill="#2F2E41"/>
<path d="M185.059 270.513C185.059 270.513 192.705 268.263 204.847 274.113L185.059 270.513Z" fill="#2F2E41"/>
<path d="M207.707 193.679C212.02 196.314 216.884 197.918 221.918 198.365L220.42 196.569C221.511 196.972 222.658 197.2 223.82 197.244C224.402 197.261 224.98 197.141 225.507 196.894C226.034 196.647 226.496 196.28 226.856 195.822C227.15 195.347 227.325 194.808 227.365 194.25C227.406 193.692 227.311 193.133 227.088 192.621C226.632 191.598 225.921 190.709 225.024 190.038C223.435 188.779 221.558 187.934 219.563 187.577C217.567 187.22 215.514 187.363 213.587 187.993C212.265 188.388 211.08 189.147 210.169 190.185C209.722 190.708 209.411 191.333 209.265 192.006C209.119 192.678 209.141 193.376 209.331 194.038" fill="#2F2E41"/>
<path d="M220.509 184.845C222.471 180.285 225.409 176.211 229.115 172.909C231.495 170.794 234.275 168.975 237.411 168.426C240.547 167.877 244.082 168.817 246.006 171.356C247.58 173.432 247.873 176.213 247.7 178.812C247.527 181.411 246.946 183.987 247.002 186.59C247.058 189.247 247.778 191.849 249.094 194.158C250.41 196.467 252.282 198.41 254.539 199.811C256.797 201.213 259.368 202.028 262.02 202.183C264.672 202.338 267.321 201.828 269.725 200.698C267.017 202.196 264.907 204.568 262.395 206.372C259.883 208.176 256.565 209.414 253.709 208.222C250.688 206.962 249.302 203.533 248.22 200.441L243.393 186.652C242.573 184.308 241.712 181.895 240.038 180.062C238.363 178.229 235.646 177.111 233.341 178.033C231.595 178.731 230.457 180.399 229.46 181.993C228.463 183.587 227.411 185.287 225.728 186.124C224.044 186.96 221.545 186.445 220.995 184.645" fill="#2F2E41"/>
<path d="M224.299 265.737C224.108 265.737 223.918 265.727 223.728 265.706C222.471 265.564 221.316 264.946 220.501 263.979C219.685 263.012 219.27 261.769 219.343 260.505C219.415 259.241 219.968 258.053 220.888 257.185C221.808 256.317 223.026 255.834 224.291 255.837C224.512 255.838 224.732 255.854 224.95 255.886L240.051 239.8L238.475 234.542L246.39 230.99L248.609 236.417C249.353 238.256 249.485 240.285 248.985 242.204C248.485 244.124 247.38 245.83 245.834 247.071L229.211 260.302C229.229 260.463 229.238 260.625 229.238 260.787C229.238 261.484 229.091 262.172 228.807 262.808C228.523 263.444 228.108 264.013 227.59 264.477C226.688 265.292 225.514 265.741 224.299 265.737Z" fill="#FFB8B8"/>
<path d="M236.104 212.236C236.628 212.003 237.193 211.878 237.766 211.87C238.339 211.861 238.907 211.968 239.438 212.185C239.968 212.401 240.45 212.723 240.853 213.131C241.256 213.538 241.572 214.023 241.783 214.556L249.596 234.286L237.453 242.387L236.104 212.236Z" fill="#A8D930"/>
</g>
<defs>
<clipPath id="clip0_131_10714">
<rect width="306.269" height="309.02" fill="white" transform="translate(0 0.968262)"/>
</clipPath>
</defs>
</svg>
