<svg width="24" height="24" viewBox="0 0 24 24" fill="none" xmlns="http://www.w3.org/2000/svg">
<path d="M20.9433 9.57688L20.1285 8.78842C20.0906 8.76918 20.0527 8.74995 20.0148 8.74995H15.3537C14.9937 7.84611 14.1031 7.19226 13.0799 7.19226C11.7157 7.19226 10.6167 8.30765 10.6167 9.69226C10.6167 11.0769 11.7157 12.1923 13.0799 12.1923C14.1031 12.1923 14.9937 11.5576 15.3537 10.6346H16.32C16.3579 10.6346 16.3958 10.6153 16.4337 10.5961L16.8884 10.1346C16.9453 10.0769 17.04 10.0769 17.1158 10.1346L17.5706 10.5961C17.6085 10.6346 17.6464 10.6346 17.6843 10.6346H18.1201C18.158 10.6346 18.1959 10.6153 18.2337 10.5961L18.6885 10.1346C18.7453 10.0769 18.8401 10.0769 18.9159 10.1346L19.3706 10.5961C19.4085 10.6346 19.4464 10.6346 19.4843 10.6346H20.0148C20.0527 10.6346 20.0906 10.6153 20.1285 10.5961L20.9433 9.80765C21.0191 9.74995 21.0191 9.6538 20.9433 9.57688ZM12.2652 10.423C11.8673 10.423 11.5451 10.0961 11.5451 9.69226C11.5451 9.28842 11.8673 8.96149 12.2652 8.96149C12.6631 8.96149 12.9852 9.28842 12.9852 9.69226C12.9662 10.0961 12.6631 10.423 12.2652 10.423Z" stroke="#35353A" stroke-width="1.1"/>
<path d="M13.9329 13.5769H11.2234C11.2234 13.5769 8.64647 11.4616 8.40015 11.2885C8.17277 11.1154 7.75592 10.9231 7.30117 10.9231H4.70531C3.75792 10.9231 3 11.6923 3 12.6539V19.3077C3 19.6923 3.30317 20 3.68212 20H8.36225C8.74121 20 9.04438 19.6923 9.04438 19.3077L9.02543 15.3077L9.89703 16.0193C10.1434 16.2116 10.4465 16.3269 10.7497 16.3269H13.895C14.6151 16.3269 15.2593 15.7693 15.2972 15.0385C15.354 14.2308 14.7287 13.5769 13.9329 13.5769Z" stroke="#35353A" stroke-width="1.1"/>
<path d="M6.05041 10.0769C7.70382 10.0769 9.04417 8.71656 9.04417 7.03846C9.04417 5.36037 7.70382 4 6.05041 4C4.397 4 3.05664 5.36037 3.05664 7.03846C3.05664 8.71656 4.397 10.0769 6.05041 10.0769Z" stroke="#35353A" stroke-width="1.1"/>
</svg>
