<svg width="28" height="34" viewBox="0 0 28 34" fill="none" xmlns="http://www.w3.org/2000/svg">
<path d="M23.3929 18.0345C23.4264 15.429 24.8257 12.9635 27.0455 11.5988C25.6452 9.59883 23.2996 8.33077 20.8592 8.25442C18.2564 7.98122 15.7331 9.81191 14.4067 9.81191C13.0547 9.81191 11.0126 8.28154 8.81356 8.32679C5.94722 8.41939 3.27507 10.049 1.88054 12.555C-1.11716 17.745 1.11885 25.3727 3.9904 29.5679C5.42709 31.6222 7.10618 33.9169 9.30323 33.8355C11.4532 33.7464 12.2561 32.4646 14.8513 32.4646C17.4224 32.4646 18.1757 33.8355 20.4173 33.7838C22.7243 33.7463 24.1778 31.7204 25.5641 29.6466C26.5964 28.1829 27.3907 26.5651 27.9177 24.8532C25.2065 23.7066 23.396 20.9782 23.3929 18.0345Z" fill="white"/>
<path d="M19.1588 5.49542C20.4167 3.9854 21.0364 2.04452 20.8863 0.0849609C18.9646 0.286803 17.1894 1.20527 15.9145 2.65736C14.6679 4.07612 14.0191 5.98285 14.1418 7.86751C16.0642 7.8873 17.9541 6.99374 19.1588 5.49542Z" fill="white"/>
</svg>
