<svg width="80" height="80" viewBox="0 0 80 80" fill="none" xmlns="http://www.w3.org/2000/svg">
<circle cx="40" cy="40" r="40" fill="#1D4771"/>
<g clip-path="url(#clip0_147_12711)">
<path d="M39.5996 24.168C38.9136 24.168 38.3574 24.7241 38.3574 25.4102C38.3574 26.0962 38.9136 26.6523 39.5996 26.6523C43.7099 26.6523 47.054 29.9958 47.054 34.1055C47.054 34.7915 47.6101 35.3477 48.2962 35.3477C48.9822 35.3477 49.5384 34.7915 49.5384 34.1055C49.5384 28.6259 45.0799 24.168 39.5996 24.168Z" fill="white"/>
<path d="M36.3988 19.5339C30.7866 20.7066 26.2361 25.2136 25.0387 30.8607C24.0276 35.6292 25.2735 40.4166 28.4569 43.9953C30.0131 45.7446 30.9055 48.0536 30.9055 50.3369V52.8212C30.9055 54.4742 31.9876 55.8784 33.4803 56.3648C33.9713 59.2653 36.4888 61.5993 39.6008 61.5993C42.7119 61.5993 45.2301 59.266 45.7212 56.3648C47.214 55.8784 48.2961 54.4742 48.2961 52.8212V50.3368C48.2961 48.0491 49.1914 45.7678 50.8171 43.9131C53.1966 41.1985 54.507 37.7154 54.507 34.1056C54.507 24.701 45.8987 17.5492 36.3988 19.5339ZM39.6008 59.115C38.004 59.115 36.6039 58.0162 36.0869 56.5395H43.1145C42.5976 58.0162 41.1976 59.115 39.6008 59.115ZM45.8117 52.8212C45.8117 53.5062 45.2545 54.0634 44.5695 54.0634H34.632C33.9471 54.0634 33.3898 53.5062 33.3898 52.8212V51.5791H45.8117V52.8212ZM48.9488 42.2757C47.2164 44.2521 46.1505 46.6355 45.88 49.0947H33.3218C33.0516 46.6342 31.9885 44.2274 30.3133 42.3441C27.6602 39.3616 26.6235 35.3638 27.4691 31.376C28.4561 26.7208 32.2489 22.9392 36.907 21.9659C44.859 20.3041 52.0226 26.2759 52.0226 34.1056C52.0226 37.1127 50.931 40.0142 48.9488 42.2757Z" fill="white"/>
<path d="M22.127 34.1055H19.6426C18.9566 34.1055 18.4004 34.6616 18.4004 35.3477C18.4004 36.0337 18.9566 36.5898 19.6426 36.5898H22.127C22.813 36.5898 23.3691 36.0337 23.3691 35.3477C23.3691 34.6616 22.813 34.1055 22.127 34.1055Z" fill="white"/>
<path d="M22.6409 27.8945L20.8842 26.1378C20.3992 25.6526 19.6126 25.6526 19.1275 26.1378C18.6424 26.6229 18.6424 27.4093 19.1275 27.8945L20.8842 29.6512C21.3692 30.1363 22.1558 30.1364 22.6409 29.6512C23.126 29.1661 23.126 28.3796 22.6409 27.8945Z" fill="white"/>
<path d="M22.6409 41.044C22.1558 40.5589 21.3692 40.5589 20.8842 41.044L19.1275 42.8007C18.6424 43.2858 18.6424 44.0723 19.1275 44.5574C19.6125 45.0425 20.3991 45.0426 20.8842 44.5574L22.6409 42.8007C23.126 42.3156 23.126 41.5291 22.6409 41.044Z" fill="white"/>
<path d="M59.5586 34.1055H57.0742C56.3882 34.1055 55.832 34.6616 55.832 35.3477C55.832 36.0337 56.3882 36.5898 57.0742 36.5898H59.5586C60.2446 36.5898 60.8008 36.0337 60.8008 35.3477C60.8008 34.6616 60.2446 34.1055 59.5586 34.1055Z" fill="white"/>
<path d="M60.0726 26.1378C59.5875 25.6526 58.801 25.6526 58.3159 26.1378L56.5591 27.8945C56.074 28.3796 56.074 29.1661 56.5591 29.6512C57.0442 30.1362 57.8307 30.1363 58.3159 29.6512L60.0726 27.8945C60.5577 27.4093 60.5577 26.6229 60.0726 26.1378Z" fill="white"/>
<path d="M60.0726 42.8007L58.3159 41.044C57.8308 40.5589 57.0443 40.5589 56.5591 41.044C56.074 41.5291 56.074 42.3156 56.5591 42.8007L58.3159 44.5574C58.8009 45.0424 59.5874 45.0425 60.0726 44.5574C60.5577 44.0723 60.5577 43.2858 60.0726 42.8007Z" fill="white"/>
</g>
<defs>
<clipPath id="clip0_147_12711">
<rect width="42.4" height="42.4" fill="white" transform="translate(18.4004 19.2)"/>
</clipPath>
</defs>
</svg>
