<svg width="32" height="32" viewBox="0 0 32 32" fill="none" xmlns="http://www.w3.org/2000/svg">
<path fill-rule="evenodd" clip-rule="evenodd" d="M15.9992 28.8002C23.0685 28.8002 28.7992 23.0694 28.7992 16.0002C28.7992 8.93095 23.0685 3.2002 15.9992 3.2002C8.92997 3.2002 3.19922 8.93095 3.19922 16.0002C3.19922 23.0694 8.92997 28.8002 15.9992 28.8002ZM21.9306 13.9316C22.5554 13.3067 22.5554 12.2937 21.9306 11.6688C21.3057 11.044 20.2927 11.044 19.6678 11.6688L14.3992 16.9375L12.3306 14.8688C11.7058 14.244 10.6927 14.244 10.0678 14.8688C9.44301 15.4937 9.44301 16.5067 10.0678 17.1316L13.2678 20.3316C13.8927 20.9564 14.9058 20.9564 15.5306 20.3316L21.9306 13.9316Z" fill="#007AFF"/>
</svg>
