<svg width="59" height="68" viewBox="0 0 59 68" fill="none" xmlns="http://www.w3.org/2000/svg">
<path d="M26.1108 39.0501H26.364C26.2938 38.9916 26.2261 38.9381 26.1651 38.8737C24.157 37.0599 22.6247 33.5346 22.6247 30.6846C22.6247 26.6524 25.9257 24 29.0473 24C32.1665 24 35.3015 26.8693 35.3015 30.8997C35.3015 33.7486 33.6067 37.1669 31.51 38.9184C31.9408 40.5618 34.3004 41.0996 39.1665 42.4341C44.5729 43.9183 44.0046 48.9963 43.6261 50.0576C43.0006 51.8104 14.9733 52.1346 14.4448 50.0576C14.3273 49.1981 13.0885 43.9183 18.4957 42.4341C23.2281 41.1351 25.5855 40.5898 26.1108 39.0501Z" fill="#073B70"/>
<path d="M26.3606 39.0501H26.1074C26.1283 38.9916 26.1442 38.9352 26.1613 38.8738C26.2219 38.9381 26.2909 38.992 26.3606 39.0501Z" fill="#073B70"/>
<path d="M18.3305 41.8102L19.2347 41.5628C20.9503 41.0945 22.3087 40.7209 23.3278 40.3499C22.5285 39.996 22.0714 39.6061 21.923 39.0412C22.6095 38.4675 23.2304 37.6494 23.7206 36.7381C22.6705 34.8779 21.9836 32.6358 21.9836 30.6853C21.9836 29.9712 22.1044 29.2479 22.3237 28.5468C21.6318 28.119 20.8563 27.8774 20.0804 27.8774C17.7442 27.8774 15.274 29.8622 15.274 32.8798C15.274 35.0124 16.4205 37.6506 17.9231 39.0082C17.9686 39.0562 18.0196 39.0964 18.0718 39.1402H17.8821C17.4894 40.2926 15.7253 40.7004 12.1837 41.6727C8.13734 42.7833 9.06452 46.7344 9.15226 47.3775C9.26592 47.8241 11.0835 48.1216 13.6219 48.2888C13.517 44.0878 16.0407 42.4382 18.3305 41.8102Z" fill="#073B70"/>
<path d="M39.6694 41.8102L38.7652 41.5628C37.0496 41.0945 35.6912 40.7209 34.6721 40.3499C35.4714 39.996 35.9285 39.6061 36.0768 39.0412C35.3903 38.4675 34.7694 37.6494 34.2793 36.7381C35.3293 34.8779 36.0162 32.6358 36.0162 30.6853C36.0162 29.9712 35.8955 29.2479 35.6761 28.5468C36.3681 28.119 37.1436 27.8774 37.9195 27.8774C40.2556 27.8774 42.7259 29.8622 42.7259 32.8798C42.7259 35.0124 41.5793 37.6506 40.0768 39.0082C40.0312 39.0562 39.9803 39.0964 39.928 39.1402H40.1177C40.5105 40.2926 42.2746 40.7004 45.8162 41.6727C49.8625 42.7833 48.9353 46.7344 48.8476 47.3775C48.7339 47.8241 46.9163 48.1216 44.378 48.2888C44.4829 44.0878 41.9587 42.4382 39.6694 41.8102Z" fill="#073B70"/>
<mask id="path-5-outside-1_701_5115" maskUnits="userSpaceOnUse" x="0" y="9" width="59" height="59" fill="black">
<rect fill="white" y="9" width="59" height="59"/>
<path fill-rule="evenodd" clip-rule="evenodd" d="M40.5755 12.2321C37.1706 10.7947 33.4281 10 29.5 10C13.7599 10 1 22.7599 1 38.5C1 54.2401 13.7599 67 29.5 67C45.2401 67 58 54.2401 58 38.5C58 32.4936 56.142 26.9212 52.9693 22.3262C52.7435 22.5791 52.5019 22.8175 52.2461 23.0399C55.2463 27.4455 57 32.7679 57 38.5C57 53.6878 44.6878 66 29.5 66C14.3122 66 2 53.6878 2 38.5C2 23.3122 14.3122 11 29.5 11C33.227 11 36.7807 11.7414 40.0219 13.0847C40.1886 12.7883 40.3736 12.5036 40.5755 12.2321Z"/>
</mask>
<path fill-rule="evenodd" clip-rule="evenodd" d="M40.5755 12.2321C37.1706 10.7947 33.4281 10 29.5 10C13.7599 10 1 22.7599 1 38.5C1 54.2401 13.7599 67 29.5 67C45.2401 67 58 54.2401 58 38.5C58 32.4936 56.142 26.9212 52.9693 22.3262C52.7435 22.5791 52.5019 22.8175 52.2461 23.0399C55.2463 27.4455 57 32.7679 57 38.5C57 53.6878 44.6878 66 29.5 66C14.3122 66 2 53.6878 2 38.5C2 23.3122 14.3122 11 29.5 11C33.227 11 36.7807 11.7414 40.0219 13.0847C40.1886 12.7883 40.3736 12.5036 40.5755 12.2321Z" fill="#073B70"/>
<path d="M40.5755 12.2321L41.378 12.8286L42.138 11.8062L40.9644 11.3108L40.5755 12.2321ZM52.9693 22.3262L53.7922 21.758L53.07 20.712L52.2234 21.6602L52.9693 22.3262ZM52.2461 23.0399L51.59 22.2852L50.9193 22.8683L51.4195 23.6028L52.2461 23.0399ZM40.0219 13.0847L39.639 14.0085L40.4587 14.3483L40.8936 13.5749L40.0219 13.0847ZM40.9644 11.3108C37.4386 9.82239 33.5641 9 29.5 9V11C33.2921 11 36.9025 11.767 40.1865 13.1533L40.9644 11.3108ZM29.5 9C13.2076 9 0 22.2076 0 38.5H2C2 23.3122 14.3122 11 29.5 11V9ZM0 38.5C0 54.7924 13.2076 68 29.5 68V66C14.3122 66 2 53.6878 2 38.5H0ZM29.5 68C45.7924 68 59 54.7924 59 38.5H57C57 53.6878 44.6878 66 29.5 66V68ZM59 38.5C59 32.2842 57.0765 26.5147 53.7922 21.758L52.1464 22.8944C55.2074 27.3277 57 32.703 57 38.5H59ZM52.2234 21.6602C52.0257 21.8816 51.8141 22.0904 51.59 22.2852L52.9021 23.7946C53.1898 23.5446 53.4614 23.2765 53.7152 22.9923L52.2234 21.6602ZM58 38.5C58 32.5609 56.1822 27.0433 53.0726 22.477L51.4195 23.6028C54.3103 27.8477 56 32.975 56 38.5H58ZM29.5 67C45.2401 67 58 54.2401 58 38.5H56C56 53.1355 44.1355 65 29.5 65V67ZM1 38.5C1 54.2401 13.7599 67 29.5 67V65C14.8645 65 3 53.1355 3 38.5H1ZM29.5 10C13.7599 10 1 22.7599 1 38.5H3C3 23.8645 14.8645 12 29.5 12V10ZM40.4048 12.161C37.0444 10.7682 33.3606 10 29.5 10V12C33.0933 12 36.5171 12.7146 39.639 14.0085L40.4048 12.161ZM40.8936 13.5749C41.0394 13.3155 41.2013 13.0663 41.378 12.8286L39.7729 11.6355C39.5459 11.9408 39.3378 12.2611 39.1503 12.5946L40.8936 13.5749Z" fill="#073B70" mask="url(#path-5-outside-1_701_5115)"/>
<path d="M40.08 21.8C40.1335 22.3986 40.4083 22.9557 40.8506 23.3625C41.2929 23.7694 41.871 23.9967 42.472 24H50.728C51.3289 23.9967 51.9071 23.7694 52.3494 23.3625C52.7917 22.9557 53.0665 22.3986 53.12 21.8L54.4 6.40001H38.8L40.08 21.8ZM48.2 10.4C48.2 10.1878 48.2843 9.98435 48.4343 9.83432C48.5843 9.68429 48.7878 9.60001 49 9.60001C49.2122 9.60001 49.4156 9.68429 49.5657 9.83432C49.7157 9.98435 49.8 10.1878 49.8 10.4V19.2C49.8 19.4122 49.7157 19.6157 49.5657 19.7657C49.4156 19.9157 49.2122 20 49 20C48.7878 20 48.5843 19.9157 48.4343 19.7657C48.2843 19.6157 48.2 19.4122 48.2 19.2V10.4ZM43.4 10.4C43.4 10.1878 43.4843 9.98435 43.6343 9.83432C43.7843 9.68429 43.9878 9.60001 44.2 9.60001C44.4122 9.60001 44.6157 9.68429 44.7657 9.83432C44.9157 9.98435 45 10.1878 45 10.4V19.2C45 19.4122 44.9157 19.6157 44.7657 19.7657C44.6157 19.9157 44.4122 20 44.2 20C43.9878 20 43.7843 19.9157 43.6343 19.7657C43.4843 19.6157 43.4 19.4122 43.4 19.2V10.4ZM56.2 4.00001C56.1994 4.21199 56.1149 4.41511 55.965 4.565C55.8151 4.71489 55.612 4.79938 55.4 4.80001H37.8C37.5878 4.80001 37.3843 4.71573 37.2343 4.5657C37.0843 4.41567 37 4.21219 37 4.00001C37 3.78784 37.0843 3.58436 37.2343 3.43433C37.3843 3.2843 37.5878 3.20001 37.8 3.20001H41.304L42.24 1.32802C42.4389 0.927816 42.746 0.591314 43.1263 0.356611C43.5066 0.121907 43.9451 -0.00162004 44.392 1.60436e-05H48.808C49.2549 -0.00162004 49.6934 0.121907 50.0737 0.356611C50.454 0.591314 50.761 0.927816 50.96 1.32802L51.896 3.20001H55.4C55.612 3.20065 55.8151 3.28514 55.965 3.43503C56.1149 3.58492 56.1994 3.78803 56.2 4.00001Z" fill="#073B70"/>
</svg>
