<svg width="80" height="80" viewBox="0 0 80 80" fill="none" xmlns="http://www.w3.org/2000/svg">
<circle cx="40" cy="40" r="40" fill="#1D4771"/>
<g clip-path="url(#clip0_147_12760)">
<path d="M48.767 43.2775C49.2637 43.2775 49.7399 43.0802 50.0911 42.729C50.4422 42.3779 50.6395 41.9016 50.6395 41.405C50.6395 40.9084 50.4422 40.4321 50.0911 40.0809C49.7399 39.7298 49.2637 39.5325 48.767 39.5325C48.2704 39.5325 47.7941 39.7298 47.443 40.0809C47.0918 40.4321 46.8945 40.9084 46.8945 41.405C46.8945 41.9016 47.0918 42.3779 47.443 42.729C47.7941 43.0802 48.2704 43.2775 48.767 43.2775Z" stroke="white" stroke-width="1.5" stroke-linecap="round" stroke-linejoin="round"/>
<path d="M34.75 48.475V56M22.5 41.825H40M29.4125 56H40M54 31.5V34.6325C53.5625 34.58 53.055 34.545 52.5125 34.545H45.0225C41.2775 34.545 40.035 35.7875 40.035 39.5325V48.475H29.5C23.9 48.475 22.5 47.075 22.5 41.475V31.5C22.5 25.9 23.9 24.5 29.5 24.5H47C52.6 24.5 54 25.9 54 31.5Z" stroke="white" stroke-width="1.5" stroke-linecap="round" stroke-linejoin="round"/>
<path d="M48.767 43.2775C49.2637 43.2775 49.7399 43.0802 50.0911 42.729C50.4422 42.3779 50.6395 41.9016 50.6395 41.405C50.6395 40.9084 50.4422 40.4321 50.0911 40.0809C49.7399 39.7298 49.2637 39.5325 48.767 39.5325C48.2704 39.5325 47.7941 39.7298 47.443 40.0809C47.0918 40.4321 46.8945 40.9084 46.8945 41.405C46.8945 41.9016 47.0918 42.3779 47.443 42.729C47.7941 43.0802 48.2704 43.2775 48.767 43.2775Z" stroke="white" stroke-width="1.5" stroke-miterlimit="10" stroke-linecap="round" stroke-linejoin="round"/>
<path d="M54.0002 34.6324C53.5627 34.5799 53.0552 34.5449 52.5127 34.5449H45.0227C41.2777 34.5449 40.0352 35.7874 40.0352 39.5324V54.5124C40.0352 58.2574 41.2777 59.4999 45.0227 59.4999H52.5127C56.2577 59.4999 57.5002 58.2574 57.5002 54.5124V39.5324C57.5002 36.3299 56.5902 34.9649 54.0002 34.6324ZM48.7677 39.5324C49.2503 39.5533 49.7062 39.7597 50.0403 40.1086C50.3744 40.4574 50.5609 40.9219 50.5609 41.4049C50.5609 41.888 50.3744 42.3524 50.0403 42.7013C49.7062 43.0501 49.2503 43.2566 48.7677 43.2774C48.285 43.2566 47.8291 43.0501 47.495 42.7013C47.1609 42.3524 46.9744 41.888 46.9744 41.4049C46.9744 40.9219 47.1609 40.4574 47.495 40.1086C47.8291 39.7597 48.285 39.5533 48.7677 39.5324ZM48.7677 54.5124C46.7027 54.5124 45.0227 52.8324 45.0227 50.7674C45.0236 50.0502 45.2303 49.3483 45.6183 48.745C46.0062 48.1417 46.5591 47.6624 47.2113 47.3639C47.8635 47.0655 48.5876 46.9604 49.2978 47.0611C50.0079 47.1619 50.6742 47.4643 51.2177 47.9324C52.0052 48.6324 52.5127 49.6474 52.5127 50.7674C52.5127 52.8324 50.8327 54.5124 48.7677 54.5124Z" stroke="white" stroke-width="1.5" stroke-miterlimit="10" stroke-linecap="round" stroke-linejoin="round"/>
<path d="M52.5134 50.7675C52.5134 52.8325 50.8334 54.5125 48.7684 54.5125C46.7034 54.5125 45.0234 52.8325 45.0234 50.7675C45.0244 50.0502 45.2311 49.3483 45.6191 48.745C46.007 48.1418 46.5599 47.6624 47.2121 47.364C47.8643 47.0655 48.5884 46.9604 49.2986 47.0612C50.0087 47.162 50.675 47.4644 51.2184 47.9325C52.0059 48.6325 52.5134 49.6475 52.5134 50.7675ZM48.7684 43.2775C49.2651 43.2775 49.7413 43.0802 50.0925 42.729C50.4437 42.3779 50.6409 41.9016 50.6409 41.405C50.6409 40.9084 50.4437 40.4321 50.0925 40.0809C49.7413 39.7298 49.2651 39.5325 48.7684 39.5325C48.2718 39.5325 47.7955 39.7298 47.4444 40.0809C47.0932 40.4321 46.8959 40.9084 46.8959 41.405C46.8959 41.9016 47.0932 42.3779 47.4444 42.729C47.7955 43.0802 48.2718 43.2775 48.7684 43.2775Z" stroke="white" stroke-width="1.5" stroke-miterlimit="10" stroke-linecap="round" stroke-linejoin="round"/>
</g>
<defs>
<clipPath id="clip0_147_12760">
<rect width="42.4" height="42.4" fill="white" transform="translate(19 19)"/>
</clipPath>
</defs>
</svg>
