<svg width="80" height="80" viewBox="0 0 80 80" fill="none" xmlns="http://www.w3.org/2000/svg">
<circle cx="40" cy="40" r="40" fill="#1D4771"/>
<g clip-path="url(#clip0_147_12650)">
<path d="M49.576 42.9709C48.771 43.7567 48.311 44.8876 48.426 46.0951C48.5985 48.1651 50.496 49.6792 52.566 49.6792H56.2077V51.9601C56.2077 55.9276 52.9685 59.1667 49.001 59.1667H26.9977C23.0302 59.1667 19.791 55.9276 19.791 51.9601V39.0609C19.791 35.0934 23.0302 31.8542 26.9977 31.8542H49.001C52.9685 31.8542 56.2077 35.0934 56.2077 39.0609V41.8209H52.336C51.2627 41.8209 50.2852 42.2426 49.576 42.9709Z" stroke="white" stroke-width="1.5" stroke-linecap="round" stroke-linejoin="round"/>
<path d="M19.791 40.7859V32.0267C19.791 29.7459 21.1902 27.7142 23.3177 26.9092L38.536 21.1592C39.0874 20.9514 39.681 20.8806 40.2658 20.9527C40.8507 21.0248 41.4093 21.2377 41.8937 21.5732C42.3781 21.9087 42.7738 22.3568 43.047 22.8789C43.3201 23.401 43.4625 23.9816 43.4618 24.5709V31.8542M28.416 40.0001H41.8327M58.2374 43.7759V47.7242C58.2374 48.7784 57.3941 49.6409 56.3208 49.6792H52.5641C50.4941 49.6792 48.5966 48.1651 48.4241 46.0951C48.3091 44.8876 48.7691 43.7567 49.5741 42.9709C50.2833 42.2426 51.2608 41.8209 52.3341 41.8209H56.3208C57.3941 41.8592 58.2374 42.7217 58.2374 43.7759Z" stroke="white" stroke-width="1.5" stroke-linecap="round" stroke-linejoin="round"/>
</g>
<defs>
<clipPath id="clip0_147_12650">
<rect width="42.4" height="42.4" fill="white" transform="translate(18.4004 19.2)"/>
</clipPath>
</defs>
</svg>
