<svg width="59" height="68" viewBox="0 0 59 68" fill="none" xmlns="http://www.w3.org/2000/svg">
<path d="M26.1108 39.0501H26.364C26.2938 38.9916 26.2261 38.9381 26.1651 38.8737C24.157 37.0599 22.6247 33.5346 22.6247 30.6846C22.6247 26.6524 25.9257 24 29.0473 24C32.1665 24 35.3015 26.8693 35.3015 30.8997C35.3015 33.7486 33.6067 37.1669 31.51 38.9184C31.9408 40.5618 34.3004 41.0996 39.1665 42.4341C44.5729 43.9183 44.0046 48.9963 43.6261 50.0576C43.0006 51.8104 14.9733 52.1346 14.4448 50.0576C14.3273 49.1981 13.0885 43.9183 18.4957 42.4341C23.2281 41.1351 25.5855 40.5898 26.1108 39.0501Z" fill="#073B70"/>
<path d="M26.3606 39.0501H26.1074C26.1283 38.9916 26.1442 38.9352 26.1613 38.8738C26.2219 38.9381 26.2909 38.992 26.3606 39.0501Z" fill="#073B70"/>
<path d="M18.3305 41.8102L19.2347 41.5628C20.9503 41.0945 22.3087 40.7209 23.3278 40.3499C22.5285 39.996 22.0714 39.6061 21.923 39.0412C22.6095 38.4675 23.2304 37.6494 23.7206 36.7381C22.6705 34.8779 21.9836 32.6358 21.9836 30.6853C21.9836 29.9712 22.1044 29.2479 22.3237 28.5468C21.6318 28.119 20.8563 27.8774 20.0804 27.8774C17.7442 27.8774 15.274 29.8622 15.274 32.8798C15.274 35.0124 16.4205 37.6506 17.9231 39.0082C17.9686 39.0562 18.0196 39.0964 18.0718 39.1402H17.8821C17.4894 40.2926 15.7253 40.7004 12.1837 41.6727C8.13734 42.7833 9.06452 46.7344 9.15226 47.3775C9.26592 47.8241 11.0835 48.1216 13.6219 48.2888C13.517 44.0878 16.0407 42.4382 18.3305 41.8102Z" fill="#073B70"/>
<path d="M39.6694 41.8102L38.7652 41.5628C37.0496 41.0945 35.6912 40.7209 34.6721 40.3499C35.4714 39.996 35.9285 39.6061 36.0768 39.0412C35.3903 38.4675 34.7694 37.6494 34.2793 36.7381C35.3293 34.8779 36.0162 32.6358 36.0162 30.6853C36.0162 29.9712 35.8955 29.2479 35.6761 28.5468C36.3681 28.119 37.1436 27.8774 37.9195 27.8774C40.2556 27.8774 42.7259 29.8622 42.7259 32.8798C42.7259 35.0124 41.5793 37.6506 40.0768 39.0082C40.0312 39.0562 39.9803 39.0964 39.928 39.1402H40.1177C40.5105 40.2926 42.2746 40.7004 45.8162 41.6727C49.8625 42.7833 48.9353 46.7344 48.8476 47.3775C48.7339 47.8241 46.9163 48.1216 44.378 48.2888C44.4829 44.0878 41.9587 42.4382 39.6694 41.8102Z" fill="#073B70"/>
<path fill-rule="evenodd" clip-rule="evenodd" d="M49.0654 20.7703V22.7449L51.04 20.7703H49.0654ZM41.9738 1.90947H40.825C40.7795 1.90947 40.7405 1.91814 40.7134 1.93223V4.02162C40.7405 4.03571 40.7795 4.04438 40.825 4.04438H47.1258C47.1713 4.04438 47.2103 4.03571 47.2374 4.02162V1.93223C47.2103 1.91814 47.1713 1.90947 47.1258 1.90947H45.977V1.90839C45.7906 1.90839 45.6356 1.76209 45.627 1.57353C45.6064 1.13464 45.4146 0.74124 45.1166 0.456235C44.8207 0.173394 44.4176 0 43.9754 0C43.5322 0 43.1301 0.173394 42.8343 0.456235C42.5417 0.73583 42.3509 1.12054 42.3249 1.5497V1.55837C42.3249 1.75236 42.1677 1.90947 41.9738 1.90947ZM43.6253 1.66347C43.6253 1.46949 43.7825 1.31236 43.9764 1.31236C44.1704 1.31236 44.3276 1.46949 44.3276 1.66347V1.71874C44.3276 1.91273 44.1704 2.06986 43.9764 2.06986C43.7825 2.06986 43.6253 1.91272 43.6253 1.71874V1.66347ZM48.9648 23.8374L52.1325 20.6697C52.1357 20.6665 52.139 20.6632 52.1411 20.6599L52.1509 20.6502C52.1541 20.6469 52.1563 20.6437 52.1585 20.6404L52.1617 20.6372L52.1639 20.6339L52.1747 20.6177L52.1769 20.6144L52.1791 20.6112L52.1812 20.6079L52.1834 20.6036L52.1856 20.6003L52.1877 20.596L52.1899 20.5928L52.1921 20.5884L52.1942 20.5852L52.1964 20.5808L52.1975 20.5787L52.1986 20.5776L52.2029 20.5689L52.2051 20.5646L52.2062 20.5624L52.2083 20.557L52.2094 20.5548L52.2116 20.5494L52.2137 20.5472L52.2159 20.5418L52.217 20.5407V20.5397L52.2192 20.5332V20.5321L52.2202 20.531L52.2224 20.5245L52.2235 20.5223L52.2257 20.5158V20.5147L52.2267 20.5136L52.2289 20.5071V20.5061L52.23 20.505L52.2322 20.4985V20.4974L52.2332 20.4963L52.2343 20.4898V20.4887V20.4876L52.2354 20.4801V20.479L52.2365 20.4714V20.4703L52.2376 20.4627V20.4616V20.4605V20.4595C52.2387 20.454 52.2387 20.4486 52.2398 20.4432V20.4421V20.441L52.2408 20.4335V20.4324V20.4313V20.4237V20.415L52.2365 3.93065C52.2365 3.73666 52.0794 3.57953 51.8854 3.57953H47.9384V2.46764H51.8343C52.141 2.46764 52.4206 2.59335 52.6233 2.79601C52.826 2.99867 52.9517 3.27718 52.9517 3.58497V23.8527C52.9517 24.1594 52.826 24.439 52.6233 24.6416C52.4206 24.8443 52.1421 24.97 51.8343 24.97L36.1173 24.9678C35.8106 24.9678 35.531 24.8421 35.3284 24.6395C35.1257 24.4368 35 24.1583 35 23.8505V3.58391C35 3.27721 35.1257 2.99761 35.3284 2.79495C35.531 2.59229 35.8095 2.46658 36.1173 2.46658H40.0133V3.57847H36.1087C35.9147 3.57847 35.7576 3.73561 35.7576 3.92959V23.5914C35.7576 23.7854 35.9147 23.9425 36.1087 23.9425H48.7155C48.7653 23.9425 48.8119 23.9328 48.8553 23.9132H48.8563C48.8618 23.9111 48.8661 23.9089 48.8715 23.9057L48.8726 23.9046L48.878 23.9013L48.8813 23.9002L48.8867 23.897L48.8889 23.8959L48.8943 23.8927L48.8964 23.8916L48.9019 23.8883L48.9084 23.884L48.9127 23.8807L48.9192 23.8764L48.9235 23.8731L48.9268 23.871L48.9322 23.8666H48.9333L48.9398 23.8612C48.9495 23.8526 48.9593 23.8439 48.969 23.8341L48.9648 23.8374ZM40.0512 4.28186C40.0978 4.40324 40.1834 4.50728 40.2972 4.58748C40.437 4.6861 40.6245 4.74787 40.8249 4.74787H47.1257C47.3262 4.74787 47.5136 4.6861 47.6534 4.58748C47.7672 4.50729 47.8528 4.40217 47.8994 4.28186H51.5352V20.0682H48.7131C48.5192 20.0682 48.362 20.2254 48.362 20.4193V23.2414H36.4575L36.4596 4.28175H40.0521L40.0512 4.28186ZM41.0395 7.75613C40.9095 7.62608 40.7296 7.54481 40.5302 7.54481C40.3308 7.54481 40.1509 7.625 40.0209 7.75613C39.8908 7.88618 39.8095 8.06608 39.8095 8.26546C39.8095 8.46485 39.8897 8.64477 40.0209 8.7748C40.1509 8.90485 40.3308 8.98612 40.5302 8.98612C40.7296 8.98612 40.9095 8.90593 41.0395 8.7748C41.1696 8.64476 41.2509 8.46485 41.2509 8.26546C41.2509 8.06608 41.1707 7.88616 41.0395 7.75613ZM42.4505 11.287C42.2847 10.3767 41.4882 9.68635 40.5312 9.68635C39.5733 9.68635 38.7767 10.3767 38.612 11.287H42.4516H42.4505ZM41.5955 9.20734C41.8176 8.95701 41.9531 8.62646 41.9531 8.26452C41.9531 7.87221 41.7938 7.51676 41.537 7.25884C41.2801 7.002 40.9236 6.84269 40.5313 6.84269C40.139 6.84269 39.7835 7.002 39.5256 7.25884C39.2677 7.51568 39.1094 7.87221 39.1094 8.26452C39.1094 8.62649 39.2438 8.95593 39.4671 9.20734C38.5351 9.61592 37.8827 10.5457 37.8783 11.6295V11.6381C37.8783 11.8321 38.0355 11.9892 38.2295 11.9892H42.8343C43.0282 11.9892 43.1854 11.8321 43.1854 11.6381C43.1854 10.5511 42.5319 9.61809 41.5966 9.20736L41.5955 9.20734ZM44.5487 10.8318H49.1435C49.3375 10.8318 49.4947 10.6747 49.4947 10.4807C49.4947 10.2867 49.3375 10.1296 49.1435 10.1296H44.5487C44.3547 10.1296 44.1976 10.2867 44.1976 10.4807C44.1976 10.6747 44.3547 10.8318 44.5487 10.8318ZM44.5487 8.70234H49.1435C49.3375 8.70234 49.4947 8.5452 49.4947 8.35122C49.4947 8.15723 49.3375 8.0001 49.1435 8.0001H44.5487C44.3547 8.0001 44.1976 8.15724 44.1976 8.35122C44.1976 8.5452 44.3547 8.70234 44.5487 8.70234ZM41.0398 14.9975C40.9097 14.8675 40.7298 14.7862 40.5304 14.7862C40.3311 14.7862 40.1511 14.8664 40.0211 14.9975C39.8911 15.1276 39.8098 15.3075 39.8098 15.5069C39.8098 15.7062 39.89 15.8862 40.0211 16.0162C40.1512 16.1462 40.3311 16.2275 40.5304 16.2275C40.7298 16.2275 40.9097 16.1473 41.0398 16.0162C41.1698 15.8861 41.2511 15.7062 41.2511 15.5069C41.2511 15.3075 41.1709 15.1276 41.0398 14.9975ZM42.4508 18.5284C42.285 17.6181 41.4884 16.9277 40.5315 16.9277C39.5735 16.9277 38.777 17.6181 38.6122 18.5284H42.4519H42.4508ZM41.5957 16.4487C41.8179 16.1984 41.9534 15.8678 41.9534 15.5059C41.9534 15.1136 41.7941 14.7582 41.5372 14.5002C41.2804 14.2434 40.9238 14.0841 40.5315 14.0841C40.1392 14.0841 39.7838 14.2434 39.5258 14.5002C39.2679 14.7571 39.1097 15.1136 39.1097 15.5059C39.1097 15.8679 39.2441 16.1973 39.4673 16.4487C38.5353 16.8573 37.883 17.7871 37.8786 18.8708V18.8795C37.8786 19.0735 38.0357 19.2306 38.2297 19.2306H42.8345C43.0285 19.2306 43.1856 19.0735 43.1856 18.8795C43.1856 17.7925 42.5321 16.8595 41.5969 16.4487L41.5957 16.4487ZM44.549 18.0732H49.1438C49.3378 18.0732 49.4949 17.9161 49.4949 17.7221C49.4949 17.5281 49.3378 17.371 49.1438 17.371H44.549C44.355 17.371 44.1979 17.5281 44.1979 17.7221C44.1979 17.9161 44.355 18.0732 44.549 18.0732ZM44.549 15.9437H49.1438C49.3378 15.9437 49.4949 15.7866 49.4949 15.5926C49.4949 15.3986 49.3378 15.2415 49.1438 15.2415H44.549C44.355 15.2415 44.1979 15.3986 44.1979 15.5926C44.1979 15.7866 44.355 15.9437 44.549 15.9437Z" fill="#073B70"/>
<mask id="path-6-outside-1_701_5096" maskUnits="userSpaceOnUse" x="0" y="9" width="59" height="59" fill="black">
<rect fill="white" y="9" width="59" height="59"/>
<path fill-rule="evenodd" clip-rule="evenodd" d="M34.5075 10.4385C32.8818 10.1503 31.2084 10 29.5 10C13.7599 10 1 22.7599 1 38.5C1 54.2401 13.7599 67 29.5 67C45.2401 67 58 54.2401 58 38.5C58 32.5032 56.1479 26.939 52.9845 22.3482C52.7819 22.6343 52.566 22.9104 52.3377 23.1754C55.282 27.5544 57 32.8266 57 38.5C57 53.6878 44.6878 66 29.5 66C14.3122 66 2 53.6878 2 38.5C2 23.3122 14.3122 11 29.5 11C31.0392 11 32.5489 11.1265 34.0192 11.3695C34.1674 11.0506 34.3305 10.7399 34.5075 10.4385Z"/>
</mask>
<path fill-rule="evenodd" clip-rule="evenodd" d="M34.5075 10.4385C32.8818 10.1503 31.2084 10 29.5 10C13.7599 10 1 22.7599 1 38.5C1 54.2401 13.7599 67 29.5 67C45.2401 67 58 54.2401 58 38.5C58 32.5032 56.1479 26.939 52.9845 22.3482C52.7819 22.6343 52.566 22.9104 52.3377 23.1754C55.282 27.5544 57 32.8266 57 38.5C57 53.6878 44.6878 66 29.5 66C14.3122 66 2 53.6878 2 38.5C2 23.3122 14.3122 11 29.5 11C31.0392 11 32.5489 11.1265 34.0192 11.3695C34.1674 11.0506 34.3305 10.7399 34.5075 10.4385Z" fill="#073B70"/>
<path d="M34.5075 10.4385L35.3698 10.9448L36.0979 9.70477L34.682 9.45381L34.5075 10.4385ZM52.9845 22.3482L53.8079 21.7808L52.9955 20.6018L52.1682 21.7704L52.9845 22.3482ZM52.3377 23.1754L51.5801 22.5228L51.0824 23.1005L51.5079 23.7334L52.3377 23.1754ZM34.0192 11.3695L33.8561 12.3561L34.6058 12.4801L34.926 11.791L34.0192 11.3695ZM34.682 9.45381C32.9989 9.15551 31.2672 9 29.5 9V11C31.1497 11 32.7646 11.1451 34.3329 11.4231L34.682 9.45381ZM29.5 9C13.2076 9 0 22.2076 0 38.5H2C2 23.3122 14.3122 11 29.5 11V9ZM0 38.5C0 54.7924 13.2076 68 29.5 68V66C14.3122 66 2 53.6878 2 38.5H0ZM29.5 68C45.7924 68 59 54.7924 59 38.5H57C57 53.6878 44.6878 66 29.5 66V68ZM59 38.5C59 32.2941 57.0826 26.5331 53.8079 21.7808L52.161 22.9156C55.2131 27.3449 57 32.7123 57 38.5H59ZM52.1682 21.7704C51.9841 22.0306 51.7877 22.2817 51.5801 22.5228L53.0954 23.828C53.3443 23.539 53.5798 23.238 53.8007 22.9259L52.1682 21.7704ZM58 38.5C58 32.6217 56.2192 27.1562 53.1676 22.6174L51.5079 23.7334C54.3447 27.9526 56 33.0315 56 38.5H58ZM29.5 67C45.2401 67 58 54.2401 58 38.5H56C56 53.1355 44.1355 65 29.5 65V67ZM1 38.5C1 54.2401 13.7599 67 29.5 67V65C14.8645 65 3 53.1355 3 38.5H1ZM29.5 10C13.7599 10 1 22.7599 1 38.5H3C3 23.8645 14.8645 12 29.5 12V10ZM34.1823 10.3829C32.6583 10.131 31.0941 10 29.5 10V12C30.9843 12 32.4395 12.1219 33.8561 12.3561L34.1823 10.3829ZM34.926 11.791C35.0607 11.5012 35.2089 11.2188 35.3698 10.9448L33.6451 9.93214C33.452 10.261 33.2741 10.6 33.1123 10.9481L34.926 11.791Z" fill="#073B70" mask="url(#path-6-outside-1_701_5096)"/>
</svg>
