<svg width="84" height="83" viewBox="0 0 84 83" fill="none" xmlns="http://www.w3.org/2000/svg">
<circle cx="42" cy="42" r="40" fill="#1D4771"/>
<path d="M42.1996 23.3188C30.8709 23.3188 21.6621 32.5276 21.6621 43.8563V47.5531C21.6621 51.1306 24.2061 54.1118 27.5716 54.814C28.9363 58.5241 32.5139 61.0813 36.5684 61.0813H42.1996C43.2994 61.0813 44.1871 60.1935 44.1871 59.0938C44.1871 58.0073 43.2994 57.1063 42.1996 57.1063H36.5684C34.8061 57.1063 33.2161 56.2849 32.1693 54.9731H32.6994C33.7991 54.9731 34.6869 54.0853 34.6869 52.9856V42.1206C34.6869 41.0208 33.7991 40.1331 32.6994 40.1331H29.0821C27.9559 40.1331 26.8826 40.3981 25.9286 40.8486C27.3463 33.1503 34.0906 27.2938 42.1996 27.2938C50.3086 27.2938 57.0529 33.1503 58.4706 40.8486C57.5166 40.3981 56.4434 40.1331 55.3171 40.1331H51.6998C50.6001 40.1331 49.7123 41.0208 49.7123 42.1206V52.9856C49.7123 54.0853 50.6001 54.9731 51.6998 54.9731H55.3171C59.4114 54.9731 62.7371 51.6473 62.7371 47.5531V43.8563C62.7371 32.5276 53.5283 23.3188 42.1996 23.3188Z" fill="white"/>
<g clip-path="url(#clip0_147_12699)">
<path d="M42.0008 0C64.8672 0 83.4255 18.592 83.4255 41.5C83.4255 64.408 64.8672 83 42.0008 83C19.1344 83 0.576172 64.408 0.576172 41.5C0.576172 18.592 19.1344 0 42.0008 0Z" fill="#1D4771"/>
<path d="M56.6717 38.2337H51.7813V33.3344C51.7813 32.035 51.2662 30.7889 50.349 29.8701C49.4319 28.9513 48.188 28.4351 46.8909 28.4351H44.9609C44.6249 27.4831 44.0036 26.6585 43.1819 26.0738C42.3602 25.4891 41.3782 25.1731 40.3705 25.1689H37.1101C36.1022 25.1731 35.1203 25.4891 34.2986 26.0738C33.4769 26.6585 32.8556 27.4831 32.5197 28.4351H30.5896C29.2926 28.4351 28.0487 28.9513 27.1315 29.8701C26.2144 30.7889 25.6992 32.035 25.6992 33.3344V52.9316C25.6992 54.231 26.2144 55.4772 27.1315 56.396C28.0487 57.3147 29.2926 57.8309 30.5896 57.8309H55.3481C56.2127 57.8309 57.042 57.4868 57.6535 56.8743C58.2649 56.2618 58.6083 55.431 58.6083 54.5648V46.3372C58.9773 46.2709 59.3113 46.0777 59.5531 45.7908C59.7947 45.5039 59.9288 45.1415 59.9321 44.7662V41.4999C59.9321 40.6337 59.5885 39.8029 58.9771 39.1903C58.3657 38.5778 57.5365 38.2337 56.6717 38.2337ZM56.6717 43.133H40.3705V41.4999H56.6717V43.133ZM37.1101 28.4351H40.3705C40.8028 28.4351 41.2174 28.6071 41.5231 28.9134C41.8288 29.2197 42.0005 29.635 42.0005 30.0683V31.7013H35.48V30.0683C35.48 29.635 35.6517 29.2197 35.9575 28.9134C36.2632 28.6071 36.6778 28.4351 37.1101 28.4351ZM28.9595 52.9316V33.3344C28.9595 32.9013 29.1311 32.4859 29.4369 32.1797C29.7426 31.8734 30.1572 31.7013 30.5896 31.7013H32.2197V33.3344C32.2197 33.7675 32.3915 34.1829 32.6972 34.4892C33.0028 34.7954 33.4176 34.9676 33.8499 34.9676H43.6307C44.063 34.9676 44.4776 34.7954 44.7833 34.4892C45.0891 34.1829 45.2609 33.7675 45.2609 33.3344V31.7013H46.8909C47.3232 31.7013 47.7379 31.8734 48.0437 32.1797C48.3493 32.4859 48.5211 32.9013 48.5211 33.3344V38.2337H40.3705C39.5057 38.2337 38.6764 38.5778 38.0651 39.1903C37.4536 39.8029 37.1101 40.6337 37.1101 41.4999V44.7662C37.1133 45.1415 37.2474 45.5039 37.4891 45.7908C37.7308 46.0777 38.0649 46.2709 38.4338 46.3372V54.5648H30.5896C30.1572 54.5648 29.7426 54.3927 29.4369 54.0864C29.1311 53.7801 28.9595 53.3647 28.9595 52.9316ZM46.8909 54.5648H41.6941V46.3992H55.3481V54.5648H46.8909Z" fill="white"/>
<path d="M50.1502 48.0325H46.8898C46.4575 48.0325 46.0429 48.2046 45.7372 48.5109C45.4314 48.8172 45.2598 49.2325 45.2598 49.6656C45.2598 50.0987 45.4314 50.5142 45.7372 50.8205C46.0429 51.1266 46.4575 51.2988 46.8898 51.2988H50.1502C50.5825 51.2988 50.9971 51.1266 51.3028 50.8205C51.6086 50.5142 51.7802 50.0987 51.7802 49.6656C51.7802 49.2325 51.6086 48.8172 51.3028 48.5109C50.9971 48.2046 50.5825 48.0325 50.1502 48.0325Z" fill="white"/>
</g>
<defs>
<clipPath id="clip0_147_12699">
<rect width="84" height="83" fill="white"/>
</clipPath>
</defs>
</svg>
