<svg width="59" height="64" viewBox="0 0 59 64" fill="none" xmlns="http://www.w3.org/2000/svg">
<path d="M26.1108 35.0501H26.364C26.2938 34.9916 26.2261 34.9381 26.1651 34.8737C24.157 33.0599 22.6247 29.5346 22.6247 26.6846C22.6247 22.6524 25.9257 20 29.0473 20C32.1665 20 35.3015 22.8693 35.3015 26.8997C35.3015 29.7486 33.6067 33.1669 31.51 34.9184C31.9408 36.5618 34.3004 37.0996 39.1665 38.4341C44.5729 39.9183 44.0046 44.9963 43.6261 46.0576C43.0006 47.8104 14.9733 48.1346 14.4448 46.0576C14.3273 45.1981 13.0885 39.9183 18.4957 38.4341C23.2281 37.1351 25.5855 36.5898 26.1108 35.0501Z" fill="#073B70"/>
<path d="M26.3606 35.0501H26.1074C26.1283 34.9916 26.1442 34.9352 26.1613 34.8738C26.2219 34.9381 26.2909 34.992 26.3606 35.0501Z" fill="#073B70"/>
<path d="M18.3305 37.8102L19.2347 37.5628C20.9503 37.0945 22.3087 36.7209 23.3278 36.3499C22.5285 35.996 22.0714 35.6061 21.923 35.0412C22.6095 34.4675 23.2304 33.6494 23.7206 32.7381C22.6705 30.8779 21.9836 28.6358 21.9836 26.6853C21.9836 25.9712 22.1044 25.2479 22.3237 24.5468C21.6318 24.119 20.8563 23.8774 20.0804 23.8774C17.7442 23.8774 15.274 25.8622 15.274 28.8798C15.274 31.0124 16.4205 33.6506 17.9231 35.0082C17.9686 35.0562 18.0196 35.0964 18.0718 35.1402H17.8821C17.4894 36.2926 15.7253 36.7004 12.1837 37.6727C8.13734 38.7833 9.06452 42.7344 9.15226 43.3775C9.26592 43.8241 11.0835 44.1216 13.6219 44.2888C13.517 40.0878 16.0407 38.4382 18.3305 37.8102Z" fill="#073B70"/>
<path d="M39.6694 37.8102L38.7652 37.5628C37.0496 37.0945 35.6912 36.7209 34.6721 36.3499C35.4714 35.996 35.9285 35.6061 36.0768 35.0412C35.3903 34.4675 34.7694 33.6494 34.2793 32.7381C35.3293 30.8779 36.0162 28.6358 36.0162 26.6853C36.0162 25.9712 35.8955 25.2479 35.6761 24.5468C36.3681 24.119 37.1436 23.8774 37.9195 23.8774C40.2556 23.8774 42.7259 25.8622 42.7259 28.8798C42.7259 31.0124 41.5793 33.6506 40.0768 35.0082C40.0312 35.0562 39.9803 35.0964 39.928 35.1402H40.1177C40.5105 36.2926 42.2746 36.7004 45.8162 37.6727C49.8625 38.7833 48.9353 42.7344 48.8476 43.3775C48.7339 43.8241 46.9163 44.1216 44.378 44.2888C44.4829 40.0878 41.9587 38.4382 39.6694 37.8102Z" fill="#073B70"/>
<path d="M53.1162 19.1096C51.4464 20.7851 49.2018 21.7628 46.8378 21.8445H46.2947C45.0316 21.8241 43.7858 21.5469 42.6332 21.0297C41.4806 20.5126 40.4453 19.7662 39.5904 18.8362C37.9927 17.1002 37.1059 14.8271 37.1059 12.4679C37.1059 10.1086 37.9927 7.83555 39.5904 6.0996C40.4467 5.17235 41.4814 4.42753 42.6325 3.90977C43.7836 3.39201 45.0273 3.11197 46.2892 3.08643C47.5511 3.06089 48.8052 3.29039 49.9763 3.76115C51.1474 4.23192 52.2113 4.93427 53.1045 5.82611L53.1631 5.88081L53.5303 6.2168C53.538 6.2241 53.5441 6.23289 53.5483 6.24263C53.5525 6.25237 53.5546 6.26285 53.5546 6.27345C53.5546 6.28405 53.5525 6.29454 53.5483 6.30428C53.5441 6.31402 53.538 6.3228 53.5303 6.3301L46.4979 13.3626L42.9152 9.77991L40.7039 11.9912L45.3922 16.6795C45.5373 16.8248 45.7097 16.9401 45.8994 17.0188C46.0891 17.0974 46.2925 17.1379 46.4979 17.1379C46.7032 17.1379 46.9066 17.0974 47.0963 17.0188C47.286 16.9401 47.4584 16.8248 47.6035 16.6795L55.7338 8.56096C56.0408 8.25385 56.2822 7.88754 56.4433 7.48427C56.6043 7.08101 56.6817 6.64921 56.6708 6.2151C56.6598 5.781 56.5607 5.35366 56.3795 4.95904C56.1983 4.56441 55.9387 4.21075 55.6166 3.91953L55.2845 3.6187C54.0927 2.43851 52.6757 1.51019 51.1177 0.889009C49.5597 0.267832 47.8926 -0.0335002 46.2157 0.00295336C44.5389 0.039407 42.8865 0.412901 41.357 1.1012C39.8274 1.78949 38.452 2.77852 37.3127 4.00939C35.1824 6.325 34 9.35658 34 12.503C34 15.6495 35.1824 18.6811 37.3127 20.9967C38.4539 22.2283 39.8331 23.2154 41.367 23.8984C42.9008 24.5813 44.5573 24.9459 46.2361 24.97H46.4979C49.8136 24.97 52.9936 23.6528 55.3382 21.3082C57.6828 18.9636 59 15.7837 59 12.4679H55.8745C55.8761 13.7023 55.6332 14.9247 55.1598 16.0647C54.6864 17.2047 53.9918 18.2396 53.1162 19.1096Z" fill="#073B70"/>
<mask id="path-6-outside-1_701_5077" maskUnits="userSpaceOnUse" x="0" y="5" width="59" height="59" fill="black">
<rect fill="white" y="5" width="59" height="59"/>
<path fill-rule="evenodd" clip-rule="evenodd" d="M35.1076 6.55152C33.2946 6.18975 31.4194 6 29.5 6C13.7599 6 1 18.7599 1 34.5C1 50.2401 13.7599 63 29.5 63C45.2401 63 58 50.2401 58 34.5C58 29.8864 56.9038 25.5289 54.9576 21.6737C54.7248 21.9427 54.4808 22.2017 54.2263 22.45C56.0029 26.0888 57 30.178 57 34.5C57 49.6878 44.6878 62 29.5 62C14.3122 62 2 49.6878 2 34.5C2 19.3122 14.3122 7 29.5 7C31.2257 7 32.9142 7.15895 34.5518 7.46301C34.7244 7.15077 34.9099 6.8467 35.1076 6.55152Z"/>
</mask>
<path fill-rule="evenodd" clip-rule="evenodd" d="M35.1076 6.55152C33.2946 6.18975 31.4194 6 29.5 6C13.7599 6 1 18.7599 1 34.5C1 50.2401 13.7599 63 29.5 63C45.2401 63 58 50.2401 58 34.5C58 29.8864 56.9038 25.5289 54.9576 21.6737C54.7248 21.9427 54.4808 22.2017 54.2263 22.45C56.0029 26.0888 57 30.178 57 34.5C57 49.6878 44.6878 62 29.5 62C14.3122 62 2 49.6878 2 34.5C2 19.3122 14.3122 7 29.5 7C31.2257 7 32.9142 7.15895 34.5518 7.46301C34.7244 7.15077 34.9099 6.8467 35.1076 6.55152Z" fill="#073B70"/>
<path d="M35.1076 6.55152L35.9384 7.1081L36.772 5.86389L35.3033 5.57085L35.1076 6.55152ZM54.9576 21.6737L55.8503 21.2231L55.1777 19.8907L54.2013 21.0195L54.9576 21.6737ZM54.2263 22.45L53.5281 21.734L53.0104 22.2389L53.3277 22.8887L54.2263 22.45ZM34.5518 7.46301L34.3693 8.44621L35.0783 8.57786L35.4271 7.94667L34.5518 7.46301ZM35.3033 5.57085C33.4262 5.1963 31.4855 5 29.5 5V7C31.3534 7 33.163 7.18321 34.912 7.53218L35.3033 5.57085ZM29.5 5C13.2076 5 0 18.2076 0 34.5H2C2 19.3122 14.3122 7 29.5 7V5ZM0 34.5C0 50.7924 13.2076 64 29.5 64V62C14.3122 62 2 49.6878 2 34.5H0ZM29.5 64C45.7924 64 59 50.7924 59 34.5H57C57 49.6878 44.6878 62 29.5 62V64ZM59 34.5C59 29.7264 57.8654 25.2148 55.8503 21.2231L54.0649 22.1244C55.9421 25.843 57 30.0465 57 34.5H59ZM54.2013 21.0195C53.987 21.2671 53.7624 21.5055 53.5281 21.734L54.9244 23.1659C55.1992 22.8979 55.4626 22.6184 55.7139 22.3279L54.2013 21.0195ZM58 34.5C58 30.0226 56.9668 25.7837 55.1249 22.0112L53.3277 22.8887C55.0391 26.3939 56 30.3333 56 34.5H58ZM29.5 63C45.2401 63 58 50.2401 58 34.5H56C56 49.1355 44.1355 61 29.5 61V63ZM1 34.5C1 50.2401 13.7599 63 29.5 63V61C14.8645 61 3 49.1355 3 34.5H1ZM29.5 6C13.7599 6 1 18.7599 1 34.5H3C3 19.8645 14.8645 8 29.5 8V6ZM34.7344 6.47982C33.0369 6.16463 31.2872 6 29.5 6V8C31.1641 8 32.7916 8.15327 34.3693 8.44621L34.7344 6.47982ZM35.4271 7.94667C35.5858 7.65946 35.7565 7.37971 35.9384 7.1081L34.2768 5.99493C34.0633 6.31368 33.8629 6.64208 33.6766 6.97935L35.4271 7.94667Z" fill="#073B70" mask="url(#path-6-outside-1_701_5077)"/>
</svg>
