<svg width="80" height="80" viewBox="0 0 80 80" fill="none" xmlns="http://www.w3.org/2000/svg">
<circle cx="40" cy="40" r="40" fill="#1D4771"/>
<path d="M43.8327 26.7501H35.166M56.8327 30.0001V51.6667C56.8327 60.3334 54.666 62.5001 45.9993 62.5001H32.9993C24.3327 62.5001 22.166 60.3334 22.166 51.6667V30.0001C22.166 21.3334 24.3327 19.1667 32.9993 19.1667H45.9993C54.666 19.1667 56.8327 21.3334 56.8327 30.0001Z" stroke="white" stroke-width="1.5" stroke-linecap="round" stroke-linejoin="round"/>
<path d="M39.5009 56.2167C40.3916 56.2167 41.2458 55.8628 41.8756 55.233C42.5054 54.6032 42.8592 53.749 42.8592 52.8583C42.8592 51.9676 42.5054 51.1134 41.8756 50.4836C41.2458 49.8538 40.3916 49.5 39.5009 49.5C38.6102 49.5 37.756 49.8538 37.1262 50.4836C36.4964 51.1134 36.1426 51.9676 36.1426 52.8583C36.1426 53.749 36.4964 54.6032 37.1262 55.233C37.756 55.8628 38.6102 56.2167 39.5009 56.2167Z" stroke="white" stroke-width="1.5" stroke-linecap="round" stroke-linejoin="round"/>
</svg>
