<svg width="20" height="19" viewBox="0 0 20 19" fill="none" xmlns="http://www.w3.org/2000/svg">
<path d="M9.06839 0.817135C9.40375 0.0205896 10.5459 0.0205906 10.8813 0.817137L12.8606 5.51849C13.0021 5.8543 13.3217 6.08374 13.6887 6.1128L18.8262 6.5197C19.6967 6.58865 20.0496 7.66181 19.3864 8.22304L15.4722 11.5355C15.1926 11.7721 15.0705 12.1434 15.1559 12.4971L16.3518 17.45C16.5544 18.2891 15.6303 18.9524 14.8851 18.5028L10.4866 15.8486C10.1724 15.659 9.77729 15.659 9.46312 15.8486L5.06459 18.5028C4.31935 18.9524 3.39529 18.2891 3.5979 17.45L4.7938 12.4971C4.87922 12.1434 4.75711 11.7721 4.47754 11.5355L0.563201 8.22304C-0.099999 7.66181 0.252963 6.58865 1.12342 6.5197L6.26105 6.1128C6.62802 6.08374 6.94768 5.8543 7.08906 5.51849L9.06839 0.817135Z" fill="#FBAF5B"/>
</svg>
