<svg width="80" height="80" viewBox="0 0 80 80" fill="none" xmlns="http://www.w3.org/2000/svg">
<circle cx="40" cy="40" r="40" fill="#1D4771"/>
<path d="M37.2964 50.53V54.9284C37.2964 58.655 33.8297 61.6667 29.5614 61.6667C25.293 61.6667 21.8047 58.655 21.8047 54.9284V50.53C21.8047 54.2567 25.2714 56.9 29.5614 56.9C33.8297 56.9 37.2964 54.235 37.2964 50.53Z" stroke="white" stroke-width="1.5" stroke-linecap="round" stroke-linejoin="round"/>
<path d="M37.2926 44.5716C37.2926 45.655 36.9893 46.6516 36.4693 47.5183C35.191 49.62 32.5693 50.9416 29.536 50.9416C26.5026 50.9416 23.881 49.5983 22.6026 47.5183C22.0826 46.6516 21.7793 45.655 21.7793 44.5716C21.7793 42.7083 22.646 41.04 24.0326 39.8266C25.441 38.5916 27.3693 37.855 29.5143 37.855C31.6593 37.855 33.5876 38.6133 34.996 39.8266C36.426 41.0183 37.2926 42.7083 37.2926 44.5716Z" stroke="white" stroke-width="1.5" stroke-linecap="round" stroke-linejoin="round"/>
<path d="M37.2964 44.5717V50.53C37.2964 54.2567 33.8297 56.9 29.5614 56.9C25.293 56.9 21.8047 54.235 21.8047 50.53V44.5717C21.8047 40.845 25.2714 37.8334 29.5614 37.8334C31.7064 37.8334 33.6347 38.5917 35.043 39.805C36.4297 41.0183 37.2964 42.7083 37.2964 44.5717ZM61.667 37.7684V42.2317C61.667 43.4233 60.7137 44.3984 59.5004 44.4417H55.2537C52.9137 44.4417 50.7687 42.73 50.5737 40.39C50.4437 39.025 50.9637 37.7467 51.8737 36.8584C52.6754 36.035 53.7804 35.5583 54.9937 35.5583H59.5004C60.7137 35.6017 61.667 36.5767 61.667 37.7684Z" stroke="white" stroke-width="1.5" stroke-linecap="round" stroke-linejoin="round"/>
<path d="M18.334 36.7499V32.4166C18.334 26.5233 21.8873 22.4066 27.4123 21.7133C27.9757 21.6266 28.5607 21.5833 29.1673 21.5833H48.6673C49.2306 21.5833 49.7723 21.6049 50.2923 21.6916C55.8823 22.3416 59.5006 26.4799 59.5006 32.4166V35.5583H54.994C53.7806 35.5583 52.6756 36.0349 51.874 36.8583C50.964 37.7466 50.444 39.0249 50.574 40.3899C50.769 42.7299 52.914 44.4416 55.254 44.4416H59.5006V47.5833C59.5006 54.0832 55.1673 58.4166 48.6673 58.4166H43.2506" stroke="white" stroke-width="1.5" stroke-linecap="round" stroke-linejoin="round"/>
</svg>
