<svg width="80" height="80" viewBox="0 0 80 80" fill="none" xmlns="http://www.w3.org/2000/svg">
<circle cx="40" cy="40" r="40" fill="#1D4771"/>
<g clip-path="url(#clip0_114_859)">
<path d="M22.7695 38.505V47.1108C22.7695 55.7167 26.2195 59.1667 34.8254 59.1667H45.1562C53.762 59.1667 57.212 55.7167 57.212 47.1108V38.505" stroke="#E0E0E0" stroke-width="1.5" stroke-linecap="round" stroke-linejoin="round"/>
<path d="M39.9996 40C43.5071 40 46.0946 37.1442 45.7496 33.6367L44.4846 20.8334H35.5338L34.2496 33.6367C33.9046 37.1442 36.4921 40 39.9996 40Z" stroke="#E0E0E0" stroke-width="1.5" stroke-linecap="round" stroke-linejoin="round"/>
<path d="M52.095 40C55.9667 40 58.8034 36.8567 58.42 33.0042L57.8834 27.7334C57.1934 22.75 55.2767 20.8334 50.255 20.8334H44.4092L45.7509 34.2692C46.0767 37.4317 48.9325 40 52.095 40ZM27.8109 40C30.9734 40 33.8292 37.4317 34.1359 34.2692L34.5575 30.0334L35.4775 20.8334H29.6317C24.61 20.8334 22.6934 22.75 22.0034 27.7334L21.4859 33.0042C21.1025 36.8567 23.9392 40 27.8109 40ZM40.0009 49.5834C36.8 49.5834 35.2092 51.1742 35.2092 54.375V59.1667H44.7925V54.375C44.7925 51.1742 43.2017 49.5834 40.0009 49.5834Z" stroke="#E0E0E0" stroke-width="1.5" stroke-linecap="round" stroke-linejoin="round"/>
</g>
<defs>
<clipPath id="clip0_114_859">
<rect width="42.4" height="42.4" fill="white" transform="translate(19 19)"/>
</clipPath>
</defs>
</svg>
