<svg width="16" height="15" viewBox="0 0 16 15" fill="none" xmlns="http://www.w3.org/2000/svg">
<path d="M3.62342 3C3.07645 3 2.55187 3.2173 2.1651 3.60409C1.77832 3.99089 1.56104 4.51549 1.56104 5.0625V6H13.5604V5.0625C13.5604 4.51549 13.3431 3.99089 12.9563 3.60409C12.5696 3.2173 12.045 3 11.498 3H3.62342ZM13.5604 6.75H1.56104V9.9375C1.56104 10.4845 1.77832 11.0091 2.1651 11.3959C2.55187 11.7827 3.07645 12 3.62342 12H11.498C12.045 12 12.5696 11.7827 12.9563 11.3959C13.3431 11.0091 13.5604 10.4845 13.5604 9.9375V6.75ZM10.1856 9.75H11.6855C11.7849 9.75 11.8803 9.78951 11.9506 9.85983C12.021 9.93016 12.0605 10.0255 12.0605 10.125C12.0605 10.2245 12.021 10.3198 11.9506 10.3902C11.8803 10.4605 11.7849 10.5 11.6855 10.5H10.1856C10.0861 10.5 9.99075 10.4605 9.92042 10.3902C9.8501 10.3198 9.81059 10.2245 9.81059 10.125C9.81059 10.0255 9.8501 9.93016 9.92042 9.85983C9.99075 9.78951 10.0861 9.75 10.1856 9.75Z" fill="white"/>
</svg>
