<svg width="24" height="25" viewBox="0 0 24 25" fill="none" xmlns="http://www.w3.org/2000/svg">
<path d="M16.34 2.27783C19.73 2.27783 22 4.65783 22 8.19783V16.3688C22 19.8978 19.73 22.2778 16.34 22.2778H7.67C4.28 22.2778 2 19.8978 2 16.3688V8.19783C2 4.65783 4.28 2.27783 7.67 2.27783H16.34ZM16.18 9.27783C15.84 8.93783 15.28 8.93783 14.94 9.27783L10.81 13.4078L9.06 11.6578C8.72 11.3178 8.16 11.3178 7.82 11.6578C7.48 11.9978 7.48 12.5478 7.82 12.8978L10.2 15.2678C10.37 15.4378 10.59 15.5178 10.81 15.5178C11.04 15.5178 11.26 15.4378 11.43 15.2678L16.18 10.5178C16.52 10.1778 16.52 9.62783 16.18 9.27783Z" fill="#A0A9B0"/>
</svg>
