<svg width="59" height="59" viewBox="0 0 59 59" fill="none" xmlns="http://www.w3.org/2000/svg">
<path d="M26.1108 30.0501H26.364C26.2938 29.9916 26.2261 29.9381 26.1651 29.8737C24.157 28.0599 22.6247 24.5346 22.6247 21.6846C22.6247 17.6524 25.9257 15 29.0473 15C32.1665 15 35.3015 17.8693 35.3015 21.8997C35.3015 24.7486 33.6067 28.1669 31.51 29.9184C31.9408 31.5618 34.3004 32.0996 39.1665 33.4341C44.5729 34.9183 44.0046 39.9963 43.6261 41.0576C43.0006 42.8104 14.9733 43.1346 14.4448 41.0576C14.3273 40.1981 13.0885 34.9183 18.4957 33.4341C23.2281 32.1351 25.5855 31.5898 26.1108 30.0501Z" fill="#073B70"/>
<path d="M26.3606 30.0501H26.1074C26.1283 29.9916 26.1442 29.9352 26.1613 29.8738C26.2219 29.9381 26.2909 29.992 26.3606 30.0501Z" fill="#073B70"/>
<path d="M18.3305 32.8102L19.2347 32.5628C20.9503 32.0945 22.3087 31.7209 23.3278 31.3499C22.5285 30.996 22.0714 30.6061 21.923 30.0412C22.6095 29.4675 23.2304 28.6494 23.7206 27.7381C22.6705 25.8779 21.9836 23.6358 21.9836 21.6853C21.9836 20.9712 22.1044 20.2479 22.3237 19.5468C21.6318 19.119 20.8563 18.8774 20.0804 18.8774C17.7442 18.8774 15.274 20.8622 15.274 23.8798C15.274 26.0124 16.4205 28.6506 17.9231 30.0082C17.9686 30.0562 18.0196 30.0964 18.0718 30.1402H17.8821C17.4894 31.2926 15.7253 31.7004 12.1837 32.6727C8.13734 33.7833 9.06452 37.7344 9.15226 38.3775C9.26592 38.8241 11.0835 39.1216 13.6219 39.2888C13.517 35.0878 16.0407 33.4382 18.3305 32.8102Z" fill="#073B70"/>
<path d="M39.6694 32.8102L38.7652 32.5628C37.0496 32.0945 35.6912 31.7209 34.6721 31.3499C35.4714 30.996 35.9285 30.6061 36.0768 30.0412C35.3903 29.4675 34.7694 28.6494 34.2793 27.7381C35.3293 25.8779 36.0162 23.6358 36.0162 21.6853C36.0162 20.9712 35.8955 20.2479 35.6761 19.5468C36.3681 19.119 37.1436 18.8774 37.9195 18.8774C40.2556 18.8774 42.7259 20.8622 42.7259 23.8798C42.7259 26.0124 41.5793 28.6506 40.0768 30.0082C40.0312 30.0562 39.9803 30.0964 39.928 30.1402H40.1177C40.5105 31.2926 42.2746 31.7004 45.8162 32.6727C49.8625 33.7833 48.9353 37.7344 48.8476 38.3775C48.7339 38.8241 46.9163 39.1216 44.378 39.2888C44.4829 35.0878 41.9587 33.4382 39.6694 32.8102Z" fill="#073B70"/>
<mask id="path-5-outside-1_701_5060" maskUnits="userSpaceOnUse" x="0" y="0" width="59" height="59" fill="black">
<rect fill="white" width="59" height="59"/>
<path fill-rule="evenodd" clip-rule="evenodd" d="M29.5 57C44.6878 57 57 44.6878 57 29.5C57 14.3122 44.6878 2 29.5 2C14.3122 2 2 14.3122 2 29.5C2 44.6878 14.3122 57 29.5 57ZM29.5 58C45.2401 58 58 45.2401 58 29.5C58 13.7599 45.2401 1 29.5 1C13.7599 1 1 13.7599 1 29.5C1 45.2401 13.7599 58 29.5 58Z"/>
</mask>
<path fill-rule="evenodd" clip-rule="evenodd" d="M29.5 57C44.6878 57 57 44.6878 57 29.5C57 14.3122 44.6878 2 29.5 2C14.3122 2 2 14.3122 2 29.5C2 44.6878 14.3122 57 29.5 57ZM29.5 58C45.2401 58 58 45.2401 58 29.5C58 13.7599 45.2401 1 29.5 1C13.7599 1 1 13.7599 1 29.5C1 45.2401 13.7599 58 29.5 58Z" fill="#073B70"/>
<path d="M56 29.5C56 44.1355 44.1355 56 29.5 56V58C45.2401 58 58 45.2401 58 29.5H56ZM29.5 3C44.1355 3 56 14.8645 56 29.5H58C58 13.7599 45.2401 1 29.5 1V3ZM3 29.5C3 14.8645 14.8645 3 29.5 3V1C13.7599 1 1 13.7599 1 29.5H3ZM29.5 56C14.8645 56 3 44.1355 3 29.5H1C1 45.2401 13.7599 58 29.5 58V56ZM57 29.5C57 44.6878 44.6878 57 29.5 57V59C45.7924 59 59 45.7924 59 29.5H57ZM29.5 2C44.6878 2 57 14.3122 57 29.5H59C59 13.2076 45.7924 0 29.5 0V2ZM2 29.5C2 14.3122 14.3122 2 29.5 2V0C13.2076 0 0 13.2076 0 29.5H2ZM29.5 57C14.3122 57 2 44.6878 2 29.5H0C0 45.7924 13.2076 59 29.5 59V57Z" fill="#073B70" mask="url(#path-5-outside-1_701_5060)"/>
</svg>
