<svg width="80" height="80" viewBox="0 0 80 80" fill="none" xmlns="http://www.w3.org/2000/svg">
<circle cx="40" cy="40" r="40" fill="#1D4771"/>
<g clip-path="url(#clip0_114_875)">
<path d="M26.541 32.6666C23.1243 32.6666 21.416 34.3749 21.416 37.7916V51.4583C21.416 54.8749 23.1243 56.5833 26.541 56.5833H40.2077C36.791 56.5833 35.0827 54.8749 35.0827 51.4583V32.6666M26.541 32.6666H35.0827M26.541 32.6666V29.2499C26.541 27.3708 28.0785 25.8333 29.9577 25.8333H35.2706C35.1339 26.3458 35.0827 26.9095 35.0827 27.5416V32.6666M41.916 32.6666V41.2083M48.7493 32.6666V41.2083M28.2493 41.2083V48.0416M47.041 48.0416H43.6243C42.6848 48.0416 41.916 48.8103 41.916 49.7499V56.5833H48.7493V49.7499C48.7493 48.8103 47.9806 48.0416 47.041 48.0416Z" stroke="white" stroke-width="1.5" stroke-miterlimit="10" stroke-linecap="round" stroke-linejoin="round"/>
<path d="M35.084 51.4582V27.5415C35.084 24.1248 36.7923 22.4165 40.209 22.4165H50.459C53.8757 22.4165 55.584 24.1248 55.584 27.5415V51.4582C55.584 54.8748 53.8757 56.5832 50.459 56.5832H40.209C36.7923 56.5832 35.084 54.8748 35.084 51.4582Z" stroke="white" stroke-width="1.5" stroke-miterlimit="10" stroke-linecap="round" stroke-linejoin="round"/>
</g>
<defs>
<clipPath id="clip0_114_875">
<rect width="42.4" height="42.4" fill="white" transform="translate(19 19)"/>
</clipPath>
</defs>
</svg>
